%TF.GenerationSoftware,KiCad,Pcbnew,(6.0.2)*%
%TF.CreationDate,2022-03-15T19:18:54-04:00*%
%TF.ProjectId,Pi1541_Control_Pannel,50693135-3431-45f4-936f-6e74726f6c5f,1.0*%
%TF.SameCoordinates,Original*%
%TF.FileFunction,Copper,L1,Top*%
%TF.FilePolarity,Positive*%
%FSLAX46Y46*%
G04 Gerber Fmt 4.6, Leading zero omitted, Abs format (unit mm)*
G04 Created by KiCad (PCBNEW (6.0.2)) date 2022-03-15 19:18:54*
%MOMM*%
%LPD*%
G01*
G04 APERTURE LIST*
%TA.AperFunction,ComponentPad*%
%ADD10R,1.700000X1.700000*%
%TD*%
%TA.AperFunction,ComponentPad*%
%ADD11O,1.700000X1.700000*%
%TD*%
%TA.AperFunction,ComponentPad*%
%ADD12C,2.000000*%
%TD*%
%TA.AperFunction,ComponentPad*%
%ADD13R,2.000000X2.000000*%
%TD*%
%TA.AperFunction,ComponentPad*%
%ADD14R,1.800000X1.800000*%
%TD*%
%TA.AperFunction,ComponentPad*%
%ADD15C,1.800000*%
%TD*%
G04 APERTURE END LIST*
D10*
X129435000Y-76190000D03*
D11*
X129435000Y-78730000D03*
X129435000Y-81270000D03*
X129435000Y-83810000D03*
D12*
X166250000Y-74650000D03*
X172750000Y-74650000D03*
X172750000Y-70150000D03*
X166250000Y-70150000D03*
D13*
X158200000Y-94950000D03*
D12*
X158200000Y-102550000D03*
X166250000Y-82250000D03*
X172750000Y-82250000D03*
X166250000Y-77750000D03*
X172750000Y-77750000D03*
D14*
X160275000Y-65500000D03*
D15*
X157735000Y-65500000D03*
D12*
X172750000Y-67050000D03*
X166250000Y-67050000D03*
X166250000Y-62550000D03*
X172750000Y-62550000D03*
D14*
X160275000Y-58500000D03*
D15*
X157735000Y-58500000D03*
D12*
X166250000Y-89850000D03*
X172750000Y-89850000D03*
X172750000Y-85350000D03*
X166250000Y-85350000D03*
X172750000Y-97450000D03*
X166250000Y-97450000D03*
X166250000Y-92950000D03*
X172750000Y-92950000D03*
D10*
X160000000Y-76190000D03*
D11*
X157460000Y-76190000D03*
X160000000Y-78730000D03*
X157460000Y-78730000D03*
X160000000Y-81270000D03*
X157460000Y-81270000D03*
X160000000Y-83810000D03*
X157460000Y-83810000D03*
D10*
X133000000Y-76190000D03*
D11*
X133000000Y-78730000D03*
X133000000Y-81270000D03*
X133000000Y-83810000D03*
%TA.AperFunction,Conductor*%
G36*
X173981021Y-55255201D02*
G01*
X174000000Y-55258976D01*
X174011734Y-55256642D01*
X174027420Y-55255540D01*
X174303958Y-55271070D01*
X174310910Y-55271853D01*
X174463033Y-55297700D01*
X174607585Y-55322261D01*
X174614418Y-55323821D01*
X174753348Y-55363846D01*
X174903577Y-55407126D01*
X174910184Y-55409438D01*
X175148785Y-55508270D01*
X175188205Y-55524598D01*
X175194513Y-55527636D01*
X175457885Y-55673196D01*
X175463815Y-55676922D01*
X175709239Y-55851059D01*
X175714719Y-55855429D01*
X175939098Y-56055946D01*
X175944054Y-56060902D01*
X176144571Y-56285281D01*
X176148941Y-56290761D01*
X176323078Y-56536185D01*
X176326804Y-56542115D01*
X176412204Y-56696634D01*
X176472361Y-56805480D01*
X176475402Y-56811795D01*
X176575720Y-57053983D01*
X176590560Y-57089811D01*
X176592875Y-57096427D01*
X176676179Y-57385582D01*
X176677739Y-57392415D01*
X176728146Y-57689083D01*
X176728930Y-57696042D01*
X176739929Y-57891890D01*
X176744460Y-57972577D01*
X176743358Y-57988266D01*
X176741024Y-58000000D01*
X176742225Y-58006038D01*
X176744799Y-58018979D01*
X176746000Y-58031172D01*
X176746000Y-101968828D01*
X176744799Y-101981021D01*
X176741024Y-102000000D01*
X176743358Y-102011734D01*
X176744460Y-102027420D01*
X176728931Y-102303952D01*
X176728147Y-102310910D01*
X176718915Y-102365246D01*
X176677739Y-102607585D01*
X176676179Y-102614418D01*
X176592875Y-102903573D01*
X176590562Y-102910184D01*
X176574946Y-102947885D01*
X176475402Y-103188205D01*
X176472364Y-103194513D01*
X176339461Y-103434983D01*
X176326806Y-103457881D01*
X176323078Y-103463815D01*
X176148941Y-103709239D01*
X176144571Y-103714719D01*
X175944054Y-103939098D01*
X175939098Y-103944054D01*
X175714719Y-104144571D01*
X175709239Y-104148941D01*
X175463815Y-104323078D01*
X175457885Y-104326804D01*
X175194513Y-104472364D01*
X175188204Y-104475402D01*
X174910184Y-104590562D01*
X174903577Y-104592874D01*
X174789914Y-104625620D01*
X174614418Y-104676179D01*
X174607585Y-104677739D01*
X174463033Y-104702300D01*
X174310910Y-104728147D01*
X174303958Y-104728930D01*
X174027420Y-104744460D01*
X174011734Y-104743358D01*
X174000000Y-104741024D01*
X173993962Y-104742225D01*
X173981021Y-104744799D01*
X173968828Y-104746000D01*
X130031172Y-104746000D01*
X130018979Y-104744799D01*
X130006038Y-104742225D01*
X130000000Y-104741024D01*
X129988266Y-104743358D01*
X129972580Y-104744460D01*
X129696042Y-104728930D01*
X129689090Y-104728147D01*
X129536967Y-104702300D01*
X129392415Y-104677739D01*
X129385582Y-104676179D01*
X129210086Y-104625620D01*
X129096423Y-104592874D01*
X129089816Y-104590562D01*
X128811796Y-104475402D01*
X128805487Y-104472364D01*
X128542115Y-104326804D01*
X128536185Y-104323078D01*
X128290761Y-104148941D01*
X128285281Y-104144571D01*
X128060902Y-103944054D01*
X128055946Y-103939098D01*
X127855429Y-103714719D01*
X127851059Y-103709239D01*
X127676922Y-103463815D01*
X127673194Y-103457881D01*
X127660539Y-103434983D01*
X127527636Y-103194513D01*
X127524598Y-103188205D01*
X127425054Y-102947885D01*
X127409438Y-102910184D01*
X127407125Y-102903573D01*
X127323821Y-102614418D01*
X127322261Y-102607585D01*
X127281085Y-102365246D01*
X127271853Y-102310910D01*
X127271069Y-102303952D01*
X127255540Y-102027420D01*
X127256642Y-102011734D01*
X127258976Y-102000000D01*
X128390539Y-102000000D01*
X128410354Y-102251775D01*
X128469312Y-102497351D01*
X128470254Y-102499625D01*
X128565017Y-102728405D01*
X128565021Y-102728412D01*
X128565960Y-102730680D01*
X128567245Y-102732776D01*
X128567246Y-102732779D01*
X128570688Y-102738395D01*
X128697919Y-102946017D01*
X128861939Y-103138061D01*
X129053983Y-103302081D01*
X129269320Y-103434040D01*
X129271588Y-103434979D01*
X129271595Y-103434983D01*
X129466148Y-103515569D01*
X129502649Y-103530688D01*
X129748225Y-103589646D01*
X129804882Y-103594105D01*
X129935725Y-103604403D01*
X129935738Y-103604404D01*
X129936964Y-103604500D01*
X130063036Y-103604500D01*
X130064262Y-103604404D01*
X130064275Y-103604403D01*
X130195118Y-103594105D01*
X130251775Y-103589646D01*
X130497351Y-103530688D01*
X130512631Y-103524359D01*
X157410395Y-103524359D01*
X157412499Y-103529438D01*
X157568368Y-103638577D01*
X157573079Y-103641298D01*
X157766996Y-103731723D01*
X157772105Y-103733583D01*
X157978777Y-103788960D01*
X157984131Y-103789904D01*
X158197280Y-103808552D01*
X158202720Y-103808552D01*
X158415869Y-103789904D01*
X158421223Y-103788960D01*
X158627895Y-103733583D01*
X158633004Y-103731723D01*
X158826921Y-103641298D01*
X158831632Y-103638577D01*
X158984570Y-103531490D01*
X158989682Y-103523465D01*
X158988492Y-103518097D01*
X158208790Y-102738395D01*
X158200000Y-102734754D01*
X158191210Y-102738395D01*
X157414036Y-103515569D01*
X157410395Y-103524359D01*
X130512631Y-103524359D01*
X130533852Y-103515569D01*
X130728405Y-103434983D01*
X130728412Y-103434979D01*
X130730680Y-103434040D01*
X130946017Y-103302081D01*
X131138061Y-103138061D01*
X131302081Y-102946017D01*
X131429312Y-102738395D01*
X131432754Y-102732779D01*
X131432755Y-102732776D01*
X131434040Y-102730680D01*
X131434979Y-102728412D01*
X131434983Y-102728405D01*
X131507754Y-102552720D01*
X156941448Y-102552720D01*
X156960096Y-102765869D01*
X156961040Y-102771223D01*
X157016417Y-102977895D01*
X157018277Y-102983004D01*
X157108702Y-103176921D01*
X157111423Y-103181632D01*
X157218510Y-103334570D01*
X157226535Y-103339682D01*
X157231903Y-103338492D01*
X158011605Y-102558790D01*
X158015246Y-102550000D01*
X158384754Y-102550000D01*
X158388395Y-102558790D01*
X159165569Y-103335964D01*
X159174359Y-103339605D01*
X159179438Y-103337501D01*
X159288577Y-103181632D01*
X159291298Y-103176921D01*
X159381723Y-102983004D01*
X159383583Y-102977895D01*
X159438960Y-102771223D01*
X159439904Y-102765869D01*
X159458552Y-102552720D01*
X159458552Y-102547280D01*
X159439904Y-102334131D01*
X159438960Y-102328777D01*
X159383583Y-102122105D01*
X159381723Y-102116996D01*
X159327167Y-102000000D01*
X172390539Y-102000000D01*
X172410354Y-102251775D01*
X172469312Y-102497351D01*
X172470254Y-102499625D01*
X172565017Y-102728405D01*
X172565021Y-102728412D01*
X172565960Y-102730680D01*
X172567245Y-102732776D01*
X172567246Y-102732779D01*
X172570688Y-102738395D01*
X172697919Y-102946017D01*
X172861939Y-103138061D01*
X173053983Y-103302081D01*
X173269320Y-103434040D01*
X173271588Y-103434979D01*
X173271595Y-103434983D01*
X173466148Y-103515569D01*
X173502649Y-103530688D01*
X173748225Y-103589646D01*
X173804882Y-103594105D01*
X173935725Y-103604403D01*
X173935738Y-103604404D01*
X173936964Y-103604500D01*
X174063036Y-103604500D01*
X174064262Y-103604404D01*
X174064275Y-103604403D01*
X174195118Y-103594105D01*
X174251775Y-103589646D01*
X174497351Y-103530688D01*
X174533852Y-103515569D01*
X174728405Y-103434983D01*
X174728412Y-103434979D01*
X174730680Y-103434040D01*
X174946017Y-103302081D01*
X175138061Y-103138061D01*
X175302081Y-102946017D01*
X175429312Y-102738395D01*
X175432754Y-102732779D01*
X175432755Y-102732776D01*
X175434040Y-102730680D01*
X175434979Y-102728412D01*
X175434983Y-102728405D01*
X175529746Y-102499625D01*
X175530688Y-102497351D01*
X175589646Y-102251775D01*
X175609461Y-102000000D01*
X175589646Y-101748225D01*
X175530688Y-101502649D01*
X175512485Y-101458702D01*
X175434983Y-101271595D01*
X175434979Y-101271588D01*
X175434040Y-101269320D01*
X175302081Y-101053983D01*
X175138061Y-100861939D01*
X174946017Y-100697919D01*
X174730680Y-100565960D01*
X174728412Y-100565021D01*
X174728405Y-100565017D01*
X174499625Y-100470254D01*
X174499626Y-100470254D01*
X174497351Y-100469312D01*
X174251775Y-100410354D01*
X174195118Y-100405895D01*
X174064275Y-100395597D01*
X174064262Y-100395596D01*
X174063036Y-100395500D01*
X173936964Y-100395500D01*
X173935738Y-100395596D01*
X173935725Y-100395597D01*
X173804882Y-100405895D01*
X173748225Y-100410354D01*
X173502649Y-100469312D01*
X173500374Y-100470254D01*
X173500375Y-100470254D01*
X173271595Y-100565017D01*
X173271588Y-100565021D01*
X173269320Y-100565960D01*
X173053983Y-100697919D01*
X172861939Y-100861939D01*
X172697919Y-101053983D01*
X172565960Y-101269320D01*
X172565021Y-101271588D01*
X172565017Y-101271595D01*
X172487515Y-101458702D01*
X172469312Y-101502649D01*
X172410354Y-101748225D01*
X172390539Y-102000000D01*
X159327167Y-102000000D01*
X159291298Y-101923079D01*
X159288577Y-101918368D01*
X159181490Y-101765430D01*
X159173465Y-101760318D01*
X159168097Y-101761508D01*
X158388395Y-102541210D01*
X158384754Y-102550000D01*
X158015246Y-102550000D01*
X158011605Y-102541210D01*
X157234431Y-101764036D01*
X157225641Y-101760395D01*
X157220562Y-101762499D01*
X157111423Y-101918368D01*
X157108702Y-101923079D01*
X157018277Y-102116996D01*
X157016417Y-102122105D01*
X156961040Y-102328777D01*
X156960096Y-102334131D01*
X156941448Y-102547280D01*
X156941448Y-102552720D01*
X131507754Y-102552720D01*
X131529746Y-102499625D01*
X131530688Y-102497351D01*
X131589646Y-102251775D01*
X131609461Y-102000000D01*
X131589646Y-101748225D01*
X131548427Y-101576535D01*
X157410318Y-101576535D01*
X157411508Y-101581903D01*
X158191210Y-102361605D01*
X158200000Y-102365246D01*
X158208790Y-102361605D01*
X158985964Y-101584431D01*
X158989605Y-101575641D01*
X158987501Y-101570562D01*
X158831632Y-101461423D01*
X158826921Y-101458702D01*
X158633004Y-101368277D01*
X158627895Y-101366417D01*
X158421223Y-101311040D01*
X158415869Y-101310096D01*
X158202720Y-101291448D01*
X158197280Y-101291448D01*
X157984131Y-101310096D01*
X157978777Y-101311040D01*
X157772105Y-101366417D01*
X157766996Y-101368277D01*
X157573079Y-101458702D01*
X157568368Y-101461423D01*
X157415430Y-101568510D01*
X157410318Y-101576535D01*
X131548427Y-101576535D01*
X131530688Y-101502649D01*
X131512485Y-101458702D01*
X131434983Y-101271595D01*
X131434979Y-101271588D01*
X131434040Y-101269320D01*
X131302081Y-101053983D01*
X131138061Y-100861939D01*
X130946017Y-100697919D01*
X130730680Y-100565960D01*
X130728412Y-100565021D01*
X130728405Y-100565017D01*
X130499625Y-100470254D01*
X130499626Y-100470254D01*
X130497351Y-100469312D01*
X130251775Y-100410354D01*
X130195118Y-100405895D01*
X130064275Y-100395597D01*
X130064262Y-100395596D01*
X130063036Y-100395500D01*
X129936964Y-100395500D01*
X129935738Y-100395596D01*
X129935725Y-100395597D01*
X129804882Y-100405895D01*
X129748225Y-100410354D01*
X129502649Y-100469312D01*
X129500374Y-100470254D01*
X129500375Y-100470254D01*
X129271595Y-100565017D01*
X129271588Y-100565021D01*
X129269320Y-100565960D01*
X129053983Y-100697919D01*
X128861939Y-100861939D01*
X128697919Y-101053983D01*
X128565960Y-101269320D01*
X128565021Y-101271588D01*
X128565017Y-101271595D01*
X128487515Y-101458702D01*
X128469312Y-101502649D01*
X128410354Y-101748225D01*
X128390539Y-102000000D01*
X127258976Y-102000000D01*
X127255201Y-101981021D01*
X127254000Y-101968828D01*
X127254000Y-97450000D01*
X164990708Y-97450000D01*
X165009839Y-97668674D01*
X165066653Y-97880703D01*
X165159421Y-98079646D01*
X165160983Y-98081877D01*
X165160986Y-98081882D01*
X165272925Y-98241746D01*
X165285326Y-98259457D01*
X165440543Y-98414674D01*
X165442781Y-98416241D01*
X165618118Y-98539014D01*
X165618123Y-98539017D01*
X165620354Y-98540579D01*
X165819297Y-98633347D01*
X165821938Y-98634055D01*
X165821939Y-98634055D01*
X166028690Y-98689455D01*
X166028694Y-98689456D01*
X166031326Y-98690161D01*
X166034042Y-98690399D01*
X166034044Y-98690399D01*
X166247280Y-98709054D01*
X166250000Y-98709292D01*
X166252720Y-98709054D01*
X166465956Y-98690399D01*
X166465958Y-98690399D01*
X166468674Y-98690161D01*
X166471306Y-98689456D01*
X166471310Y-98689455D01*
X166678061Y-98634055D01*
X166678062Y-98634055D01*
X166680703Y-98633347D01*
X166879646Y-98540579D01*
X166881877Y-98539017D01*
X166881882Y-98539014D01*
X167057219Y-98416241D01*
X167059457Y-98414674D01*
X167214674Y-98259457D01*
X167227075Y-98241746D01*
X167339014Y-98081882D01*
X167339017Y-98081877D01*
X167340579Y-98079646D01*
X167433347Y-97880703D01*
X167490161Y-97668674D01*
X167509292Y-97450000D01*
X171490708Y-97450000D01*
X171509839Y-97668674D01*
X171566653Y-97880703D01*
X171659421Y-98079646D01*
X171660983Y-98081877D01*
X171660986Y-98081882D01*
X171772925Y-98241746D01*
X171785326Y-98259457D01*
X171940543Y-98414674D01*
X171942781Y-98416241D01*
X172118118Y-98539014D01*
X172118123Y-98539017D01*
X172120354Y-98540579D01*
X172319297Y-98633347D01*
X172321938Y-98634055D01*
X172321939Y-98634055D01*
X172528690Y-98689455D01*
X172528694Y-98689456D01*
X172531326Y-98690161D01*
X172534042Y-98690399D01*
X172534044Y-98690399D01*
X172747280Y-98709054D01*
X172750000Y-98709292D01*
X172752720Y-98709054D01*
X172965956Y-98690399D01*
X172965958Y-98690399D01*
X172968674Y-98690161D01*
X172971306Y-98689456D01*
X172971310Y-98689455D01*
X173178061Y-98634055D01*
X173178062Y-98634055D01*
X173180703Y-98633347D01*
X173379646Y-98540579D01*
X173381877Y-98539017D01*
X173381882Y-98539014D01*
X173557219Y-98416241D01*
X173559457Y-98414674D01*
X173714674Y-98259457D01*
X173727075Y-98241746D01*
X173839014Y-98081882D01*
X173839017Y-98081877D01*
X173840579Y-98079646D01*
X173933347Y-97880703D01*
X173990161Y-97668674D01*
X174009292Y-97450000D01*
X173990161Y-97231326D01*
X173933347Y-97019297D01*
X173840579Y-96820354D01*
X173839017Y-96818123D01*
X173839014Y-96818118D01*
X173716241Y-96642781D01*
X173714674Y-96640543D01*
X173559457Y-96485326D01*
X173541746Y-96472925D01*
X173381882Y-96360986D01*
X173381877Y-96360983D01*
X173379646Y-96359421D01*
X173180703Y-96266653D01*
X173178061Y-96265945D01*
X172971310Y-96210545D01*
X172971306Y-96210544D01*
X172968674Y-96209839D01*
X172965958Y-96209601D01*
X172965956Y-96209601D01*
X172752720Y-96190946D01*
X172750000Y-96190708D01*
X172747280Y-96190946D01*
X172534044Y-96209601D01*
X172534042Y-96209601D01*
X172531326Y-96209839D01*
X172528694Y-96210544D01*
X172528690Y-96210545D01*
X172321939Y-96265945D01*
X172319297Y-96266653D01*
X172120354Y-96359421D01*
X172118123Y-96360983D01*
X172118118Y-96360986D01*
X171958254Y-96472925D01*
X171940543Y-96485326D01*
X171785326Y-96640543D01*
X171783759Y-96642781D01*
X171660986Y-96818118D01*
X171660983Y-96818123D01*
X171659421Y-96820354D01*
X171566653Y-97019297D01*
X171509839Y-97231326D01*
X171490708Y-97450000D01*
X167509292Y-97450000D01*
X167490161Y-97231326D01*
X167433347Y-97019297D01*
X167340579Y-96820354D01*
X167339017Y-96818123D01*
X167339014Y-96818118D01*
X167216241Y-96642781D01*
X167214674Y-96640543D01*
X167059457Y-96485326D01*
X167041746Y-96472925D01*
X166881882Y-96360986D01*
X166881877Y-96360983D01*
X166879646Y-96359421D01*
X166680703Y-96266653D01*
X166678061Y-96265945D01*
X166471310Y-96210545D01*
X166471306Y-96210544D01*
X166468674Y-96209839D01*
X166465958Y-96209601D01*
X166465956Y-96209601D01*
X166252720Y-96190946D01*
X166250000Y-96190708D01*
X166247280Y-96190946D01*
X166034044Y-96209601D01*
X166034042Y-96209601D01*
X166031326Y-96209839D01*
X166028694Y-96210544D01*
X166028690Y-96210545D01*
X165821939Y-96265945D01*
X165819297Y-96266653D01*
X165620354Y-96359421D01*
X165618123Y-96360983D01*
X165618118Y-96360986D01*
X165458254Y-96472925D01*
X165440543Y-96485326D01*
X165285326Y-96640543D01*
X165283759Y-96642781D01*
X165160986Y-96818118D01*
X165160983Y-96818123D01*
X165159421Y-96820354D01*
X165066653Y-97019297D01*
X165009839Y-97231326D01*
X164990708Y-97450000D01*
X127254000Y-97450000D01*
X127254000Y-93924933D01*
X156945500Y-93924933D01*
X156945501Y-95975066D01*
X156960266Y-96049301D01*
X157016516Y-96133484D01*
X157021633Y-96136903D01*
X157095580Y-96186314D01*
X157095582Y-96186315D01*
X157100699Y-96189734D01*
X157133753Y-96196309D01*
X157171920Y-96203901D01*
X157171923Y-96203901D01*
X157174933Y-96204500D01*
X158200000Y-96204500D01*
X159225066Y-96204499D01*
X159228075Y-96203900D01*
X159228080Y-96203900D01*
X159293263Y-96190935D01*
X159299301Y-96189734D01*
X159383484Y-96133484D01*
X159439734Y-96049301D01*
X159454500Y-95975067D01*
X159454499Y-93924934D01*
X159454385Y-93924359D01*
X165460395Y-93924359D01*
X165462499Y-93929438D01*
X165618368Y-94038577D01*
X165623079Y-94041298D01*
X165816996Y-94131723D01*
X165822105Y-94133583D01*
X166028777Y-94188960D01*
X166034131Y-94189904D01*
X166247280Y-94208552D01*
X166252720Y-94208552D01*
X166465869Y-94189904D01*
X166471223Y-94188960D01*
X166677895Y-94133583D01*
X166683004Y-94131723D01*
X166876921Y-94041298D01*
X166881632Y-94038577D01*
X167034570Y-93931490D01*
X167039113Y-93924359D01*
X171960395Y-93924359D01*
X171962499Y-93929438D01*
X172118368Y-94038577D01*
X172123079Y-94041298D01*
X172316996Y-94131723D01*
X172322105Y-94133583D01*
X172528777Y-94188960D01*
X172534131Y-94189904D01*
X172747280Y-94208552D01*
X172752720Y-94208552D01*
X172965869Y-94189904D01*
X172971223Y-94188960D01*
X173177895Y-94133583D01*
X173183004Y-94131723D01*
X173376921Y-94041298D01*
X173381632Y-94038577D01*
X173534570Y-93931490D01*
X173539682Y-93923465D01*
X173538492Y-93918097D01*
X172758790Y-93138395D01*
X172750000Y-93134754D01*
X172741210Y-93138395D01*
X171964036Y-93915569D01*
X171960395Y-93924359D01*
X167039113Y-93924359D01*
X167039682Y-93923465D01*
X167038492Y-93918097D01*
X166258790Y-93138395D01*
X166250000Y-93134754D01*
X166241210Y-93138395D01*
X165464036Y-93915569D01*
X165460395Y-93924359D01*
X159454385Y-93924359D01*
X159453140Y-93918097D01*
X159440935Y-93856737D01*
X159439734Y-93850699D01*
X159383484Y-93766516D01*
X159343325Y-93739682D01*
X159304420Y-93713686D01*
X159304418Y-93713685D01*
X159299301Y-93710266D01*
X159266247Y-93703691D01*
X159228080Y-93696099D01*
X159228077Y-93696099D01*
X159225067Y-93695500D01*
X159221996Y-93695500D01*
X158200001Y-93695501D01*
X157174934Y-93695501D01*
X157171925Y-93696100D01*
X157171920Y-93696100D01*
X157106737Y-93709065D01*
X157100699Y-93710266D01*
X157016516Y-93766516D01*
X156960266Y-93850699D01*
X156959065Y-93856737D01*
X156959065Y-93856738D01*
X156946860Y-93918097D01*
X156945500Y-93924933D01*
X127254000Y-93924933D01*
X127254000Y-91963036D01*
X127995500Y-91963036D01*
X127995596Y-91964262D01*
X127995597Y-91964275D01*
X128005895Y-92095118D01*
X128010354Y-92151775D01*
X128069312Y-92397351D01*
X128070254Y-92399625D01*
X128165017Y-92628405D01*
X128165021Y-92628412D01*
X128165960Y-92630680D01*
X128297919Y-92846017D01*
X128461939Y-93038061D01*
X128653983Y-93202081D01*
X128869320Y-93334040D01*
X128871588Y-93334979D01*
X128871595Y-93334983D01*
X129076145Y-93419710D01*
X129102649Y-93430688D01*
X129348225Y-93489646D01*
X129600000Y-93509461D01*
X129851775Y-93489646D01*
X130097351Y-93430688D01*
X130123855Y-93419710D01*
X130328405Y-93334983D01*
X130328412Y-93334979D01*
X130330680Y-93334040D01*
X130546017Y-93202081D01*
X130738061Y-93038061D01*
X130902081Y-92846017D01*
X131034040Y-92630680D01*
X131034979Y-92628412D01*
X131034983Y-92628405D01*
X131129746Y-92399625D01*
X131130688Y-92397351D01*
X131189646Y-92151775D01*
X131194105Y-92095118D01*
X131204403Y-91964275D01*
X131204404Y-91964262D01*
X131204500Y-91963036D01*
X151795500Y-91963036D01*
X151795596Y-91964262D01*
X151795597Y-91964275D01*
X151805895Y-92095118D01*
X151810354Y-92151775D01*
X151869312Y-92397351D01*
X151870254Y-92399625D01*
X151965017Y-92628405D01*
X151965021Y-92628412D01*
X151965960Y-92630680D01*
X152097919Y-92846017D01*
X152261939Y-93038061D01*
X152453983Y-93202081D01*
X152669320Y-93334040D01*
X152671588Y-93334979D01*
X152671595Y-93334983D01*
X152876145Y-93419710D01*
X152902649Y-93430688D01*
X153148225Y-93489646D01*
X153400000Y-93509461D01*
X153651775Y-93489646D01*
X153897351Y-93430688D01*
X153923855Y-93419710D01*
X154128405Y-93334983D01*
X154128412Y-93334979D01*
X154130680Y-93334040D01*
X154346017Y-93202081D01*
X154538061Y-93038061D01*
X154610949Y-92952720D01*
X164991448Y-92952720D01*
X165010096Y-93165869D01*
X165011040Y-93171223D01*
X165066417Y-93377895D01*
X165068277Y-93383004D01*
X165158702Y-93576921D01*
X165161423Y-93581632D01*
X165268510Y-93734570D01*
X165276535Y-93739682D01*
X165281903Y-93738492D01*
X166061605Y-92958790D01*
X166065246Y-92950000D01*
X166434754Y-92950000D01*
X166438395Y-92958790D01*
X167215569Y-93735964D01*
X167224359Y-93739605D01*
X167229438Y-93737501D01*
X167338577Y-93581632D01*
X167341298Y-93576921D01*
X167431723Y-93383004D01*
X167433583Y-93377895D01*
X167488960Y-93171223D01*
X167489904Y-93165869D01*
X167508552Y-92952720D01*
X171491448Y-92952720D01*
X171510096Y-93165869D01*
X171511040Y-93171223D01*
X171566417Y-93377895D01*
X171568277Y-93383004D01*
X171658702Y-93576921D01*
X171661423Y-93581632D01*
X171768510Y-93734570D01*
X171776535Y-93739682D01*
X171781903Y-93738492D01*
X172561605Y-92958790D01*
X172565246Y-92950000D01*
X172934754Y-92950000D01*
X172938395Y-92958790D01*
X173715569Y-93735964D01*
X173724359Y-93739605D01*
X173729438Y-93737501D01*
X173838577Y-93581632D01*
X173841298Y-93576921D01*
X173931723Y-93383004D01*
X173933583Y-93377895D01*
X173988960Y-93171223D01*
X173989904Y-93165869D01*
X174008552Y-92952720D01*
X174008552Y-92947280D01*
X173989904Y-92734131D01*
X173988960Y-92728777D01*
X173933583Y-92522105D01*
X173931723Y-92516996D01*
X173841298Y-92323079D01*
X173838577Y-92318368D01*
X173731490Y-92165430D01*
X173723465Y-92160318D01*
X173718097Y-92161508D01*
X172938395Y-92941210D01*
X172934754Y-92950000D01*
X172565246Y-92950000D01*
X172561605Y-92941210D01*
X171784431Y-92164036D01*
X171775641Y-92160395D01*
X171770562Y-92162499D01*
X171661423Y-92318368D01*
X171658702Y-92323079D01*
X171568277Y-92516996D01*
X171566417Y-92522105D01*
X171511040Y-92728777D01*
X171510096Y-92734131D01*
X171491448Y-92947280D01*
X171491448Y-92952720D01*
X167508552Y-92952720D01*
X167508552Y-92947280D01*
X167489904Y-92734131D01*
X167488960Y-92728777D01*
X167433583Y-92522105D01*
X167431723Y-92516996D01*
X167341298Y-92323079D01*
X167338577Y-92318368D01*
X167231490Y-92165430D01*
X167223465Y-92160318D01*
X167218097Y-92161508D01*
X166438395Y-92941210D01*
X166434754Y-92950000D01*
X166065246Y-92950000D01*
X166061605Y-92941210D01*
X165284431Y-92164036D01*
X165275641Y-92160395D01*
X165270562Y-92162499D01*
X165161423Y-92318368D01*
X165158702Y-92323079D01*
X165068277Y-92516996D01*
X165066417Y-92522105D01*
X165011040Y-92728777D01*
X165010096Y-92734131D01*
X164991448Y-92947280D01*
X164991448Y-92952720D01*
X154610949Y-92952720D01*
X154702081Y-92846017D01*
X154834040Y-92630680D01*
X154834979Y-92628412D01*
X154834983Y-92628405D01*
X154929746Y-92399625D01*
X154930688Y-92397351D01*
X154989646Y-92151775D01*
X154994105Y-92095118D01*
X155003438Y-91976535D01*
X165460318Y-91976535D01*
X165461508Y-91981903D01*
X166241210Y-92761605D01*
X166250000Y-92765246D01*
X166258790Y-92761605D01*
X167035964Y-91984431D01*
X167039235Y-91976535D01*
X171960318Y-91976535D01*
X171961508Y-91981903D01*
X172741210Y-92761605D01*
X172750000Y-92765246D01*
X172758790Y-92761605D01*
X173535964Y-91984431D01*
X173539605Y-91975641D01*
X173537501Y-91970562D01*
X173381632Y-91861423D01*
X173376921Y-91858702D01*
X173183004Y-91768277D01*
X173177895Y-91766417D01*
X172971223Y-91711040D01*
X172965869Y-91710096D01*
X172752720Y-91691448D01*
X172747280Y-91691448D01*
X172534131Y-91710096D01*
X172528777Y-91711040D01*
X172322105Y-91766417D01*
X172316996Y-91768277D01*
X172123079Y-91858702D01*
X172118368Y-91861423D01*
X171965430Y-91968510D01*
X171960318Y-91976535D01*
X167039235Y-91976535D01*
X167039605Y-91975641D01*
X167037501Y-91970562D01*
X166881632Y-91861423D01*
X166876921Y-91858702D01*
X166683004Y-91768277D01*
X166677895Y-91766417D01*
X166471223Y-91711040D01*
X166465869Y-91710096D01*
X166252720Y-91691448D01*
X166247280Y-91691448D01*
X166034131Y-91710096D01*
X166028777Y-91711040D01*
X165822105Y-91766417D01*
X165816996Y-91768277D01*
X165623079Y-91858702D01*
X165618368Y-91861423D01*
X165465430Y-91968510D01*
X165460318Y-91976535D01*
X155003438Y-91976535D01*
X155004403Y-91964275D01*
X155004404Y-91964262D01*
X155004500Y-91963036D01*
X155004500Y-89850000D01*
X164990708Y-89850000D01*
X165009839Y-90068674D01*
X165066653Y-90280703D01*
X165159421Y-90479646D01*
X165160983Y-90481877D01*
X165160986Y-90481882D01*
X165272925Y-90641746D01*
X165285326Y-90659457D01*
X165440543Y-90814674D01*
X165442781Y-90816241D01*
X165618118Y-90939014D01*
X165618123Y-90939017D01*
X165620354Y-90940579D01*
X165819297Y-91033347D01*
X165821938Y-91034055D01*
X165821939Y-91034055D01*
X166028690Y-91089455D01*
X166028694Y-91089456D01*
X166031326Y-91090161D01*
X166034042Y-91090399D01*
X166034044Y-91090399D01*
X166247280Y-91109054D01*
X166250000Y-91109292D01*
X166252720Y-91109054D01*
X166465956Y-91090399D01*
X166465958Y-91090399D01*
X166468674Y-91090161D01*
X166471306Y-91089456D01*
X166471310Y-91089455D01*
X166678061Y-91034055D01*
X166678062Y-91034055D01*
X166680703Y-91033347D01*
X166879646Y-90940579D01*
X166881877Y-90939017D01*
X166881882Y-90939014D01*
X167057219Y-90816241D01*
X167059457Y-90814674D01*
X167214674Y-90659457D01*
X167227075Y-90641746D01*
X167339014Y-90481882D01*
X167339017Y-90481877D01*
X167340579Y-90479646D01*
X167433347Y-90280703D01*
X167490161Y-90068674D01*
X167509292Y-89850000D01*
X171490708Y-89850000D01*
X171509839Y-90068674D01*
X171566653Y-90280703D01*
X171659421Y-90479646D01*
X171660983Y-90481877D01*
X171660986Y-90481882D01*
X171772925Y-90641746D01*
X171785326Y-90659457D01*
X171940543Y-90814674D01*
X171942781Y-90816241D01*
X172118118Y-90939014D01*
X172118123Y-90939017D01*
X172120354Y-90940579D01*
X172319297Y-91033347D01*
X172321938Y-91034055D01*
X172321939Y-91034055D01*
X172528690Y-91089455D01*
X172528694Y-91089456D01*
X172531326Y-91090161D01*
X172534042Y-91090399D01*
X172534044Y-91090399D01*
X172747280Y-91109054D01*
X172750000Y-91109292D01*
X172752720Y-91109054D01*
X172965956Y-91090399D01*
X172965958Y-91090399D01*
X172968674Y-91090161D01*
X172971306Y-91089456D01*
X172971310Y-91089455D01*
X173178061Y-91034055D01*
X173178062Y-91034055D01*
X173180703Y-91033347D01*
X173379646Y-90940579D01*
X173381877Y-90939017D01*
X173381882Y-90939014D01*
X173557219Y-90816241D01*
X173559457Y-90814674D01*
X173714674Y-90659457D01*
X173727075Y-90641746D01*
X173839014Y-90481882D01*
X173839017Y-90481877D01*
X173840579Y-90479646D01*
X173933347Y-90280703D01*
X173990161Y-90068674D01*
X174009292Y-89850000D01*
X173990161Y-89631326D01*
X173933347Y-89419297D01*
X173840579Y-89220354D01*
X173839017Y-89218123D01*
X173839014Y-89218118D01*
X173716241Y-89042781D01*
X173714674Y-89040543D01*
X173559457Y-88885326D01*
X173541746Y-88872925D01*
X173381882Y-88760986D01*
X173381877Y-88760983D01*
X173379646Y-88759421D01*
X173180703Y-88666653D01*
X173178061Y-88665945D01*
X172971310Y-88610545D01*
X172971306Y-88610544D01*
X172968674Y-88609839D01*
X172965958Y-88609601D01*
X172965956Y-88609601D01*
X172752720Y-88590946D01*
X172750000Y-88590708D01*
X172747280Y-88590946D01*
X172534044Y-88609601D01*
X172534042Y-88609601D01*
X172531326Y-88609839D01*
X172528694Y-88610544D01*
X172528690Y-88610545D01*
X172321939Y-88665945D01*
X172319297Y-88666653D01*
X172120354Y-88759421D01*
X172118123Y-88760983D01*
X172118118Y-88760986D01*
X171958254Y-88872925D01*
X171940543Y-88885326D01*
X171785326Y-89040543D01*
X171783759Y-89042781D01*
X171660986Y-89218118D01*
X171660983Y-89218123D01*
X171659421Y-89220354D01*
X171566653Y-89419297D01*
X171509839Y-89631326D01*
X171490708Y-89850000D01*
X167509292Y-89850000D01*
X167490161Y-89631326D01*
X167433347Y-89419297D01*
X167340579Y-89220354D01*
X167339017Y-89218123D01*
X167339014Y-89218118D01*
X167216241Y-89042781D01*
X167214674Y-89040543D01*
X167059457Y-88885326D01*
X167041746Y-88872925D01*
X166881882Y-88760986D01*
X166881877Y-88760983D01*
X166879646Y-88759421D01*
X166680703Y-88666653D01*
X166678061Y-88665945D01*
X166471310Y-88610545D01*
X166471306Y-88610544D01*
X166468674Y-88609839D01*
X166465958Y-88609601D01*
X166465956Y-88609601D01*
X166252720Y-88590946D01*
X166250000Y-88590708D01*
X166247280Y-88590946D01*
X166034044Y-88609601D01*
X166034042Y-88609601D01*
X166031326Y-88609839D01*
X166028694Y-88610544D01*
X166028690Y-88610545D01*
X165821939Y-88665945D01*
X165819297Y-88666653D01*
X165620354Y-88759421D01*
X165618123Y-88760983D01*
X165618118Y-88760986D01*
X165458254Y-88872925D01*
X165440543Y-88885326D01*
X165285326Y-89040543D01*
X165283759Y-89042781D01*
X165160986Y-89218118D01*
X165160983Y-89218123D01*
X165159421Y-89220354D01*
X165066653Y-89419297D01*
X165009839Y-89631326D01*
X164990708Y-89850000D01*
X155004500Y-89850000D01*
X155004500Y-89136964D01*
X155004404Y-89135738D01*
X155004403Y-89135725D01*
X154989839Y-88950680D01*
X154989646Y-88948225D01*
X154930688Y-88702649D01*
X154915485Y-88665945D01*
X154834983Y-88471595D01*
X154834979Y-88471588D01*
X154834040Y-88469320D01*
X154702081Y-88253983D01*
X154538061Y-88061939D01*
X154346017Y-87897919D01*
X154130680Y-87765960D01*
X154128412Y-87765021D01*
X154128405Y-87765017D01*
X153899625Y-87670254D01*
X153899626Y-87670254D01*
X153897351Y-87669312D01*
X153651775Y-87610354D01*
X153400000Y-87590539D01*
X153148225Y-87610354D01*
X152902649Y-87669312D01*
X152900374Y-87670254D01*
X152900375Y-87670254D01*
X152671595Y-87765017D01*
X152671588Y-87765021D01*
X152669320Y-87765960D01*
X152453983Y-87897919D01*
X152261939Y-88061939D01*
X152097919Y-88253983D01*
X151965960Y-88469320D01*
X151965021Y-88471588D01*
X151965017Y-88471595D01*
X151884515Y-88665945D01*
X151869312Y-88702649D01*
X151810354Y-88948225D01*
X151810161Y-88950680D01*
X151795597Y-89135725D01*
X151795596Y-89135738D01*
X151795500Y-89136964D01*
X151795500Y-91963036D01*
X131204500Y-91963036D01*
X131204500Y-89136964D01*
X131204404Y-89135738D01*
X131204403Y-89135725D01*
X131189839Y-88950680D01*
X131189646Y-88948225D01*
X131130688Y-88702649D01*
X131115485Y-88665945D01*
X131034983Y-88471595D01*
X131034979Y-88471588D01*
X131034040Y-88469320D01*
X130902081Y-88253983D01*
X130738061Y-88061939D01*
X130546017Y-87897919D01*
X130330680Y-87765960D01*
X130328412Y-87765021D01*
X130328405Y-87765017D01*
X130099625Y-87670254D01*
X130099626Y-87670254D01*
X130097351Y-87669312D01*
X129851775Y-87610354D01*
X129600000Y-87590539D01*
X129348225Y-87610354D01*
X129102649Y-87669312D01*
X129100374Y-87670254D01*
X129100375Y-87670254D01*
X128871595Y-87765017D01*
X128871588Y-87765021D01*
X128869320Y-87765960D01*
X128653983Y-87897919D01*
X128461939Y-88061939D01*
X128297919Y-88253983D01*
X128165960Y-88469320D01*
X128165021Y-88471588D01*
X128165017Y-88471595D01*
X128084515Y-88665945D01*
X128069312Y-88702649D01*
X128010354Y-88948225D01*
X128010161Y-88950680D01*
X127995597Y-89135725D01*
X127995596Y-89135738D01*
X127995500Y-89136964D01*
X127995500Y-91963036D01*
X127254000Y-91963036D01*
X127254000Y-86324359D01*
X165460395Y-86324359D01*
X165462499Y-86329438D01*
X165618368Y-86438577D01*
X165623079Y-86441298D01*
X165816996Y-86531723D01*
X165822105Y-86533583D01*
X166028777Y-86588960D01*
X166034131Y-86589904D01*
X166247280Y-86608552D01*
X166252720Y-86608552D01*
X166465869Y-86589904D01*
X166471223Y-86588960D01*
X166677895Y-86533583D01*
X166683004Y-86531723D01*
X166876921Y-86441298D01*
X166881632Y-86438577D01*
X167034570Y-86331490D01*
X167039113Y-86324359D01*
X171960395Y-86324359D01*
X171962499Y-86329438D01*
X172118368Y-86438577D01*
X172123079Y-86441298D01*
X172316996Y-86531723D01*
X172322105Y-86533583D01*
X172528777Y-86588960D01*
X172534131Y-86589904D01*
X172747280Y-86608552D01*
X172752720Y-86608552D01*
X172965869Y-86589904D01*
X172971223Y-86588960D01*
X173177895Y-86533583D01*
X173183004Y-86531723D01*
X173376921Y-86441298D01*
X173381632Y-86438577D01*
X173534570Y-86331490D01*
X173539682Y-86323465D01*
X173538492Y-86318097D01*
X172758790Y-85538395D01*
X172750000Y-85534754D01*
X172741210Y-85538395D01*
X171964036Y-86315569D01*
X171960395Y-86324359D01*
X167039113Y-86324359D01*
X167039682Y-86323465D01*
X167038492Y-86318097D01*
X166258790Y-85538395D01*
X166250000Y-85534754D01*
X166241210Y-85538395D01*
X165464036Y-86315569D01*
X165460395Y-86324359D01*
X127254000Y-86324359D01*
X127254000Y-85352720D01*
X164991448Y-85352720D01*
X165010096Y-85565869D01*
X165011040Y-85571223D01*
X165066417Y-85777895D01*
X165068277Y-85783004D01*
X165158702Y-85976921D01*
X165161423Y-85981632D01*
X165268510Y-86134570D01*
X165276535Y-86139682D01*
X165281903Y-86138492D01*
X166061605Y-85358790D01*
X166065246Y-85350000D01*
X166434754Y-85350000D01*
X166438395Y-85358790D01*
X167215569Y-86135964D01*
X167224359Y-86139605D01*
X167229438Y-86137501D01*
X167338577Y-85981632D01*
X167341298Y-85976921D01*
X167431723Y-85783004D01*
X167433583Y-85777895D01*
X167488960Y-85571223D01*
X167489904Y-85565869D01*
X167508552Y-85352720D01*
X171491448Y-85352720D01*
X171510096Y-85565869D01*
X171511040Y-85571223D01*
X171566417Y-85777895D01*
X171568277Y-85783004D01*
X171658702Y-85976921D01*
X171661423Y-85981632D01*
X171768510Y-86134570D01*
X171776535Y-86139682D01*
X171781903Y-86138492D01*
X172561605Y-85358790D01*
X172565246Y-85350000D01*
X172934754Y-85350000D01*
X172938395Y-85358790D01*
X173715569Y-86135964D01*
X173724359Y-86139605D01*
X173729438Y-86137501D01*
X173838577Y-85981632D01*
X173841298Y-85976921D01*
X173931723Y-85783004D01*
X173933583Y-85777895D01*
X173988960Y-85571223D01*
X173989904Y-85565869D01*
X174008552Y-85352720D01*
X174008552Y-85347280D01*
X173989904Y-85134131D01*
X173988960Y-85128777D01*
X173933583Y-84922105D01*
X173931723Y-84916996D01*
X173841298Y-84723079D01*
X173838577Y-84718368D01*
X173731490Y-84565430D01*
X173723465Y-84560318D01*
X173718097Y-84561508D01*
X172938395Y-85341210D01*
X172934754Y-85350000D01*
X172565246Y-85350000D01*
X172561605Y-85341210D01*
X171784431Y-84564036D01*
X171775641Y-84560395D01*
X171770562Y-84562499D01*
X171661423Y-84718368D01*
X171658702Y-84723079D01*
X171568277Y-84916996D01*
X171566417Y-84922105D01*
X171511040Y-85128777D01*
X171510096Y-85134131D01*
X171491448Y-85347280D01*
X171491448Y-85352720D01*
X167508552Y-85352720D01*
X167508552Y-85347280D01*
X167489904Y-85134131D01*
X167488960Y-85128777D01*
X167433583Y-84922105D01*
X167431723Y-84916996D01*
X167341298Y-84723079D01*
X167338577Y-84718368D01*
X167231490Y-84565430D01*
X167223465Y-84560318D01*
X167218097Y-84561508D01*
X166438395Y-85341210D01*
X166434754Y-85350000D01*
X166065246Y-85350000D01*
X166061605Y-85341210D01*
X165284431Y-84564036D01*
X165275641Y-84560395D01*
X165270562Y-84562499D01*
X165161423Y-84718368D01*
X165158702Y-84723079D01*
X165068277Y-84916996D01*
X165066417Y-84922105D01*
X165011040Y-85128777D01*
X165010096Y-85134131D01*
X164991448Y-85347280D01*
X164991448Y-85352720D01*
X127254000Y-85352720D01*
X127254000Y-83950471D01*
X128337759Y-83950471D01*
X128339732Y-83980581D01*
X128340626Y-83986224D01*
X128389159Y-84177323D01*
X128391066Y-84182707D01*
X128473612Y-84361761D01*
X128476468Y-84366708D01*
X128590257Y-84527717D01*
X128593970Y-84532065D01*
X128735203Y-84669647D01*
X128739636Y-84673236D01*
X128903576Y-84782778D01*
X128908598Y-84785504D01*
X129089744Y-84863331D01*
X129095183Y-84865098D01*
X129287492Y-84908614D01*
X129293141Y-84909357D01*
X129295577Y-84909453D01*
X129303827Y-84906409D01*
X129308000Y-84896869D01*
X129308000Y-84894779D01*
X129562000Y-84894779D01*
X129565641Y-84903569D01*
X129571208Y-84905875D01*
X129690992Y-84888507D01*
X129696541Y-84887175D01*
X129883247Y-84823796D01*
X129888460Y-84821475D01*
X130060492Y-84725133D01*
X130065194Y-84721902D01*
X130216793Y-84595819D01*
X130220819Y-84591793D01*
X130346902Y-84440194D01*
X130350133Y-84435492D01*
X130446475Y-84263460D01*
X130448796Y-84258247D01*
X130512175Y-84071541D01*
X130513507Y-84065992D01*
X130530257Y-83950471D01*
X131902759Y-83950471D01*
X131904732Y-83980581D01*
X131905626Y-83986224D01*
X131954159Y-84177323D01*
X131956066Y-84182707D01*
X132038612Y-84361761D01*
X132041468Y-84366708D01*
X132155257Y-84527717D01*
X132158970Y-84532065D01*
X132300203Y-84669647D01*
X132304636Y-84673236D01*
X132468576Y-84782778D01*
X132473598Y-84785504D01*
X132654744Y-84863331D01*
X132660183Y-84865098D01*
X132852492Y-84908614D01*
X132858141Y-84909357D01*
X132860577Y-84909453D01*
X132868827Y-84906409D01*
X132873000Y-84896869D01*
X132873000Y-84894779D01*
X133127000Y-84894779D01*
X133130641Y-84903569D01*
X133136208Y-84905875D01*
X133255992Y-84888507D01*
X133261541Y-84887175D01*
X133448247Y-84823796D01*
X133453460Y-84821475D01*
X133625492Y-84725133D01*
X133630194Y-84721902D01*
X133781793Y-84595819D01*
X133785819Y-84591793D01*
X133911902Y-84440194D01*
X133915133Y-84435492D01*
X134011475Y-84263460D01*
X134013796Y-84258247D01*
X134077175Y-84071541D01*
X134078507Y-84065992D01*
X134095426Y-83949304D01*
X134093084Y-83940082D01*
X134087904Y-83937000D01*
X133139431Y-83937000D01*
X133130641Y-83940641D01*
X133127000Y-83949431D01*
X133127000Y-84894779D01*
X132873000Y-84894779D01*
X132873000Y-83949431D01*
X132869359Y-83940641D01*
X132860569Y-83937000D01*
X131914307Y-83937000D01*
X131906632Y-83940179D01*
X131902759Y-83950471D01*
X130530257Y-83950471D01*
X130530426Y-83949304D01*
X130528084Y-83940082D01*
X130522904Y-83937000D01*
X129574431Y-83937000D01*
X129565641Y-83940641D01*
X129562000Y-83949431D01*
X129562000Y-84894779D01*
X129308000Y-84894779D01*
X129308000Y-83949431D01*
X129304359Y-83940641D01*
X129295569Y-83937000D01*
X128349307Y-83937000D01*
X128341632Y-83940179D01*
X128337759Y-83950471D01*
X127254000Y-83950471D01*
X127254000Y-83780964D01*
X156351148Y-83780964D01*
X156351336Y-83783828D01*
X156362190Y-83949431D01*
X156364424Y-83983522D01*
X156414392Y-84180269D01*
X156499377Y-84364616D01*
X156616533Y-84530389D01*
X156618587Y-84532390D01*
X156618588Y-84532391D01*
X156679924Y-84592141D01*
X156761938Y-84672035D01*
X156930720Y-84784812D01*
X157016056Y-84821475D01*
X157114588Y-84863808D01*
X157114590Y-84863809D01*
X157117228Y-84864942D01*
X157215484Y-84887175D01*
X157312426Y-84909111D01*
X157312429Y-84909111D01*
X157315216Y-84909742D01*
X157405164Y-84913276D01*
X157515193Y-84917600D01*
X157515197Y-84917600D01*
X157518053Y-84917712D01*
X157522992Y-84916996D01*
X157661804Y-84896869D01*
X157718945Y-84888584D01*
X157911165Y-84823334D01*
X158088276Y-84724147D01*
X158244345Y-84594345D01*
X158374147Y-84438276D01*
X158473334Y-84261165D01*
X158538584Y-84068945D01*
X158567712Y-83868053D01*
X158569232Y-83810000D01*
X158566565Y-83780964D01*
X158891148Y-83780964D01*
X158891336Y-83783828D01*
X158902190Y-83949431D01*
X158904424Y-83983522D01*
X158954392Y-84180269D01*
X159039377Y-84364616D01*
X159156533Y-84530389D01*
X159158587Y-84532390D01*
X159158588Y-84532391D01*
X159219924Y-84592141D01*
X159301938Y-84672035D01*
X159470720Y-84784812D01*
X159556056Y-84821475D01*
X159654588Y-84863808D01*
X159654590Y-84863809D01*
X159657228Y-84864942D01*
X159755484Y-84887175D01*
X159852426Y-84909111D01*
X159852429Y-84909111D01*
X159855216Y-84909742D01*
X159945164Y-84913276D01*
X160055193Y-84917600D01*
X160055197Y-84917600D01*
X160058053Y-84917712D01*
X160062992Y-84916996D01*
X160201804Y-84896869D01*
X160258945Y-84888584D01*
X160451165Y-84823334D01*
X160628276Y-84724147D01*
X160784345Y-84594345D01*
X160914147Y-84438276D01*
X160948724Y-84376535D01*
X165460318Y-84376535D01*
X165461508Y-84381903D01*
X166241210Y-85161605D01*
X166250000Y-85165246D01*
X166258790Y-85161605D01*
X167035964Y-84384431D01*
X167039235Y-84376535D01*
X171960318Y-84376535D01*
X171961508Y-84381903D01*
X172741210Y-85161605D01*
X172750000Y-85165246D01*
X172758790Y-85161605D01*
X173535964Y-84384431D01*
X173539605Y-84375641D01*
X173537501Y-84370562D01*
X173381632Y-84261423D01*
X173376921Y-84258702D01*
X173183004Y-84168277D01*
X173177895Y-84166417D01*
X172971223Y-84111040D01*
X172965869Y-84110096D01*
X172752720Y-84091448D01*
X172747280Y-84091448D01*
X172534131Y-84110096D01*
X172528777Y-84111040D01*
X172322105Y-84166417D01*
X172316996Y-84168277D01*
X172123079Y-84258702D01*
X172118368Y-84261423D01*
X171965430Y-84368510D01*
X171960318Y-84376535D01*
X167039235Y-84376535D01*
X167039605Y-84375641D01*
X167037501Y-84370562D01*
X166881632Y-84261423D01*
X166876921Y-84258702D01*
X166683004Y-84168277D01*
X166677895Y-84166417D01*
X166471223Y-84111040D01*
X166465869Y-84110096D01*
X166252720Y-84091448D01*
X166247280Y-84091448D01*
X166034131Y-84110096D01*
X166028777Y-84111040D01*
X165822105Y-84166417D01*
X165816996Y-84168277D01*
X165623079Y-84258702D01*
X165618368Y-84261423D01*
X165465430Y-84368510D01*
X165460318Y-84376535D01*
X160948724Y-84376535D01*
X161013334Y-84261165D01*
X161078584Y-84068945D01*
X161107712Y-83868053D01*
X161109232Y-83810000D01*
X161106303Y-83778116D01*
X161097228Y-83679359D01*
X161090658Y-83607859D01*
X161083456Y-83582322D01*
X161036335Y-83415244D01*
X161036333Y-83415240D01*
X161035557Y-83412487D01*
X160945776Y-83230428D01*
X160932568Y-83212740D01*
X160826037Y-83070078D01*
X160826036Y-83070076D01*
X160824320Y-83067779D01*
X160675258Y-82929987D01*
X160503581Y-82821667D01*
X160315039Y-82746446D01*
X160312233Y-82745888D01*
X160312230Y-82745887D01*
X160118752Y-82707402D01*
X160118750Y-82707402D01*
X160115946Y-82706844D01*
X160020353Y-82705593D01*
X159915833Y-82704224D01*
X159915828Y-82704224D01*
X159912971Y-82704187D01*
X159910151Y-82704672D01*
X159910146Y-82704672D01*
X159797702Y-82723994D01*
X159712910Y-82738564D01*
X159710222Y-82739556D01*
X159710217Y-82739557D01*
X159525151Y-82807832D01*
X159525148Y-82807833D01*
X159522463Y-82808824D01*
X159348010Y-82912612D01*
X159195392Y-83046455D01*
X159069720Y-83205869D01*
X158975203Y-83385515D01*
X158974356Y-83388242D01*
X158974355Y-83388245D01*
X158942636Y-83490399D01*
X158915007Y-83579378D01*
X158891148Y-83780964D01*
X158566565Y-83780964D01*
X158566303Y-83778116D01*
X158557228Y-83679359D01*
X158550658Y-83607859D01*
X158543456Y-83582322D01*
X158496335Y-83415244D01*
X158496333Y-83415240D01*
X158495557Y-83412487D01*
X158405776Y-83230428D01*
X158392568Y-83212740D01*
X158286037Y-83070078D01*
X158286036Y-83070076D01*
X158284320Y-83067779D01*
X158135258Y-82929987D01*
X157963581Y-82821667D01*
X157775039Y-82746446D01*
X157772233Y-82745888D01*
X157772230Y-82745887D01*
X157578752Y-82707402D01*
X157578750Y-82707402D01*
X157575946Y-82706844D01*
X157480353Y-82705593D01*
X157375833Y-82704224D01*
X157375828Y-82704224D01*
X157372971Y-82704187D01*
X157370151Y-82704672D01*
X157370146Y-82704672D01*
X157257702Y-82723994D01*
X157172910Y-82738564D01*
X157170222Y-82739556D01*
X157170217Y-82739557D01*
X156985151Y-82807832D01*
X156985148Y-82807833D01*
X156982463Y-82808824D01*
X156808010Y-82912612D01*
X156655392Y-83046455D01*
X156529720Y-83205869D01*
X156435203Y-83385515D01*
X156434356Y-83388242D01*
X156434355Y-83388245D01*
X156402636Y-83490399D01*
X156375007Y-83579378D01*
X156351148Y-83780964D01*
X127254000Y-83780964D01*
X127254000Y-83670655D01*
X128339707Y-83670655D01*
X128342290Y-83679811D01*
X128347984Y-83683000D01*
X129295569Y-83683000D01*
X129304359Y-83679359D01*
X129308000Y-83670569D01*
X129562000Y-83670569D01*
X129565641Y-83679359D01*
X129574431Y-83683000D01*
X130519629Y-83683000D01*
X130528419Y-83679359D01*
X130531125Y-83672826D01*
X130530926Y-83670655D01*
X131904707Y-83670655D01*
X131907290Y-83679811D01*
X131912984Y-83683000D01*
X132860569Y-83683000D01*
X132869359Y-83679359D01*
X132873000Y-83670569D01*
X133127000Y-83670569D01*
X133130641Y-83679359D01*
X133139431Y-83683000D01*
X134084629Y-83683000D01*
X134093419Y-83679359D01*
X134096125Y-83672826D01*
X134090426Y-83610805D01*
X134089385Y-83605187D01*
X134035867Y-83415424D01*
X134033824Y-83410102D01*
X133946616Y-83233261D01*
X133943630Y-83228389D01*
X133825664Y-83070414D01*
X133821841Y-83066169D01*
X133677060Y-82932334D01*
X133672525Y-82928854D01*
X133505774Y-82823642D01*
X133500696Y-82821054D01*
X133317553Y-82747988D01*
X133312087Y-82746369D01*
X133139193Y-82711978D01*
X133129861Y-82713834D01*
X133127000Y-82718117D01*
X133127000Y-83670569D01*
X132873000Y-83670569D01*
X132873000Y-82723994D01*
X132869359Y-82715204D01*
X132864214Y-82713073D01*
X132715870Y-82738563D01*
X132710347Y-82740042D01*
X132525367Y-82808285D01*
X132520218Y-82810741D01*
X132350770Y-82911552D01*
X132346148Y-82914911D01*
X132197910Y-83044912D01*
X132193983Y-83049050D01*
X132071913Y-83203895D01*
X132068809Y-83208674D01*
X131976998Y-83383177D01*
X131974819Y-83388437D01*
X131916346Y-83576752D01*
X131915162Y-83582322D01*
X131904707Y-83670655D01*
X130530926Y-83670655D01*
X130525426Y-83610805D01*
X130524385Y-83605187D01*
X130470867Y-83415424D01*
X130468824Y-83410102D01*
X130381616Y-83233261D01*
X130378630Y-83228389D01*
X130260664Y-83070414D01*
X130256841Y-83066169D01*
X130112060Y-82932334D01*
X130107525Y-82928854D01*
X129940774Y-82823642D01*
X129935696Y-82821054D01*
X129752553Y-82747988D01*
X129747087Y-82746369D01*
X129574193Y-82711978D01*
X129564861Y-82713834D01*
X129562000Y-82718117D01*
X129562000Y-83670569D01*
X129308000Y-83670569D01*
X129308000Y-82723994D01*
X129304359Y-82715204D01*
X129299214Y-82713073D01*
X129150870Y-82738563D01*
X129145347Y-82740042D01*
X128960367Y-82808285D01*
X128955218Y-82810741D01*
X128785770Y-82911552D01*
X128781148Y-82914911D01*
X128632910Y-83044912D01*
X128628983Y-83049050D01*
X128506913Y-83203895D01*
X128503809Y-83208674D01*
X128411998Y-83383177D01*
X128409819Y-83388437D01*
X128351346Y-83576752D01*
X128350162Y-83582322D01*
X128339707Y-83670655D01*
X127254000Y-83670655D01*
X127254000Y-81240964D01*
X128326148Y-81240964D01*
X128326336Y-81243828D01*
X128339229Y-81440543D01*
X128339424Y-81443522D01*
X128389392Y-81640269D01*
X128474377Y-81824616D01*
X128591533Y-81990389D01*
X128593587Y-81992390D01*
X128593588Y-81992391D01*
X128654924Y-82052141D01*
X128736938Y-82132035D01*
X128905720Y-82244812D01*
X128992124Y-82281934D01*
X129089588Y-82323808D01*
X129089590Y-82323809D01*
X129092228Y-82324942D01*
X129192641Y-82347663D01*
X129287426Y-82369111D01*
X129287429Y-82369111D01*
X129290216Y-82369742D01*
X129380164Y-82373276D01*
X129490193Y-82377600D01*
X129490197Y-82377600D01*
X129493053Y-82377712D01*
X129693945Y-82348584D01*
X129886165Y-82283334D01*
X130063276Y-82184147D01*
X130219345Y-82054345D01*
X130349147Y-81898276D01*
X130448334Y-81721165D01*
X130513584Y-81528945D01*
X130542712Y-81328053D01*
X130544232Y-81270000D01*
X130541565Y-81240964D01*
X131891148Y-81240964D01*
X131891336Y-81243828D01*
X131904229Y-81440543D01*
X131904424Y-81443522D01*
X131954392Y-81640269D01*
X132039377Y-81824616D01*
X132156533Y-81990389D01*
X132158587Y-81992390D01*
X132158588Y-81992391D01*
X132219924Y-82052141D01*
X132301938Y-82132035D01*
X132470720Y-82244812D01*
X132557124Y-82281934D01*
X132654588Y-82323808D01*
X132654590Y-82323809D01*
X132657228Y-82324942D01*
X132757641Y-82347663D01*
X132852426Y-82369111D01*
X132852429Y-82369111D01*
X132855216Y-82369742D01*
X132945164Y-82373276D01*
X133055193Y-82377600D01*
X133055197Y-82377600D01*
X133058053Y-82377712D01*
X133258945Y-82348584D01*
X133451165Y-82283334D01*
X133628276Y-82184147D01*
X133784345Y-82054345D01*
X133914147Y-81898276D01*
X134013334Y-81721165D01*
X134078584Y-81528945D01*
X134107712Y-81328053D01*
X134109232Y-81270000D01*
X134106565Y-81240964D01*
X156351148Y-81240964D01*
X156351336Y-81243828D01*
X156364229Y-81440543D01*
X156364424Y-81443522D01*
X156414392Y-81640269D01*
X156499377Y-81824616D01*
X156616533Y-81990389D01*
X156618587Y-81992390D01*
X156618588Y-81992391D01*
X156679924Y-82052141D01*
X156761938Y-82132035D01*
X156930720Y-82244812D01*
X157017124Y-82281934D01*
X157114588Y-82323808D01*
X157114590Y-82323809D01*
X157117228Y-82324942D01*
X157217641Y-82347663D01*
X157312426Y-82369111D01*
X157312429Y-82369111D01*
X157315216Y-82369742D01*
X157405164Y-82373276D01*
X157515193Y-82377600D01*
X157515197Y-82377600D01*
X157518053Y-82377712D01*
X157718945Y-82348584D01*
X157911165Y-82283334D01*
X158088276Y-82184147D01*
X158244345Y-82054345D01*
X158374147Y-81898276D01*
X158473334Y-81721165D01*
X158538584Y-81528945D01*
X158567712Y-81328053D01*
X158569232Y-81270000D01*
X158566565Y-81240964D01*
X158891148Y-81240964D01*
X158891336Y-81243828D01*
X158904229Y-81440543D01*
X158904424Y-81443522D01*
X158954392Y-81640269D01*
X159039377Y-81824616D01*
X159156533Y-81990389D01*
X159158587Y-81992390D01*
X159158588Y-81992391D01*
X159219924Y-82052141D01*
X159301938Y-82132035D01*
X159470720Y-82244812D01*
X159557124Y-82281934D01*
X159654588Y-82323808D01*
X159654590Y-82323809D01*
X159657228Y-82324942D01*
X159757641Y-82347663D01*
X159852426Y-82369111D01*
X159852429Y-82369111D01*
X159855216Y-82369742D01*
X159945164Y-82373276D01*
X160055193Y-82377600D01*
X160055197Y-82377600D01*
X160058053Y-82377712D01*
X160258945Y-82348584D01*
X160451165Y-82283334D01*
X160510687Y-82250000D01*
X164990708Y-82250000D01*
X164990946Y-82252720D01*
X165001194Y-82369854D01*
X165009839Y-82468674D01*
X165066653Y-82680703D01*
X165159421Y-82879646D01*
X165160983Y-82881877D01*
X165160986Y-82881882D01*
X165272925Y-83041746D01*
X165285326Y-83059457D01*
X165440543Y-83214674D01*
X165442781Y-83216241D01*
X165618118Y-83339014D01*
X165618123Y-83339017D01*
X165620354Y-83340579D01*
X165819297Y-83433347D01*
X165821938Y-83434055D01*
X165821939Y-83434055D01*
X166028690Y-83489455D01*
X166028694Y-83489456D01*
X166031326Y-83490161D01*
X166034042Y-83490399D01*
X166034044Y-83490399D01*
X166247280Y-83509054D01*
X166250000Y-83509292D01*
X166252720Y-83509054D01*
X166465956Y-83490399D01*
X166465958Y-83490399D01*
X166468674Y-83490161D01*
X166471306Y-83489456D01*
X166471310Y-83489455D01*
X166678061Y-83434055D01*
X166678062Y-83434055D01*
X166680703Y-83433347D01*
X166879646Y-83340579D01*
X166881877Y-83339017D01*
X166881882Y-83339014D01*
X167057219Y-83216241D01*
X167059457Y-83214674D01*
X167214674Y-83059457D01*
X167227075Y-83041746D01*
X167339014Y-82881882D01*
X167339017Y-82881877D01*
X167340579Y-82879646D01*
X167433347Y-82680703D01*
X167490161Y-82468674D01*
X167498807Y-82369854D01*
X167509054Y-82252720D01*
X167509292Y-82250000D01*
X171490708Y-82250000D01*
X171490946Y-82252720D01*
X171501194Y-82369854D01*
X171509839Y-82468674D01*
X171566653Y-82680703D01*
X171659421Y-82879646D01*
X171660983Y-82881877D01*
X171660986Y-82881882D01*
X171772925Y-83041746D01*
X171785326Y-83059457D01*
X171940543Y-83214674D01*
X171942781Y-83216241D01*
X172118118Y-83339014D01*
X172118123Y-83339017D01*
X172120354Y-83340579D01*
X172319297Y-83433347D01*
X172321938Y-83434055D01*
X172321939Y-83434055D01*
X172528690Y-83489455D01*
X172528694Y-83489456D01*
X172531326Y-83490161D01*
X172534042Y-83490399D01*
X172534044Y-83490399D01*
X172747280Y-83509054D01*
X172750000Y-83509292D01*
X172752720Y-83509054D01*
X172965956Y-83490399D01*
X172965958Y-83490399D01*
X172968674Y-83490161D01*
X172971306Y-83489456D01*
X172971310Y-83489455D01*
X173178061Y-83434055D01*
X173178062Y-83434055D01*
X173180703Y-83433347D01*
X173379646Y-83340579D01*
X173381877Y-83339017D01*
X173381882Y-83339014D01*
X173557219Y-83216241D01*
X173559457Y-83214674D01*
X173714674Y-83059457D01*
X173727075Y-83041746D01*
X173839014Y-82881882D01*
X173839017Y-82881877D01*
X173840579Y-82879646D01*
X173933347Y-82680703D01*
X173990161Y-82468674D01*
X173998807Y-82369854D01*
X174009054Y-82252720D01*
X174009292Y-82250000D01*
X173990161Y-82031326D01*
X173934075Y-81822012D01*
X173934055Y-81821939D01*
X173934055Y-81821938D01*
X173933347Y-81819297D01*
X173840579Y-81620354D01*
X173839017Y-81618123D01*
X173839014Y-81618118D01*
X173716241Y-81442781D01*
X173714674Y-81440543D01*
X173559457Y-81285326D01*
X173500192Y-81243828D01*
X173381882Y-81160986D01*
X173381877Y-81160983D01*
X173379646Y-81159421D01*
X173180703Y-81066653D01*
X173178061Y-81065945D01*
X172971310Y-81010545D01*
X172971306Y-81010544D01*
X172968674Y-81009839D01*
X172965958Y-81009601D01*
X172965956Y-81009601D01*
X172752720Y-80990946D01*
X172750000Y-80990708D01*
X172747280Y-80990946D01*
X172534044Y-81009601D01*
X172534042Y-81009601D01*
X172531326Y-81009839D01*
X172528694Y-81010544D01*
X172528690Y-81010545D01*
X172321939Y-81065945D01*
X172319297Y-81066653D01*
X172120354Y-81159421D01*
X172118123Y-81160983D01*
X172118118Y-81160986D01*
X171999808Y-81243828D01*
X171940543Y-81285326D01*
X171785326Y-81440543D01*
X171783759Y-81442781D01*
X171660986Y-81618118D01*
X171660983Y-81618123D01*
X171659421Y-81620354D01*
X171566653Y-81819297D01*
X171565945Y-81821938D01*
X171565945Y-81821939D01*
X171565926Y-81822012D01*
X171509839Y-82031326D01*
X171490708Y-82250000D01*
X167509292Y-82250000D01*
X167490161Y-82031326D01*
X167434075Y-81822012D01*
X167434055Y-81821939D01*
X167434055Y-81821938D01*
X167433347Y-81819297D01*
X167340579Y-81620354D01*
X167339017Y-81618123D01*
X167339014Y-81618118D01*
X167216241Y-81442781D01*
X167214674Y-81440543D01*
X167059457Y-81285326D01*
X167000192Y-81243828D01*
X166881882Y-81160986D01*
X166881877Y-81160983D01*
X166879646Y-81159421D01*
X166680703Y-81066653D01*
X166678061Y-81065945D01*
X166471310Y-81010545D01*
X166471306Y-81010544D01*
X166468674Y-81009839D01*
X166465958Y-81009601D01*
X166465956Y-81009601D01*
X166252720Y-80990946D01*
X166250000Y-80990708D01*
X166247280Y-80990946D01*
X166034044Y-81009601D01*
X166034042Y-81009601D01*
X166031326Y-81009839D01*
X166028694Y-81010544D01*
X166028690Y-81010545D01*
X165821939Y-81065945D01*
X165819297Y-81066653D01*
X165620354Y-81159421D01*
X165618123Y-81160983D01*
X165618118Y-81160986D01*
X165499808Y-81243828D01*
X165440543Y-81285326D01*
X165285326Y-81440543D01*
X165283759Y-81442781D01*
X165160986Y-81618118D01*
X165160983Y-81618123D01*
X165159421Y-81620354D01*
X165066653Y-81819297D01*
X165065945Y-81821938D01*
X165065945Y-81821939D01*
X165065926Y-81822012D01*
X165009839Y-82031326D01*
X164990708Y-82250000D01*
X160510687Y-82250000D01*
X160628276Y-82184147D01*
X160784345Y-82054345D01*
X160914147Y-81898276D01*
X161013334Y-81721165D01*
X161078584Y-81528945D01*
X161107712Y-81328053D01*
X161109232Y-81270000D01*
X161106303Y-81238116D01*
X161090920Y-81070714D01*
X161090658Y-81067859D01*
X161089879Y-81065096D01*
X161036335Y-80875244D01*
X161036333Y-80875240D01*
X161035557Y-80872487D01*
X160945776Y-80690428D01*
X160927437Y-80665869D01*
X160826037Y-80530078D01*
X160826036Y-80530076D01*
X160824320Y-80527779D01*
X160675258Y-80389987D01*
X160503581Y-80281667D01*
X160315039Y-80206446D01*
X160312233Y-80205888D01*
X160312230Y-80205887D01*
X160118752Y-80167402D01*
X160118750Y-80167402D01*
X160115946Y-80166844D01*
X160020353Y-80165593D01*
X159915833Y-80164224D01*
X159915828Y-80164224D01*
X159912971Y-80164187D01*
X159910151Y-80164672D01*
X159910146Y-80164672D01*
X159793751Y-80184673D01*
X159712910Y-80198564D01*
X159710222Y-80199556D01*
X159710217Y-80199557D01*
X159525151Y-80267832D01*
X159525148Y-80267833D01*
X159522463Y-80268824D01*
X159348010Y-80372612D01*
X159195392Y-80506455D01*
X159069720Y-80665869D01*
X158975203Y-80845515D01*
X158974356Y-80848242D01*
X158974355Y-80848245D01*
X158924253Y-81009601D01*
X158915007Y-81039378D01*
X158891148Y-81240964D01*
X158566565Y-81240964D01*
X158566303Y-81238116D01*
X158550920Y-81070714D01*
X158550658Y-81067859D01*
X158549879Y-81065096D01*
X158496335Y-80875244D01*
X158496333Y-80875240D01*
X158495557Y-80872487D01*
X158405776Y-80690428D01*
X158387437Y-80665869D01*
X158286037Y-80530078D01*
X158286036Y-80530076D01*
X158284320Y-80527779D01*
X158135258Y-80389987D01*
X157963581Y-80281667D01*
X157775039Y-80206446D01*
X157772233Y-80205888D01*
X157772230Y-80205887D01*
X157578752Y-80167402D01*
X157578750Y-80167402D01*
X157575946Y-80166844D01*
X157480353Y-80165593D01*
X157375833Y-80164224D01*
X157375828Y-80164224D01*
X157372971Y-80164187D01*
X157370151Y-80164672D01*
X157370146Y-80164672D01*
X157253751Y-80184673D01*
X157172910Y-80198564D01*
X157170222Y-80199556D01*
X157170217Y-80199557D01*
X156985151Y-80267832D01*
X156985148Y-80267833D01*
X156982463Y-80268824D01*
X156808010Y-80372612D01*
X156655392Y-80506455D01*
X156529720Y-80665869D01*
X156435203Y-80845515D01*
X156434356Y-80848242D01*
X156434355Y-80848245D01*
X156384253Y-81009601D01*
X156375007Y-81039378D01*
X156351148Y-81240964D01*
X134106565Y-81240964D01*
X134106303Y-81238116D01*
X134090920Y-81070714D01*
X134090658Y-81067859D01*
X134089879Y-81065096D01*
X134036335Y-80875244D01*
X134036333Y-80875240D01*
X134035557Y-80872487D01*
X133945776Y-80690428D01*
X133927437Y-80665869D01*
X133826037Y-80530078D01*
X133826036Y-80530076D01*
X133824320Y-80527779D01*
X133675258Y-80389987D01*
X133503581Y-80281667D01*
X133315039Y-80206446D01*
X133312233Y-80205888D01*
X133312230Y-80205887D01*
X133118752Y-80167402D01*
X133118750Y-80167402D01*
X133115946Y-80166844D01*
X133020353Y-80165593D01*
X132915833Y-80164224D01*
X132915828Y-80164224D01*
X132912971Y-80164187D01*
X132910151Y-80164672D01*
X132910146Y-80164672D01*
X132793751Y-80184673D01*
X132712910Y-80198564D01*
X132710222Y-80199556D01*
X132710217Y-80199557D01*
X132525151Y-80267832D01*
X132525148Y-80267833D01*
X132522463Y-80268824D01*
X132348010Y-80372612D01*
X132195392Y-80506455D01*
X132069720Y-80665869D01*
X131975203Y-80845515D01*
X131974356Y-80848242D01*
X131974355Y-80848245D01*
X131924253Y-81009601D01*
X131915007Y-81039378D01*
X131891148Y-81240964D01*
X130541565Y-81240964D01*
X130541303Y-81238116D01*
X130525920Y-81070714D01*
X130525658Y-81067859D01*
X130524879Y-81065096D01*
X130471335Y-80875244D01*
X130471333Y-80875240D01*
X130470557Y-80872487D01*
X130380776Y-80690428D01*
X130362437Y-80665869D01*
X130261037Y-80530078D01*
X130261036Y-80530076D01*
X130259320Y-80527779D01*
X130110258Y-80389987D01*
X129938581Y-80281667D01*
X129750039Y-80206446D01*
X129747233Y-80205888D01*
X129747230Y-80205887D01*
X129553752Y-80167402D01*
X129553750Y-80167402D01*
X129550946Y-80166844D01*
X129455353Y-80165593D01*
X129350833Y-80164224D01*
X129350828Y-80164224D01*
X129347971Y-80164187D01*
X129345151Y-80164672D01*
X129345146Y-80164672D01*
X129228751Y-80184673D01*
X129147910Y-80198564D01*
X129145222Y-80199556D01*
X129145217Y-80199557D01*
X128960151Y-80267832D01*
X128960148Y-80267833D01*
X128957463Y-80268824D01*
X128783010Y-80372612D01*
X128630392Y-80506455D01*
X128504720Y-80665869D01*
X128410203Y-80845515D01*
X128409356Y-80848242D01*
X128409355Y-80848245D01*
X128359253Y-81009601D01*
X128350007Y-81039378D01*
X128326148Y-81240964D01*
X127254000Y-81240964D01*
X127254000Y-78700964D01*
X128326148Y-78700964D01*
X128339424Y-78903522D01*
X128340130Y-78906302D01*
X128366099Y-79008552D01*
X128389392Y-79100269D01*
X128474377Y-79284616D01*
X128591533Y-79450389D01*
X128736938Y-79592035D01*
X128905720Y-79704812D01*
X128992124Y-79741934D01*
X129089588Y-79783808D01*
X129089590Y-79783809D01*
X129092228Y-79784942D01*
X129192641Y-79807663D01*
X129287426Y-79829111D01*
X129287429Y-79829111D01*
X129290216Y-79829742D01*
X129380164Y-79833276D01*
X129490193Y-79837600D01*
X129490197Y-79837600D01*
X129493053Y-79837712D01*
X129693945Y-79808584D01*
X129886165Y-79743334D01*
X130063276Y-79644147D01*
X130219345Y-79514345D01*
X130349147Y-79358276D01*
X130448334Y-79181165D01*
X130513584Y-78988945D01*
X130534992Y-78841298D01*
X130542449Y-78789869D01*
X130542449Y-78789864D01*
X130542712Y-78788053D01*
X130544232Y-78730000D01*
X130543139Y-78718097D01*
X130541565Y-78700964D01*
X131891148Y-78700964D01*
X131904424Y-78903522D01*
X131905130Y-78906302D01*
X131931099Y-79008552D01*
X131954392Y-79100269D01*
X132039377Y-79284616D01*
X132156533Y-79450389D01*
X132301938Y-79592035D01*
X132470720Y-79704812D01*
X132557124Y-79741934D01*
X132654588Y-79783808D01*
X132654590Y-79783809D01*
X132657228Y-79784942D01*
X132757641Y-79807663D01*
X132852426Y-79829111D01*
X132852429Y-79829111D01*
X132855216Y-79829742D01*
X132945164Y-79833276D01*
X133055193Y-79837600D01*
X133055197Y-79837600D01*
X133058053Y-79837712D01*
X133258945Y-79808584D01*
X133451165Y-79743334D01*
X133628276Y-79644147D01*
X133784345Y-79514345D01*
X133914147Y-79358276D01*
X134013334Y-79181165D01*
X134078584Y-78988945D01*
X134099992Y-78841298D01*
X134107449Y-78789869D01*
X134107449Y-78789864D01*
X134107712Y-78788053D01*
X134109232Y-78730000D01*
X134108139Y-78718097D01*
X134106565Y-78700964D01*
X156351148Y-78700964D01*
X156364424Y-78903522D01*
X156365130Y-78906302D01*
X156391099Y-79008552D01*
X156414392Y-79100269D01*
X156499377Y-79284616D01*
X156616533Y-79450389D01*
X156761938Y-79592035D01*
X156930720Y-79704812D01*
X157017124Y-79741934D01*
X157114588Y-79783808D01*
X157114590Y-79783809D01*
X157117228Y-79784942D01*
X157217641Y-79807663D01*
X157312426Y-79829111D01*
X157312429Y-79829111D01*
X157315216Y-79829742D01*
X157405164Y-79833276D01*
X157515193Y-79837600D01*
X157515197Y-79837600D01*
X157518053Y-79837712D01*
X157718945Y-79808584D01*
X157911165Y-79743334D01*
X158088276Y-79644147D01*
X158244345Y-79514345D01*
X158374147Y-79358276D01*
X158473334Y-79181165D01*
X158538584Y-78988945D01*
X158559992Y-78841298D01*
X158567449Y-78789869D01*
X158567449Y-78789864D01*
X158567712Y-78788053D01*
X158569232Y-78730000D01*
X158568139Y-78718097D01*
X158566565Y-78700964D01*
X158891148Y-78700964D01*
X158904424Y-78903522D01*
X158905130Y-78906302D01*
X158931099Y-79008552D01*
X158954392Y-79100269D01*
X159039377Y-79284616D01*
X159156533Y-79450389D01*
X159301938Y-79592035D01*
X159470720Y-79704812D01*
X159557124Y-79741934D01*
X159654588Y-79783808D01*
X159654590Y-79783809D01*
X159657228Y-79784942D01*
X159757641Y-79807663D01*
X159852426Y-79829111D01*
X159852429Y-79829111D01*
X159855216Y-79829742D01*
X159945164Y-79833276D01*
X160055193Y-79837600D01*
X160055197Y-79837600D01*
X160058053Y-79837712D01*
X160258945Y-79808584D01*
X160451165Y-79743334D01*
X160628276Y-79644147D01*
X160784345Y-79514345D01*
X160914147Y-79358276D01*
X161013334Y-79181165D01*
X161078584Y-78988945D01*
X161099992Y-78841298D01*
X161107449Y-78789869D01*
X161107449Y-78789864D01*
X161107712Y-78788053D01*
X161109232Y-78730000D01*
X161108714Y-78724359D01*
X165460395Y-78724359D01*
X165462499Y-78729438D01*
X165618368Y-78838577D01*
X165623079Y-78841298D01*
X165816996Y-78931723D01*
X165822105Y-78933583D01*
X166028777Y-78988960D01*
X166034131Y-78989904D01*
X166247280Y-79008552D01*
X166252720Y-79008552D01*
X166465869Y-78989904D01*
X166471223Y-78988960D01*
X166677895Y-78933583D01*
X166683004Y-78931723D01*
X166876921Y-78841298D01*
X166881632Y-78838577D01*
X167034570Y-78731490D01*
X167039113Y-78724359D01*
X171960395Y-78724359D01*
X171962499Y-78729438D01*
X172118368Y-78838577D01*
X172123079Y-78841298D01*
X172316996Y-78931723D01*
X172322105Y-78933583D01*
X172528777Y-78988960D01*
X172534131Y-78989904D01*
X172747280Y-79008552D01*
X172752720Y-79008552D01*
X172965869Y-78989904D01*
X172971223Y-78988960D01*
X173177895Y-78933583D01*
X173183004Y-78931723D01*
X173376921Y-78841298D01*
X173381632Y-78838577D01*
X173534570Y-78731490D01*
X173539682Y-78723465D01*
X173538492Y-78718097D01*
X172758790Y-77938395D01*
X172750000Y-77934754D01*
X172741210Y-77938395D01*
X171964036Y-78715569D01*
X171960395Y-78724359D01*
X167039113Y-78724359D01*
X167039682Y-78723465D01*
X167038492Y-78718097D01*
X166258790Y-77938395D01*
X166250000Y-77934754D01*
X166241210Y-77938395D01*
X165464036Y-78715569D01*
X165460395Y-78724359D01*
X161108714Y-78724359D01*
X161108139Y-78718097D01*
X161091544Y-78537501D01*
X161090658Y-78527859D01*
X161089879Y-78525096D01*
X161036335Y-78335244D01*
X161036333Y-78335240D01*
X161035557Y-78332487D01*
X160945776Y-78150428D01*
X160927437Y-78125869D01*
X160826037Y-77990078D01*
X160826036Y-77990076D01*
X160824320Y-77987779D01*
X160675258Y-77849987D01*
X160521099Y-77752720D01*
X164991448Y-77752720D01*
X165010096Y-77965869D01*
X165011040Y-77971223D01*
X165066417Y-78177895D01*
X165068277Y-78183004D01*
X165158702Y-78376921D01*
X165161423Y-78381632D01*
X165268510Y-78534570D01*
X165276535Y-78539682D01*
X165281903Y-78538492D01*
X166061605Y-77758790D01*
X166065246Y-77750000D01*
X166434754Y-77750000D01*
X166438395Y-77758790D01*
X167215569Y-78535964D01*
X167224359Y-78539605D01*
X167229438Y-78537501D01*
X167338577Y-78381632D01*
X167341298Y-78376921D01*
X167431723Y-78183004D01*
X167433583Y-78177895D01*
X167488960Y-77971223D01*
X167489904Y-77965869D01*
X167508552Y-77752720D01*
X171491448Y-77752720D01*
X171510096Y-77965869D01*
X171511040Y-77971223D01*
X171566417Y-78177895D01*
X171568277Y-78183004D01*
X171658702Y-78376921D01*
X171661423Y-78381632D01*
X171768510Y-78534570D01*
X171776535Y-78539682D01*
X171781903Y-78538492D01*
X172561605Y-77758790D01*
X172565246Y-77750000D01*
X172934754Y-77750000D01*
X172938395Y-77758790D01*
X173715569Y-78535964D01*
X173724359Y-78539605D01*
X173729438Y-78537501D01*
X173838577Y-78381632D01*
X173841298Y-78376921D01*
X173931723Y-78183004D01*
X173933583Y-78177895D01*
X173988960Y-77971223D01*
X173989904Y-77965869D01*
X174008552Y-77752720D01*
X174008552Y-77747280D01*
X173989904Y-77534131D01*
X173988960Y-77528777D01*
X173933583Y-77322105D01*
X173931723Y-77316996D01*
X173841298Y-77123079D01*
X173838577Y-77118368D01*
X173731490Y-76965430D01*
X173723465Y-76960318D01*
X173718097Y-76961508D01*
X172938395Y-77741210D01*
X172934754Y-77750000D01*
X172565246Y-77750000D01*
X172561605Y-77741210D01*
X171784431Y-76964036D01*
X171775641Y-76960395D01*
X171770562Y-76962499D01*
X171661423Y-77118368D01*
X171658702Y-77123079D01*
X171568277Y-77316996D01*
X171566417Y-77322105D01*
X171511040Y-77528777D01*
X171510096Y-77534131D01*
X171491448Y-77747280D01*
X171491448Y-77752720D01*
X167508552Y-77752720D01*
X167508552Y-77747280D01*
X167489904Y-77534131D01*
X167488960Y-77528777D01*
X167433583Y-77322105D01*
X167431723Y-77316996D01*
X167341298Y-77123079D01*
X167338577Y-77118368D01*
X167231490Y-76965430D01*
X167223465Y-76960318D01*
X167218097Y-76961508D01*
X166438395Y-77741210D01*
X166434754Y-77750000D01*
X166065246Y-77750000D01*
X166061605Y-77741210D01*
X165284431Y-76964036D01*
X165275641Y-76960395D01*
X165270562Y-76962499D01*
X165161423Y-77118368D01*
X165158702Y-77123079D01*
X165068277Y-77316996D01*
X165066417Y-77322105D01*
X165011040Y-77528777D01*
X165010096Y-77534131D01*
X164991448Y-77747280D01*
X164991448Y-77752720D01*
X160521099Y-77752720D01*
X160503581Y-77741667D01*
X160315039Y-77666446D01*
X160312233Y-77665888D01*
X160312230Y-77665887D01*
X160118752Y-77627402D01*
X160118750Y-77627402D01*
X160115946Y-77626844D01*
X160020353Y-77625593D01*
X159915833Y-77624224D01*
X159915828Y-77624224D01*
X159912971Y-77624187D01*
X159910151Y-77624672D01*
X159910146Y-77624672D01*
X159793751Y-77644673D01*
X159712910Y-77658564D01*
X159710222Y-77659556D01*
X159710217Y-77659557D01*
X159525151Y-77727832D01*
X159525148Y-77727833D01*
X159522463Y-77728824D01*
X159348010Y-77832612D01*
X159195392Y-77966455D01*
X159069720Y-78125869D01*
X158975203Y-78305515D01*
X158915007Y-78499378D01*
X158891148Y-78700964D01*
X158566565Y-78700964D01*
X158551544Y-78537501D01*
X158550658Y-78527859D01*
X158549879Y-78525096D01*
X158496335Y-78335244D01*
X158496333Y-78335240D01*
X158495557Y-78332487D01*
X158405776Y-78150428D01*
X158387437Y-78125869D01*
X158286037Y-77990078D01*
X158286036Y-77990076D01*
X158284320Y-77987779D01*
X158135258Y-77849987D01*
X157963581Y-77741667D01*
X157775039Y-77666446D01*
X157772233Y-77665888D01*
X157772230Y-77665887D01*
X157578752Y-77627402D01*
X157578750Y-77627402D01*
X157575946Y-77626844D01*
X157480353Y-77625593D01*
X157375833Y-77624224D01*
X157375828Y-77624224D01*
X157372971Y-77624187D01*
X157370151Y-77624672D01*
X157370146Y-77624672D01*
X157253751Y-77644673D01*
X157172910Y-77658564D01*
X157170222Y-77659556D01*
X157170217Y-77659557D01*
X156985151Y-77727832D01*
X156985148Y-77727833D01*
X156982463Y-77728824D01*
X156808010Y-77832612D01*
X156655392Y-77966455D01*
X156529720Y-78125869D01*
X156435203Y-78305515D01*
X156375007Y-78499378D01*
X156351148Y-78700964D01*
X134106565Y-78700964D01*
X134091544Y-78537501D01*
X134090658Y-78527859D01*
X134089879Y-78525096D01*
X134036335Y-78335244D01*
X134036333Y-78335240D01*
X134035557Y-78332487D01*
X133945776Y-78150428D01*
X133927437Y-78125869D01*
X133826037Y-77990078D01*
X133826036Y-77990076D01*
X133824320Y-77987779D01*
X133675258Y-77849987D01*
X133503581Y-77741667D01*
X133315039Y-77666446D01*
X133312233Y-77665888D01*
X133312230Y-77665887D01*
X133118752Y-77627402D01*
X133118750Y-77627402D01*
X133115946Y-77626844D01*
X133020353Y-77625593D01*
X132915833Y-77624224D01*
X132915828Y-77624224D01*
X132912971Y-77624187D01*
X132910151Y-77624672D01*
X132910146Y-77624672D01*
X132793751Y-77644673D01*
X132712910Y-77658564D01*
X132710222Y-77659556D01*
X132710217Y-77659557D01*
X132525151Y-77727832D01*
X132525148Y-77727833D01*
X132522463Y-77728824D01*
X132348010Y-77832612D01*
X132195392Y-77966455D01*
X132069720Y-78125869D01*
X131975203Y-78305515D01*
X131915007Y-78499378D01*
X131891148Y-78700964D01*
X130541565Y-78700964D01*
X130526544Y-78537501D01*
X130525658Y-78527859D01*
X130524879Y-78525096D01*
X130471335Y-78335244D01*
X130471333Y-78335240D01*
X130470557Y-78332487D01*
X130380776Y-78150428D01*
X130362437Y-78125869D01*
X130261037Y-77990078D01*
X130261036Y-77990076D01*
X130259320Y-77987779D01*
X130110258Y-77849987D01*
X129938581Y-77741667D01*
X129750039Y-77666446D01*
X129747233Y-77665888D01*
X129747230Y-77665887D01*
X129553752Y-77627402D01*
X129553750Y-77627402D01*
X129550946Y-77626844D01*
X129455353Y-77625593D01*
X129350833Y-77624224D01*
X129350828Y-77624224D01*
X129347971Y-77624187D01*
X129345151Y-77624672D01*
X129345146Y-77624672D01*
X129228751Y-77644673D01*
X129147910Y-77658564D01*
X129145222Y-77659556D01*
X129145217Y-77659557D01*
X128960151Y-77727832D01*
X128960148Y-77727833D01*
X128957463Y-77728824D01*
X128783010Y-77832612D01*
X128630392Y-77966455D01*
X128504720Y-78125869D01*
X128410203Y-78305515D01*
X128350007Y-78499378D01*
X128326148Y-78700964D01*
X127254000Y-78700964D01*
X127254000Y-75314933D01*
X128330500Y-75314933D01*
X128330501Y-77065066D01*
X128331100Y-77068075D01*
X128331100Y-77068080D01*
X128344065Y-77133262D01*
X128345266Y-77139301D01*
X128401516Y-77223484D01*
X128406633Y-77226903D01*
X128480580Y-77276314D01*
X128480582Y-77276315D01*
X128485699Y-77279734D01*
X128518753Y-77286309D01*
X128556920Y-77293901D01*
X128556923Y-77293901D01*
X128559933Y-77294500D01*
X129435000Y-77294500D01*
X130310066Y-77294499D01*
X130313075Y-77293900D01*
X130313080Y-77293900D01*
X130378263Y-77280935D01*
X130384301Y-77279734D01*
X130468484Y-77223484D01*
X130507688Y-77164812D01*
X130521314Y-77144420D01*
X130521315Y-77144418D01*
X130524734Y-77139301D01*
X130539500Y-77065067D01*
X130539499Y-75314934D01*
X130539499Y-75314933D01*
X131895500Y-75314933D01*
X131895501Y-77065066D01*
X131896100Y-77068075D01*
X131896100Y-77068080D01*
X131909065Y-77133262D01*
X131910266Y-77139301D01*
X131966516Y-77223484D01*
X131971633Y-77226903D01*
X132045580Y-77276314D01*
X132045582Y-77276315D01*
X132050699Y-77279734D01*
X132083753Y-77286309D01*
X132121920Y-77293901D01*
X132121923Y-77293901D01*
X132124933Y-77294500D01*
X133000000Y-77294500D01*
X133875066Y-77294499D01*
X133878075Y-77293900D01*
X133878080Y-77293900D01*
X133943263Y-77280935D01*
X133949301Y-77279734D01*
X134033484Y-77223484D01*
X134072688Y-77164812D01*
X134086314Y-77144420D01*
X134086315Y-77144418D01*
X134089734Y-77139301D01*
X134104500Y-77065067D01*
X134104499Y-76160964D01*
X156351148Y-76160964D01*
X156364424Y-76363522D01*
X156365130Y-76366302D01*
X156401650Y-76510096D01*
X156414392Y-76560269D01*
X156499377Y-76744616D01*
X156616533Y-76910389D01*
X156761938Y-77052035D01*
X156930720Y-77164812D01*
X157017124Y-77201934D01*
X157114588Y-77243808D01*
X157114590Y-77243809D01*
X157117228Y-77244942D01*
X157217641Y-77267663D01*
X157312426Y-77289111D01*
X157312429Y-77289111D01*
X157315216Y-77289742D01*
X157405164Y-77293276D01*
X157515193Y-77297600D01*
X157515197Y-77297600D01*
X157518053Y-77297712D01*
X157718945Y-77268584D01*
X157911165Y-77203334D01*
X158088276Y-77104147D01*
X158244345Y-76974345D01*
X158374147Y-76818276D01*
X158473334Y-76641165D01*
X158538584Y-76448945D01*
X158567712Y-76248053D01*
X158569232Y-76190000D01*
X158566303Y-76158116D01*
X158550920Y-75990714D01*
X158550658Y-75987859D01*
X158549879Y-75985096D01*
X158496335Y-75795244D01*
X158496333Y-75795240D01*
X158495557Y-75792487D01*
X158405776Y-75610428D01*
X158387437Y-75585869D01*
X158286037Y-75450078D01*
X158286036Y-75450076D01*
X158284320Y-75447779D01*
X158140609Y-75314933D01*
X158895500Y-75314933D01*
X158895501Y-77065066D01*
X158896100Y-77068075D01*
X158896100Y-77068080D01*
X158909065Y-77133262D01*
X158910266Y-77139301D01*
X158966516Y-77223484D01*
X158971633Y-77226903D01*
X159045580Y-77276314D01*
X159045582Y-77276315D01*
X159050699Y-77279734D01*
X159083753Y-77286309D01*
X159121920Y-77293901D01*
X159121923Y-77293901D01*
X159124933Y-77294500D01*
X160000000Y-77294500D01*
X160875066Y-77294499D01*
X160878075Y-77293900D01*
X160878080Y-77293900D01*
X160943263Y-77280935D01*
X160949301Y-77279734D01*
X161033484Y-77223484D01*
X161072688Y-77164812D01*
X161086314Y-77144420D01*
X161086315Y-77144418D01*
X161089734Y-77139301D01*
X161104500Y-77065067D01*
X161104500Y-76776535D01*
X165460318Y-76776535D01*
X165461508Y-76781903D01*
X166241210Y-77561605D01*
X166250000Y-77565246D01*
X166258790Y-77561605D01*
X167035964Y-76784431D01*
X167039235Y-76776535D01*
X171960318Y-76776535D01*
X171961508Y-76781903D01*
X172741210Y-77561605D01*
X172750000Y-77565246D01*
X172758790Y-77561605D01*
X173535964Y-76784431D01*
X173539605Y-76775641D01*
X173537501Y-76770562D01*
X173381632Y-76661423D01*
X173376921Y-76658702D01*
X173183004Y-76568277D01*
X173177895Y-76566417D01*
X172971223Y-76511040D01*
X172965869Y-76510096D01*
X172752720Y-76491448D01*
X172747280Y-76491448D01*
X172534131Y-76510096D01*
X172528777Y-76511040D01*
X172322105Y-76566417D01*
X172316996Y-76568277D01*
X172123079Y-76658702D01*
X172118368Y-76661423D01*
X171965430Y-76768510D01*
X171960318Y-76776535D01*
X167039235Y-76776535D01*
X167039605Y-76775641D01*
X167037501Y-76770562D01*
X166881632Y-76661423D01*
X166876921Y-76658702D01*
X166683004Y-76568277D01*
X166677895Y-76566417D01*
X166471223Y-76511040D01*
X166465869Y-76510096D01*
X166252720Y-76491448D01*
X166247280Y-76491448D01*
X166034131Y-76510096D01*
X166028777Y-76511040D01*
X165822105Y-76566417D01*
X165816996Y-76568277D01*
X165623079Y-76658702D01*
X165618368Y-76661423D01*
X165465430Y-76768510D01*
X165460318Y-76776535D01*
X161104500Y-76776535D01*
X161104499Y-75314934D01*
X161103516Y-75309987D01*
X161090935Y-75246737D01*
X161089734Y-75240699D01*
X161033484Y-75156516D01*
X160976686Y-75118564D01*
X160954420Y-75103686D01*
X160954418Y-75103685D01*
X160949301Y-75100266D01*
X160916247Y-75093691D01*
X160878080Y-75086099D01*
X160878077Y-75086099D01*
X160875067Y-75085500D01*
X160871996Y-75085500D01*
X160000001Y-75085501D01*
X159124934Y-75085501D01*
X159121925Y-75086100D01*
X159121920Y-75086100D01*
X159056737Y-75099065D01*
X159050699Y-75100266D01*
X158966516Y-75156516D01*
X158963097Y-75161633D01*
X158935326Y-75203195D01*
X158910266Y-75240699D01*
X158909065Y-75246737D01*
X158909065Y-75246738D01*
X158899564Y-75294504D01*
X158895500Y-75314933D01*
X158140609Y-75314933D01*
X158135258Y-75309987D01*
X157963581Y-75201667D01*
X157775039Y-75126446D01*
X157772233Y-75125888D01*
X157772230Y-75125887D01*
X157578752Y-75087402D01*
X157578750Y-75087402D01*
X157575946Y-75086844D01*
X157480353Y-75085593D01*
X157375833Y-75084224D01*
X157375828Y-75084224D01*
X157372971Y-75084187D01*
X157370151Y-75084672D01*
X157370146Y-75084672D01*
X157279397Y-75100266D01*
X157172910Y-75118564D01*
X157170222Y-75119556D01*
X157170217Y-75119557D01*
X156985151Y-75187832D01*
X156985148Y-75187833D01*
X156982463Y-75188824D01*
X156808010Y-75292612D01*
X156655392Y-75426455D01*
X156653616Y-75428708D01*
X156653615Y-75428709D01*
X156631140Y-75457219D01*
X156529720Y-75585869D01*
X156463019Y-75712646D01*
X156448323Y-75740579D01*
X156435203Y-75765515D01*
X156434356Y-75768242D01*
X156434355Y-75768245D01*
X156390633Y-75909054D01*
X156375007Y-75959378D01*
X156351148Y-76160964D01*
X134104499Y-76160964D01*
X134104499Y-75314934D01*
X134103516Y-75309987D01*
X134090935Y-75246737D01*
X134089734Y-75240699D01*
X134033484Y-75156516D01*
X133976686Y-75118564D01*
X133954420Y-75103686D01*
X133954418Y-75103685D01*
X133949301Y-75100266D01*
X133916247Y-75093691D01*
X133878080Y-75086099D01*
X133878077Y-75086099D01*
X133875067Y-75085500D01*
X133871996Y-75085500D01*
X133000001Y-75085501D01*
X132124934Y-75085501D01*
X132121925Y-75086100D01*
X132121920Y-75086100D01*
X132056737Y-75099065D01*
X132050699Y-75100266D01*
X131966516Y-75156516D01*
X131963097Y-75161633D01*
X131935326Y-75203195D01*
X131910266Y-75240699D01*
X131909065Y-75246737D01*
X131909065Y-75246738D01*
X131899564Y-75294504D01*
X131895500Y-75314933D01*
X130539499Y-75314933D01*
X130538516Y-75309987D01*
X130525935Y-75246737D01*
X130524734Y-75240699D01*
X130468484Y-75156516D01*
X130411686Y-75118564D01*
X130389420Y-75103686D01*
X130389418Y-75103685D01*
X130384301Y-75100266D01*
X130351247Y-75093691D01*
X130313080Y-75086099D01*
X130313077Y-75086099D01*
X130310067Y-75085500D01*
X130306996Y-75085500D01*
X129435001Y-75085501D01*
X128559934Y-75085501D01*
X128556925Y-75086100D01*
X128556920Y-75086100D01*
X128491737Y-75099065D01*
X128485699Y-75100266D01*
X128401516Y-75156516D01*
X128398097Y-75161633D01*
X128370326Y-75203195D01*
X128345266Y-75240699D01*
X128344065Y-75246737D01*
X128344065Y-75246738D01*
X128334564Y-75294504D01*
X128330500Y-75314933D01*
X127254000Y-75314933D01*
X127254000Y-74650000D01*
X164990708Y-74650000D01*
X165009839Y-74868674D01*
X165066653Y-75080703D01*
X165159421Y-75279646D01*
X165160983Y-75281877D01*
X165160986Y-75281882D01*
X165186280Y-75318005D01*
X165285326Y-75459457D01*
X165440543Y-75614674D01*
X165442781Y-75616241D01*
X165618118Y-75739014D01*
X165618123Y-75739017D01*
X165620354Y-75740579D01*
X165819297Y-75833347D01*
X165821938Y-75834055D01*
X165821939Y-75834055D01*
X166028690Y-75889455D01*
X166028694Y-75889456D01*
X166031326Y-75890161D01*
X166034042Y-75890399D01*
X166034044Y-75890399D01*
X166247280Y-75909054D01*
X166250000Y-75909292D01*
X166252720Y-75909054D01*
X166465956Y-75890399D01*
X166465958Y-75890399D01*
X166468674Y-75890161D01*
X166471306Y-75889456D01*
X166471310Y-75889455D01*
X166678061Y-75834055D01*
X166678062Y-75834055D01*
X166680703Y-75833347D01*
X166879646Y-75740579D01*
X166881877Y-75739017D01*
X166881882Y-75739014D01*
X167057219Y-75616241D01*
X167059457Y-75614674D01*
X167214674Y-75459457D01*
X167313720Y-75318005D01*
X167339014Y-75281882D01*
X167339017Y-75281877D01*
X167340579Y-75279646D01*
X167433347Y-75080703D01*
X167490161Y-74868674D01*
X167509292Y-74650000D01*
X171490708Y-74650000D01*
X171509839Y-74868674D01*
X171566653Y-75080703D01*
X171659421Y-75279646D01*
X171660983Y-75281877D01*
X171660986Y-75281882D01*
X171686280Y-75318005D01*
X171785326Y-75459457D01*
X171940543Y-75614674D01*
X171942781Y-75616241D01*
X172118118Y-75739014D01*
X172118123Y-75739017D01*
X172120354Y-75740579D01*
X172319297Y-75833347D01*
X172321938Y-75834055D01*
X172321939Y-75834055D01*
X172528690Y-75889455D01*
X172528694Y-75889456D01*
X172531326Y-75890161D01*
X172534042Y-75890399D01*
X172534044Y-75890399D01*
X172747280Y-75909054D01*
X172750000Y-75909292D01*
X172752720Y-75909054D01*
X172965956Y-75890399D01*
X172965958Y-75890399D01*
X172968674Y-75890161D01*
X172971306Y-75889456D01*
X172971310Y-75889455D01*
X173178061Y-75834055D01*
X173178062Y-75834055D01*
X173180703Y-75833347D01*
X173379646Y-75740579D01*
X173381877Y-75739017D01*
X173381882Y-75739014D01*
X173557219Y-75616241D01*
X173559457Y-75614674D01*
X173714674Y-75459457D01*
X173813720Y-75318005D01*
X173839014Y-75281882D01*
X173839017Y-75281877D01*
X173840579Y-75279646D01*
X173933347Y-75080703D01*
X173990161Y-74868674D01*
X174009292Y-74650000D01*
X173990161Y-74431326D01*
X173933347Y-74219297D01*
X173840579Y-74020354D01*
X173839017Y-74018123D01*
X173839014Y-74018118D01*
X173716241Y-73842781D01*
X173714674Y-73840543D01*
X173559457Y-73685326D01*
X173541746Y-73672925D01*
X173381882Y-73560986D01*
X173381877Y-73560983D01*
X173379646Y-73559421D01*
X173180703Y-73466653D01*
X173178061Y-73465945D01*
X172971310Y-73410545D01*
X172971306Y-73410544D01*
X172968674Y-73409839D01*
X172965958Y-73409601D01*
X172965956Y-73409601D01*
X172752720Y-73390946D01*
X172750000Y-73390708D01*
X172747280Y-73390946D01*
X172534044Y-73409601D01*
X172534042Y-73409601D01*
X172531326Y-73409839D01*
X172528694Y-73410544D01*
X172528690Y-73410545D01*
X172321939Y-73465945D01*
X172319297Y-73466653D01*
X172120354Y-73559421D01*
X172118123Y-73560983D01*
X172118118Y-73560986D01*
X171958254Y-73672925D01*
X171940543Y-73685326D01*
X171785326Y-73840543D01*
X171783759Y-73842781D01*
X171660986Y-74018118D01*
X171660983Y-74018123D01*
X171659421Y-74020354D01*
X171566653Y-74219297D01*
X171509839Y-74431326D01*
X171490708Y-74650000D01*
X167509292Y-74650000D01*
X167490161Y-74431326D01*
X167433347Y-74219297D01*
X167340579Y-74020354D01*
X167339017Y-74018123D01*
X167339014Y-74018118D01*
X167216241Y-73842781D01*
X167214674Y-73840543D01*
X167059457Y-73685326D01*
X167041746Y-73672925D01*
X166881882Y-73560986D01*
X166881877Y-73560983D01*
X166879646Y-73559421D01*
X166680703Y-73466653D01*
X166678061Y-73465945D01*
X166471310Y-73410545D01*
X166471306Y-73410544D01*
X166468674Y-73409839D01*
X166465958Y-73409601D01*
X166465956Y-73409601D01*
X166252720Y-73390946D01*
X166250000Y-73390708D01*
X166247280Y-73390946D01*
X166034044Y-73409601D01*
X166034042Y-73409601D01*
X166031326Y-73409839D01*
X166028694Y-73410544D01*
X166028690Y-73410545D01*
X165821939Y-73465945D01*
X165819297Y-73466653D01*
X165620354Y-73559421D01*
X165618123Y-73560983D01*
X165618118Y-73560986D01*
X165458254Y-73672925D01*
X165440543Y-73685326D01*
X165285326Y-73840543D01*
X165283759Y-73842781D01*
X165160986Y-74018118D01*
X165160983Y-74018123D01*
X165159421Y-74020354D01*
X165066653Y-74219297D01*
X165009839Y-74431326D01*
X164990708Y-74650000D01*
X127254000Y-74650000D01*
X127254000Y-70863036D01*
X127995500Y-70863036D01*
X127995596Y-70864262D01*
X127995597Y-70864275D01*
X128001360Y-70937501D01*
X128010354Y-71051775D01*
X128069312Y-71297351D01*
X128070254Y-71299625D01*
X128165017Y-71528405D01*
X128165021Y-71528412D01*
X128165960Y-71530680D01*
X128297919Y-71746017D01*
X128461939Y-71938061D01*
X128653983Y-72102081D01*
X128869320Y-72234040D01*
X128871588Y-72234979D01*
X128871595Y-72234983D01*
X129076145Y-72319710D01*
X129102649Y-72330688D01*
X129348225Y-72389646D01*
X129600000Y-72409461D01*
X129851775Y-72389646D01*
X130097351Y-72330688D01*
X130123855Y-72319710D01*
X130328405Y-72234983D01*
X130328412Y-72234979D01*
X130330680Y-72234040D01*
X130546017Y-72102081D01*
X130738061Y-71938061D01*
X130902081Y-71746017D01*
X131034040Y-71530680D01*
X131034979Y-71528412D01*
X131034983Y-71528405D01*
X131129746Y-71299625D01*
X131130688Y-71297351D01*
X131189646Y-71051775D01*
X131198640Y-70937501D01*
X131204403Y-70864275D01*
X131204404Y-70864262D01*
X131204500Y-70863036D01*
X151795500Y-70863036D01*
X151795596Y-70864262D01*
X151795597Y-70864275D01*
X151801360Y-70937501D01*
X151810354Y-71051775D01*
X151869312Y-71297351D01*
X151870254Y-71299625D01*
X151965017Y-71528405D01*
X151965021Y-71528412D01*
X151965960Y-71530680D01*
X152097919Y-71746017D01*
X152261939Y-71938061D01*
X152453983Y-72102081D01*
X152669320Y-72234040D01*
X152671588Y-72234979D01*
X152671595Y-72234983D01*
X152876145Y-72319710D01*
X152902649Y-72330688D01*
X153148225Y-72389646D01*
X153400000Y-72409461D01*
X153651775Y-72389646D01*
X153897351Y-72330688D01*
X153923855Y-72319710D01*
X154128405Y-72234983D01*
X154128412Y-72234979D01*
X154130680Y-72234040D01*
X154346017Y-72102081D01*
X154538061Y-71938061D01*
X154702081Y-71746017D01*
X154834040Y-71530680D01*
X154834979Y-71528412D01*
X154834983Y-71528405D01*
X154929746Y-71299625D01*
X154930688Y-71297351D01*
X154972220Y-71124359D01*
X165460395Y-71124359D01*
X165462499Y-71129438D01*
X165618368Y-71238577D01*
X165623079Y-71241298D01*
X165816996Y-71331723D01*
X165822105Y-71333583D01*
X166028777Y-71388960D01*
X166034131Y-71389904D01*
X166247280Y-71408552D01*
X166252720Y-71408552D01*
X166465869Y-71389904D01*
X166471223Y-71388960D01*
X166677895Y-71333583D01*
X166683004Y-71331723D01*
X166876921Y-71241298D01*
X166881632Y-71238577D01*
X167034570Y-71131490D01*
X167039113Y-71124359D01*
X171960395Y-71124359D01*
X171962499Y-71129438D01*
X172118368Y-71238577D01*
X172123079Y-71241298D01*
X172316996Y-71331723D01*
X172322105Y-71333583D01*
X172528777Y-71388960D01*
X172534131Y-71389904D01*
X172747280Y-71408552D01*
X172752720Y-71408552D01*
X172965869Y-71389904D01*
X172971223Y-71388960D01*
X173177895Y-71333583D01*
X173183004Y-71331723D01*
X173376921Y-71241298D01*
X173381632Y-71238577D01*
X173534570Y-71131490D01*
X173539682Y-71123465D01*
X173538492Y-71118097D01*
X172758790Y-70338395D01*
X172750000Y-70334754D01*
X172741210Y-70338395D01*
X171964036Y-71115569D01*
X171960395Y-71124359D01*
X167039113Y-71124359D01*
X167039682Y-71123465D01*
X167038492Y-71118097D01*
X166258790Y-70338395D01*
X166250000Y-70334754D01*
X166241210Y-70338395D01*
X165464036Y-71115569D01*
X165460395Y-71124359D01*
X154972220Y-71124359D01*
X154989646Y-71051775D01*
X154998640Y-70937501D01*
X155004403Y-70864275D01*
X155004404Y-70864262D01*
X155004500Y-70863036D01*
X155004500Y-70152720D01*
X164991448Y-70152720D01*
X165010096Y-70365869D01*
X165011040Y-70371223D01*
X165066417Y-70577895D01*
X165068277Y-70583004D01*
X165158702Y-70776921D01*
X165161423Y-70781632D01*
X165268510Y-70934570D01*
X165276535Y-70939682D01*
X165281903Y-70938492D01*
X166061605Y-70158790D01*
X166065246Y-70150000D01*
X166434754Y-70150000D01*
X166438395Y-70158790D01*
X167215569Y-70935964D01*
X167224359Y-70939605D01*
X167229438Y-70937501D01*
X167338577Y-70781632D01*
X167341298Y-70776921D01*
X167431723Y-70583004D01*
X167433583Y-70577895D01*
X167488960Y-70371223D01*
X167489904Y-70365869D01*
X167508552Y-70152720D01*
X171491448Y-70152720D01*
X171510096Y-70365869D01*
X171511040Y-70371223D01*
X171566417Y-70577895D01*
X171568277Y-70583004D01*
X171658702Y-70776921D01*
X171661423Y-70781632D01*
X171768510Y-70934570D01*
X171776535Y-70939682D01*
X171781903Y-70938492D01*
X172561605Y-70158790D01*
X172565246Y-70150000D01*
X172934754Y-70150000D01*
X172938395Y-70158790D01*
X173715569Y-70935964D01*
X173724359Y-70939605D01*
X173729438Y-70937501D01*
X173838577Y-70781632D01*
X173841298Y-70776921D01*
X173931723Y-70583004D01*
X173933583Y-70577895D01*
X173988960Y-70371223D01*
X173989904Y-70365869D01*
X174008552Y-70152720D01*
X174008552Y-70147280D01*
X173989904Y-69934131D01*
X173988960Y-69928777D01*
X173933583Y-69722105D01*
X173931723Y-69716996D01*
X173841298Y-69523079D01*
X173838577Y-69518368D01*
X173731490Y-69365430D01*
X173723465Y-69360318D01*
X173718097Y-69361508D01*
X172938395Y-70141210D01*
X172934754Y-70150000D01*
X172565246Y-70150000D01*
X172561605Y-70141210D01*
X171784431Y-69364036D01*
X171775641Y-69360395D01*
X171770562Y-69362499D01*
X171661423Y-69518368D01*
X171658702Y-69523079D01*
X171568277Y-69716996D01*
X171566417Y-69722105D01*
X171511040Y-69928777D01*
X171510096Y-69934131D01*
X171491448Y-70147280D01*
X171491448Y-70152720D01*
X167508552Y-70152720D01*
X167508552Y-70147280D01*
X167489904Y-69934131D01*
X167488960Y-69928777D01*
X167433583Y-69722105D01*
X167431723Y-69716996D01*
X167341298Y-69523079D01*
X167338577Y-69518368D01*
X167231490Y-69365430D01*
X167223465Y-69360318D01*
X167218097Y-69361508D01*
X166438395Y-70141210D01*
X166434754Y-70150000D01*
X166065246Y-70150000D01*
X166061605Y-70141210D01*
X165284431Y-69364036D01*
X165275641Y-69360395D01*
X165270562Y-69362499D01*
X165161423Y-69518368D01*
X165158702Y-69523079D01*
X165068277Y-69716996D01*
X165066417Y-69722105D01*
X165011040Y-69928777D01*
X165010096Y-69934131D01*
X164991448Y-70147280D01*
X164991448Y-70152720D01*
X155004500Y-70152720D01*
X155004500Y-69176535D01*
X165460318Y-69176535D01*
X165461508Y-69181903D01*
X166241210Y-69961605D01*
X166250000Y-69965246D01*
X166258790Y-69961605D01*
X167035964Y-69184431D01*
X167039235Y-69176535D01*
X171960318Y-69176535D01*
X171961508Y-69181903D01*
X172741210Y-69961605D01*
X172750000Y-69965246D01*
X172758790Y-69961605D01*
X173535964Y-69184431D01*
X173539605Y-69175641D01*
X173537501Y-69170562D01*
X173381632Y-69061423D01*
X173376921Y-69058702D01*
X173183004Y-68968277D01*
X173177895Y-68966417D01*
X172971223Y-68911040D01*
X172965869Y-68910096D01*
X172752720Y-68891448D01*
X172747280Y-68891448D01*
X172534131Y-68910096D01*
X172528777Y-68911040D01*
X172322105Y-68966417D01*
X172316996Y-68968277D01*
X172123079Y-69058702D01*
X172118368Y-69061423D01*
X171965430Y-69168510D01*
X171960318Y-69176535D01*
X167039235Y-69176535D01*
X167039605Y-69175641D01*
X167037501Y-69170562D01*
X166881632Y-69061423D01*
X166876921Y-69058702D01*
X166683004Y-68968277D01*
X166677895Y-68966417D01*
X166471223Y-68911040D01*
X166465869Y-68910096D01*
X166252720Y-68891448D01*
X166247280Y-68891448D01*
X166034131Y-68910096D01*
X166028777Y-68911040D01*
X165822105Y-68966417D01*
X165816996Y-68968277D01*
X165623079Y-69058702D01*
X165618368Y-69061423D01*
X165465430Y-69168510D01*
X165460318Y-69176535D01*
X155004500Y-69176535D01*
X155004500Y-68036964D01*
X155004404Y-68035738D01*
X155004403Y-68035725D01*
X154989839Y-67850680D01*
X154989646Y-67848225D01*
X154930688Y-67602649D01*
X154881203Y-67483182D01*
X154834983Y-67371595D01*
X154834979Y-67371588D01*
X154834040Y-67369320D01*
X154702081Y-67153983D01*
X154613272Y-67050000D01*
X164990708Y-67050000D01*
X164990946Y-67052720D01*
X164999989Y-67156080D01*
X165009839Y-67268674D01*
X165066653Y-67480703D01*
X165159421Y-67679646D01*
X165160983Y-67681877D01*
X165160986Y-67681882D01*
X165272925Y-67841746D01*
X165285326Y-67859457D01*
X165440543Y-68014674D01*
X165442781Y-68016241D01*
X165618118Y-68139014D01*
X165618123Y-68139017D01*
X165620354Y-68140579D01*
X165819297Y-68233347D01*
X165821938Y-68234055D01*
X165821939Y-68234055D01*
X166028690Y-68289455D01*
X166028694Y-68289456D01*
X166031326Y-68290161D01*
X166034042Y-68290399D01*
X166034044Y-68290399D01*
X166247280Y-68309054D01*
X166250000Y-68309292D01*
X166252720Y-68309054D01*
X166465956Y-68290399D01*
X166465958Y-68290399D01*
X166468674Y-68290161D01*
X166471306Y-68289456D01*
X166471310Y-68289455D01*
X166678061Y-68234055D01*
X166678062Y-68234055D01*
X166680703Y-68233347D01*
X166879646Y-68140579D01*
X166881877Y-68139017D01*
X166881882Y-68139014D01*
X167057219Y-68016241D01*
X167059457Y-68014674D01*
X167214674Y-67859457D01*
X167227075Y-67841746D01*
X167339014Y-67681882D01*
X167339017Y-67681877D01*
X167340579Y-67679646D01*
X167433347Y-67480703D01*
X167490161Y-67268674D01*
X167500012Y-67156080D01*
X167509054Y-67052720D01*
X167509292Y-67050000D01*
X171490708Y-67050000D01*
X171490946Y-67052720D01*
X171499989Y-67156080D01*
X171509839Y-67268674D01*
X171566653Y-67480703D01*
X171659421Y-67679646D01*
X171660983Y-67681877D01*
X171660986Y-67681882D01*
X171772925Y-67841746D01*
X171785326Y-67859457D01*
X171940543Y-68014674D01*
X171942781Y-68016241D01*
X172118118Y-68139014D01*
X172118123Y-68139017D01*
X172120354Y-68140579D01*
X172319297Y-68233347D01*
X172321938Y-68234055D01*
X172321939Y-68234055D01*
X172528690Y-68289455D01*
X172528694Y-68289456D01*
X172531326Y-68290161D01*
X172534042Y-68290399D01*
X172534044Y-68290399D01*
X172747280Y-68309054D01*
X172750000Y-68309292D01*
X172752720Y-68309054D01*
X172965956Y-68290399D01*
X172965958Y-68290399D01*
X172968674Y-68290161D01*
X172971306Y-68289456D01*
X172971310Y-68289455D01*
X173178061Y-68234055D01*
X173178062Y-68234055D01*
X173180703Y-68233347D01*
X173379646Y-68140579D01*
X173381877Y-68139017D01*
X173381882Y-68139014D01*
X173557219Y-68016241D01*
X173559457Y-68014674D01*
X173714674Y-67859457D01*
X173727075Y-67841746D01*
X173839014Y-67681882D01*
X173839017Y-67681877D01*
X173840579Y-67679646D01*
X173933347Y-67480703D01*
X173990161Y-67268674D01*
X174000012Y-67156080D01*
X174009054Y-67052720D01*
X174009292Y-67050000D01*
X173990161Y-66831326D01*
X173981210Y-66797919D01*
X173934055Y-66621939D01*
X173934055Y-66621938D01*
X173933347Y-66619297D01*
X173840579Y-66420354D01*
X173839017Y-66418123D01*
X173839014Y-66418118D01*
X173716241Y-66242781D01*
X173714674Y-66240543D01*
X173559457Y-66085326D01*
X173400593Y-65974088D01*
X173381882Y-65960986D01*
X173381877Y-65960983D01*
X173379646Y-65959421D01*
X173180703Y-65866653D01*
X173178061Y-65865945D01*
X172971310Y-65810545D01*
X172971306Y-65810544D01*
X172968674Y-65809839D01*
X172965958Y-65809601D01*
X172965956Y-65809601D01*
X172752720Y-65790946D01*
X172750000Y-65790708D01*
X172747280Y-65790946D01*
X172534044Y-65809601D01*
X172534042Y-65809601D01*
X172531326Y-65809839D01*
X172528694Y-65810544D01*
X172528690Y-65810545D01*
X172321939Y-65865945D01*
X172319297Y-65866653D01*
X172120354Y-65959421D01*
X172118123Y-65960983D01*
X172118118Y-65960986D01*
X172099407Y-65974088D01*
X171940543Y-66085326D01*
X171785326Y-66240543D01*
X171783759Y-66242781D01*
X171660986Y-66418118D01*
X171660983Y-66418123D01*
X171659421Y-66420354D01*
X171566653Y-66619297D01*
X171565945Y-66621938D01*
X171565945Y-66621939D01*
X171518791Y-66797919D01*
X171509839Y-66831326D01*
X171490708Y-67050000D01*
X167509292Y-67050000D01*
X167490161Y-66831326D01*
X167481210Y-66797919D01*
X167434055Y-66621939D01*
X167434055Y-66621938D01*
X167433347Y-66619297D01*
X167340579Y-66420354D01*
X167339017Y-66418123D01*
X167339014Y-66418118D01*
X167216241Y-66242781D01*
X167214674Y-66240543D01*
X167059457Y-66085326D01*
X166900593Y-65974088D01*
X166881882Y-65960986D01*
X166881877Y-65960983D01*
X166879646Y-65959421D01*
X166680703Y-65866653D01*
X166678061Y-65865945D01*
X166471310Y-65810545D01*
X166471306Y-65810544D01*
X166468674Y-65809839D01*
X166465958Y-65809601D01*
X166465956Y-65809601D01*
X166252720Y-65790946D01*
X166250000Y-65790708D01*
X166247280Y-65790946D01*
X166034044Y-65809601D01*
X166034042Y-65809601D01*
X166031326Y-65809839D01*
X166028694Y-65810544D01*
X166028690Y-65810545D01*
X165821939Y-65865945D01*
X165819297Y-65866653D01*
X165620354Y-65959421D01*
X165618123Y-65960983D01*
X165618118Y-65960986D01*
X165599407Y-65974088D01*
X165440543Y-66085326D01*
X165285326Y-66240543D01*
X165283759Y-66242781D01*
X165160986Y-66418118D01*
X165160983Y-66418123D01*
X165159421Y-66420354D01*
X165066653Y-66619297D01*
X165065945Y-66621938D01*
X165065945Y-66621939D01*
X165018791Y-66797919D01*
X165009839Y-66831326D01*
X164990708Y-67050000D01*
X154613272Y-67050000D01*
X154538061Y-66961939D01*
X154346017Y-66797919D01*
X154130680Y-66665960D01*
X154128412Y-66665021D01*
X154128405Y-66665017D01*
X153899625Y-66570254D01*
X153899626Y-66570254D01*
X153897351Y-66569312D01*
X153651775Y-66510354D01*
X153400000Y-66490539D01*
X153148225Y-66510354D01*
X152902649Y-66569312D01*
X152900374Y-66570254D01*
X152900375Y-66570254D01*
X152671595Y-66665017D01*
X152671588Y-66665021D01*
X152669320Y-66665960D01*
X152453983Y-66797919D01*
X152261939Y-66961939D01*
X152097919Y-67153983D01*
X151965960Y-67369320D01*
X151965021Y-67371588D01*
X151965017Y-67371595D01*
X151918797Y-67483182D01*
X151869312Y-67602649D01*
X151810354Y-67848225D01*
X151810161Y-67850680D01*
X151795597Y-68035725D01*
X151795596Y-68035738D01*
X151795500Y-68036964D01*
X151795500Y-70863036D01*
X131204500Y-70863036D01*
X131204500Y-68036964D01*
X131204404Y-68035738D01*
X131204403Y-68035725D01*
X131189839Y-67850680D01*
X131189646Y-67848225D01*
X131130688Y-67602649D01*
X131081203Y-67483182D01*
X131034983Y-67371595D01*
X131034979Y-67371588D01*
X131034040Y-67369320D01*
X130902081Y-67153983D01*
X130738061Y-66961939D01*
X130546017Y-66797919D01*
X130330680Y-66665960D01*
X130328412Y-66665021D01*
X130328405Y-66665017D01*
X130099625Y-66570254D01*
X130099626Y-66570254D01*
X130097351Y-66569312D01*
X129851775Y-66510354D01*
X129600000Y-66490539D01*
X129348225Y-66510354D01*
X129102649Y-66569312D01*
X129100374Y-66570254D01*
X129100375Y-66570254D01*
X128871595Y-66665017D01*
X128871588Y-66665021D01*
X128869320Y-66665960D01*
X128653983Y-66797919D01*
X128461939Y-66961939D01*
X128297919Y-67153983D01*
X128165960Y-67369320D01*
X128165021Y-67371588D01*
X128165017Y-67371595D01*
X128118797Y-67483182D01*
X128069312Y-67602649D01*
X128010354Y-67848225D01*
X128010161Y-67850680D01*
X127995597Y-68035725D01*
X127995596Y-68035738D01*
X127995500Y-68036964D01*
X127995500Y-70863036D01*
X127254000Y-70863036D01*
X127254000Y-65469649D01*
X156575951Y-65469649D01*
X156578060Y-65501827D01*
X156587080Y-65639431D01*
X156589829Y-65681377D01*
X156590536Y-65684160D01*
X156636883Y-65866653D01*
X156642058Y-65887031D01*
X156730890Y-66079723D01*
X156732541Y-66082058D01*
X156732542Y-66082061D01*
X156783537Y-66154217D01*
X156853350Y-66253000D01*
X157005337Y-66401059D01*
X157181760Y-66518941D01*
X157376711Y-66602699D01*
X157379497Y-66603329D01*
X157379502Y-66603331D01*
X157580872Y-66648896D01*
X157580875Y-66648896D01*
X157583662Y-66649527D01*
X157677279Y-66653205D01*
X157792821Y-66657745D01*
X157792825Y-66657745D01*
X157795681Y-66657857D01*
X158005667Y-66627410D01*
X158206589Y-66559207D01*
X158391717Y-66455530D01*
X158424783Y-66428030D01*
X158432099Y-66421945D01*
X159121001Y-66421945D01*
X159121600Y-66428030D01*
X159134536Y-66493068D01*
X159139157Y-66504224D01*
X159188457Y-66578007D01*
X159196993Y-66586543D01*
X159270775Y-66635843D01*
X159281933Y-66640464D01*
X159346970Y-66653401D01*
X159353054Y-66654000D01*
X160135569Y-66654000D01*
X160144359Y-66650359D01*
X160148000Y-66641569D01*
X160148000Y-66641568D01*
X160402000Y-66641568D01*
X160405641Y-66650358D01*
X160414431Y-66653999D01*
X161196945Y-66653999D01*
X161203030Y-66653400D01*
X161268068Y-66640464D01*
X161279224Y-66635843D01*
X161353007Y-66586543D01*
X161361543Y-66578007D01*
X161410843Y-66504225D01*
X161415464Y-66493067D01*
X161428401Y-66428030D01*
X161429000Y-66421946D01*
X161429000Y-65639431D01*
X161425359Y-65630641D01*
X161416569Y-65627000D01*
X160414431Y-65627000D01*
X160405641Y-65630641D01*
X160402000Y-65639431D01*
X160402000Y-66641568D01*
X160148000Y-66641568D01*
X160148000Y-65639431D01*
X160144359Y-65630641D01*
X160135569Y-65627000D01*
X159133432Y-65627000D01*
X159124642Y-65630641D01*
X159121001Y-65639431D01*
X159121001Y-66421945D01*
X158432099Y-66421945D01*
X158552654Y-66321680D01*
X158554852Y-66319852D01*
X158690530Y-66156717D01*
X158794207Y-65971589D01*
X158798730Y-65958266D01*
X158861489Y-65773380D01*
X158862410Y-65770667D01*
X158892857Y-65560681D01*
X158894446Y-65500000D01*
X158891921Y-65472513D01*
X158881634Y-65360569D01*
X159121000Y-65360569D01*
X159124641Y-65369359D01*
X159133431Y-65373000D01*
X160135569Y-65373000D01*
X160144359Y-65369359D01*
X160148000Y-65360569D01*
X160402000Y-65360569D01*
X160405641Y-65369359D01*
X160414431Y-65373000D01*
X161416568Y-65373000D01*
X161425358Y-65369359D01*
X161428999Y-65360569D01*
X161428999Y-64578055D01*
X161428400Y-64571970D01*
X161415464Y-64506932D01*
X161410843Y-64495776D01*
X161361543Y-64421993D01*
X161353007Y-64413457D01*
X161279225Y-64364157D01*
X161268067Y-64359536D01*
X161203030Y-64346599D01*
X161196946Y-64346000D01*
X160414431Y-64346000D01*
X160405641Y-64349641D01*
X160402000Y-64358431D01*
X160402000Y-65360569D01*
X160148000Y-65360569D01*
X160148000Y-64358432D01*
X160144359Y-64349642D01*
X160135569Y-64346001D01*
X159353055Y-64346001D01*
X159346970Y-64346600D01*
X159281932Y-64359536D01*
X159270776Y-64364157D01*
X159196993Y-64413457D01*
X159188457Y-64421993D01*
X159139157Y-64495775D01*
X159134536Y-64506933D01*
X159121599Y-64571970D01*
X159121000Y-64578054D01*
X159121000Y-65360569D01*
X158881634Y-65360569D01*
X158875293Y-65291563D01*
X158875031Y-65288708D01*
X158817436Y-65084492D01*
X158723590Y-64894191D01*
X158721872Y-64891890D01*
X158598353Y-64726478D01*
X158598352Y-64726476D01*
X158596636Y-64724179D01*
X158440826Y-64580150D01*
X158261377Y-64466926D01*
X158064300Y-64388300D01*
X158061494Y-64387742D01*
X158061491Y-64387741D01*
X157859001Y-64347464D01*
X157859000Y-64347464D01*
X157856195Y-64346906D01*
X157756151Y-64345596D01*
X157646893Y-64344165D01*
X157646888Y-64344165D01*
X157644031Y-64344128D01*
X157641211Y-64344613D01*
X157641206Y-64344613D01*
X157527469Y-64364157D01*
X157434913Y-64380061D01*
X157432225Y-64381053D01*
X157432220Y-64381054D01*
X157238534Y-64452509D01*
X157238531Y-64452511D01*
X157235846Y-64453501D01*
X157233386Y-64454964D01*
X157233385Y-64454965D01*
X157210712Y-64468454D01*
X157053495Y-64561988D01*
X156893968Y-64701890D01*
X156762607Y-64868520D01*
X156663812Y-65056299D01*
X156600891Y-65258938D01*
X156575951Y-65469649D01*
X127254000Y-65469649D01*
X127254000Y-63524359D01*
X165460395Y-63524359D01*
X165462499Y-63529438D01*
X165618368Y-63638577D01*
X165623079Y-63641298D01*
X165816996Y-63731723D01*
X165822105Y-63733583D01*
X166028777Y-63788960D01*
X166034131Y-63789904D01*
X166247280Y-63808552D01*
X166252720Y-63808552D01*
X166465869Y-63789904D01*
X166471223Y-63788960D01*
X166677895Y-63733583D01*
X166683004Y-63731723D01*
X166876921Y-63641298D01*
X166881632Y-63638577D01*
X167034570Y-63531490D01*
X167039113Y-63524359D01*
X171960395Y-63524359D01*
X171962499Y-63529438D01*
X172118368Y-63638577D01*
X172123079Y-63641298D01*
X172316996Y-63731723D01*
X172322105Y-63733583D01*
X172528777Y-63788960D01*
X172534131Y-63789904D01*
X172747280Y-63808552D01*
X172752720Y-63808552D01*
X172965869Y-63789904D01*
X172971223Y-63788960D01*
X173177895Y-63733583D01*
X173183004Y-63731723D01*
X173376921Y-63641298D01*
X173381632Y-63638577D01*
X173534570Y-63531490D01*
X173539682Y-63523465D01*
X173538492Y-63518097D01*
X172758790Y-62738395D01*
X172750000Y-62734754D01*
X172741210Y-62738395D01*
X171964036Y-63515569D01*
X171960395Y-63524359D01*
X167039113Y-63524359D01*
X167039682Y-63523465D01*
X167038492Y-63518097D01*
X166258790Y-62738395D01*
X166250000Y-62734754D01*
X166241210Y-62738395D01*
X165464036Y-63515569D01*
X165460395Y-63524359D01*
X127254000Y-63524359D01*
X127254000Y-62552720D01*
X164991448Y-62552720D01*
X165010096Y-62765869D01*
X165011040Y-62771223D01*
X165066417Y-62977895D01*
X165068277Y-62983004D01*
X165158702Y-63176921D01*
X165161423Y-63181632D01*
X165268510Y-63334570D01*
X165276535Y-63339682D01*
X165281903Y-63338492D01*
X166061605Y-62558790D01*
X166065246Y-62550000D01*
X166434754Y-62550000D01*
X166438395Y-62558790D01*
X167215569Y-63335964D01*
X167224359Y-63339605D01*
X167229438Y-63337501D01*
X167338577Y-63181632D01*
X167341298Y-63176921D01*
X167431723Y-62983004D01*
X167433583Y-62977895D01*
X167488960Y-62771223D01*
X167489904Y-62765869D01*
X167508552Y-62552720D01*
X171491448Y-62552720D01*
X171510096Y-62765869D01*
X171511040Y-62771223D01*
X171566417Y-62977895D01*
X171568277Y-62983004D01*
X171658702Y-63176921D01*
X171661423Y-63181632D01*
X171768510Y-63334570D01*
X171776535Y-63339682D01*
X171781903Y-63338492D01*
X172561605Y-62558790D01*
X172565246Y-62550000D01*
X172934754Y-62550000D01*
X172938395Y-62558790D01*
X173715569Y-63335964D01*
X173724359Y-63339605D01*
X173729438Y-63337501D01*
X173838577Y-63181632D01*
X173841298Y-63176921D01*
X173931723Y-62983004D01*
X173933583Y-62977895D01*
X173988960Y-62771223D01*
X173989904Y-62765869D01*
X174008552Y-62552720D01*
X174008552Y-62547280D01*
X173989904Y-62334131D01*
X173988960Y-62328777D01*
X173933583Y-62122105D01*
X173931723Y-62116996D01*
X173841298Y-61923079D01*
X173838577Y-61918368D01*
X173731490Y-61765430D01*
X173723465Y-61760318D01*
X173718097Y-61761508D01*
X172938395Y-62541210D01*
X172934754Y-62550000D01*
X172565246Y-62550000D01*
X172561605Y-62541210D01*
X171784431Y-61764036D01*
X171775641Y-61760395D01*
X171770562Y-61762499D01*
X171661423Y-61918368D01*
X171658702Y-61923079D01*
X171568277Y-62116996D01*
X171566417Y-62122105D01*
X171511040Y-62328777D01*
X171510096Y-62334131D01*
X171491448Y-62547280D01*
X171491448Y-62552720D01*
X167508552Y-62552720D01*
X167508552Y-62547280D01*
X167489904Y-62334131D01*
X167488960Y-62328777D01*
X167433583Y-62122105D01*
X167431723Y-62116996D01*
X167341298Y-61923079D01*
X167338577Y-61918368D01*
X167231490Y-61765430D01*
X167223465Y-61760318D01*
X167218097Y-61761508D01*
X166438395Y-62541210D01*
X166434754Y-62550000D01*
X166065246Y-62550000D01*
X166061605Y-62541210D01*
X165284431Y-61764036D01*
X165275641Y-61760395D01*
X165270562Y-61762499D01*
X165161423Y-61918368D01*
X165158702Y-61923079D01*
X165068277Y-62116996D01*
X165066417Y-62122105D01*
X165011040Y-62328777D01*
X165010096Y-62334131D01*
X164991448Y-62547280D01*
X164991448Y-62552720D01*
X127254000Y-62552720D01*
X127254000Y-61576535D01*
X165460318Y-61576535D01*
X165461508Y-61581903D01*
X166241210Y-62361605D01*
X166250000Y-62365246D01*
X166258790Y-62361605D01*
X167035964Y-61584431D01*
X167039235Y-61576535D01*
X171960318Y-61576535D01*
X171961508Y-61581903D01*
X172741210Y-62361605D01*
X172750000Y-62365246D01*
X172758790Y-62361605D01*
X173535964Y-61584431D01*
X173539605Y-61575641D01*
X173537501Y-61570562D01*
X173381632Y-61461423D01*
X173376921Y-61458702D01*
X173183004Y-61368277D01*
X173177895Y-61366417D01*
X172971223Y-61311040D01*
X172965869Y-61310096D01*
X172752720Y-61291448D01*
X172747280Y-61291448D01*
X172534131Y-61310096D01*
X172528777Y-61311040D01*
X172322105Y-61366417D01*
X172316996Y-61368277D01*
X172123079Y-61458702D01*
X172118368Y-61461423D01*
X171965430Y-61568510D01*
X171960318Y-61576535D01*
X167039235Y-61576535D01*
X167039605Y-61575641D01*
X167037501Y-61570562D01*
X166881632Y-61461423D01*
X166876921Y-61458702D01*
X166683004Y-61368277D01*
X166677895Y-61366417D01*
X166471223Y-61311040D01*
X166465869Y-61310096D01*
X166252720Y-61291448D01*
X166247280Y-61291448D01*
X166034131Y-61310096D01*
X166028777Y-61311040D01*
X165822105Y-61366417D01*
X165816996Y-61368277D01*
X165623079Y-61458702D01*
X165618368Y-61461423D01*
X165465430Y-61568510D01*
X165460318Y-61576535D01*
X127254000Y-61576535D01*
X127254000Y-58031172D01*
X127255201Y-58018979D01*
X127257775Y-58006038D01*
X127258976Y-58000000D01*
X128390539Y-58000000D01*
X128410354Y-58251775D01*
X128469312Y-58497351D01*
X128470254Y-58499625D01*
X128565017Y-58728405D01*
X128565021Y-58728412D01*
X128565960Y-58730680D01*
X128567245Y-58732776D01*
X128567246Y-58732779D01*
X128660072Y-58884257D01*
X128697919Y-58946017D01*
X128861939Y-59138061D01*
X129053983Y-59302081D01*
X129056080Y-59303366D01*
X129259513Y-59428030D01*
X129269320Y-59434040D01*
X129271588Y-59434979D01*
X129271595Y-59434983D01*
X129470443Y-59517348D01*
X129502649Y-59530688D01*
X129748225Y-59589646D01*
X129804882Y-59594105D01*
X129935725Y-59604403D01*
X129935738Y-59604404D01*
X129936964Y-59604500D01*
X130063036Y-59604500D01*
X130064262Y-59604404D01*
X130064275Y-59604403D01*
X130195118Y-59594105D01*
X130251775Y-59589646D01*
X130497351Y-59530688D01*
X130529557Y-59517348D01*
X130728405Y-59434983D01*
X130728412Y-59434979D01*
X130730680Y-59434040D01*
X130740488Y-59428030D01*
X130943920Y-59303366D01*
X130946017Y-59302081D01*
X131138061Y-59138061D01*
X131302081Y-58946017D01*
X131339928Y-58884257D01*
X131432754Y-58732779D01*
X131432755Y-58732776D01*
X131434040Y-58730680D01*
X131434979Y-58728412D01*
X131434983Y-58728405D01*
X131529746Y-58499625D01*
X131530688Y-58497351D01*
X131537339Y-58469649D01*
X156575951Y-58469649D01*
X156578060Y-58501827D01*
X156587080Y-58639431D01*
X156589829Y-58681377D01*
X156602350Y-58730680D01*
X156613195Y-58773380D01*
X156642058Y-58887031D01*
X156730890Y-59079723D01*
X156853350Y-59253000D01*
X157005337Y-59401059D01*
X157181760Y-59518941D01*
X157376711Y-59602699D01*
X157379497Y-59603329D01*
X157379502Y-59603331D01*
X157580872Y-59648896D01*
X157580875Y-59648896D01*
X157583662Y-59649527D01*
X157677279Y-59653205D01*
X157792821Y-59657745D01*
X157792825Y-59657745D01*
X157795681Y-59657857D01*
X158005667Y-59627410D01*
X158206589Y-59559207D01*
X158391717Y-59455530D01*
X158419103Y-59432754D01*
X158432099Y-59421945D01*
X159121001Y-59421945D01*
X159121600Y-59428030D01*
X159134536Y-59493068D01*
X159139157Y-59504224D01*
X159188457Y-59578007D01*
X159196993Y-59586543D01*
X159270775Y-59635843D01*
X159281933Y-59640464D01*
X159346970Y-59653401D01*
X159353054Y-59654000D01*
X160135569Y-59654000D01*
X160144359Y-59650359D01*
X160148000Y-59641569D01*
X160148000Y-59641568D01*
X160402000Y-59641568D01*
X160405641Y-59650358D01*
X160414431Y-59653999D01*
X161196945Y-59653999D01*
X161203030Y-59653400D01*
X161268068Y-59640464D01*
X161279224Y-59635843D01*
X161353007Y-59586543D01*
X161361543Y-59578007D01*
X161410843Y-59504225D01*
X161415464Y-59493067D01*
X161428401Y-59428030D01*
X161429000Y-59421946D01*
X161429000Y-58639431D01*
X161425359Y-58630641D01*
X161416569Y-58627000D01*
X160414431Y-58627000D01*
X160405641Y-58630641D01*
X160402000Y-58639431D01*
X160402000Y-59641568D01*
X160148000Y-59641568D01*
X160148000Y-58639431D01*
X160144359Y-58630641D01*
X160135569Y-58627000D01*
X159133432Y-58627000D01*
X159124642Y-58630641D01*
X159121001Y-58639431D01*
X159121001Y-59421945D01*
X158432099Y-59421945D01*
X158552654Y-59321680D01*
X158554852Y-59319852D01*
X158690530Y-59156717D01*
X158794207Y-58971589D01*
X158862410Y-58770667D01*
X158892857Y-58560681D01*
X158894446Y-58500000D01*
X158891921Y-58472513D01*
X158881634Y-58360569D01*
X159121000Y-58360569D01*
X159124641Y-58369359D01*
X159133431Y-58373000D01*
X160135569Y-58373000D01*
X160144359Y-58369359D01*
X160148000Y-58360569D01*
X160402000Y-58360569D01*
X160405641Y-58369359D01*
X160414431Y-58373000D01*
X161416568Y-58373000D01*
X161425358Y-58369359D01*
X161428999Y-58360569D01*
X161428999Y-58000000D01*
X172390539Y-58000000D01*
X172410354Y-58251775D01*
X172469312Y-58497351D01*
X172470254Y-58499625D01*
X172565017Y-58728405D01*
X172565021Y-58728412D01*
X172565960Y-58730680D01*
X172567245Y-58732776D01*
X172567246Y-58732779D01*
X172660072Y-58884257D01*
X172697919Y-58946017D01*
X172861939Y-59138061D01*
X173053983Y-59302081D01*
X173056080Y-59303366D01*
X173259513Y-59428030D01*
X173269320Y-59434040D01*
X173271588Y-59434979D01*
X173271595Y-59434983D01*
X173470443Y-59517348D01*
X173502649Y-59530688D01*
X173748225Y-59589646D01*
X173804882Y-59594105D01*
X173935725Y-59604403D01*
X173935738Y-59604404D01*
X173936964Y-59604500D01*
X174063036Y-59604500D01*
X174064262Y-59604404D01*
X174064275Y-59604403D01*
X174195118Y-59594105D01*
X174251775Y-59589646D01*
X174497351Y-59530688D01*
X174529557Y-59517348D01*
X174728405Y-59434983D01*
X174728412Y-59434979D01*
X174730680Y-59434040D01*
X174740488Y-59428030D01*
X174943920Y-59303366D01*
X174946017Y-59302081D01*
X175138061Y-59138061D01*
X175302081Y-58946017D01*
X175339928Y-58884257D01*
X175432754Y-58732779D01*
X175432755Y-58732776D01*
X175434040Y-58730680D01*
X175434979Y-58728412D01*
X175434983Y-58728405D01*
X175529746Y-58499625D01*
X175530688Y-58497351D01*
X175589646Y-58251775D01*
X175609461Y-58000000D01*
X175589646Y-57748225D01*
X175530688Y-57502649D01*
X175497279Y-57421993D01*
X175434983Y-57271595D01*
X175434979Y-57271588D01*
X175434040Y-57269320D01*
X175302081Y-57053983D01*
X175138061Y-56861939D01*
X174946017Y-56697919D01*
X174730680Y-56565960D01*
X174728412Y-56565021D01*
X174728405Y-56565017D01*
X174499625Y-56470254D01*
X174499626Y-56470254D01*
X174497351Y-56469312D01*
X174251775Y-56410354D01*
X174195118Y-56405895D01*
X174064275Y-56395597D01*
X174064262Y-56395596D01*
X174063036Y-56395500D01*
X173936964Y-56395500D01*
X173935738Y-56395596D01*
X173935725Y-56395597D01*
X173804882Y-56405895D01*
X173748225Y-56410354D01*
X173502649Y-56469312D01*
X173500374Y-56470254D01*
X173500375Y-56470254D01*
X173271595Y-56565017D01*
X173271588Y-56565021D01*
X173269320Y-56565960D01*
X173053983Y-56697919D01*
X172861939Y-56861939D01*
X172697919Y-57053983D01*
X172565960Y-57269320D01*
X172565021Y-57271588D01*
X172565017Y-57271595D01*
X172502721Y-57421993D01*
X172469312Y-57502649D01*
X172410354Y-57748225D01*
X172390539Y-58000000D01*
X161428999Y-58000000D01*
X161428999Y-57578055D01*
X161428400Y-57571970D01*
X161415464Y-57506932D01*
X161410843Y-57495776D01*
X161361543Y-57421993D01*
X161353007Y-57413457D01*
X161279225Y-57364157D01*
X161268067Y-57359536D01*
X161203030Y-57346599D01*
X161196946Y-57346000D01*
X160414431Y-57346000D01*
X160405641Y-57349641D01*
X160402000Y-57358431D01*
X160402000Y-58360569D01*
X160148000Y-58360569D01*
X160148000Y-57358432D01*
X160144359Y-57349642D01*
X160135569Y-57346001D01*
X159353055Y-57346001D01*
X159346970Y-57346600D01*
X159281932Y-57359536D01*
X159270776Y-57364157D01*
X159196993Y-57413457D01*
X159188457Y-57421993D01*
X159139157Y-57495775D01*
X159134536Y-57506933D01*
X159121599Y-57571970D01*
X159121000Y-57578054D01*
X159121000Y-58360569D01*
X158881634Y-58360569D01*
X158875293Y-58291563D01*
X158875031Y-58288708D01*
X158864615Y-58251775D01*
X158818214Y-58087249D01*
X158818212Y-58087245D01*
X158817436Y-58084492D01*
X158723590Y-57894191D01*
X158721872Y-57891890D01*
X158598353Y-57726478D01*
X158598352Y-57726476D01*
X158596636Y-57724179D01*
X158440826Y-57580150D01*
X158261377Y-57466926D01*
X158064300Y-57388300D01*
X158061494Y-57387742D01*
X158061491Y-57387741D01*
X157859001Y-57347464D01*
X157859000Y-57347464D01*
X157856195Y-57346906D01*
X157756151Y-57345596D01*
X157646893Y-57344165D01*
X157646888Y-57344165D01*
X157644031Y-57344128D01*
X157641211Y-57344613D01*
X157641206Y-57344613D01*
X157527469Y-57364157D01*
X157434913Y-57380061D01*
X157432225Y-57381053D01*
X157432220Y-57381054D01*
X157238534Y-57452509D01*
X157238531Y-57452511D01*
X157235846Y-57453501D01*
X157233386Y-57454964D01*
X157233385Y-57454965D01*
X157210712Y-57468454D01*
X157053495Y-57561988D01*
X157030563Y-57582099D01*
X156908572Y-57689083D01*
X156893968Y-57701890D01*
X156892191Y-57704143D01*
X156892191Y-57704144D01*
X156859328Y-57745831D01*
X156762607Y-57868520D01*
X156663812Y-58056299D01*
X156600891Y-58258938D01*
X156575951Y-58469649D01*
X131537339Y-58469649D01*
X131589646Y-58251775D01*
X131609461Y-58000000D01*
X131589646Y-57748225D01*
X131530688Y-57502649D01*
X131497279Y-57421993D01*
X131434983Y-57271595D01*
X131434979Y-57271588D01*
X131434040Y-57269320D01*
X131302081Y-57053983D01*
X131138061Y-56861939D01*
X130946017Y-56697919D01*
X130730680Y-56565960D01*
X130728412Y-56565021D01*
X130728405Y-56565017D01*
X130499625Y-56470254D01*
X130499626Y-56470254D01*
X130497351Y-56469312D01*
X130251775Y-56410354D01*
X130195118Y-56405895D01*
X130064275Y-56395597D01*
X130064262Y-56395596D01*
X130063036Y-56395500D01*
X129936964Y-56395500D01*
X129935738Y-56395596D01*
X129935725Y-56395597D01*
X129804882Y-56405895D01*
X129748225Y-56410354D01*
X129502649Y-56469312D01*
X129500374Y-56470254D01*
X129500375Y-56470254D01*
X129271595Y-56565017D01*
X129271588Y-56565021D01*
X129269320Y-56565960D01*
X129053983Y-56697919D01*
X128861939Y-56861939D01*
X128697919Y-57053983D01*
X128565960Y-57269320D01*
X128565021Y-57271588D01*
X128565017Y-57271595D01*
X128502721Y-57421993D01*
X128469312Y-57502649D01*
X128410354Y-57748225D01*
X128390539Y-58000000D01*
X127258976Y-58000000D01*
X127256642Y-57988266D01*
X127255540Y-57972577D01*
X127260072Y-57891890D01*
X127271070Y-57696042D01*
X127271854Y-57689083D01*
X127322261Y-57392415D01*
X127323821Y-57385582D01*
X127407125Y-57096427D01*
X127409440Y-57089811D01*
X127424281Y-57053983D01*
X127524598Y-56811795D01*
X127527639Y-56805480D01*
X127587797Y-56696634D01*
X127673196Y-56542115D01*
X127676922Y-56536185D01*
X127851059Y-56290761D01*
X127855429Y-56285281D01*
X128055946Y-56060902D01*
X128060902Y-56055946D01*
X128285281Y-55855429D01*
X128290761Y-55851059D01*
X128536185Y-55676922D01*
X128542115Y-55673196D01*
X128805487Y-55527636D01*
X128811795Y-55524598D01*
X128851215Y-55508270D01*
X129089816Y-55409438D01*
X129096423Y-55407126D01*
X129246652Y-55363846D01*
X129385582Y-55323821D01*
X129392415Y-55322261D01*
X129536967Y-55297700D01*
X129689090Y-55271853D01*
X129696042Y-55271070D01*
X129972580Y-55255540D01*
X129988266Y-55256642D01*
X130000000Y-55258976D01*
X130006038Y-55257775D01*
X130018979Y-55255201D01*
X130031172Y-55254000D01*
X173968828Y-55254000D01*
X173981021Y-55255201D01*
G37*
%TD.AperFunction*%
M02*
