%FSLAX45Y45*%
G04 Gerber Fmt 4.5, Leading zero omitted, Abs format (unit mm)*
G04 Created by KiCad (PCBNEW (6.0.2)) date 2022-03-15 19:19:35*
%MOMM*%
%LPD*%
G01*
G04 APERTURE LIST*
%TA.AperFunction,Profile*%
%ADD10C,0.050000*%
%TD*%
%ADD11C,0.200000*%
%ADD12C,0.090000*%
%ADD13C,0.100000*%
%ADD14C,0.110000*%
G04 APERTURE END LIST*
D10*
X17700000Y-10200000D02*
X17700000Y-5800000D01*
X12700000Y-10200000D02*
G75*
G03*
X13000000Y-10500000I300000J0D01*
G01*
X13000000Y-5500000D02*
G75*
G03*
X12700000Y-5800000I0J-300000D01*
G01*
X12700000Y-5800000D02*
X12700000Y-10200000D01*
X17400000Y-5500000D02*
X13000000Y-5500000D01*
X13000000Y-10500000D02*
X17400000Y-10500000D01*
X17400000Y-10500000D02*
G75*
G03*
X17700000Y-10200000I0J300000D01*
G01*
X17700000Y-5800000D02*
G75*
G03*
X17400000Y-5500000I-300000J0D01*
G01*
D11*
D12*
X15728500Y-5805000D02*
X15818500Y-5895000D01*
X15818500Y-5805000D02*
X15728500Y-5895000D01*
X15728500Y-6505000D02*
X15818500Y-6595000D01*
X15818500Y-6505000D02*
X15728500Y-6595000D01*
X15982500Y-5805000D02*
X16072500Y-5895000D01*
X16072500Y-5805000D02*
X15982500Y-5895000D01*
X15982500Y-6505000D02*
X16072500Y-6595000D01*
X16072500Y-6505000D02*
X15982500Y-6595000D01*
D13*
X12993500Y-7619000D02*
G75*
G03*
X12993500Y-7619000I-50000J0D01*
G01*
X12993500Y-7873000D02*
G75*
G03*
X12993500Y-7873000I-50000J0D01*
G01*
X12993500Y-8127000D02*
G75*
G03*
X12993500Y-8127000I-50000J0D01*
G01*
X12993500Y-8381000D02*
G75*
G03*
X12993500Y-8381000I-50000J0D01*
G01*
X13350000Y-7619000D02*
G75*
G03*
X13350000Y-7619000I-50000J0D01*
G01*
X13350000Y-7873000D02*
G75*
G03*
X13350000Y-7873000I-50000J0D01*
G01*
X13350000Y-8127000D02*
G75*
G03*
X13350000Y-8127000I-50000J0D01*
G01*
X13350000Y-8381000D02*
G75*
G03*
X13350000Y-8381000I-50000J0D01*
G01*
X15796000Y-7619000D02*
G75*
G03*
X15796000Y-7619000I-50000J0D01*
G01*
X15796000Y-7873000D02*
G75*
G03*
X15796000Y-7873000I-50000J0D01*
G01*
X15796000Y-8127000D02*
G75*
G03*
X15796000Y-8127000I-50000J0D01*
G01*
X15796000Y-8381000D02*
G75*
G03*
X15796000Y-8381000I-50000J0D01*
G01*
X15870000Y-9495000D02*
G75*
G03*
X15870000Y-9495000I-50000J0D01*
G01*
X15870000Y-10255000D02*
G75*
G03*
X15870000Y-10255000I-50000J0D01*
G01*
X16050000Y-7619000D02*
G75*
G03*
X16050000Y-7619000I-50000J0D01*
G01*
X16050000Y-7873000D02*
G75*
G03*
X16050000Y-7873000I-50000J0D01*
G01*
X16050000Y-8127000D02*
G75*
G03*
X16050000Y-8127000I-50000J0D01*
G01*
X16050000Y-8381000D02*
G75*
G03*
X16050000Y-8381000I-50000J0D01*
G01*
D14*
X16625000Y-6200000D02*
X16625000Y-6310000D01*
X16570000Y-6255000D02*
X16680000Y-6255000D01*
X16625000Y-6650000D02*
X16625000Y-6760000D01*
X16570000Y-6705000D02*
X16680000Y-6705000D01*
X16625000Y-6960000D02*
X16625000Y-7070000D01*
X16570000Y-7015000D02*
X16680000Y-7015000D01*
X16625000Y-7410000D02*
X16625000Y-7520000D01*
X16570000Y-7465000D02*
X16680000Y-7465000D01*
X16625000Y-7720000D02*
X16625000Y-7830000D01*
X16570000Y-7775000D02*
X16680000Y-7775000D01*
X16625000Y-8170000D02*
X16625000Y-8280000D01*
X16570000Y-8225000D02*
X16680000Y-8225000D01*
X16625000Y-8480000D02*
X16625000Y-8590000D01*
X16570000Y-8535000D02*
X16680000Y-8535000D01*
X16625000Y-8930000D02*
X16625000Y-9040000D01*
X16570000Y-8985000D02*
X16680000Y-8985000D01*
X16625000Y-9240000D02*
X16625000Y-9350000D01*
X16570000Y-9295000D02*
X16680000Y-9295000D01*
X16625000Y-9690000D02*
X16625000Y-9800000D01*
X16570000Y-9745000D02*
X16680000Y-9745000D01*
X17275000Y-6200000D02*
X17275000Y-6310000D01*
X17220000Y-6255000D02*
X17330000Y-6255000D01*
X17275000Y-6650000D02*
X17275000Y-6760000D01*
X17220000Y-6705000D02*
X17330000Y-6705000D01*
X17275000Y-6960000D02*
X17275000Y-7070000D01*
X17220000Y-7015000D02*
X17330000Y-7015000D01*
X17275000Y-7410000D02*
X17275000Y-7520000D01*
X17220000Y-7465000D02*
X17330000Y-7465000D01*
X17275000Y-7720000D02*
X17275000Y-7830000D01*
X17220000Y-7775000D02*
X17330000Y-7775000D01*
X17275000Y-8170000D02*
X17275000Y-8280000D01*
X17220000Y-8225000D02*
X17330000Y-8225000D01*
X17275000Y-8480000D02*
X17275000Y-8590000D01*
X17220000Y-8535000D02*
X17330000Y-8535000D01*
X17275000Y-8930000D02*
X17275000Y-9040000D01*
X17220000Y-8985000D02*
X17330000Y-8985000D01*
X17275000Y-9240000D02*
X17275000Y-9350000D01*
X17220000Y-9295000D02*
X17330000Y-9295000D01*
X17275000Y-9690000D02*
X17275000Y-9800000D01*
X17220000Y-9745000D02*
X17330000Y-9745000D01*
D11*
X12955119Y-10812976D02*
X12955119Y-10612976D01*
X13002738Y-10612976D01*
X13031309Y-10622500D01*
X13050357Y-10641548D01*
X13059881Y-10660595D01*
X13069405Y-10698690D01*
X13069405Y-10727262D01*
X13059881Y-10765357D01*
X13050357Y-10784405D01*
X13031309Y-10803452D01*
X13002738Y-10812976D01*
X12955119Y-10812976D01*
X13155119Y-10812976D02*
X13155119Y-10679643D01*
X13155119Y-10717738D02*
X13164643Y-10698690D01*
X13174167Y-10689167D01*
X13193214Y-10679643D01*
X13212262Y-10679643D01*
X13278928Y-10812976D02*
X13278928Y-10679643D01*
X13278928Y-10612976D02*
X13269405Y-10622500D01*
X13278928Y-10632024D01*
X13288452Y-10622500D01*
X13278928Y-10612976D01*
X13278928Y-10632024D01*
X13402738Y-10812976D02*
X13383690Y-10803452D01*
X13374167Y-10784405D01*
X13374167Y-10612976D01*
X13507500Y-10812976D02*
X13488452Y-10803452D01*
X13478928Y-10784405D01*
X13478928Y-10612976D01*
X13736071Y-10812976D02*
X13736071Y-10612976D01*
X13802738Y-10755833D01*
X13869405Y-10612976D01*
X13869405Y-10812976D01*
X14050357Y-10812976D02*
X14050357Y-10708214D01*
X14040833Y-10689167D01*
X14021786Y-10679643D01*
X13983690Y-10679643D01*
X13964643Y-10689167D01*
X14050357Y-10803452D02*
X14031309Y-10812976D01*
X13983690Y-10812976D01*
X13964643Y-10803452D01*
X13955119Y-10784405D01*
X13955119Y-10765357D01*
X13964643Y-10746310D01*
X13983690Y-10736786D01*
X14031309Y-10736786D01*
X14050357Y-10727262D01*
X14145595Y-10679643D02*
X14145595Y-10879643D01*
X14145595Y-10689167D02*
X14164643Y-10679643D01*
X14202738Y-10679643D01*
X14221786Y-10689167D01*
X14231309Y-10698690D01*
X14240833Y-10717738D01*
X14240833Y-10774881D01*
X14231309Y-10793929D01*
X14221786Y-10803452D01*
X14202738Y-10812976D01*
X14164643Y-10812976D01*
X14145595Y-10803452D01*
X14326548Y-10793929D02*
X14336071Y-10803452D01*
X14326548Y-10812976D01*
X14317024Y-10803452D01*
X14326548Y-10793929D01*
X14326548Y-10812976D01*
X14326548Y-10689167D02*
X14336071Y-10698690D01*
X14326548Y-10708214D01*
X14317024Y-10698690D01*
X14326548Y-10689167D01*
X14326548Y-10708214D01*
D12*
X12607500Y-11097500D02*
X12697500Y-11187500D01*
X12697500Y-11097500D02*
X12607500Y-11187500D01*
D11*
X12993214Y-11032976D02*
X13012262Y-11032976D01*
X13031309Y-11042500D01*
X13040833Y-11052024D01*
X13050357Y-11071071D01*
X13059881Y-11109167D01*
X13059881Y-11156786D01*
X13050357Y-11194881D01*
X13040833Y-11213928D01*
X13031309Y-11223452D01*
X13012262Y-11232976D01*
X12993214Y-11232976D01*
X12974167Y-11223452D01*
X12964643Y-11213928D01*
X12955119Y-11194881D01*
X12945595Y-11156786D01*
X12945595Y-11109167D01*
X12955119Y-11071071D01*
X12964643Y-11052024D01*
X12974167Y-11042500D01*
X12993214Y-11032976D01*
X13145595Y-11213928D02*
X13155119Y-11223452D01*
X13145595Y-11232976D01*
X13136071Y-11223452D01*
X13145595Y-11213928D01*
X13145595Y-11232976D01*
X13250357Y-11232976D02*
X13288452Y-11232976D01*
X13307500Y-11223452D01*
X13317024Y-11213928D01*
X13336071Y-11185357D01*
X13345595Y-11147262D01*
X13345595Y-11071071D01*
X13336071Y-11052024D01*
X13326548Y-11042500D01*
X13307500Y-11032976D01*
X13269405Y-11032976D01*
X13250357Y-11042500D01*
X13240833Y-11052024D01*
X13231309Y-11071071D01*
X13231309Y-11118690D01*
X13240833Y-11137738D01*
X13250357Y-11147262D01*
X13269405Y-11156786D01*
X13307500Y-11156786D01*
X13326548Y-11147262D01*
X13336071Y-11137738D01*
X13345595Y-11118690D01*
X13469405Y-11032976D02*
X13488452Y-11032976D01*
X13507500Y-11042500D01*
X13517024Y-11052024D01*
X13526548Y-11071071D01*
X13536071Y-11109167D01*
X13536071Y-11156786D01*
X13526548Y-11194881D01*
X13517024Y-11213928D01*
X13507500Y-11223452D01*
X13488452Y-11232976D01*
X13469405Y-11232976D01*
X13450357Y-11223452D01*
X13440833Y-11213928D01*
X13431309Y-11194881D01*
X13421786Y-11156786D01*
X13421786Y-11109167D01*
X13431309Y-11071071D01*
X13440833Y-11052024D01*
X13450357Y-11042500D01*
X13469405Y-11032976D01*
X13659881Y-11032976D02*
X13678928Y-11032976D01*
X13697976Y-11042500D01*
X13707500Y-11052024D01*
X13717024Y-11071071D01*
X13726548Y-11109167D01*
X13726548Y-11156786D01*
X13717024Y-11194881D01*
X13707500Y-11213928D01*
X13697976Y-11223452D01*
X13678928Y-11232976D01*
X13659881Y-11232976D01*
X13640833Y-11223452D01*
X13631309Y-11213928D01*
X13621786Y-11194881D01*
X13612262Y-11156786D01*
X13612262Y-11109167D01*
X13621786Y-11071071D01*
X13631309Y-11052024D01*
X13640833Y-11042500D01*
X13659881Y-11032976D01*
X13812262Y-11232976D02*
X13812262Y-11099643D01*
X13812262Y-11118690D02*
X13821786Y-11109167D01*
X13840833Y-11099643D01*
X13869405Y-11099643D01*
X13888452Y-11109167D01*
X13897976Y-11128214D01*
X13897976Y-11232976D01*
X13897976Y-11128214D02*
X13907500Y-11109167D01*
X13926548Y-11099643D01*
X13955119Y-11099643D01*
X13974167Y-11109167D01*
X13983690Y-11128214D01*
X13983690Y-11232976D01*
X14078928Y-11232976D02*
X14078928Y-11099643D01*
X14078928Y-11118690D02*
X14088452Y-11109167D01*
X14107500Y-11099643D01*
X14136071Y-11099643D01*
X14155119Y-11109167D01*
X14164643Y-11128214D01*
X14164643Y-11232976D01*
X14164643Y-11128214D02*
X14174167Y-11109167D01*
X14193214Y-11099643D01*
X14221786Y-11099643D01*
X14240833Y-11109167D01*
X14250357Y-11128214D01*
X14250357Y-11232976D01*
X14640833Y-11023452D02*
X14469405Y-11280595D01*
X14897976Y-11032976D02*
X14917024Y-11032976D01*
X14936071Y-11042500D01*
X14945595Y-11052024D01*
X14955119Y-11071071D01*
X14964643Y-11109167D01*
X14964643Y-11156786D01*
X14955119Y-11194881D01*
X14945595Y-11213928D01*
X14936071Y-11223452D01*
X14917024Y-11232976D01*
X14897976Y-11232976D01*
X14878928Y-11223452D01*
X14869405Y-11213928D01*
X14859881Y-11194881D01*
X14850357Y-11156786D01*
X14850357Y-11109167D01*
X14859881Y-11071071D01*
X14869405Y-11052024D01*
X14878928Y-11042500D01*
X14897976Y-11032976D01*
X15050357Y-11213928D02*
X15059881Y-11223452D01*
X15050357Y-11232976D01*
X15040833Y-11223452D01*
X15050357Y-11213928D01*
X15050357Y-11232976D01*
X15183690Y-11032976D02*
X15202738Y-11032976D01*
X15221786Y-11042500D01*
X15231309Y-11052024D01*
X15240833Y-11071071D01*
X15250357Y-11109167D01*
X15250357Y-11156786D01*
X15240833Y-11194881D01*
X15231309Y-11213928D01*
X15221786Y-11223452D01*
X15202738Y-11232976D01*
X15183690Y-11232976D01*
X15164643Y-11223452D01*
X15155119Y-11213928D01*
X15145595Y-11194881D01*
X15136071Y-11156786D01*
X15136071Y-11109167D01*
X15145595Y-11071071D01*
X15155119Y-11052024D01*
X15164643Y-11042500D01*
X15183690Y-11032976D01*
X15317024Y-11032976D02*
X15440833Y-11032976D01*
X15374167Y-11109167D01*
X15402738Y-11109167D01*
X15421786Y-11118690D01*
X15431309Y-11128214D01*
X15440833Y-11147262D01*
X15440833Y-11194881D01*
X15431309Y-11213928D01*
X15421786Y-11223452D01*
X15402738Y-11232976D01*
X15345595Y-11232976D01*
X15326548Y-11223452D01*
X15317024Y-11213928D01*
X15621786Y-11032976D02*
X15526548Y-11032976D01*
X15517024Y-11128214D01*
X15526548Y-11118690D01*
X15545595Y-11109167D01*
X15593214Y-11109167D01*
X15612262Y-11118690D01*
X15621786Y-11128214D01*
X15631309Y-11147262D01*
X15631309Y-11194881D01*
X15621786Y-11213928D01*
X15612262Y-11223452D01*
X15593214Y-11232976D01*
X15545595Y-11232976D01*
X15526548Y-11223452D01*
X15517024Y-11213928D01*
X15802738Y-11099643D02*
X15802738Y-11232976D01*
X15755119Y-11023452D02*
X15707500Y-11166310D01*
X15831309Y-11166310D01*
X15897976Y-11032976D02*
X15897976Y-11071071D01*
X15974167Y-11032976D02*
X15974167Y-11071071D01*
X16269405Y-11309167D02*
X16259881Y-11299643D01*
X16240833Y-11271071D01*
X16231309Y-11252024D01*
X16221786Y-11223452D01*
X16212262Y-11175833D01*
X16212262Y-11137738D01*
X16221786Y-11090119D01*
X16231309Y-11061548D01*
X16240833Y-11042500D01*
X16259881Y-11013929D01*
X16269405Y-11004405D01*
X16431309Y-11099643D02*
X16431309Y-11232976D01*
X16383690Y-11023452D02*
X16336071Y-11166310D01*
X16459881Y-11166310D01*
X16688452Y-11232976D02*
X16688452Y-11032976D01*
X16774167Y-11232976D02*
X16774167Y-11128214D01*
X16764643Y-11109167D01*
X16745595Y-11099643D01*
X16717024Y-11099643D01*
X16697976Y-11109167D01*
X16688452Y-11118690D01*
X16897976Y-11232976D02*
X16878929Y-11223452D01*
X16869405Y-11213928D01*
X16859881Y-11194881D01*
X16859881Y-11137738D01*
X16869405Y-11118690D01*
X16878929Y-11109167D01*
X16897976Y-11099643D01*
X16926548Y-11099643D01*
X16945595Y-11109167D01*
X16955119Y-11118690D01*
X16964643Y-11137738D01*
X16964643Y-11194881D01*
X16955119Y-11213928D01*
X16945595Y-11223452D01*
X16926548Y-11232976D01*
X16897976Y-11232976D01*
X17078929Y-11232976D02*
X17059881Y-11223452D01*
X17050357Y-11204405D01*
X17050357Y-11032976D01*
X17231310Y-11223452D02*
X17212262Y-11232976D01*
X17174167Y-11232976D01*
X17155119Y-11223452D01*
X17145595Y-11204405D01*
X17145595Y-11128214D01*
X17155119Y-11109167D01*
X17174167Y-11099643D01*
X17212262Y-11099643D01*
X17231310Y-11109167D01*
X17240833Y-11128214D01*
X17240833Y-11147262D01*
X17145595Y-11166310D01*
X17317024Y-11223452D02*
X17336071Y-11232976D01*
X17374167Y-11232976D01*
X17393214Y-11223452D01*
X17402738Y-11204405D01*
X17402738Y-11194881D01*
X17393214Y-11175833D01*
X17374167Y-11166310D01*
X17345595Y-11166310D01*
X17326548Y-11156786D01*
X17317024Y-11137738D01*
X17317024Y-11128214D01*
X17326548Y-11109167D01*
X17345595Y-11099643D01*
X17374167Y-11099643D01*
X17393214Y-11109167D01*
X17469405Y-11309167D02*
X17478929Y-11299643D01*
X17497976Y-11271071D01*
X17507500Y-11252024D01*
X17517024Y-11223452D01*
X17526548Y-11175833D01*
X17526548Y-11137738D01*
X17517024Y-11090119D01*
X17507500Y-11061548D01*
X17497976Y-11042500D01*
X17478929Y-11013929D01*
X17469405Y-11004405D01*
D13*
X12697500Y-11406500D02*
G75*
G03*
X12697500Y-11406500I-50000J0D01*
G01*
D11*
X13059881Y-11496976D02*
X12945595Y-11496976D01*
X13002738Y-11496976D02*
X13002738Y-11296976D01*
X12983690Y-11325548D01*
X12964643Y-11344595D01*
X12945595Y-11354119D01*
X13145595Y-11477928D02*
X13155119Y-11487452D01*
X13145595Y-11496976D01*
X13136071Y-11487452D01*
X13145595Y-11477928D01*
X13145595Y-11496976D01*
X13278928Y-11296976D02*
X13297976Y-11296976D01*
X13317024Y-11306500D01*
X13326548Y-11316024D01*
X13336071Y-11335071D01*
X13345595Y-11373167D01*
X13345595Y-11420786D01*
X13336071Y-11458881D01*
X13326548Y-11477928D01*
X13317024Y-11487452D01*
X13297976Y-11496976D01*
X13278928Y-11496976D01*
X13259881Y-11487452D01*
X13250357Y-11477928D01*
X13240833Y-11458881D01*
X13231309Y-11420786D01*
X13231309Y-11373167D01*
X13240833Y-11335071D01*
X13250357Y-11316024D01*
X13259881Y-11306500D01*
X13278928Y-11296976D01*
X13469405Y-11296976D02*
X13488452Y-11296976D01*
X13507500Y-11306500D01*
X13517024Y-11316024D01*
X13526548Y-11335071D01*
X13536071Y-11373167D01*
X13536071Y-11420786D01*
X13526548Y-11458881D01*
X13517024Y-11477928D01*
X13507500Y-11487452D01*
X13488452Y-11496976D01*
X13469405Y-11496976D01*
X13450357Y-11487452D01*
X13440833Y-11477928D01*
X13431309Y-11458881D01*
X13421786Y-11420786D01*
X13421786Y-11373167D01*
X13431309Y-11335071D01*
X13440833Y-11316024D01*
X13450357Y-11306500D01*
X13469405Y-11296976D01*
X13659881Y-11296976D02*
X13678928Y-11296976D01*
X13697976Y-11306500D01*
X13707500Y-11316024D01*
X13717024Y-11335071D01*
X13726548Y-11373167D01*
X13726548Y-11420786D01*
X13717024Y-11458881D01*
X13707500Y-11477928D01*
X13697976Y-11487452D01*
X13678928Y-11496976D01*
X13659881Y-11496976D01*
X13640833Y-11487452D01*
X13631309Y-11477928D01*
X13621786Y-11458881D01*
X13612262Y-11420786D01*
X13612262Y-11373167D01*
X13621786Y-11335071D01*
X13631309Y-11316024D01*
X13640833Y-11306500D01*
X13659881Y-11296976D01*
X13812262Y-11496976D02*
X13812262Y-11363643D01*
X13812262Y-11382690D02*
X13821786Y-11373167D01*
X13840833Y-11363643D01*
X13869405Y-11363643D01*
X13888452Y-11373167D01*
X13897976Y-11392214D01*
X13897976Y-11496976D01*
X13897976Y-11392214D02*
X13907500Y-11373167D01*
X13926548Y-11363643D01*
X13955119Y-11363643D01*
X13974167Y-11373167D01*
X13983690Y-11392214D01*
X13983690Y-11496976D01*
X14078928Y-11496976D02*
X14078928Y-11363643D01*
X14078928Y-11382690D02*
X14088452Y-11373167D01*
X14107500Y-11363643D01*
X14136071Y-11363643D01*
X14155119Y-11373167D01*
X14164643Y-11392214D01*
X14164643Y-11496976D01*
X14164643Y-11392214D02*
X14174167Y-11373167D01*
X14193214Y-11363643D01*
X14221786Y-11363643D01*
X14240833Y-11373167D01*
X14250357Y-11392214D01*
X14250357Y-11496976D01*
X14640833Y-11287452D02*
X14469405Y-11544595D01*
X14897976Y-11296976D02*
X14917024Y-11296976D01*
X14936071Y-11306500D01*
X14945595Y-11316024D01*
X14955119Y-11335071D01*
X14964643Y-11373167D01*
X14964643Y-11420786D01*
X14955119Y-11458881D01*
X14945595Y-11477928D01*
X14936071Y-11487452D01*
X14917024Y-11496976D01*
X14897976Y-11496976D01*
X14878928Y-11487452D01*
X14869405Y-11477928D01*
X14859881Y-11458881D01*
X14850357Y-11420786D01*
X14850357Y-11373167D01*
X14859881Y-11335071D01*
X14869405Y-11316024D01*
X14878928Y-11306500D01*
X14897976Y-11296976D01*
X15050357Y-11477928D02*
X15059881Y-11487452D01*
X15050357Y-11496976D01*
X15040833Y-11487452D01*
X15050357Y-11477928D01*
X15050357Y-11496976D01*
X15183690Y-11296976D02*
X15202738Y-11296976D01*
X15221786Y-11306500D01*
X15231309Y-11316024D01*
X15240833Y-11335071D01*
X15250357Y-11373167D01*
X15250357Y-11420786D01*
X15240833Y-11458881D01*
X15231309Y-11477928D01*
X15221786Y-11487452D01*
X15202738Y-11496976D01*
X15183690Y-11496976D01*
X15164643Y-11487452D01*
X15155119Y-11477928D01*
X15145595Y-11458881D01*
X15136071Y-11420786D01*
X15136071Y-11373167D01*
X15145595Y-11335071D01*
X15155119Y-11316024D01*
X15164643Y-11306500D01*
X15183690Y-11296976D01*
X15317024Y-11296976D02*
X15440833Y-11296976D01*
X15374167Y-11373167D01*
X15402738Y-11373167D01*
X15421786Y-11382690D01*
X15431309Y-11392214D01*
X15440833Y-11411262D01*
X15440833Y-11458881D01*
X15431309Y-11477928D01*
X15421786Y-11487452D01*
X15402738Y-11496976D01*
X15345595Y-11496976D01*
X15326548Y-11487452D01*
X15317024Y-11477928D01*
X15536071Y-11496976D02*
X15574167Y-11496976D01*
X15593214Y-11487452D01*
X15602738Y-11477928D01*
X15621786Y-11449357D01*
X15631309Y-11411262D01*
X15631309Y-11335071D01*
X15621786Y-11316024D01*
X15612262Y-11306500D01*
X15593214Y-11296976D01*
X15555119Y-11296976D01*
X15536071Y-11306500D01*
X15526548Y-11316024D01*
X15517024Y-11335071D01*
X15517024Y-11382690D01*
X15526548Y-11401738D01*
X15536071Y-11411262D01*
X15555119Y-11420786D01*
X15593214Y-11420786D01*
X15612262Y-11411262D01*
X15621786Y-11401738D01*
X15631309Y-11382690D01*
X15802738Y-11363643D02*
X15802738Y-11496976D01*
X15755119Y-11287452D02*
X15707500Y-11430309D01*
X15831309Y-11430309D01*
X15897976Y-11296976D02*
X15897976Y-11335071D01*
X15974167Y-11296976D02*
X15974167Y-11335071D01*
X16269405Y-11573167D02*
X16259881Y-11563643D01*
X16240833Y-11535071D01*
X16231309Y-11516024D01*
X16221786Y-11487452D01*
X16212262Y-11439833D01*
X16212262Y-11401738D01*
X16221786Y-11354119D01*
X16231309Y-11325548D01*
X16240833Y-11306500D01*
X16259881Y-11277928D01*
X16269405Y-11268405D01*
X16450357Y-11496976D02*
X16336071Y-11496976D01*
X16393214Y-11496976D02*
X16393214Y-11296976D01*
X16374167Y-11325548D01*
X16355119Y-11344595D01*
X16336071Y-11354119D01*
X16564643Y-11382690D02*
X16545595Y-11373167D01*
X16536071Y-11363643D01*
X16526548Y-11344595D01*
X16526548Y-11335071D01*
X16536071Y-11316024D01*
X16545595Y-11306500D01*
X16564643Y-11296976D01*
X16602738Y-11296976D01*
X16621786Y-11306500D01*
X16631309Y-11316024D01*
X16640833Y-11335071D01*
X16640833Y-11344595D01*
X16631309Y-11363643D01*
X16621786Y-11373167D01*
X16602738Y-11382690D01*
X16564643Y-11382690D01*
X16545595Y-11392214D01*
X16536071Y-11401738D01*
X16526548Y-11420786D01*
X16526548Y-11458881D01*
X16536071Y-11477928D01*
X16545595Y-11487452D01*
X16564643Y-11496976D01*
X16602738Y-11496976D01*
X16621786Y-11487452D01*
X16631309Y-11477928D01*
X16640833Y-11458881D01*
X16640833Y-11420786D01*
X16631309Y-11401738D01*
X16621786Y-11392214D01*
X16602738Y-11382690D01*
X16878929Y-11496976D02*
X16878929Y-11296976D01*
X16964643Y-11496976D02*
X16964643Y-11392214D01*
X16955119Y-11373167D01*
X16936071Y-11363643D01*
X16907500Y-11363643D01*
X16888452Y-11373167D01*
X16878929Y-11382690D01*
X17088452Y-11496976D02*
X17069405Y-11487452D01*
X17059881Y-11477928D01*
X17050357Y-11458881D01*
X17050357Y-11401738D01*
X17059881Y-11382690D01*
X17069405Y-11373167D01*
X17088452Y-11363643D01*
X17117024Y-11363643D01*
X17136071Y-11373167D01*
X17145595Y-11382690D01*
X17155119Y-11401738D01*
X17155119Y-11458881D01*
X17145595Y-11477928D01*
X17136071Y-11487452D01*
X17117024Y-11496976D01*
X17088452Y-11496976D01*
X17269405Y-11496976D02*
X17250357Y-11487452D01*
X17240833Y-11468405D01*
X17240833Y-11296976D01*
X17421786Y-11487452D02*
X17402738Y-11496976D01*
X17364643Y-11496976D01*
X17345595Y-11487452D01*
X17336071Y-11468405D01*
X17336071Y-11392214D01*
X17345595Y-11373167D01*
X17364643Y-11363643D01*
X17402738Y-11363643D01*
X17421786Y-11373167D01*
X17431310Y-11392214D01*
X17431310Y-11411262D01*
X17336071Y-11430309D01*
X17507500Y-11487452D02*
X17526548Y-11496976D01*
X17564643Y-11496976D01*
X17583690Y-11487452D01*
X17593214Y-11468405D01*
X17593214Y-11458881D01*
X17583690Y-11439833D01*
X17564643Y-11430309D01*
X17536071Y-11430309D01*
X17517024Y-11420786D01*
X17507500Y-11401738D01*
X17507500Y-11392214D01*
X17517024Y-11373167D01*
X17536071Y-11363643D01*
X17564643Y-11363643D01*
X17583690Y-11373167D01*
X17659881Y-11573167D02*
X17669405Y-11563643D01*
X17688452Y-11535071D01*
X17697976Y-11516024D01*
X17707500Y-11487452D01*
X17717024Y-11439833D01*
X17717024Y-11401738D01*
X17707500Y-11354119D01*
X17697976Y-11325548D01*
X17688452Y-11306500D01*
X17669405Y-11277928D01*
X17659881Y-11268405D01*
D14*
X12642500Y-11615500D02*
X12642500Y-11725500D01*
X12587500Y-11670500D02*
X12697500Y-11670500D01*
D11*
X13059881Y-11760976D02*
X12945595Y-11760976D01*
X13002738Y-11760976D02*
X13002738Y-11560976D01*
X12983690Y-11589548D01*
X12964643Y-11608595D01*
X12945595Y-11618119D01*
X13145595Y-11741928D02*
X13155119Y-11751452D01*
X13145595Y-11760976D01*
X13136071Y-11751452D01*
X13145595Y-11741928D01*
X13145595Y-11760976D01*
X13345595Y-11760976D02*
X13231309Y-11760976D01*
X13288452Y-11760976D02*
X13288452Y-11560976D01*
X13269405Y-11589548D01*
X13250357Y-11608595D01*
X13231309Y-11618119D01*
X13469405Y-11560976D02*
X13488452Y-11560976D01*
X13507500Y-11570500D01*
X13517024Y-11580024D01*
X13526548Y-11599071D01*
X13536071Y-11637167D01*
X13536071Y-11684786D01*
X13526548Y-11722881D01*
X13517024Y-11741928D01*
X13507500Y-11751452D01*
X13488452Y-11760976D01*
X13469405Y-11760976D01*
X13450357Y-11751452D01*
X13440833Y-11741928D01*
X13431309Y-11722881D01*
X13421786Y-11684786D01*
X13421786Y-11637167D01*
X13431309Y-11599071D01*
X13440833Y-11580024D01*
X13450357Y-11570500D01*
X13469405Y-11560976D01*
X13659881Y-11560976D02*
X13678928Y-11560976D01*
X13697976Y-11570500D01*
X13707500Y-11580024D01*
X13717024Y-11599071D01*
X13726548Y-11637167D01*
X13726548Y-11684786D01*
X13717024Y-11722881D01*
X13707500Y-11741928D01*
X13697976Y-11751452D01*
X13678928Y-11760976D01*
X13659881Y-11760976D01*
X13640833Y-11751452D01*
X13631309Y-11741928D01*
X13621786Y-11722881D01*
X13612262Y-11684786D01*
X13612262Y-11637167D01*
X13621786Y-11599071D01*
X13631309Y-11580024D01*
X13640833Y-11570500D01*
X13659881Y-11560976D01*
X13812262Y-11760976D02*
X13812262Y-11627643D01*
X13812262Y-11646690D02*
X13821786Y-11637167D01*
X13840833Y-11627643D01*
X13869405Y-11627643D01*
X13888452Y-11637167D01*
X13897976Y-11656214D01*
X13897976Y-11760976D01*
X13897976Y-11656214D02*
X13907500Y-11637167D01*
X13926548Y-11627643D01*
X13955119Y-11627643D01*
X13974167Y-11637167D01*
X13983690Y-11656214D01*
X13983690Y-11760976D01*
X14078928Y-11760976D02*
X14078928Y-11627643D01*
X14078928Y-11646690D02*
X14088452Y-11637167D01*
X14107500Y-11627643D01*
X14136071Y-11627643D01*
X14155119Y-11637167D01*
X14164643Y-11656214D01*
X14164643Y-11760976D01*
X14164643Y-11656214D02*
X14174167Y-11637167D01*
X14193214Y-11627643D01*
X14221786Y-11627643D01*
X14240833Y-11637167D01*
X14250357Y-11656214D01*
X14250357Y-11760976D01*
X14640833Y-11551452D02*
X14469405Y-11808595D01*
X14897976Y-11560976D02*
X14917024Y-11560976D01*
X14936071Y-11570500D01*
X14945595Y-11580024D01*
X14955119Y-11599071D01*
X14964643Y-11637167D01*
X14964643Y-11684786D01*
X14955119Y-11722881D01*
X14945595Y-11741928D01*
X14936071Y-11751452D01*
X14917024Y-11760976D01*
X14897976Y-11760976D01*
X14878928Y-11751452D01*
X14869405Y-11741928D01*
X14859881Y-11722881D01*
X14850357Y-11684786D01*
X14850357Y-11637167D01*
X14859881Y-11599071D01*
X14869405Y-11580024D01*
X14878928Y-11570500D01*
X14897976Y-11560976D01*
X15050357Y-11741928D02*
X15059881Y-11751452D01*
X15050357Y-11760976D01*
X15040833Y-11751452D01*
X15050357Y-11741928D01*
X15050357Y-11760976D01*
X15183690Y-11560976D02*
X15202738Y-11560976D01*
X15221786Y-11570500D01*
X15231309Y-11580024D01*
X15240833Y-11599071D01*
X15250357Y-11637167D01*
X15250357Y-11684786D01*
X15240833Y-11722881D01*
X15231309Y-11741928D01*
X15221786Y-11751452D01*
X15202738Y-11760976D01*
X15183690Y-11760976D01*
X15164643Y-11751452D01*
X15155119Y-11741928D01*
X15145595Y-11722881D01*
X15136071Y-11684786D01*
X15136071Y-11637167D01*
X15145595Y-11599071D01*
X15155119Y-11580024D01*
X15164643Y-11570500D01*
X15183690Y-11560976D01*
X15421786Y-11627643D02*
X15421786Y-11760976D01*
X15374167Y-11551452D02*
X15326548Y-11694309D01*
X15450357Y-11694309D01*
X15507500Y-11560976D02*
X15631309Y-11560976D01*
X15564643Y-11637167D01*
X15593214Y-11637167D01*
X15612262Y-11646690D01*
X15621786Y-11656214D01*
X15631309Y-11675262D01*
X15631309Y-11722881D01*
X15621786Y-11741928D01*
X15612262Y-11751452D01*
X15593214Y-11760976D01*
X15536071Y-11760976D01*
X15517024Y-11751452D01*
X15507500Y-11741928D01*
X15697976Y-11560976D02*
X15821786Y-11560976D01*
X15755119Y-11637167D01*
X15783690Y-11637167D01*
X15802738Y-11646690D01*
X15812262Y-11656214D01*
X15821786Y-11675262D01*
X15821786Y-11722881D01*
X15812262Y-11741928D01*
X15802738Y-11751452D01*
X15783690Y-11760976D01*
X15726548Y-11760976D01*
X15707500Y-11751452D01*
X15697976Y-11741928D01*
X15897976Y-11560976D02*
X15897976Y-11599071D01*
X15974167Y-11560976D02*
X15974167Y-11599071D01*
X16269405Y-11837167D02*
X16259881Y-11827643D01*
X16240833Y-11799071D01*
X16231309Y-11780024D01*
X16221786Y-11751452D01*
X16212262Y-11703833D01*
X16212262Y-11665738D01*
X16221786Y-11618119D01*
X16231309Y-11589548D01*
X16240833Y-11570500D01*
X16259881Y-11541928D01*
X16269405Y-11532405D01*
X16336071Y-11580024D02*
X16345595Y-11570500D01*
X16364643Y-11560976D01*
X16412262Y-11560976D01*
X16431309Y-11570500D01*
X16440833Y-11580024D01*
X16450357Y-11599071D01*
X16450357Y-11618119D01*
X16440833Y-11646690D01*
X16326548Y-11760976D01*
X16450357Y-11760976D01*
X16574167Y-11560976D02*
X16593214Y-11560976D01*
X16612262Y-11570500D01*
X16621786Y-11580024D01*
X16631309Y-11599071D01*
X16640833Y-11637167D01*
X16640833Y-11684786D01*
X16631309Y-11722881D01*
X16621786Y-11741928D01*
X16612262Y-11751452D01*
X16593214Y-11760976D01*
X16574167Y-11760976D01*
X16555119Y-11751452D01*
X16545595Y-11741928D01*
X16536071Y-11722881D01*
X16526548Y-11684786D01*
X16526548Y-11637167D01*
X16536071Y-11599071D01*
X16545595Y-11580024D01*
X16555119Y-11570500D01*
X16574167Y-11560976D01*
X16878929Y-11760976D02*
X16878929Y-11560976D01*
X16964643Y-11760976D02*
X16964643Y-11656214D01*
X16955119Y-11637167D01*
X16936071Y-11627643D01*
X16907500Y-11627643D01*
X16888452Y-11637167D01*
X16878929Y-11646690D01*
X17088452Y-11760976D02*
X17069405Y-11751452D01*
X17059881Y-11741928D01*
X17050357Y-11722881D01*
X17050357Y-11665738D01*
X17059881Y-11646690D01*
X17069405Y-11637167D01*
X17088452Y-11627643D01*
X17117024Y-11627643D01*
X17136071Y-11637167D01*
X17145595Y-11646690D01*
X17155119Y-11665738D01*
X17155119Y-11722881D01*
X17145595Y-11741928D01*
X17136071Y-11751452D01*
X17117024Y-11760976D01*
X17088452Y-11760976D01*
X17269405Y-11760976D02*
X17250357Y-11751452D01*
X17240833Y-11732405D01*
X17240833Y-11560976D01*
X17421786Y-11751452D02*
X17402738Y-11760976D01*
X17364643Y-11760976D01*
X17345595Y-11751452D01*
X17336071Y-11732405D01*
X17336071Y-11656214D01*
X17345595Y-11637167D01*
X17364643Y-11627643D01*
X17402738Y-11627643D01*
X17421786Y-11637167D01*
X17431310Y-11656214D01*
X17431310Y-11675262D01*
X17336071Y-11694309D01*
X17507500Y-11751452D02*
X17526548Y-11760976D01*
X17564643Y-11760976D01*
X17583690Y-11751452D01*
X17593214Y-11732405D01*
X17593214Y-11722881D01*
X17583690Y-11703833D01*
X17564643Y-11694309D01*
X17536071Y-11694309D01*
X17517024Y-11684786D01*
X17507500Y-11665738D01*
X17507500Y-11656214D01*
X17517024Y-11637167D01*
X17536071Y-11627643D01*
X17564643Y-11627643D01*
X17583690Y-11637167D01*
X17659881Y-11837167D02*
X17669405Y-11827643D01*
X17688452Y-11799071D01*
X17697976Y-11780024D01*
X17707500Y-11751452D01*
X17717024Y-11703833D01*
X17717024Y-11665738D01*
X17707500Y-11618119D01*
X17697976Y-11589548D01*
X17688452Y-11570500D01*
X17669405Y-11541928D01*
X17659881Y-11532405D01*
M02*
