M48
; DRILL file {KiCad (6.0.2)} date Tue Mar 15 19:19:34 2022
; FORMAT={-:-/ absolute / metric / decimal}
; #@! TF.CreationDate,2022-03-15T19:19:34-04:00
; #@! TF.GenerationSoftware,Kicad,Pcbnew,(6.0.2)
; #@! TF.FileFunction,Plated,1,2,PTH
FMAT,2
METRIC
; #@! TA.AperFunction,Plated,PTH,ComponentDrill
T1C0.900
; #@! TA.AperFunction,Plated,PTH,ComponentDrill
T2C1.000
; #@! TA.AperFunction,Plated,PTH,ComponentDrill
T3C1.100
%
G90
G05
T1
X157.735Y-58.5
X157.735Y-65.5
X160.275Y-58.5
X160.275Y-65.5
T2
X129.435Y-76.19
X129.435Y-78.73
X129.435Y-81.27
X129.435Y-83.81
X133.0Y-76.19
X133.0Y-78.73
X133.0Y-81.27
X133.0Y-83.81
X157.46Y-76.19
X157.46Y-78.73
X157.46Y-81.27
X157.46Y-83.81
X158.2Y-94.95
X158.2Y-102.55
X160.0Y-76.19
X160.0Y-78.73
X160.0Y-81.27
X160.0Y-83.81
T3
X166.25Y-62.55
X166.25Y-67.05
X166.25Y-70.15
X166.25Y-74.65
X166.25Y-77.75
X166.25Y-82.25
X166.25Y-85.35
X166.25Y-89.85
X166.25Y-92.95
X166.25Y-97.45
X172.75Y-62.55
X172.75Y-67.05
X172.75Y-70.15
X172.75Y-74.65
X172.75Y-77.75
X172.75Y-82.25
X172.75Y-85.35
X172.75Y-89.85
X172.75Y-92.95
X172.75Y-97.45
T0
M30
