%TF.GenerationSoftware,KiCad,Pcbnew,(6.0.2)*%
%TF.CreationDate,2022-03-15T19:18:54-04:00*%
%TF.ProjectId,Pi1541_Control_Pannel,50693135-3431-45f4-936f-6e74726f6c5f,1.0*%
%TF.SameCoordinates,Original*%
%TF.FileFunction,Soldermask,Bot*%
%TF.FilePolarity,Negative*%
%FSLAX46Y46*%
G04 Gerber Fmt 4.6, Leading zero omitted, Abs format (unit mm)*
G04 Created by KiCad (PCBNEW (6.0.2)) date 2022-03-15 19:18:54*
%MOMM*%
%LPD*%
G01*
G04 APERTURE LIST*
%ADD10O,2.700000X5.400000*%
%ADD11R,1.700000X1.700000*%
%ADD12O,1.700000X1.700000*%
%ADD13C,2.000000*%
%ADD14R,2.000000X2.000000*%
%ADD15C,2.700000*%
%ADD16R,1.800000X1.800000*%
%ADD17C,1.800000*%
G04 APERTURE END LIST*
D10*
X129600000Y-90550000D03*
X153400000Y-69450000D03*
X153400000Y-90550000D03*
X129600000Y-69450000D03*
D11*
X129435000Y-76190000D03*
D12*
X129435000Y-78730000D03*
X129435000Y-81270000D03*
X129435000Y-83810000D03*
D13*
X166250000Y-74650000D03*
X172750000Y-74650000D03*
X172750000Y-70150000D03*
X166250000Y-70150000D03*
D14*
X158200000Y-94950000D03*
D13*
X158200000Y-102550000D03*
D15*
X174000000Y-102000000D03*
D13*
X166250000Y-82250000D03*
X172750000Y-82250000D03*
X166250000Y-77750000D03*
X172750000Y-77750000D03*
D16*
X160275000Y-65500000D03*
D17*
X157735000Y-65500000D03*
D15*
X130000000Y-102000000D03*
D13*
X172750000Y-67050000D03*
X166250000Y-67050000D03*
X166250000Y-62550000D03*
X172750000Y-62550000D03*
D16*
X160275000Y-58500000D03*
D17*
X157735000Y-58500000D03*
D13*
X166250000Y-89850000D03*
X172750000Y-89850000D03*
X172750000Y-85350000D03*
X166250000Y-85350000D03*
D15*
X130000000Y-58000000D03*
D13*
X172750000Y-97450000D03*
X166250000Y-97450000D03*
X166250000Y-92950000D03*
X172750000Y-92950000D03*
D15*
X174000000Y-58000000D03*
D11*
X160000000Y-76190000D03*
D12*
X157460000Y-76190000D03*
X160000000Y-78730000D03*
X157460000Y-78730000D03*
X160000000Y-81270000D03*
X157460000Y-81270000D03*
X160000000Y-83810000D03*
X157460000Y-83810000D03*
D11*
X133000000Y-76190000D03*
D12*
X133000000Y-78730000D03*
X133000000Y-81270000D03*
X133000000Y-83810000D03*
M02*
