%FSLAX45Y45*%
G04 Gerber Fmt 4.5, Leading zero omitted, Abs format (unit mm)*
G04 Created by KiCad (PCBNEW (6.0.2)) date 2022-03-15 19:19:35*
%MOMM*%
%LPD*%
G01*
G04 APERTURE LIST*
%TA.AperFunction,Profile*%
%ADD10C,0.050000*%
%TD*%
%ADD11C,0.200000*%
%ADD12C,0.270000*%
G04 APERTURE END LIST*
D10*
X17700000Y-10200000D02*
X17700000Y-5800000D01*
X12700000Y-10200000D02*
G75*
G03*
X13000000Y-10500000I300000J0D01*
G01*
X13000000Y-5500000D02*
G75*
G03*
X12700000Y-5800000I0J-300000D01*
G01*
X12700000Y-5800000D02*
X12700000Y-10200000D01*
X17400000Y-5500000D02*
X13000000Y-5500000D01*
X13000000Y-10500000D02*
X17400000Y-10500000D01*
X17400000Y-10500000D02*
G75*
G03*
X17700000Y-10200000I0J300000D01*
G01*
X17700000Y-5800000D02*
G75*
G03*
X17400000Y-5500000I-300000J0D01*
G01*
D11*
D12*
X12825000Y-6810000D02*
X13095000Y-7080000D01*
X13095000Y-6810000D02*
X12825000Y-7080000D01*
D11*
X13085000Y-7080000D02*
X13085000Y-6810000D01*
X12835000Y-7080000D02*
X12835000Y-6810000D01*
X13085000Y-6810000D02*
G75*
G03*
X12835000Y-6810000I-125000J0D01*
G01*
X12835000Y-7080000D02*
G75*
G03*
X13085000Y-7080000I125000J0D01*
G01*
D12*
X12825000Y-8920000D02*
X13095000Y-9190000D01*
X13095000Y-8920000D02*
X12825000Y-9190000D01*
D11*
X13085000Y-9190000D02*
X13085000Y-8920000D01*
X12835000Y-9190000D02*
X12835000Y-8920000D01*
X13085000Y-8920000D02*
G75*
G03*
X12835000Y-8920000I-125000J0D01*
G01*
X12835000Y-9190000D02*
G75*
G03*
X13085000Y-9190000I125000J0D01*
G01*
D12*
X12865000Y-5665000D02*
X13135000Y-5935000D01*
X13135000Y-5665000D02*
X12865000Y-5935000D01*
X12865000Y-10065000D02*
X13135000Y-10335000D01*
X13135000Y-10065000D02*
X12865000Y-10335000D01*
X15205000Y-6810000D02*
X15475000Y-7080000D01*
X15475000Y-6810000D02*
X15205000Y-7080000D01*
D11*
X15465000Y-7080000D02*
X15465000Y-6810000D01*
X15215000Y-7080000D02*
X15215000Y-6810000D01*
X15465000Y-6810000D02*
G75*
G03*
X15215000Y-6810000I-125000J0D01*
G01*
X15215000Y-7080000D02*
G75*
G03*
X15465000Y-7080000I125000J0D01*
G01*
D12*
X15205000Y-8920000D02*
X15475000Y-9190000D01*
X15475000Y-8920000D02*
X15205000Y-9190000D01*
D11*
X15465000Y-9190000D02*
X15465000Y-8920000D01*
X15215000Y-9190000D02*
X15215000Y-8920000D01*
X15465000Y-8920000D02*
G75*
G03*
X15215000Y-8920000I-125000J0D01*
G01*
X15215000Y-9190000D02*
G75*
G03*
X15465000Y-9190000I125000J0D01*
G01*
D12*
X17265000Y-5665000D02*
X17535000Y-5935000D01*
X17535000Y-5665000D02*
X17265000Y-5935000D01*
X17265000Y-10065000D02*
X17535000Y-10335000D01*
X17535000Y-10065000D02*
X17265000Y-10335000D01*
D11*
X12955119Y-10812976D02*
X12955119Y-10612976D01*
X13002738Y-10612976D01*
X13031309Y-10622500D01*
X13050357Y-10641548D01*
X13059881Y-10660595D01*
X13069405Y-10698690D01*
X13069405Y-10727262D01*
X13059881Y-10765357D01*
X13050357Y-10784405D01*
X13031309Y-10803452D01*
X13002738Y-10812976D01*
X12955119Y-10812976D01*
X13155119Y-10812976D02*
X13155119Y-10679643D01*
X13155119Y-10717738D02*
X13164643Y-10698690D01*
X13174167Y-10689167D01*
X13193214Y-10679643D01*
X13212262Y-10679643D01*
X13278928Y-10812976D02*
X13278928Y-10679643D01*
X13278928Y-10612976D02*
X13269405Y-10622500D01*
X13278928Y-10632024D01*
X13288452Y-10622500D01*
X13278928Y-10612976D01*
X13278928Y-10632024D01*
X13402738Y-10812976D02*
X13383690Y-10803452D01*
X13374167Y-10784405D01*
X13374167Y-10612976D01*
X13507500Y-10812976D02*
X13488452Y-10803452D01*
X13478928Y-10784405D01*
X13478928Y-10612976D01*
X13736071Y-10812976D02*
X13736071Y-10612976D01*
X13802738Y-10755833D01*
X13869405Y-10612976D01*
X13869405Y-10812976D01*
X14050357Y-10812976D02*
X14050357Y-10708214D01*
X14040833Y-10689167D01*
X14021786Y-10679643D01*
X13983690Y-10679643D01*
X13964643Y-10689167D01*
X14050357Y-10803452D02*
X14031309Y-10812976D01*
X13983690Y-10812976D01*
X13964643Y-10803452D01*
X13955119Y-10784405D01*
X13955119Y-10765357D01*
X13964643Y-10746310D01*
X13983690Y-10736786D01*
X14031309Y-10736786D01*
X14050357Y-10727262D01*
X14145595Y-10679643D02*
X14145595Y-10879643D01*
X14145595Y-10689167D02*
X14164643Y-10679643D01*
X14202738Y-10679643D01*
X14221786Y-10689167D01*
X14231309Y-10698690D01*
X14240833Y-10717738D01*
X14240833Y-10774881D01*
X14231309Y-10793929D01*
X14221786Y-10803452D01*
X14202738Y-10812976D01*
X14164643Y-10812976D01*
X14145595Y-10803452D01*
X14326548Y-10793929D02*
X14336071Y-10803452D01*
X14326548Y-10812976D01*
X14317024Y-10803452D01*
X14326548Y-10793929D01*
X14326548Y-10812976D01*
X14326548Y-10689167D02*
X14336071Y-10698690D01*
X14326548Y-10708214D01*
X14317024Y-10698690D01*
X14326548Y-10689167D01*
X14326548Y-10708214D01*
X12497500Y-11042500D02*
X12697500Y-11242500D01*
X12697500Y-11042500D02*
X12497500Y-11242500D01*
X12945595Y-11052024D02*
X12955119Y-11042500D01*
X12974167Y-11032976D01*
X13021786Y-11032976D01*
X13040833Y-11042500D01*
X13050357Y-11052024D01*
X13059881Y-11071071D01*
X13059881Y-11090119D01*
X13050357Y-11118690D01*
X12936071Y-11232976D01*
X13059881Y-11232976D01*
X13145595Y-11213928D02*
X13155119Y-11223452D01*
X13145595Y-11232976D01*
X13136071Y-11223452D01*
X13145595Y-11213928D01*
X13145595Y-11232976D01*
X13221786Y-11032976D02*
X13355119Y-11032976D01*
X13269405Y-11232976D01*
X13469405Y-11032976D02*
X13488452Y-11032976D01*
X13507500Y-11042500D01*
X13517024Y-11052024D01*
X13526548Y-11071071D01*
X13536071Y-11109167D01*
X13536071Y-11156786D01*
X13526548Y-11194881D01*
X13517024Y-11213928D01*
X13507500Y-11223452D01*
X13488452Y-11232976D01*
X13469405Y-11232976D01*
X13450357Y-11223452D01*
X13440833Y-11213928D01*
X13431309Y-11194881D01*
X13421786Y-11156786D01*
X13421786Y-11109167D01*
X13431309Y-11071071D01*
X13440833Y-11052024D01*
X13450357Y-11042500D01*
X13469405Y-11032976D01*
X13659881Y-11032976D02*
X13678928Y-11032976D01*
X13697976Y-11042500D01*
X13707500Y-11052024D01*
X13717024Y-11071071D01*
X13726548Y-11109167D01*
X13726548Y-11156786D01*
X13717024Y-11194881D01*
X13707500Y-11213928D01*
X13697976Y-11223452D01*
X13678928Y-11232976D01*
X13659881Y-11232976D01*
X13640833Y-11223452D01*
X13631309Y-11213928D01*
X13621786Y-11194881D01*
X13612262Y-11156786D01*
X13612262Y-11109167D01*
X13621786Y-11071071D01*
X13631309Y-11052024D01*
X13640833Y-11042500D01*
X13659881Y-11032976D01*
X13812262Y-11232976D02*
X13812262Y-11099643D01*
X13812262Y-11118690D02*
X13821786Y-11109167D01*
X13840833Y-11099643D01*
X13869405Y-11099643D01*
X13888452Y-11109167D01*
X13897976Y-11128214D01*
X13897976Y-11232976D01*
X13897976Y-11128214D02*
X13907500Y-11109167D01*
X13926548Y-11099643D01*
X13955119Y-11099643D01*
X13974167Y-11109167D01*
X13983690Y-11128214D01*
X13983690Y-11232976D01*
X14078928Y-11232976D02*
X14078928Y-11099643D01*
X14078928Y-11118690D02*
X14088452Y-11109167D01*
X14107500Y-11099643D01*
X14136071Y-11099643D01*
X14155119Y-11109167D01*
X14164643Y-11128214D01*
X14164643Y-11232976D01*
X14164643Y-11128214D02*
X14174167Y-11109167D01*
X14193214Y-11099643D01*
X14221786Y-11099643D01*
X14240833Y-11109167D01*
X14250357Y-11128214D01*
X14250357Y-11232976D01*
X14640833Y-11023452D02*
X14469405Y-11280595D01*
X14897976Y-11032976D02*
X14917024Y-11032976D01*
X14936071Y-11042500D01*
X14945595Y-11052024D01*
X14955119Y-11071071D01*
X14964643Y-11109167D01*
X14964643Y-11156786D01*
X14955119Y-11194881D01*
X14945595Y-11213928D01*
X14936071Y-11223452D01*
X14917024Y-11232976D01*
X14897976Y-11232976D01*
X14878928Y-11223452D01*
X14869405Y-11213928D01*
X14859881Y-11194881D01*
X14850357Y-11156786D01*
X14850357Y-11109167D01*
X14859881Y-11071071D01*
X14869405Y-11052024D01*
X14878928Y-11042500D01*
X14897976Y-11032976D01*
X15050357Y-11213928D02*
X15059881Y-11223452D01*
X15050357Y-11232976D01*
X15040833Y-11223452D01*
X15050357Y-11213928D01*
X15050357Y-11232976D01*
X15250357Y-11232976D02*
X15136071Y-11232976D01*
X15193214Y-11232976D02*
X15193214Y-11032976D01*
X15174167Y-11061548D01*
X15155119Y-11080595D01*
X15136071Y-11090119D01*
X15374167Y-11032976D02*
X15393214Y-11032976D01*
X15412262Y-11042500D01*
X15421786Y-11052024D01*
X15431309Y-11071071D01*
X15440833Y-11109167D01*
X15440833Y-11156786D01*
X15431309Y-11194881D01*
X15421786Y-11213928D01*
X15412262Y-11223452D01*
X15393214Y-11232976D01*
X15374167Y-11232976D01*
X15355119Y-11223452D01*
X15345595Y-11213928D01*
X15336071Y-11194881D01*
X15326548Y-11156786D01*
X15326548Y-11109167D01*
X15336071Y-11071071D01*
X15345595Y-11052024D01*
X15355119Y-11042500D01*
X15374167Y-11032976D01*
X15612262Y-11032976D02*
X15574167Y-11032976D01*
X15555119Y-11042500D01*
X15545595Y-11052024D01*
X15526548Y-11080595D01*
X15517024Y-11118690D01*
X15517024Y-11194881D01*
X15526548Y-11213928D01*
X15536071Y-11223452D01*
X15555119Y-11232976D01*
X15593214Y-11232976D01*
X15612262Y-11223452D01*
X15621786Y-11213928D01*
X15631309Y-11194881D01*
X15631309Y-11147262D01*
X15621786Y-11128214D01*
X15612262Y-11118690D01*
X15593214Y-11109167D01*
X15555119Y-11109167D01*
X15536071Y-11118690D01*
X15526548Y-11128214D01*
X15517024Y-11147262D01*
X15697976Y-11032976D02*
X15821786Y-11032976D01*
X15755119Y-11109167D01*
X15783690Y-11109167D01*
X15802738Y-11118690D01*
X15812262Y-11128214D01*
X15821786Y-11147262D01*
X15821786Y-11194881D01*
X15812262Y-11213928D01*
X15802738Y-11223452D01*
X15783690Y-11232976D01*
X15726548Y-11232976D01*
X15707500Y-11223452D01*
X15697976Y-11213928D01*
X15897976Y-11032976D02*
X15897976Y-11071071D01*
X15974167Y-11032976D02*
X15974167Y-11071071D01*
X16269405Y-11309167D02*
X16259881Y-11299643D01*
X16240833Y-11271071D01*
X16231309Y-11252024D01*
X16221786Y-11223452D01*
X16212262Y-11175833D01*
X16212262Y-11137738D01*
X16221786Y-11090119D01*
X16231309Y-11061548D01*
X16240833Y-11042500D01*
X16259881Y-11013929D01*
X16269405Y-11004405D01*
X16431309Y-11099643D02*
X16431309Y-11232976D01*
X16383690Y-11023452D02*
X16336071Y-11166310D01*
X16459881Y-11166310D01*
X16688452Y-11232976D02*
X16688452Y-11032976D01*
X16774167Y-11232976D02*
X16774167Y-11128214D01*
X16764643Y-11109167D01*
X16745595Y-11099643D01*
X16717024Y-11099643D01*
X16697976Y-11109167D01*
X16688452Y-11118690D01*
X16897976Y-11232976D02*
X16878929Y-11223452D01*
X16869405Y-11213928D01*
X16859881Y-11194881D01*
X16859881Y-11137738D01*
X16869405Y-11118690D01*
X16878929Y-11109167D01*
X16897976Y-11099643D01*
X16926548Y-11099643D01*
X16945595Y-11109167D01*
X16955119Y-11118690D01*
X16964643Y-11137738D01*
X16964643Y-11194881D01*
X16955119Y-11213928D01*
X16945595Y-11223452D01*
X16926548Y-11232976D01*
X16897976Y-11232976D01*
X17078929Y-11232976D02*
X17059881Y-11223452D01*
X17050357Y-11204405D01*
X17050357Y-11032976D01*
X17231310Y-11223452D02*
X17212262Y-11232976D01*
X17174167Y-11232976D01*
X17155119Y-11223452D01*
X17145595Y-11204405D01*
X17145595Y-11128214D01*
X17155119Y-11109167D01*
X17174167Y-11099643D01*
X17212262Y-11099643D01*
X17231310Y-11109167D01*
X17240833Y-11128214D01*
X17240833Y-11147262D01*
X17145595Y-11166310D01*
X17317024Y-11223452D02*
X17336071Y-11232976D01*
X17374167Y-11232976D01*
X17393214Y-11223452D01*
X17402738Y-11204405D01*
X17402738Y-11194881D01*
X17393214Y-11175833D01*
X17374167Y-11166310D01*
X17345595Y-11166310D01*
X17326548Y-11156786D01*
X17317024Y-11137738D01*
X17317024Y-11128214D01*
X17326548Y-11109167D01*
X17345595Y-11099643D01*
X17374167Y-11099643D01*
X17393214Y-11109167D01*
X17640833Y-11156786D02*
X17793214Y-11156786D01*
X17717024Y-11232976D02*
X17717024Y-11080595D01*
X18126548Y-11099643D02*
X18126548Y-11232976D01*
X18078929Y-11023452D02*
X18031310Y-11166310D01*
X18155119Y-11166310D01*
X18374167Y-11223452D02*
X18393214Y-11232976D01*
X18431310Y-11232976D01*
X18450357Y-11223452D01*
X18459881Y-11204405D01*
X18459881Y-11194881D01*
X18450357Y-11175833D01*
X18431310Y-11166310D01*
X18402738Y-11166310D01*
X18383690Y-11156786D01*
X18374167Y-11137738D01*
X18374167Y-11128214D01*
X18383690Y-11109167D01*
X18402738Y-11099643D01*
X18431310Y-11099643D01*
X18450357Y-11109167D01*
X18574167Y-11232976D02*
X18555119Y-11223452D01*
X18545595Y-11204405D01*
X18545595Y-11032976D01*
X18678929Y-11232976D02*
X18659881Y-11223452D01*
X18650357Y-11213928D01*
X18640833Y-11194881D01*
X18640833Y-11137738D01*
X18650357Y-11118690D01*
X18659881Y-11109167D01*
X18678929Y-11099643D01*
X18707500Y-11099643D01*
X18726548Y-11109167D01*
X18736071Y-11118690D01*
X18745595Y-11137738D01*
X18745595Y-11194881D01*
X18736071Y-11213928D01*
X18726548Y-11223452D01*
X18707500Y-11232976D01*
X18678929Y-11232976D01*
X18802738Y-11099643D02*
X18878929Y-11099643D01*
X18831310Y-11032976D02*
X18831310Y-11204405D01*
X18840833Y-11223452D01*
X18859881Y-11232976D01*
X18878929Y-11232976D01*
X18936071Y-11223452D02*
X18955119Y-11232976D01*
X18993214Y-11232976D01*
X19012262Y-11223452D01*
X19021786Y-11204405D01*
X19021786Y-11194881D01*
X19012262Y-11175833D01*
X18993214Y-11166310D01*
X18964643Y-11166310D01*
X18945595Y-11156786D01*
X18936071Y-11137738D01*
X18936071Y-11128214D01*
X18945595Y-11109167D01*
X18964643Y-11099643D01*
X18993214Y-11099643D01*
X19012262Y-11109167D01*
X19088452Y-11309167D02*
X19097976Y-11299643D01*
X19117024Y-11271071D01*
X19126548Y-11252024D01*
X19136071Y-11223452D01*
X19145595Y-11175833D01*
X19145595Y-11137738D01*
X19136071Y-11090119D01*
X19126548Y-11061548D01*
X19117024Y-11042500D01*
X19097976Y-11013929D01*
X19088452Y-11004405D01*
X19450357Y-11309167D02*
X19440833Y-11299643D01*
X19421786Y-11271071D01*
X19412262Y-11252024D01*
X19402738Y-11223452D01*
X19393214Y-11175833D01*
X19393214Y-11137738D01*
X19402738Y-11090119D01*
X19412262Y-11061548D01*
X19421786Y-11042500D01*
X19440833Y-11013929D01*
X19450357Y-11004405D01*
X19526548Y-11099643D02*
X19526548Y-11232976D01*
X19526548Y-11118690D02*
X19536071Y-11109167D01*
X19555119Y-11099643D01*
X19583690Y-11099643D01*
X19602738Y-11109167D01*
X19612262Y-11128214D01*
X19612262Y-11232976D01*
X19736071Y-11232976D02*
X19717024Y-11223452D01*
X19707500Y-11213928D01*
X19697976Y-11194881D01*
X19697976Y-11137738D01*
X19707500Y-11118690D01*
X19717024Y-11109167D01*
X19736071Y-11099643D01*
X19764643Y-11099643D01*
X19783690Y-11109167D01*
X19793214Y-11118690D01*
X19802738Y-11137738D01*
X19802738Y-11194881D01*
X19793214Y-11213928D01*
X19783690Y-11223452D01*
X19764643Y-11232976D01*
X19736071Y-11232976D01*
X19859881Y-11099643D02*
X19936071Y-11099643D01*
X19888452Y-11032976D02*
X19888452Y-11204405D01*
X19897976Y-11223452D01*
X19917024Y-11232976D01*
X19936071Y-11232976D01*
X20155119Y-11099643D02*
X20155119Y-11299643D01*
X20155119Y-11109167D02*
X20174167Y-11099643D01*
X20212262Y-11099643D01*
X20231310Y-11109167D01*
X20240833Y-11118690D01*
X20250357Y-11137738D01*
X20250357Y-11194881D01*
X20240833Y-11213928D01*
X20231310Y-11223452D01*
X20212262Y-11232976D01*
X20174167Y-11232976D01*
X20155119Y-11223452D01*
X20364643Y-11232976D02*
X20345595Y-11223452D01*
X20336071Y-11204405D01*
X20336071Y-11032976D01*
X20526548Y-11232976D02*
X20526548Y-11128214D01*
X20517024Y-11109167D01*
X20497976Y-11099643D01*
X20459881Y-11099643D01*
X20440833Y-11109167D01*
X20526548Y-11223452D02*
X20507500Y-11232976D01*
X20459881Y-11232976D01*
X20440833Y-11223452D01*
X20431310Y-11204405D01*
X20431310Y-11185357D01*
X20440833Y-11166310D01*
X20459881Y-11156786D01*
X20507500Y-11156786D01*
X20526548Y-11147262D01*
X20593214Y-11099643D02*
X20669405Y-11099643D01*
X20621786Y-11032976D02*
X20621786Y-11204405D01*
X20631310Y-11223452D01*
X20650357Y-11232976D01*
X20669405Y-11232976D01*
X20812262Y-11223452D02*
X20793214Y-11232976D01*
X20755119Y-11232976D01*
X20736071Y-11223452D01*
X20726548Y-11204405D01*
X20726548Y-11128214D01*
X20736071Y-11109167D01*
X20755119Y-11099643D01*
X20793214Y-11099643D01*
X20812262Y-11109167D01*
X20821786Y-11128214D01*
X20821786Y-11147262D01*
X20726548Y-11166310D01*
X20993214Y-11232976D02*
X20993214Y-11032976D01*
X20993214Y-11223452D02*
X20974167Y-11232976D01*
X20936071Y-11232976D01*
X20917024Y-11223452D01*
X20907500Y-11213928D01*
X20897976Y-11194881D01*
X20897976Y-11137738D01*
X20907500Y-11118690D01*
X20917024Y-11109167D01*
X20936071Y-11099643D01*
X20974167Y-11099643D01*
X20993214Y-11109167D01*
X21069405Y-11309167D02*
X21078929Y-11299643D01*
X21097976Y-11271071D01*
X21107500Y-11252024D01*
X21117024Y-11223452D01*
X21126548Y-11175833D01*
X21126548Y-11137738D01*
X21117024Y-11090119D01*
X21107500Y-11061548D01*
X21097976Y-11042500D01*
X21078929Y-11013929D01*
X21069405Y-11004405D01*
M02*
