%TF.GenerationSoftware,KiCad,Pcbnew,(6.0.2)*%
%TF.CreationDate,2022-03-15T19:15:36-04:00*%
%TF.ProjectId,Pi1541_Main_Board,50693135-3431-45f4-9d61-696e5f426f61,1.0*%
%TF.SameCoordinates,Original*%
%TF.FileFunction,Legend,Bot*%
%TF.FilePolarity,Positive*%
%FSLAX46Y46*%
G04 Gerber Fmt 4.6, Leading zero omitted, Abs format (unit mm)*
G04 Created by KiCad (PCBNEW (6.0.2)) date 2022-03-15 19:15:36*
%MOMM*%
%LPD*%
G01*
G04 APERTURE LIST*
G04 Aperture macros list*
%AMRoundRect*
0 Rectangle with rounded corners*
0 $1 Rounding radius*
0 $2 $3 $4 $5 $6 $7 $8 $9 X,Y pos of 4 corners*
0 Add a 4 corners polygon primitive as box body*
4,1,4,$2,$3,$4,$5,$6,$7,$8,$9,$2,$3,0*
0 Add four circle primitives for the rounded corners*
1,1,$1+$1,$2,$3*
1,1,$1+$1,$4,$5*
1,1,$1+$1,$6,$7*
1,1,$1+$1,$8,$9*
0 Add four rect primitives between the rounded corners*
20,1,$1+$1,$2,$3,$4,$5,0*
20,1,$1+$1,$4,$5,$6,$7,0*
20,1,$1+$1,$6,$7,$8,$9,0*
20,1,$1+$1,$8,$9,$2,$3,0*%
G04 Aperture macros list end*
%ADD10C,0.152400*%
%ADD11C,0.120000*%
%ADD12C,2.400000*%
%ADD13RoundRect,0.500000X-1.800000X0.500000X-1.800000X-0.500000X1.800000X-0.500000X1.800000X0.500000X0*%
%ADD14C,2.000000*%
%ADD15RoundRect,0.500000X-0.500000X-1.800000X0.500000X-1.800000X0.500000X1.800000X-0.500000X1.800000X0*%
%ADD16R,1.700000X1.700000*%
%ADD17O,1.700000X1.700000*%
%ADD18C,2.700000*%
%ADD19O,2.700000X5.400000*%
G04 APERTURE END LIST*
D10*
X138407510Y-80613333D02*
X138446215Y-80729447D01*
X138484920Y-80768152D01*
X138562329Y-80806857D01*
X138678444Y-80806857D01*
X138755853Y-80768152D01*
X138794558Y-80729447D01*
X138833263Y-80652038D01*
X138833263Y-80342400D01*
X138020463Y-80342400D01*
X138020463Y-80613333D01*
X138059168Y-80690742D01*
X138097872Y-80729447D01*
X138175282Y-80768152D01*
X138252691Y-80768152D01*
X138330101Y-80729447D01*
X138368806Y-80690742D01*
X138407510Y-80613333D01*
X138407510Y-80342400D01*
X138833263Y-81503542D02*
X138407510Y-81503542D01*
X138330101Y-81464838D01*
X138291396Y-81387428D01*
X138291396Y-81232609D01*
X138330101Y-81155200D01*
X138794558Y-81503542D02*
X138833263Y-81426133D01*
X138833263Y-81232609D01*
X138794558Y-81155200D01*
X138717148Y-81116495D01*
X138639739Y-81116495D01*
X138562329Y-81155200D01*
X138523625Y-81232609D01*
X138523625Y-81426133D01*
X138484920Y-81503542D01*
X138794558Y-81851885D02*
X138833263Y-81929295D01*
X138833263Y-82084114D01*
X138794558Y-82161523D01*
X138717148Y-82200228D01*
X138678444Y-82200228D01*
X138601034Y-82161523D01*
X138562329Y-82084114D01*
X138562329Y-81968000D01*
X138523625Y-81890590D01*
X138446215Y-81851885D01*
X138407510Y-81851885D01*
X138330101Y-81890590D01*
X138291396Y-81968000D01*
X138291396Y-82084114D01*
X138330101Y-82161523D01*
X138833263Y-82548571D02*
X138291396Y-82548571D01*
X138020463Y-82548571D02*
X138059168Y-82509866D01*
X138097872Y-82548571D01*
X138059168Y-82587276D01*
X138020463Y-82548571D01*
X138097872Y-82548571D01*
X138794558Y-83283961D02*
X138833263Y-83206552D01*
X138833263Y-83051733D01*
X138794558Y-82974323D01*
X138755853Y-82935619D01*
X138678444Y-82896914D01*
X138446215Y-82896914D01*
X138368806Y-82935619D01*
X138330101Y-82974323D01*
X138291396Y-83051733D01*
X138291396Y-83206552D01*
X138330101Y-83283961D01*
X138794558Y-84212876D02*
X138833263Y-84328990D01*
X138833263Y-84522514D01*
X138794558Y-84599923D01*
X138755853Y-84638628D01*
X138678444Y-84677333D01*
X138601034Y-84677333D01*
X138523625Y-84638628D01*
X138484920Y-84599923D01*
X138446215Y-84522514D01*
X138407510Y-84367695D01*
X138368806Y-84290285D01*
X138330101Y-84251580D01*
X138252691Y-84212876D01*
X138175282Y-84212876D01*
X138097872Y-84251580D01*
X138059168Y-84290285D01*
X138020463Y-84367695D01*
X138020463Y-84561219D01*
X138059168Y-84677333D01*
X138794558Y-85335314D02*
X138833263Y-85257904D01*
X138833263Y-85103085D01*
X138794558Y-85025676D01*
X138717148Y-84986971D01*
X138407510Y-84986971D01*
X138330101Y-85025676D01*
X138291396Y-85103085D01*
X138291396Y-85257904D01*
X138330101Y-85335314D01*
X138407510Y-85374019D01*
X138484920Y-85374019D01*
X138562329Y-84986971D01*
X138291396Y-85606247D02*
X138291396Y-85915885D01*
X138020463Y-85722361D02*
X138717148Y-85722361D01*
X138794558Y-85761066D01*
X138833263Y-85838476D01*
X138833263Y-85915885D01*
X138291396Y-86535161D02*
X138833263Y-86535161D01*
X138291396Y-86186819D02*
X138717148Y-86186819D01*
X138794558Y-86225523D01*
X138833263Y-86302933D01*
X138833263Y-86419047D01*
X138794558Y-86496457D01*
X138755853Y-86535161D01*
X138291396Y-86922209D02*
X139104196Y-86922209D01*
X138330101Y-86922209D02*
X138291396Y-86999619D01*
X138291396Y-87154438D01*
X138330101Y-87231847D01*
X138368806Y-87270552D01*
X138446215Y-87309257D01*
X138678444Y-87309257D01*
X138755853Y-87270552D01*
X138794558Y-87231847D01*
X138833263Y-87154438D01*
X138833263Y-86999619D01*
X138794558Y-86922209D01*
X138755853Y-87657600D02*
X138794558Y-87696304D01*
X138833263Y-87657600D01*
X138794558Y-87618895D01*
X138755853Y-87657600D01*
X138833263Y-87657600D01*
X138330101Y-87657600D02*
X138368806Y-87696304D01*
X138407510Y-87657600D01*
X138368806Y-87618895D01*
X138330101Y-87657600D01*
X138407510Y-87657600D01*
X140598974Y-77768533D02*
X141644003Y-77071847D01*
X140598974Y-78620038D02*
X141644003Y-77923352D01*
X141024726Y-79161904D02*
X141063431Y-79278019D01*
X141102136Y-79316723D01*
X141179545Y-79355428D01*
X141295660Y-79355428D01*
X141373069Y-79316723D01*
X141411774Y-79278019D01*
X141450479Y-79200609D01*
X141450479Y-78890971D01*
X140637679Y-78890971D01*
X140637679Y-79161904D01*
X140676384Y-79239314D01*
X140715088Y-79278019D01*
X140792498Y-79316723D01*
X140869907Y-79316723D01*
X140947317Y-79278019D01*
X140986022Y-79239314D01*
X141024726Y-79161904D01*
X141024726Y-78890971D01*
X141450479Y-79819885D02*
X141411774Y-79742476D01*
X141373069Y-79703771D01*
X141295660Y-79665066D01*
X141063431Y-79665066D01*
X140986022Y-79703771D01*
X140947317Y-79742476D01*
X140908612Y-79819885D01*
X140908612Y-79936000D01*
X140947317Y-80013409D01*
X140986022Y-80052114D01*
X141063431Y-80090819D01*
X141295660Y-80090819D01*
X141373069Y-80052114D01*
X141411774Y-80013409D01*
X141450479Y-79936000D01*
X141450479Y-79819885D01*
X141450479Y-80787504D02*
X141024726Y-80787504D01*
X140947317Y-80748800D01*
X140908612Y-80671390D01*
X140908612Y-80516571D01*
X140947317Y-80439161D01*
X141411774Y-80787504D02*
X141450479Y-80710095D01*
X141450479Y-80516571D01*
X141411774Y-80439161D01*
X141334364Y-80400457D01*
X141256955Y-80400457D01*
X141179545Y-80439161D01*
X141140841Y-80516571D01*
X141140841Y-80710095D01*
X141102136Y-80787504D01*
X141450479Y-81174552D02*
X140908612Y-81174552D01*
X141063431Y-81174552D02*
X140986022Y-81213257D01*
X140947317Y-81251961D01*
X140908612Y-81329371D01*
X140908612Y-81406780D01*
X141450479Y-82026057D02*
X140637679Y-82026057D01*
X141411774Y-82026057D02*
X141450479Y-81948647D01*
X141450479Y-81793828D01*
X141411774Y-81716419D01*
X141373069Y-81677714D01*
X141295660Y-81639009D01*
X141063431Y-81639009D01*
X140986022Y-81677714D01*
X140947317Y-81716419D01*
X140908612Y-81793828D01*
X140908612Y-81948647D01*
X140947317Y-82026057D01*
X141373069Y-83496838D02*
X141411774Y-83458133D01*
X141450479Y-83342019D01*
X141450479Y-83264609D01*
X141411774Y-83148495D01*
X141334364Y-83071085D01*
X141256955Y-83032380D01*
X141102136Y-82993676D01*
X140986022Y-82993676D01*
X140831203Y-83032380D01*
X140753793Y-83071085D01*
X140676384Y-83148495D01*
X140637679Y-83264609D01*
X140637679Y-83342019D01*
X140676384Y-83458133D01*
X140715088Y-83496838D01*
X141450479Y-83961295D02*
X141411774Y-83883885D01*
X141373069Y-83845180D01*
X141295660Y-83806476D01*
X141063431Y-83806476D01*
X140986022Y-83845180D01*
X140947317Y-83883885D01*
X140908612Y-83961295D01*
X140908612Y-84077409D01*
X140947317Y-84154819D01*
X140986022Y-84193523D01*
X141063431Y-84232228D01*
X141295660Y-84232228D01*
X141373069Y-84193523D01*
X141411774Y-84154819D01*
X141450479Y-84077409D01*
X141450479Y-83961295D01*
X140908612Y-84580571D02*
X141450479Y-84580571D01*
X140986022Y-84580571D02*
X140947317Y-84619276D01*
X140908612Y-84696685D01*
X140908612Y-84812800D01*
X140947317Y-84890209D01*
X141024726Y-84928914D01*
X141450479Y-84928914D01*
X140908612Y-85199847D02*
X140908612Y-85509485D01*
X141450479Y-85315961D02*
X140753793Y-85315961D01*
X140676384Y-85354666D01*
X140637679Y-85432076D01*
X140637679Y-85509485D01*
X141450479Y-85780419D02*
X140908612Y-85780419D01*
X140637679Y-85780419D02*
X140676384Y-85741714D01*
X140715088Y-85780419D01*
X140676384Y-85819123D01*
X140637679Y-85780419D01*
X140715088Y-85780419D01*
X140908612Y-86515809D02*
X141566593Y-86515809D01*
X141644003Y-86477104D01*
X141682707Y-86438400D01*
X141721412Y-86360990D01*
X141721412Y-86244876D01*
X141682707Y-86167466D01*
X141411774Y-86515809D02*
X141450479Y-86438400D01*
X141450479Y-86283580D01*
X141411774Y-86206171D01*
X141373069Y-86167466D01*
X141295660Y-86128761D01*
X141063431Y-86128761D01*
X140986022Y-86167466D01*
X140947317Y-86206171D01*
X140908612Y-86283580D01*
X140908612Y-86438400D01*
X140947317Y-86515809D01*
X140908612Y-87251200D02*
X141450479Y-87251200D01*
X140908612Y-86902857D02*
X141334364Y-86902857D01*
X141411774Y-86941561D01*
X141450479Y-87018971D01*
X141450479Y-87135085D01*
X141411774Y-87212495D01*
X141373069Y-87251200D01*
X141450479Y-87638247D02*
X140908612Y-87638247D01*
X141063431Y-87638247D02*
X140986022Y-87676952D01*
X140947317Y-87715657D01*
X140908612Y-87793066D01*
X140908612Y-87870476D01*
X141450479Y-88489752D02*
X141024726Y-88489752D01*
X140947317Y-88451047D01*
X140908612Y-88373638D01*
X140908612Y-88218819D01*
X140947317Y-88141409D01*
X141411774Y-88489752D02*
X141450479Y-88412342D01*
X141450479Y-88218819D01*
X141411774Y-88141409D01*
X141334364Y-88102704D01*
X141256955Y-88102704D01*
X141179545Y-88141409D01*
X141140841Y-88218819D01*
X141140841Y-88412342D01*
X141102136Y-88489752D01*
X140908612Y-88760685D02*
X140908612Y-89070323D01*
X140637679Y-88876800D02*
X141334364Y-88876800D01*
X141411774Y-88915504D01*
X141450479Y-88992914D01*
X141450479Y-89070323D01*
X141450479Y-89341257D02*
X140908612Y-89341257D01*
X140637679Y-89341257D02*
X140676384Y-89302552D01*
X140715088Y-89341257D01*
X140676384Y-89379961D01*
X140637679Y-89341257D01*
X140715088Y-89341257D01*
X141450479Y-89844419D02*
X141411774Y-89767009D01*
X141373069Y-89728304D01*
X141295660Y-89689600D01*
X141063431Y-89689600D01*
X140986022Y-89728304D01*
X140947317Y-89767009D01*
X140908612Y-89844419D01*
X140908612Y-89960533D01*
X140947317Y-90037942D01*
X140986022Y-90076647D01*
X141063431Y-90115352D01*
X141295660Y-90115352D01*
X141373069Y-90076647D01*
X141411774Y-90037942D01*
X141450479Y-89960533D01*
X141450479Y-89844419D01*
X140908612Y-90463695D02*
X141450479Y-90463695D01*
X140986022Y-90463695D02*
X140947317Y-90502400D01*
X140908612Y-90579809D01*
X140908612Y-90695923D01*
X140947317Y-90773333D01*
X141024726Y-90812038D01*
X141450479Y-90812038D01*
X142720382Y-78774857D02*
X142759087Y-78852266D01*
X142759087Y-79007085D01*
X142720382Y-79084495D01*
X142642972Y-79123200D01*
X142604268Y-79123200D01*
X142526858Y-79084495D01*
X142488153Y-79007085D01*
X142488153Y-78890971D01*
X142449449Y-78813561D01*
X142372039Y-78774857D01*
X142333334Y-78774857D01*
X142255925Y-78813561D01*
X142217220Y-78890971D01*
X142217220Y-79007085D01*
X142255925Y-79084495D01*
X142217220Y-79471542D02*
X143030020Y-79471542D01*
X142255925Y-79471542D02*
X142217220Y-79548952D01*
X142217220Y-79703771D01*
X142255925Y-79781180D01*
X142294630Y-79819885D01*
X142372039Y-79858590D01*
X142604268Y-79858590D01*
X142681677Y-79819885D01*
X142720382Y-79781180D01*
X142759087Y-79703771D01*
X142759087Y-79548952D01*
X142720382Y-79471542D01*
X142759087Y-80323047D02*
X142720382Y-80245638D01*
X142642972Y-80206933D01*
X141946287Y-80206933D01*
X142759087Y-80632685D02*
X142217220Y-80632685D01*
X141946287Y-80632685D02*
X141984992Y-80593980D01*
X142023696Y-80632685D01*
X141984992Y-80671390D01*
X141946287Y-80632685D01*
X142023696Y-80632685D01*
X142217220Y-80903619D02*
X142217220Y-81213257D01*
X141946287Y-81019733D02*
X142642972Y-81019733D01*
X142720382Y-81058438D01*
X142759087Y-81135847D01*
X142759087Y-81213257D01*
X142759087Y-81484190D02*
X141946287Y-81484190D01*
X142333334Y-81871238D02*
X142333334Y-82142171D01*
X142759087Y-82258285D02*
X142759087Y-81871238D01*
X141946287Y-81871238D01*
X141946287Y-82258285D01*
X142681677Y-83071085D02*
X142720382Y-83032380D01*
X142759087Y-82916266D01*
X142759087Y-82838857D01*
X142720382Y-82722742D01*
X142642972Y-82645333D01*
X142565563Y-82606628D01*
X142410744Y-82567923D01*
X142294630Y-82567923D01*
X142139811Y-82606628D01*
X142062401Y-82645333D01*
X141984992Y-82722742D01*
X141946287Y-82838857D01*
X141946287Y-82916266D01*
X141984992Y-83032380D01*
X142023696Y-83071085D01*
X142759087Y-83806476D02*
X142759087Y-83419428D01*
X141946287Y-83419428D01*
X142759087Y-84077409D02*
X142217220Y-84077409D01*
X141946287Y-84077409D02*
X141984992Y-84038704D01*
X142023696Y-84077409D01*
X141984992Y-84116114D01*
X141946287Y-84077409D01*
X142023696Y-84077409D01*
X142217220Y-84464457D02*
X142759087Y-84464457D01*
X142294630Y-84464457D02*
X142255925Y-84503161D01*
X142217220Y-84580571D01*
X142217220Y-84696685D01*
X142255925Y-84774095D01*
X142333334Y-84812800D01*
X142759087Y-84812800D01*
X142720382Y-85509485D02*
X142759087Y-85432076D01*
X142759087Y-85277257D01*
X142720382Y-85199847D01*
X142642972Y-85161142D01*
X142333334Y-85161142D01*
X142255925Y-85199847D01*
X142217220Y-85277257D01*
X142217220Y-85432076D01*
X142255925Y-85509485D01*
X142333334Y-85548190D01*
X142410744Y-85548190D01*
X142488153Y-85161142D01*
X142720382Y-85857828D02*
X142759087Y-85935238D01*
X142759087Y-86090057D01*
X142720382Y-86167466D01*
X142642972Y-86206171D01*
X142604268Y-86206171D01*
X142526858Y-86167466D01*
X142488153Y-86090057D01*
X142488153Y-85973942D01*
X142449449Y-85896533D01*
X142372039Y-85857828D01*
X142333334Y-85857828D01*
X142255925Y-85896533D01*
X142217220Y-85973942D01*
X142217220Y-86090057D01*
X142255925Y-86167466D01*
X142333334Y-87173790D02*
X142333334Y-87793066D01*
X142565563Y-87793066D02*
X142565563Y-87173790D01*
X142759087Y-89225142D02*
X142759087Y-88760685D01*
X142759087Y-88992914D02*
X141946287Y-88992914D01*
X142062401Y-88915504D01*
X142139811Y-88838095D01*
X142178515Y-88760685D01*
X144524798Y-78387809D02*
X145569827Y-77691123D01*
X144524798Y-79239314D02*
X145569827Y-78542628D01*
X145376303Y-79897295D02*
X145376303Y-79510247D01*
X144563503Y-79510247D01*
X145298893Y-80632685D02*
X145337598Y-80593980D01*
X145376303Y-80477866D01*
X145376303Y-80400457D01*
X145337598Y-80284342D01*
X145260188Y-80206933D01*
X145182779Y-80168228D01*
X145027960Y-80129523D01*
X144911846Y-80129523D01*
X144757027Y-80168228D01*
X144679617Y-80206933D01*
X144602208Y-80284342D01*
X144563503Y-80400457D01*
X144563503Y-80477866D01*
X144602208Y-80593980D01*
X144640912Y-80632685D01*
X145376303Y-80981028D02*
X144563503Y-80981028D01*
X144563503Y-81174552D01*
X144602208Y-81290666D01*
X144679617Y-81368076D01*
X144757027Y-81406780D01*
X144911846Y-81445485D01*
X145027960Y-81445485D01*
X145182779Y-81406780D01*
X145260188Y-81368076D01*
X145337598Y-81290666D01*
X145376303Y-81174552D01*
X145376303Y-80981028D01*
X145298893Y-82877561D02*
X145337598Y-82838857D01*
X145376303Y-82722742D01*
X145376303Y-82645333D01*
X145337598Y-82529219D01*
X145260188Y-82451809D01*
X145182779Y-82413104D01*
X145027960Y-82374399D01*
X144911846Y-82374399D01*
X144757027Y-82413104D01*
X144679617Y-82451809D01*
X144602208Y-82529219D01*
X144563503Y-82645333D01*
X144563503Y-82722742D01*
X144602208Y-82838857D01*
X144640912Y-82877561D01*
X145376303Y-83342019D02*
X145337598Y-83264609D01*
X145298893Y-83225904D01*
X145221484Y-83187199D01*
X144989255Y-83187199D01*
X144911846Y-83225904D01*
X144873141Y-83264609D01*
X144834436Y-83342019D01*
X144834436Y-83458133D01*
X144873141Y-83535542D01*
X144911846Y-83574247D01*
X144989255Y-83612952D01*
X145221484Y-83612952D01*
X145298893Y-83574247D01*
X145337598Y-83535542D01*
X145376303Y-83458133D01*
X145376303Y-83342019D01*
X144834436Y-83961295D02*
X145376303Y-83961295D01*
X144911846Y-83961295D02*
X144873141Y-83999999D01*
X144834436Y-84077409D01*
X144834436Y-84193523D01*
X144873141Y-84270933D01*
X144950550Y-84309638D01*
X145376303Y-84309638D01*
X144834436Y-84580571D02*
X144834436Y-84890209D01*
X145376303Y-84696685D02*
X144679617Y-84696685D01*
X144602208Y-84735390D01*
X144563503Y-84812799D01*
X144563503Y-84890209D01*
X145376303Y-85161142D02*
X144834436Y-85161142D01*
X144563503Y-85161142D02*
X144602208Y-85122438D01*
X144640912Y-85161142D01*
X144602208Y-85199847D01*
X144563503Y-85161142D01*
X144640912Y-85161142D01*
X144834436Y-85896533D02*
X145492417Y-85896533D01*
X145569827Y-85857828D01*
X145608531Y-85819123D01*
X145647236Y-85741714D01*
X145647236Y-85625599D01*
X145608531Y-85548190D01*
X145337598Y-85896533D02*
X145376303Y-85819123D01*
X145376303Y-85664304D01*
X145337598Y-85586895D01*
X145298893Y-85548190D01*
X145221484Y-85509485D01*
X144989255Y-85509485D01*
X144911846Y-85548190D01*
X144873141Y-85586895D01*
X144834436Y-85664304D01*
X144834436Y-85819123D01*
X144873141Y-85896533D01*
X144834436Y-86631923D02*
X145376303Y-86631923D01*
X144834436Y-86283580D02*
X145260188Y-86283580D01*
X145337598Y-86322285D01*
X145376303Y-86399695D01*
X145376303Y-86515809D01*
X145337598Y-86593219D01*
X145298893Y-86631923D01*
X145376303Y-87018971D02*
X144834436Y-87018971D01*
X144989255Y-87018971D02*
X144911846Y-87057676D01*
X144873141Y-87096380D01*
X144834436Y-87173790D01*
X144834436Y-87251199D01*
X145376303Y-87870476D02*
X144950550Y-87870476D01*
X144873141Y-87831771D01*
X144834436Y-87754361D01*
X144834436Y-87599542D01*
X144873141Y-87522133D01*
X145337598Y-87870476D02*
X145376303Y-87793066D01*
X145376303Y-87599542D01*
X145337598Y-87522133D01*
X145260188Y-87483428D01*
X145182779Y-87483428D01*
X145105369Y-87522133D01*
X145066665Y-87599542D01*
X145066665Y-87793066D01*
X145027960Y-87870476D01*
X144834436Y-88141409D02*
X144834436Y-88451047D01*
X144563503Y-88257523D02*
X145260188Y-88257523D01*
X145337598Y-88296228D01*
X145376303Y-88373638D01*
X145376303Y-88451047D01*
X145376303Y-88721980D02*
X144834436Y-88721980D01*
X144563503Y-88721980D02*
X144602208Y-88683276D01*
X144640912Y-88721980D01*
X144602208Y-88760685D01*
X144563503Y-88721980D01*
X144640912Y-88721980D01*
X145376303Y-89225142D02*
X145337598Y-89147733D01*
X145298893Y-89109028D01*
X145221484Y-89070323D01*
X144989255Y-89070323D01*
X144911846Y-89109028D01*
X144873141Y-89147733D01*
X144834436Y-89225142D01*
X144834436Y-89341257D01*
X144873141Y-89418666D01*
X144911846Y-89457371D01*
X144989255Y-89496076D01*
X145221484Y-89496076D01*
X145298893Y-89457371D01*
X145337598Y-89418666D01*
X145376303Y-89341257D01*
X145376303Y-89225142D01*
X144834436Y-89844419D02*
X145376303Y-89844419D01*
X144911846Y-89844419D02*
X144873141Y-89883123D01*
X144834436Y-89960533D01*
X144834436Y-90076647D01*
X144873141Y-90154057D01*
X144950550Y-90192761D01*
X145376303Y-90192761D01*
X146684911Y-75484952D02*
X146684911Y-75097904D01*
X145872111Y-75097904D01*
X146607501Y-76220342D02*
X146646206Y-76181638D01*
X146684911Y-76065523D01*
X146684911Y-75988114D01*
X146646206Y-75872000D01*
X146568796Y-75794590D01*
X146491387Y-75755885D01*
X146336568Y-75717180D01*
X146220454Y-75717180D01*
X146065635Y-75755885D01*
X145988225Y-75794590D01*
X145910816Y-75872000D01*
X145872111Y-75988114D01*
X145872111Y-76065523D01*
X145910816Y-76181638D01*
X145949520Y-76220342D01*
X146684911Y-76568685D02*
X145872111Y-76568685D01*
X145872111Y-76762209D01*
X145910816Y-76878323D01*
X145988225Y-76955733D01*
X146065635Y-76994438D01*
X146220454Y-77033142D01*
X146336568Y-77033142D01*
X146491387Y-76994438D01*
X146568796Y-76955733D01*
X146646206Y-76878323D01*
X146684911Y-76762209D01*
X146684911Y-76568685D01*
X146684911Y-77381485D02*
X145872111Y-77381485D01*
X146684911Y-77845942D01*
X145872111Y-77845942D01*
X146684911Y-78581333D02*
X146259158Y-78581333D01*
X146181749Y-78542628D01*
X146143044Y-78465219D01*
X146143044Y-78310400D01*
X146181749Y-78232990D01*
X146646206Y-78581333D02*
X146684911Y-78503923D01*
X146684911Y-78310400D01*
X146646206Y-78232990D01*
X146568796Y-78194285D01*
X146491387Y-78194285D01*
X146413977Y-78232990D01*
X146375273Y-78310400D01*
X146375273Y-78503923D01*
X146336568Y-78581333D01*
X146684911Y-78968380D02*
X146143044Y-78968380D01*
X146220454Y-78968380D02*
X146181749Y-79007085D01*
X146143044Y-79084495D01*
X146143044Y-79200609D01*
X146181749Y-79278019D01*
X146259158Y-79316723D01*
X146684911Y-79316723D01*
X146259158Y-79316723D02*
X146181749Y-79355428D01*
X146143044Y-79432838D01*
X146143044Y-79548952D01*
X146181749Y-79626361D01*
X146259158Y-79665066D01*
X146684911Y-79665066D01*
X146646206Y-80361752D02*
X146684911Y-80284342D01*
X146684911Y-80129523D01*
X146646206Y-80052114D01*
X146568796Y-80013409D01*
X146259158Y-80013409D01*
X146181749Y-80052114D01*
X146143044Y-80129523D01*
X146143044Y-80284342D01*
X146181749Y-80361752D01*
X146259158Y-80400457D01*
X146336568Y-80400457D01*
X146413977Y-80013409D01*
X146259158Y-81368076D02*
X146259158Y-81987352D01*
X146491387Y-81987352D02*
X146491387Y-81368076D01*
X146646206Y-82954971D02*
X146684911Y-83032380D01*
X146684911Y-83187200D01*
X146646206Y-83264609D01*
X146568796Y-83303314D01*
X146530092Y-83303314D01*
X146452682Y-83264609D01*
X146413977Y-83187200D01*
X146413977Y-83071085D01*
X146375273Y-82993676D01*
X146297863Y-82954971D01*
X146259158Y-82954971D01*
X146181749Y-82993676D01*
X146143044Y-83071085D01*
X146143044Y-83187200D01*
X146181749Y-83264609D01*
X146646206Y-83612952D02*
X146684911Y-83690361D01*
X146684911Y-83845180D01*
X146646206Y-83922590D01*
X146568796Y-83961295D01*
X146530092Y-83961295D01*
X146452682Y-83922590D01*
X146413977Y-83845180D01*
X146413977Y-83729066D01*
X146375273Y-83651657D01*
X146297863Y-83612952D01*
X146259158Y-83612952D01*
X146181749Y-83651657D01*
X146143044Y-83729066D01*
X146143044Y-83845180D01*
X146181749Y-83922590D01*
X146684911Y-84657980D02*
X145872111Y-84657980D01*
X146646206Y-84657980D02*
X146684911Y-84580571D01*
X146684911Y-84425752D01*
X146646206Y-84348342D01*
X146607501Y-84309638D01*
X146530092Y-84270933D01*
X146297863Y-84270933D01*
X146220454Y-84309638D01*
X146181749Y-84348342D01*
X146143044Y-84425752D01*
X146143044Y-84580571D01*
X146181749Y-84657980D01*
X146684911Y-85470780D02*
X146684911Y-85006323D01*
X146684911Y-85238552D02*
X145872111Y-85238552D01*
X145988225Y-85161142D01*
X146065635Y-85083733D01*
X146104339Y-85006323D01*
X145872111Y-85741714D02*
X145872111Y-86244876D01*
X146181749Y-85973942D01*
X146181749Y-86090057D01*
X146220454Y-86167466D01*
X146259158Y-86206171D01*
X146336568Y-86244876D01*
X146530092Y-86244876D01*
X146607501Y-86206171D01*
X146646206Y-86167466D01*
X146684911Y-86090057D01*
X146684911Y-85857828D01*
X146646206Y-85780419D01*
X146607501Y-85741714D01*
X145872111Y-86748038D02*
X145872111Y-86825447D01*
X145910816Y-86902857D01*
X145949520Y-86941561D01*
X146026930Y-86980266D01*
X146181749Y-87018971D01*
X146375273Y-87018971D01*
X146530092Y-86980266D01*
X146607501Y-86941561D01*
X146646206Y-86902857D01*
X146684911Y-86825447D01*
X146684911Y-86748038D01*
X146646206Y-86670628D01*
X146607501Y-86631923D01*
X146530092Y-86593219D01*
X146375273Y-86554514D01*
X146181749Y-86554514D01*
X146026930Y-86593219D01*
X145949520Y-86631923D01*
X145910816Y-86670628D01*
X145872111Y-86748038D01*
X145872111Y-87715657D02*
X145872111Y-87560838D01*
X145910816Y-87483428D01*
X145949520Y-87444723D01*
X146065635Y-87367314D01*
X146220454Y-87328609D01*
X146530092Y-87328609D01*
X146607501Y-87367314D01*
X146646206Y-87406019D01*
X146684911Y-87483428D01*
X146684911Y-87638247D01*
X146646206Y-87715657D01*
X146607501Y-87754361D01*
X146530092Y-87793066D01*
X146336568Y-87793066D01*
X146259158Y-87754361D01*
X146220454Y-87715657D01*
X146181749Y-87638247D01*
X146181749Y-87483428D01*
X146220454Y-87406019D01*
X146259158Y-87367314D01*
X146336568Y-87328609D01*
X146762320Y-87947885D02*
X146762320Y-88567161D01*
X146684911Y-89186438D02*
X146684911Y-88721980D01*
X146684911Y-88954209D02*
X145872111Y-88954209D01*
X145988225Y-88876800D01*
X146065635Y-88799390D01*
X146104339Y-88721980D01*
X145949520Y-89496076D02*
X145910816Y-89534780D01*
X145872111Y-89612190D01*
X145872111Y-89805714D01*
X145910816Y-89883123D01*
X145949520Y-89921828D01*
X146026930Y-89960533D01*
X146104339Y-89960533D01*
X146220454Y-89921828D01*
X146684911Y-89457371D01*
X146684911Y-89960533D01*
X146220454Y-90424990D02*
X146181749Y-90347580D01*
X146143044Y-90308876D01*
X146065635Y-90270171D01*
X146026930Y-90270171D01*
X145949520Y-90308876D01*
X145910816Y-90347580D01*
X145872111Y-90424990D01*
X145872111Y-90579809D01*
X145910816Y-90657219D01*
X145949520Y-90695923D01*
X146026930Y-90734628D01*
X146065635Y-90734628D01*
X146143044Y-90695923D01*
X146181749Y-90657219D01*
X146220454Y-90579809D01*
X146220454Y-90424990D01*
X146259158Y-90347580D01*
X146297863Y-90308876D01*
X146375273Y-90270171D01*
X146530092Y-90270171D01*
X146607501Y-90308876D01*
X146646206Y-90347580D01*
X146684911Y-90424990D01*
X146684911Y-90579809D01*
X146646206Y-90657219D01*
X146607501Y-90695923D01*
X146530092Y-90734628D01*
X146375273Y-90734628D01*
X146297863Y-90695923D01*
X146259158Y-90657219D01*
X146220454Y-90579809D01*
X146684911Y-91005561D02*
X146143044Y-91431314D01*
X146143044Y-91005561D02*
X146684911Y-91431314D01*
X145872111Y-92089295D02*
X145872111Y-91934476D01*
X145910816Y-91857066D01*
X145949520Y-91818361D01*
X146065635Y-91740952D01*
X146220454Y-91702247D01*
X146530092Y-91702247D01*
X146607501Y-91740952D01*
X146646206Y-91779657D01*
X146684911Y-91857066D01*
X146684911Y-92011885D01*
X146646206Y-92089295D01*
X146607501Y-92128000D01*
X146530092Y-92166704D01*
X146336568Y-92166704D01*
X146259158Y-92128000D01*
X146220454Y-92089295D01*
X146181749Y-92011885D01*
X146181749Y-91857066D01*
X146220454Y-91779657D01*
X146259158Y-91740952D01*
X146336568Y-91702247D01*
X146143044Y-92863390D02*
X146684911Y-92863390D01*
X145833406Y-92669866D02*
X146413977Y-92476342D01*
X146413977Y-92979504D01*
X147993519Y-74575390D02*
X147180719Y-74575390D01*
X147993519Y-75039847D02*
X147529062Y-74691504D01*
X147180719Y-75039847D02*
X147645176Y-74575390D01*
X147954814Y-75697828D02*
X147993519Y-75620419D01*
X147993519Y-75465600D01*
X147954814Y-75388190D01*
X147877404Y-75349485D01*
X147567766Y-75349485D01*
X147490357Y-75388190D01*
X147451652Y-75465600D01*
X147451652Y-75620419D01*
X147490357Y-75697828D01*
X147567766Y-75736533D01*
X147645176Y-75736533D01*
X147722585Y-75349485D01*
X147451652Y-76007466D02*
X147993519Y-76200990D01*
X147451652Y-76394514D02*
X147993519Y-76200990D01*
X148187043Y-76123580D01*
X148225747Y-76084876D01*
X148264452Y-76007466D01*
X147993519Y-76704152D02*
X147180719Y-76704152D01*
X147490357Y-76704152D02*
X147451652Y-76781561D01*
X147451652Y-76936380D01*
X147490357Y-77013790D01*
X147529062Y-77052495D01*
X147606471Y-77091200D01*
X147838700Y-77091200D01*
X147916109Y-77052495D01*
X147954814Y-77013790D01*
X147993519Y-76936380D01*
X147993519Y-76781561D01*
X147954814Y-76704152D01*
X147993519Y-77555657D02*
X147954814Y-77478247D01*
X147916109Y-77439542D01*
X147838700Y-77400838D01*
X147606471Y-77400838D01*
X147529062Y-77439542D01*
X147490357Y-77478247D01*
X147451652Y-77555657D01*
X147451652Y-77671771D01*
X147490357Y-77749180D01*
X147529062Y-77787885D01*
X147606471Y-77826590D01*
X147838700Y-77826590D01*
X147916109Y-77787885D01*
X147954814Y-77749180D01*
X147993519Y-77671771D01*
X147993519Y-77555657D01*
X147993519Y-78523276D02*
X147567766Y-78523276D01*
X147490357Y-78484571D01*
X147451652Y-78407161D01*
X147451652Y-78252342D01*
X147490357Y-78174933D01*
X147954814Y-78523276D02*
X147993519Y-78445866D01*
X147993519Y-78252342D01*
X147954814Y-78174933D01*
X147877404Y-78136228D01*
X147799995Y-78136228D01*
X147722585Y-78174933D01*
X147683881Y-78252342D01*
X147683881Y-78445866D01*
X147645176Y-78523276D01*
X147993519Y-78910323D02*
X147451652Y-78910323D01*
X147606471Y-78910323D02*
X147529062Y-78949028D01*
X147490357Y-78987733D01*
X147451652Y-79065142D01*
X147451652Y-79142552D01*
X147993519Y-79761828D02*
X147180719Y-79761828D01*
X147954814Y-79761828D02*
X147993519Y-79684419D01*
X147993519Y-79529600D01*
X147954814Y-79452190D01*
X147916109Y-79413485D01*
X147838700Y-79374780D01*
X147606471Y-79374780D01*
X147529062Y-79413485D01*
X147490357Y-79452190D01*
X147451652Y-79529600D01*
X147451652Y-79684419D01*
X147490357Y-79761828D01*
X147567766Y-80419809D02*
X147606471Y-80535923D01*
X147645176Y-80574628D01*
X147722585Y-80613333D01*
X147838700Y-80613333D01*
X147916109Y-80574628D01*
X147954814Y-80535923D01*
X147993519Y-80458514D01*
X147993519Y-80148876D01*
X147180719Y-80148876D01*
X147180719Y-80419809D01*
X147219424Y-80497219D01*
X147258128Y-80535923D01*
X147335538Y-80574628D01*
X147412947Y-80574628D01*
X147490357Y-80535923D01*
X147529062Y-80497219D01*
X147567766Y-80419809D01*
X147567766Y-80148876D01*
X147993519Y-80961676D02*
X147451652Y-80961676D01*
X147606471Y-80961676D02*
X147529062Y-81000380D01*
X147490357Y-81039085D01*
X147451652Y-81116495D01*
X147451652Y-81193904D01*
X147993519Y-81580952D02*
X147954814Y-81503542D01*
X147916109Y-81464838D01*
X147838700Y-81426133D01*
X147606471Y-81426133D01*
X147529062Y-81464838D01*
X147490357Y-81503542D01*
X147451652Y-81580952D01*
X147451652Y-81697066D01*
X147490357Y-81774476D01*
X147529062Y-81813180D01*
X147606471Y-81851885D01*
X147838700Y-81851885D01*
X147916109Y-81813180D01*
X147954814Y-81774476D01*
X147993519Y-81697066D01*
X147993519Y-81580952D01*
X147451652Y-82122819D02*
X147993519Y-82277638D01*
X147606471Y-82432457D01*
X147993519Y-82587276D01*
X147451652Y-82742095D01*
X147954814Y-83013028D02*
X147993519Y-83090438D01*
X147993519Y-83245257D01*
X147954814Y-83322666D01*
X147877404Y-83361371D01*
X147838700Y-83361371D01*
X147761290Y-83322666D01*
X147722585Y-83245257D01*
X147722585Y-83129142D01*
X147683881Y-83051733D01*
X147606471Y-83013028D01*
X147567766Y-83013028D01*
X147490357Y-83051733D01*
X147451652Y-83129142D01*
X147451652Y-83245257D01*
X147490357Y-83322666D01*
X147954814Y-84019352D02*
X147993519Y-83941942D01*
X147993519Y-83787123D01*
X147954814Y-83709714D01*
X147877404Y-83671009D01*
X147567766Y-83671009D01*
X147490357Y-83709714D01*
X147451652Y-83787123D01*
X147451652Y-83941942D01*
X147490357Y-84019352D01*
X147567766Y-84058057D01*
X147645176Y-84058057D01*
X147722585Y-83671009D01*
X147993519Y-84793447D02*
X147993519Y-84406400D01*
X147180719Y-84406400D01*
X147916109Y-85528838D02*
X147954814Y-85490133D01*
X147993519Y-85374019D01*
X147993519Y-85296609D01*
X147954814Y-85180495D01*
X147877404Y-85103085D01*
X147799995Y-85064380D01*
X147645176Y-85025676D01*
X147529062Y-85025676D01*
X147374243Y-85064380D01*
X147296833Y-85103085D01*
X147219424Y-85180495D01*
X147180719Y-85296609D01*
X147180719Y-85374019D01*
X147219424Y-85490133D01*
X147258128Y-85528838D01*
X147993519Y-85877180D02*
X147180719Y-85877180D01*
X147180719Y-86070704D01*
X147219424Y-86186819D01*
X147296833Y-86264228D01*
X147374243Y-86302933D01*
X147529062Y-86341638D01*
X147645176Y-86341638D01*
X147799995Y-86302933D01*
X147877404Y-86264228D01*
X147954814Y-86186819D01*
X147993519Y-86070704D01*
X147993519Y-85877180D01*
X147954814Y-86651276D02*
X147993519Y-86767390D01*
X147993519Y-86960914D01*
X147954814Y-87038323D01*
X147916109Y-87077028D01*
X147838700Y-87115733D01*
X147761290Y-87115733D01*
X147683881Y-87077028D01*
X147645176Y-87038323D01*
X147606471Y-86960914D01*
X147567766Y-86806095D01*
X147529062Y-86728685D01*
X147490357Y-86689980D01*
X147412947Y-86651276D01*
X147335538Y-86651276D01*
X147258128Y-86689980D01*
X147219424Y-86728685D01*
X147180719Y-86806095D01*
X147180719Y-86999619D01*
X147219424Y-87115733D01*
X147954814Y-87812419D02*
X147993519Y-87735009D01*
X147993519Y-87580190D01*
X147954814Y-87502780D01*
X147916109Y-87464076D01*
X147838700Y-87425371D01*
X147606471Y-87425371D01*
X147529062Y-87464076D01*
X147490357Y-87502780D01*
X147451652Y-87580190D01*
X147451652Y-87735009D01*
X147490357Y-87812419D01*
X147993519Y-88160761D02*
X147451652Y-88160761D01*
X147606471Y-88160761D02*
X147529062Y-88199466D01*
X147490357Y-88238171D01*
X147451652Y-88315580D01*
X147451652Y-88392990D01*
X147954814Y-88973561D02*
X147993519Y-88896152D01*
X147993519Y-88741333D01*
X147954814Y-88663923D01*
X147877404Y-88625219D01*
X147567766Y-88625219D01*
X147490357Y-88663923D01*
X147451652Y-88741333D01*
X147451652Y-88896152D01*
X147490357Y-88973561D01*
X147567766Y-89012266D01*
X147645176Y-89012266D01*
X147722585Y-88625219D01*
X147954814Y-89670247D02*
X147993519Y-89592838D01*
X147993519Y-89438019D01*
X147954814Y-89360609D01*
X147877404Y-89321904D01*
X147567766Y-89321904D01*
X147490357Y-89360609D01*
X147451652Y-89438019D01*
X147451652Y-89592838D01*
X147490357Y-89670247D01*
X147567766Y-89708952D01*
X147645176Y-89708952D01*
X147722585Y-89321904D01*
X147451652Y-90057295D02*
X147993519Y-90057295D01*
X147529062Y-90057295D02*
X147490357Y-90096000D01*
X147451652Y-90173409D01*
X147451652Y-90289523D01*
X147490357Y-90366933D01*
X147567766Y-90405638D01*
X147993519Y-90405638D01*
X147567766Y-91411961D02*
X147567766Y-92031238D01*
X147799995Y-92031238D02*
X147799995Y-91411961D01*
X147993519Y-93463314D02*
X147993519Y-92998857D01*
X147993519Y-93231085D02*
X147180719Y-93231085D01*
X147296833Y-93153676D01*
X147374243Y-93076266D01*
X147412947Y-92998857D01*
X149302127Y-78658742D02*
X148760260Y-78658742D01*
X148489327Y-78658742D02*
X148528032Y-78620038D01*
X148566736Y-78658742D01*
X148528032Y-78697447D01*
X148489327Y-78658742D01*
X148566736Y-78658742D01*
X148566736Y-79007085D02*
X148528032Y-79045790D01*
X148489327Y-79123200D01*
X148489327Y-79316723D01*
X148528032Y-79394133D01*
X148566736Y-79432838D01*
X148644146Y-79471542D01*
X148721555Y-79471542D01*
X148837670Y-79432838D01*
X149302127Y-78968380D01*
X149302127Y-79471542D01*
X149263422Y-80168228D02*
X149302127Y-80090819D01*
X149302127Y-79936000D01*
X149263422Y-79858590D01*
X149224717Y-79819885D01*
X149147308Y-79781180D01*
X148915079Y-79781180D01*
X148837670Y-79819885D01*
X148798965Y-79858590D01*
X148760260Y-79936000D01*
X148760260Y-80090819D01*
X148798965Y-80168228D01*
X148876374Y-80787504D02*
X148915079Y-80903619D01*
X148953784Y-80942323D01*
X149031193Y-80981028D01*
X149147308Y-80981028D01*
X149224717Y-80942323D01*
X149263422Y-80903619D01*
X149302127Y-80826209D01*
X149302127Y-80516571D01*
X148489327Y-80516571D01*
X148489327Y-80787504D01*
X148528032Y-80864914D01*
X148566736Y-80903619D01*
X148644146Y-80942323D01*
X148721555Y-80942323D01*
X148798965Y-80903619D01*
X148837670Y-80864914D01*
X148876374Y-80787504D01*
X148876374Y-80516571D01*
X148760260Y-81677714D02*
X149302127Y-81677714D01*
X148760260Y-81329371D02*
X149186012Y-81329371D01*
X149263422Y-81368076D01*
X149302127Y-81445485D01*
X149302127Y-81561600D01*
X149263422Y-81639009D01*
X149224717Y-81677714D01*
X149263422Y-82026057D02*
X149302127Y-82103466D01*
X149302127Y-82258285D01*
X149263422Y-82335695D01*
X149186012Y-82374400D01*
X149147308Y-82374400D01*
X149069898Y-82335695D01*
X149031193Y-82258285D01*
X149031193Y-82142171D01*
X148992489Y-82064761D01*
X148915079Y-82026057D01*
X148876374Y-82026057D01*
X148798965Y-82064761D01*
X148760260Y-82142171D01*
X148760260Y-82258285D01*
X148798965Y-82335695D01*
X149302127Y-82722742D02*
X148489327Y-82722742D01*
X149069898Y-82993676D01*
X148489327Y-83264609D01*
X149302127Y-83264609D01*
X149302127Y-84000000D02*
X148876374Y-84000000D01*
X148798965Y-83961295D01*
X148760260Y-83883885D01*
X148760260Y-83729066D01*
X148798965Y-83651657D01*
X149263422Y-84000000D02*
X149302127Y-83922590D01*
X149302127Y-83729066D01*
X149263422Y-83651657D01*
X149186012Y-83612952D01*
X149108603Y-83612952D01*
X149031193Y-83651657D01*
X148992489Y-83729066D01*
X148992489Y-83922590D01*
X148953784Y-84000000D01*
X149263422Y-84348342D02*
X149302127Y-84425752D01*
X149302127Y-84580571D01*
X149263422Y-84657980D01*
X149186012Y-84696685D01*
X149147308Y-84696685D01*
X149069898Y-84657980D01*
X149031193Y-84580571D01*
X149031193Y-84464457D01*
X148992489Y-84387047D01*
X148915079Y-84348342D01*
X148876374Y-84348342D01*
X148798965Y-84387047D01*
X148760260Y-84464457D01*
X148760260Y-84580571D01*
X148798965Y-84657980D01*
X148760260Y-84928914D02*
X148760260Y-85238552D01*
X148489327Y-85045028D02*
X149186012Y-85045028D01*
X149263422Y-85083733D01*
X149302127Y-85161142D01*
X149302127Y-85238552D01*
X149263422Y-85819123D02*
X149302127Y-85741714D01*
X149302127Y-85586895D01*
X149263422Y-85509485D01*
X149186012Y-85470780D01*
X148876374Y-85470780D01*
X148798965Y-85509485D01*
X148760260Y-85586895D01*
X148760260Y-85741714D01*
X148798965Y-85819123D01*
X148876374Y-85857828D01*
X148953784Y-85857828D01*
X149031193Y-85470780D01*
X149302127Y-86206171D02*
X148760260Y-86206171D01*
X148915079Y-86206171D02*
X148837670Y-86244876D01*
X148798965Y-86283580D01*
X148760260Y-86360990D01*
X148760260Y-86438400D01*
X148876374Y-87328609D02*
X148876374Y-87947885D01*
X149108603Y-87947885D02*
X149108603Y-87328609D01*
X148489327Y-89109028D02*
X148489327Y-89186438D01*
X148528032Y-89263847D01*
X148566736Y-89302552D01*
X148644146Y-89341257D01*
X148798965Y-89379961D01*
X148992489Y-89379961D01*
X149147308Y-89341257D01*
X149224717Y-89302552D01*
X149263422Y-89263847D01*
X149302127Y-89186438D01*
X149302127Y-89109028D01*
X149263422Y-89031619D01*
X149224717Y-88992914D01*
X149147308Y-88954209D01*
X148992489Y-88915504D01*
X148798965Y-88915504D01*
X148644146Y-88954209D01*
X148566736Y-88992914D01*
X148528032Y-89031619D01*
X148489327Y-89109028D01*
X115969923Y-63467695D02*
X115969923Y-62654895D01*
X115660285Y-62654895D01*
X115582876Y-62693600D01*
X115544171Y-62732304D01*
X115505466Y-62809714D01*
X115505466Y-62925828D01*
X115544171Y-63003238D01*
X115582876Y-63041942D01*
X115660285Y-63080647D01*
X115969923Y-63080647D01*
X114731371Y-63467695D02*
X115195828Y-63467695D01*
X114963600Y-63467695D02*
X114963600Y-62654895D01*
X115041009Y-62771009D01*
X115118419Y-62848419D01*
X115195828Y-62887123D01*
D11*
X116640000Y-62100000D02*
X164960000Y-62100000D01*
X114040000Y-60770000D02*
X114040000Y-62100000D01*
X114040000Y-59500000D02*
X116640000Y-59500000D01*
X114040000Y-56900000D02*
X114040000Y-59500000D01*
X114040000Y-56900000D02*
X164960000Y-56900000D01*
X116640000Y-59500000D02*
X116640000Y-62100000D01*
X114040000Y-62100000D02*
X115370000Y-62100000D01*
X164960000Y-56900000D02*
X164960000Y-62100000D01*
%LPC*%
D12*
X114725000Y-102641666D03*
X114725000Y-87641666D03*
D13*
X120975000Y-102641666D03*
D14*
X122225000Y-100141666D03*
X119725000Y-95141666D03*
X122225000Y-90141666D03*
D13*
X120975000Y-87641666D03*
D14*
X124725000Y-95141666D03*
D15*
X109725000Y-98891666D03*
X109725000Y-91391666D03*
D16*
X133000000Y-80190000D03*
D17*
X133000000Y-82730000D03*
X133000000Y-85270000D03*
X133000000Y-87810000D03*
D12*
X114725000Y-65358333D03*
X114725000Y-80358333D03*
D13*
X120975000Y-80358333D03*
D14*
X122225000Y-77858333D03*
X119725000Y-72858333D03*
X122225000Y-67858333D03*
D13*
X120975000Y-65358333D03*
D14*
X124725000Y-72858333D03*
D15*
X109725000Y-69108333D03*
X109725000Y-76608333D03*
D18*
X168500000Y-108500000D03*
X110500000Y-108500000D03*
D16*
X160000000Y-80190000D03*
D17*
X157460000Y-80190000D03*
X160000000Y-82730000D03*
X157460000Y-82730000D03*
X160000000Y-85270000D03*
X157460000Y-85270000D03*
X160000000Y-87810000D03*
X157460000Y-87810000D03*
D19*
X153400000Y-94550000D03*
X129600000Y-73450000D03*
X153400000Y-73450000D03*
X129600000Y-94550000D03*
D18*
X110500000Y-59500000D03*
X168500000Y-59500000D03*
D16*
X115370000Y-60770000D03*
D17*
X115370000Y-58230000D03*
X117910000Y-60770000D03*
X117910000Y-58230000D03*
X120450000Y-60770000D03*
X120450000Y-58230000D03*
X122990000Y-60770000D03*
X122990000Y-58230000D03*
X125530000Y-60770000D03*
X125530000Y-58230000D03*
X128070000Y-60770000D03*
X128070000Y-58230000D03*
X130610000Y-60770000D03*
X130610000Y-58230000D03*
X133150000Y-60770000D03*
X133150000Y-58230000D03*
X135690000Y-60770000D03*
X135690000Y-58230000D03*
X138230000Y-60770000D03*
X138230000Y-58230000D03*
X140770000Y-60770000D03*
X140770000Y-58230000D03*
X143310000Y-60770000D03*
X143310000Y-58230000D03*
X145850000Y-60770000D03*
X145850000Y-58230000D03*
X148390000Y-60770000D03*
X148390000Y-58230000D03*
X150930000Y-60770000D03*
X150930000Y-58230000D03*
X153470000Y-60770000D03*
X153470000Y-58230000D03*
X156010000Y-60770000D03*
X156010000Y-58230000D03*
X158550000Y-60770000D03*
X158550000Y-58230000D03*
X161090000Y-60770000D03*
X161090000Y-58230000D03*
X163630000Y-60770000D03*
X163630000Y-58230000D03*
M02*
