%FSLAX45Y45*%
G04 Gerber Fmt 4.5, Leading zero omitted, Abs format (unit mm)*
G04 Created by KiCad (PCBNEW (6.0.2)) date 2022-03-15 19:16:56*
%MOMM*%
%LPD*%
G01*
G04 APERTURE LIST*
%TA.AperFunction,Profile*%
%ADD10C,0.100000*%
%TD*%
%ADD11C,0.200000*%
%ADD12C,0.240000*%
%ADD13C,0.270000*%
G04 APERTURE END LIST*
D10*
X11000000Y-5600000D02*
G75*
G03*
X10700000Y-5900000I0J-300000D01*
G01*
X10700000Y-10900000D02*
G75*
G03*
X11000000Y-11200000I300000J0D01*
G01*
X16900000Y-11200000D02*
G75*
G03*
X17200000Y-10900000I0J300000D01*
G01*
X11000000Y-11200000D02*
X16900000Y-11200000D01*
X16900000Y-5600000D02*
X11000000Y-5600000D01*
X17200000Y-10900000D02*
X17200000Y-5900000D01*
X17200000Y-5900000D02*
G75*
G03*
X16900000Y-5600000I-300000J0D01*
G01*
X10700000Y-5900000D02*
X10700000Y-10900000D01*
D11*
D12*
X11352500Y-6415833D02*
X11592500Y-6655833D01*
X11592500Y-6415833D02*
X11352500Y-6655833D01*
X11352500Y-7915833D02*
X11592500Y-8155833D01*
X11592500Y-7915833D02*
X11352500Y-8155833D01*
X11352500Y-8644167D02*
X11592500Y-8884167D01*
X11592500Y-8644167D02*
X11352500Y-8884167D01*
X11352500Y-10144167D02*
X11592500Y-10384167D01*
X11592500Y-10144167D02*
X11352500Y-10384167D01*
D13*
X11185000Y-5950000D02*
G75*
G03*
X11185000Y-5950000I-135000J0D01*
G01*
X11185000Y-10850000D02*
G75*
G03*
X11185000Y-10850000I-135000J0D01*
G01*
X13095000Y-7345000D02*
G75*
G03*
X13095000Y-7345000I-135000J0D01*
G01*
D11*
X13085000Y-7480000D02*
X13085000Y-7210000D01*
X12835000Y-7480000D02*
X12835000Y-7210000D01*
X13085000Y-7210000D02*
G75*
G03*
X12835000Y-7210000I-125000J0D01*
G01*
X12835000Y-7480000D02*
G75*
G03*
X13085000Y-7480000I125000J0D01*
G01*
D13*
X13095000Y-9455000D02*
G75*
G03*
X13095000Y-9455000I-135000J0D01*
G01*
D11*
X13085000Y-9590000D02*
X13085000Y-9320000D01*
X12835000Y-9590000D02*
X12835000Y-9320000D01*
X13085000Y-9320000D02*
G75*
G03*
X12835000Y-9320000I-125000J0D01*
G01*
X12835000Y-9590000D02*
G75*
G03*
X13085000Y-9590000I125000J0D01*
G01*
D13*
X15475000Y-7345000D02*
G75*
G03*
X15475000Y-7345000I-135000J0D01*
G01*
D11*
X15465000Y-7480000D02*
X15465000Y-7210000D01*
X15215000Y-7480000D02*
X15215000Y-7210000D01*
X15465000Y-7210000D02*
G75*
G03*
X15215000Y-7210000I-125000J0D01*
G01*
X15215000Y-7480000D02*
G75*
G03*
X15465000Y-7480000I125000J0D01*
G01*
D13*
X15475000Y-9455000D02*
G75*
G03*
X15475000Y-9455000I-135000J0D01*
G01*
D11*
X15465000Y-9590000D02*
X15465000Y-9320000D01*
X15215000Y-9590000D02*
X15215000Y-9320000D01*
X15465000Y-9320000D02*
G75*
G03*
X15215000Y-9320000I-125000J0D01*
G01*
X15215000Y-9590000D02*
G75*
G03*
X15465000Y-9590000I125000J0D01*
G01*
D13*
X16985000Y-5950000D02*
G75*
G03*
X16985000Y-5950000I-135000J0D01*
G01*
X16985000Y-10850000D02*
G75*
G03*
X16985000Y-10850000I-135000J0D01*
G01*
D11*
X10952619Y-11515476D02*
X10952619Y-11315476D01*
X11000238Y-11315476D01*
X11028810Y-11325000D01*
X11047857Y-11344048D01*
X11057381Y-11363095D01*
X11066905Y-11401190D01*
X11066905Y-11429762D01*
X11057381Y-11467857D01*
X11047857Y-11486905D01*
X11028810Y-11505952D01*
X11000238Y-11515476D01*
X10952619Y-11515476D01*
X11152619Y-11515476D02*
X11152619Y-11382143D01*
X11152619Y-11420238D02*
X11162143Y-11401190D01*
X11171667Y-11391667D01*
X11190714Y-11382143D01*
X11209762Y-11382143D01*
X11276428Y-11515476D02*
X11276428Y-11382143D01*
X11276428Y-11315476D02*
X11266905Y-11325000D01*
X11276428Y-11334524D01*
X11285952Y-11325000D01*
X11276428Y-11315476D01*
X11276428Y-11334524D01*
X11400238Y-11515476D02*
X11381190Y-11505952D01*
X11371667Y-11486905D01*
X11371667Y-11315476D01*
X11505000Y-11515476D02*
X11485952Y-11505952D01*
X11476428Y-11486905D01*
X11476428Y-11315476D01*
X11733571Y-11515476D02*
X11733571Y-11315476D01*
X11800238Y-11458333D01*
X11866905Y-11315476D01*
X11866905Y-11515476D01*
X12047857Y-11515476D02*
X12047857Y-11410714D01*
X12038333Y-11391667D01*
X12019286Y-11382143D01*
X11981190Y-11382143D01*
X11962143Y-11391667D01*
X12047857Y-11505952D02*
X12028809Y-11515476D01*
X11981190Y-11515476D01*
X11962143Y-11505952D01*
X11952619Y-11486905D01*
X11952619Y-11467857D01*
X11962143Y-11448809D01*
X11981190Y-11439286D01*
X12028809Y-11439286D01*
X12047857Y-11429762D01*
X12143095Y-11382143D02*
X12143095Y-11582143D01*
X12143095Y-11391667D02*
X12162143Y-11382143D01*
X12200238Y-11382143D01*
X12219286Y-11391667D01*
X12228809Y-11401190D01*
X12238333Y-11420238D01*
X12238333Y-11477381D01*
X12228809Y-11496428D01*
X12219286Y-11505952D01*
X12200238Y-11515476D01*
X12162143Y-11515476D01*
X12143095Y-11505952D01*
X12324048Y-11496428D02*
X12333571Y-11505952D01*
X12324048Y-11515476D01*
X12314524Y-11505952D01*
X12324048Y-11496428D01*
X12324048Y-11515476D01*
X12324048Y-11391667D02*
X12333571Y-11401190D01*
X12324048Y-11410714D01*
X12314524Y-11401190D01*
X12324048Y-11391667D01*
X12324048Y-11410714D01*
X10495000Y-11745000D02*
X10695000Y-11945000D01*
X10695000Y-11745000D02*
X10495000Y-11945000D01*
X10943095Y-11754524D02*
X10952619Y-11745000D01*
X10971667Y-11735476D01*
X11019286Y-11735476D01*
X11038333Y-11745000D01*
X11047857Y-11754524D01*
X11057381Y-11773571D01*
X11057381Y-11792619D01*
X11047857Y-11821190D01*
X10933571Y-11935476D01*
X11057381Y-11935476D01*
X11143095Y-11916428D02*
X11152619Y-11925952D01*
X11143095Y-11935476D01*
X11133571Y-11925952D01*
X11143095Y-11916428D01*
X11143095Y-11935476D01*
X11324048Y-11802143D02*
X11324048Y-11935476D01*
X11276428Y-11725952D02*
X11228809Y-11868809D01*
X11352619Y-11868809D01*
X11466905Y-11735476D02*
X11485952Y-11735476D01*
X11505000Y-11745000D01*
X11514524Y-11754524D01*
X11524048Y-11773571D01*
X11533571Y-11811667D01*
X11533571Y-11859286D01*
X11524048Y-11897381D01*
X11514524Y-11916428D01*
X11505000Y-11925952D01*
X11485952Y-11935476D01*
X11466905Y-11935476D01*
X11447857Y-11925952D01*
X11438333Y-11916428D01*
X11428809Y-11897381D01*
X11419286Y-11859286D01*
X11419286Y-11811667D01*
X11428809Y-11773571D01*
X11438333Y-11754524D01*
X11447857Y-11745000D01*
X11466905Y-11735476D01*
X11657381Y-11735476D02*
X11676428Y-11735476D01*
X11695476Y-11745000D01*
X11705000Y-11754524D01*
X11714524Y-11773571D01*
X11724048Y-11811667D01*
X11724048Y-11859286D01*
X11714524Y-11897381D01*
X11705000Y-11916428D01*
X11695476Y-11925952D01*
X11676428Y-11935476D01*
X11657381Y-11935476D01*
X11638333Y-11925952D01*
X11628809Y-11916428D01*
X11619286Y-11897381D01*
X11609762Y-11859286D01*
X11609762Y-11811667D01*
X11619286Y-11773571D01*
X11628809Y-11754524D01*
X11638333Y-11745000D01*
X11657381Y-11735476D01*
X11809762Y-11935476D02*
X11809762Y-11802143D01*
X11809762Y-11821190D02*
X11819286Y-11811667D01*
X11838333Y-11802143D01*
X11866905Y-11802143D01*
X11885952Y-11811667D01*
X11895476Y-11830714D01*
X11895476Y-11935476D01*
X11895476Y-11830714D02*
X11905000Y-11811667D01*
X11924048Y-11802143D01*
X11952619Y-11802143D01*
X11971667Y-11811667D01*
X11981190Y-11830714D01*
X11981190Y-11935476D01*
X12076428Y-11935476D02*
X12076428Y-11802143D01*
X12076428Y-11821190D02*
X12085952Y-11811667D01*
X12105000Y-11802143D01*
X12133571Y-11802143D01*
X12152619Y-11811667D01*
X12162143Y-11830714D01*
X12162143Y-11935476D01*
X12162143Y-11830714D02*
X12171667Y-11811667D01*
X12190714Y-11802143D01*
X12219286Y-11802143D01*
X12238333Y-11811667D01*
X12247857Y-11830714D01*
X12247857Y-11935476D01*
X12638333Y-11725952D02*
X12466905Y-11983095D01*
X12895476Y-11735476D02*
X12914524Y-11735476D01*
X12933571Y-11745000D01*
X12943095Y-11754524D01*
X12952619Y-11773571D01*
X12962143Y-11811667D01*
X12962143Y-11859286D01*
X12952619Y-11897381D01*
X12943095Y-11916428D01*
X12933571Y-11925952D01*
X12914524Y-11935476D01*
X12895476Y-11935476D01*
X12876428Y-11925952D01*
X12866905Y-11916428D01*
X12857381Y-11897381D01*
X12847857Y-11859286D01*
X12847857Y-11811667D01*
X12857381Y-11773571D01*
X12866905Y-11754524D01*
X12876428Y-11745000D01*
X12895476Y-11735476D01*
X13047857Y-11916428D02*
X13057381Y-11925952D01*
X13047857Y-11935476D01*
X13038333Y-11925952D01*
X13047857Y-11916428D01*
X13047857Y-11935476D01*
X13181190Y-11735476D02*
X13200238Y-11735476D01*
X13219286Y-11745000D01*
X13228809Y-11754524D01*
X13238333Y-11773571D01*
X13247857Y-11811667D01*
X13247857Y-11859286D01*
X13238333Y-11897381D01*
X13228809Y-11916428D01*
X13219286Y-11925952D01*
X13200238Y-11935476D01*
X13181190Y-11935476D01*
X13162143Y-11925952D01*
X13152619Y-11916428D01*
X13143095Y-11897381D01*
X13133571Y-11859286D01*
X13133571Y-11811667D01*
X13143095Y-11773571D01*
X13152619Y-11754524D01*
X13162143Y-11745000D01*
X13181190Y-11735476D01*
X13343095Y-11935476D02*
X13381190Y-11935476D01*
X13400238Y-11925952D01*
X13409762Y-11916428D01*
X13428809Y-11887857D01*
X13438333Y-11849762D01*
X13438333Y-11773571D01*
X13428809Y-11754524D01*
X13419286Y-11745000D01*
X13400238Y-11735476D01*
X13362143Y-11735476D01*
X13343095Y-11745000D01*
X13333571Y-11754524D01*
X13324048Y-11773571D01*
X13324048Y-11821190D01*
X13333571Y-11840238D01*
X13343095Y-11849762D01*
X13362143Y-11859286D01*
X13400238Y-11859286D01*
X13419286Y-11849762D01*
X13428809Y-11840238D01*
X13438333Y-11821190D01*
X13609762Y-11802143D02*
X13609762Y-11935476D01*
X13562143Y-11725952D02*
X13514524Y-11868809D01*
X13638333Y-11868809D01*
X13809762Y-11735476D02*
X13714524Y-11735476D01*
X13705000Y-11830714D01*
X13714524Y-11821190D01*
X13733571Y-11811667D01*
X13781190Y-11811667D01*
X13800238Y-11821190D01*
X13809762Y-11830714D01*
X13819286Y-11849762D01*
X13819286Y-11897381D01*
X13809762Y-11916428D01*
X13800238Y-11925952D01*
X13781190Y-11935476D01*
X13733571Y-11935476D01*
X13714524Y-11925952D01*
X13705000Y-11916428D01*
X13895476Y-11735476D02*
X13895476Y-11773571D01*
X13971667Y-11735476D02*
X13971667Y-11773571D01*
X14266905Y-12011667D02*
X14257381Y-12002143D01*
X14238333Y-11973571D01*
X14228809Y-11954524D01*
X14219286Y-11925952D01*
X14209762Y-11878333D01*
X14209762Y-11840238D01*
X14219286Y-11792619D01*
X14228809Y-11764048D01*
X14238333Y-11745000D01*
X14257381Y-11716428D01*
X14266905Y-11706905D01*
X14428809Y-11802143D02*
X14428809Y-11935476D01*
X14381190Y-11725952D02*
X14333571Y-11868809D01*
X14457381Y-11868809D01*
X14685952Y-11935476D02*
X14685952Y-11735476D01*
X14771667Y-11935476D02*
X14771667Y-11830714D01*
X14762143Y-11811667D01*
X14743095Y-11802143D01*
X14714524Y-11802143D01*
X14695476Y-11811667D01*
X14685952Y-11821190D01*
X14895476Y-11935476D02*
X14876428Y-11925952D01*
X14866905Y-11916428D01*
X14857381Y-11897381D01*
X14857381Y-11840238D01*
X14866905Y-11821190D01*
X14876428Y-11811667D01*
X14895476Y-11802143D01*
X14924048Y-11802143D01*
X14943095Y-11811667D01*
X14952619Y-11821190D01*
X14962143Y-11840238D01*
X14962143Y-11897381D01*
X14952619Y-11916428D01*
X14943095Y-11925952D01*
X14924048Y-11935476D01*
X14895476Y-11935476D01*
X15076428Y-11935476D02*
X15057381Y-11925952D01*
X15047857Y-11906905D01*
X15047857Y-11735476D01*
X15228809Y-11925952D02*
X15209762Y-11935476D01*
X15171667Y-11935476D01*
X15152619Y-11925952D01*
X15143095Y-11906905D01*
X15143095Y-11830714D01*
X15152619Y-11811667D01*
X15171667Y-11802143D01*
X15209762Y-11802143D01*
X15228809Y-11811667D01*
X15238333Y-11830714D01*
X15238333Y-11849762D01*
X15143095Y-11868809D01*
X15314524Y-11925952D02*
X15333571Y-11935476D01*
X15371667Y-11935476D01*
X15390714Y-11925952D01*
X15400238Y-11906905D01*
X15400238Y-11897381D01*
X15390714Y-11878333D01*
X15371667Y-11868809D01*
X15343095Y-11868809D01*
X15324048Y-11859286D01*
X15314524Y-11840238D01*
X15314524Y-11830714D01*
X15324048Y-11811667D01*
X15343095Y-11802143D01*
X15371667Y-11802143D01*
X15390714Y-11811667D01*
X15466905Y-12011667D02*
X15476428Y-12002143D01*
X15495476Y-11973571D01*
X15505000Y-11954524D01*
X15514524Y-11925952D01*
X15524048Y-11878333D01*
X15524048Y-11840238D01*
X15514524Y-11792619D01*
X15505000Y-11764048D01*
X15495476Y-11745000D01*
X15476428Y-11716428D01*
X15466905Y-11706905D01*
X15828809Y-12011667D02*
X15819286Y-12002143D01*
X15800238Y-11973571D01*
X15790714Y-11954524D01*
X15781190Y-11925952D01*
X15771667Y-11878333D01*
X15771667Y-11840238D01*
X15781190Y-11792619D01*
X15790714Y-11764048D01*
X15800238Y-11745000D01*
X15819286Y-11716428D01*
X15828809Y-11706905D01*
X15905000Y-11802143D02*
X15905000Y-11935476D01*
X15905000Y-11821190D02*
X15914524Y-11811667D01*
X15933571Y-11802143D01*
X15962143Y-11802143D01*
X15981190Y-11811667D01*
X15990714Y-11830714D01*
X15990714Y-11935476D01*
X16114524Y-11935476D02*
X16095476Y-11925952D01*
X16085952Y-11916428D01*
X16076428Y-11897381D01*
X16076428Y-11840238D01*
X16085952Y-11821190D01*
X16095476Y-11811667D01*
X16114524Y-11802143D01*
X16143095Y-11802143D01*
X16162143Y-11811667D01*
X16171667Y-11821190D01*
X16181190Y-11840238D01*
X16181190Y-11897381D01*
X16171667Y-11916428D01*
X16162143Y-11925952D01*
X16143095Y-11935476D01*
X16114524Y-11935476D01*
X16238333Y-11802143D02*
X16314524Y-11802143D01*
X16266905Y-11735476D02*
X16266905Y-11906905D01*
X16276428Y-11925952D01*
X16295476Y-11935476D01*
X16314524Y-11935476D01*
X16533571Y-11802143D02*
X16533571Y-12002143D01*
X16533571Y-11811667D02*
X16552619Y-11802143D01*
X16590714Y-11802143D01*
X16609762Y-11811667D01*
X16619286Y-11821190D01*
X16628809Y-11840238D01*
X16628809Y-11897381D01*
X16619286Y-11916428D01*
X16609762Y-11925952D01*
X16590714Y-11935476D01*
X16552619Y-11935476D01*
X16533571Y-11925952D01*
X16743095Y-11935476D02*
X16724048Y-11925952D01*
X16714524Y-11906905D01*
X16714524Y-11735476D01*
X16905000Y-11935476D02*
X16905000Y-11830714D01*
X16895476Y-11811667D01*
X16876429Y-11802143D01*
X16838333Y-11802143D01*
X16819286Y-11811667D01*
X16905000Y-11925952D02*
X16885952Y-11935476D01*
X16838333Y-11935476D01*
X16819286Y-11925952D01*
X16809762Y-11906905D01*
X16809762Y-11887857D01*
X16819286Y-11868809D01*
X16838333Y-11859286D01*
X16885952Y-11859286D01*
X16905000Y-11849762D01*
X16971667Y-11802143D02*
X17047857Y-11802143D01*
X17000238Y-11735476D02*
X17000238Y-11906905D01*
X17009762Y-11925952D01*
X17028810Y-11935476D01*
X17047857Y-11935476D01*
X17190714Y-11925952D02*
X17171667Y-11935476D01*
X17133571Y-11935476D01*
X17114524Y-11925952D01*
X17105000Y-11906905D01*
X17105000Y-11830714D01*
X17114524Y-11811667D01*
X17133571Y-11802143D01*
X17171667Y-11802143D01*
X17190714Y-11811667D01*
X17200238Y-11830714D01*
X17200238Y-11849762D01*
X17105000Y-11868809D01*
X17371667Y-11935476D02*
X17371667Y-11735476D01*
X17371667Y-11925952D02*
X17352619Y-11935476D01*
X17314524Y-11935476D01*
X17295476Y-11925952D01*
X17285952Y-11916428D01*
X17276429Y-11897381D01*
X17276429Y-11840238D01*
X17285952Y-11821190D01*
X17295476Y-11811667D01*
X17314524Y-11802143D01*
X17352619Y-11802143D01*
X17371667Y-11811667D01*
X17447857Y-12011667D02*
X17457381Y-12002143D01*
X17476429Y-11973571D01*
X17485952Y-11954524D01*
X17495476Y-11925952D01*
X17505000Y-11878333D01*
X17505000Y-11840238D01*
X17495476Y-11792619D01*
X17485952Y-11764048D01*
X17476429Y-11745000D01*
X17457381Y-11716428D01*
X17447857Y-11706905D01*
X10695000Y-12165000D02*
G75*
G03*
X10695000Y-12165000I-100000J0D01*
G01*
X10943095Y-12074524D02*
X10952619Y-12065000D01*
X10971667Y-12055476D01*
X11019286Y-12055476D01*
X11038333Y-12065000D01*
X11047857Y-12074524D01*
X11057381Y-12093571D01*
X11057381Y-12112619D01*
X11047857Y-12141190D01*
X10933571Y-12255476D01*
X11057381Y-12255476D01*
X11143095Y-12236428D02*
X11152619Y-12245952D01*
X11143095Y-12255476D01*
X11133571Y-12245952D01*
X11143095Y-12236428D01*
X11143095Y-12255476D01*
X11219286Y-12055476D02*
X11352619Y-12055476D01*
X11266905Y-12255476D01*
X11466905Y-12055476D02*
X11485952Y-12055476D01*
X11505000Y-12065000D01*
X11514524Y-12074524D01*
X11524048Y-12093571D01*
X11533571Y-12131667D01*
X11533571Y-12179286D01*
X11524048Y-12217381D01*
X11514524Y-12236428D01*
X11505000Y-12245952D01*
X11485952Y-12255476D01*
X11466905Y-12255476D01*
X11447857Y-12245952D01*
X11438333Y-12236428D01*
X11428809Y-12217381D01*
X11419286Y-12179286D01*
X11419286Y-12131667D01*
X11428809Y-12093571D01*
X11438333Y-12074524D01*
X11447857Y-12065000D01*
X11466905Y-12055476D01*
X11657381Y-12055476D02*
X11676428Y-12055476D01*
X11695476Y-12065000D01*
X11705000Y-12074524D01*
X11714524Y-12093571D01*
X11724048Y-12131667D01*
X11724048Y-12179286D01*
X11714524Y-12217381D01*
X11705000Y-12236428D01*
X11695476Y-12245952D01*
X11676428Y-12255476D01*
X11657381Y-12255476D01*
X11638333Y-12245952D01*
X11628809Y-12236428D01*
X11619286Y-12217381D01*
X11609762Y-12179286D01*
X11609762Y-12131667D01*
X11619286Y-12093571D01*
X11628809Y-12074524D01*
X11638333Y-12065000D01*
X11657381Y-12055476D01*
X11809762Y-12255476D02*
X11809762Y-12122143D01*
X11809762Y-12141190D02*
X11819286Y-12131667D01*
X11838333Y-12122143D01*
X11866905Y-12122143D01*
X11885952Y-12131667D01*
X11895476Y-12150714D01*
X11895476Y-12255476D01*
X11895476Y-12150714D02*
X11905000Y-12131667D01*
X11924048Y-12122143D01*
X11952619Y-12122143D01*
X11971667Y-12131667D01*
X11981190Y-12150714D01*
X11981190Y-12255476D01*
X12076428Y-12255476D02*
X12076428Y-12122143D01*
X12076428Y-12141190D02*
X12085952Y-12131667D01*
X12105000Y-12122143D01*
X12133571Y-12122143D01*
X12152619Y-12131667D01*
X12162143Y-12150714D01*
X12162143Y-12255476D01*
X12162143Y-12150714D02*
X12171667Y-12131667D01*
X12190714Y-12122143D01*
X12219286Y-12122143D01*
X12238333Y-12131667D01*
X12247857Y-12150714D01*
X12247857Y-12255476D01*
X12638333Y-12045952D02*
X12466905Y-12303095D01*
X12895476Y-12055476D02*
X12914524Y-12055476D01*
X12933571Y-12065000D01*
X12943095Y-12074524D01*
X12952619Y-12093571D01*
X12962143Y-12131667D01*
X12962143Y-12179286D01*
X12952619Y-12217381D01*
X12943095Y-12236428D01*
X12933571Y-12245952D01*
X12914524Y-12255476D01*
X12895476Y-12255476D01*
X12876428Y-12245952D01*
X12866905Y-12236428D01*
X12857381Y-12217381D01*
X12847857Y-12179286D01*
X12847857Y-12131667D01*
X12857381Y-12093571D01*
X12866905Y-12074524D01*
X12876428Y-12065000D01*
X12895476Y-12055476D01*
X13047857Y-12236428D02*
X13057381Y-12245952D01*
X13047857Y-12255476D01*
X13038333Y-12245952D01*
X13047857Y-12236428D01*
X13047857Y-12255476D01*
X13247857Y-12255476D02*
X13133571Y-12255476D01*
X13190714Y-12255476D02*
X13190714Y-12055476D01*
X13171667Y-12084048D01*
X13152619Y-12103095D01*
X13133571Y-12112619D01*
X13371667Y-12055476D02*
X13390714Y-12055476D01*
X13409762Y-12065000D01*
X13419286Y-12074524D01*
X13428809Y-12093571D01*
X13438333Y-12131667D01*
X13438333Y-12179286D01*
X13428809Y-12217381D01*
X13419286Y-12236428D01*
X13409762Y-12245952D01*
X13390714Y-12255476D01*
X13371667Y-12255476D01*
X13352619Y-12245952D01*
X13343095Y-12236428D01*
X13333571Y-12217381D01*
X13324048Y-12179286D01*
X13324048Y-12131667D01*
X13333571Y-12093571D01*
X13343095Y-12074524D01*
X13352619Y-12065000D01*
X13371667Y-12055476D01*
X13609762Y-12055476D02*
X13571667Y-12055476D01*
X13552619Y-12065000D01*
X13543095Y-12074524D01*
X13524048Y-12103095D01*
X13514524Y-12141190D01*
X13514524Y-12217381D01*
X13524048Y-12236428D01*
X13533571Y-12245952D01*
X13552619Y-12255476D01*
X13590714Y-12255476D01*
X13609762Y-12245952D01*
X13619286Y-12236428D01*
X13628809Y-12217381D01*
X13628809Y-12169762D01*
X13619286Y-12150714D01*
X13609762Y-12141190D01*
X13590714Y-12131667D01*
X13552619Y-12131667D01*
X13533571Y-12141190D01*
X13524048Y-12150714D01*
X13514524Y-12169762D01*
X13695476Y-12055476D02*
X13819286Y-12055476D01*
X13752619Y-12131667D01*
X13781190Y-12131667D01*
X13800238Y-12141190D01*
X13809762Y-12150714D01*
X13819286Y-12169762D01*
X13819286Y-12217381D01*
X13809762Y-12236428D01*
X13800238Y-12245952D01*
X13781190Y-12255476D01*
X13724048Y-12255476D01*
X13705000Y-12245952D01*
X13695476Y-12236428D01*
X13895476Y-12055476D02*
X13895476Y-12093571D01*
X13971667Y-12055476D02*
X13971667Y-12093571D01*
X14266905Y-12331667D02*
X14257381Y-12322143D01*
X14238333Y-12293571D01*
X14228809Y-12274524D01*
X14219286Y-12245952D01*
X14209762Y-12198333D01*
X14209762Y-12160238D01*
X14219286Y-12112619D01*
X14228809Y-12084048D01*
X14238333Y-12065000D01*
X14257381Y-12036428D01*
X14266905Y-12026905D01*
X14428809Y-12122143D02*
X14428809Y-12255476D01*
X14381190Y-12045952D02*
X14333571Y-12188809D01*
X14457381Y-12188809D01*
X14685952Y-12255476D02*
X14685952Y-12055476D01*
X14771667Y-12255476D02*
X14771667Y-12150714D01*
X14762143Y-12131667D01*
X14743095Y-12122143D01*
X14714524Y-12122143D01*
X14695476Y-12131667D01*
X14685952Y-12141190D01*
X14895476Y-12255476D02*
X14876428Y-12245952D01*
X14866905Y-12236428D01*
X14857381Y-12217381D01*
X14857381Y-12160238D01*
X14866905Y-12141190D01*
X14876428Y-12131667D01*
X14895476Y-12122143D01*
X14924048Y-12122143D01*
X14943095Y-12131667D01*
X14952619Y-12141190D01*
X14962143Y-12160238D01*
X14962143Y-12217381D01*
X14952619Y-12236428D01*
X14943095Y-12245952D01*
X14924048Y-12255476D01*
X14895476Y-12255476D01*
X15076428Y-12255476D02*
X15057381Y-12245952D01*
X15047857Y-12226905D01*
X15047857Y-12055476D01*
X15228809Y-12245952D02*
X15209762Y-12255476D01*
X15171667Y-12255476D01*
X15152619Y-12245952D01*
X15143095Y-12226905D01*
X15143095Y-12150714D01*
X15152619Y-12131667D01*
X15171667Y-12122143D01*
X15209762Y-12122143D01*
X15228809Y-12131667D01*
X15238333Y-12150714D01*
X15238333Y-12169762D01*
X15143095Y-12188809D01*
X15314524Y-12245952D02*
X15333571Y-12255476D01*
X15371667Y-12255476D01*
X15390714Y-12245952D01*
X15400238Y-12226905D01*
X15400238Y-12217381D01*
X15390714Y-12198333D01*
X15371667Y-12188809D01*
X15343095Y-12188809D01*
X15324048Y-12179286D01*
X15314524Y-12160238D01*
X15314524Y-12150714D01*
X15324048Y-12131667D01*
X15343095Y-12122143D01*
X15371667Y-12122143D01*
X15390714Y-12131667D01*
X15638333Y-12179286D02*
X15790714Y-12179286D01*
X15714524Y-12255476D02*
X15714524Y-12103095D01*
X16124048Y-12122143D02*
X16124048Y-12255476D01*
X16076428Y-12045952D02*
X16028809Y-12188809D01*
X16152619Y-12188809D01*
X16371667Y-12245952D02*
X16390714Y-12255476D01*
X16428809Y-12255476D01*
X16447857Y-12245952D01*
X16457381Y-12226905D01*
X16457381Y-12217381D01*
X16447857Y-12198333D01*
X16428809Y-12188809D01*
X16400238Y-12188809D01*
X16381190Y-12179286D01*
X16371667Y-12160238D01*
X16371667Y-12150714D01*
X16381190Y-12131667D01*
X16400238Y-12122143D01*
X16428809Y-12122143D01*
X16447857Y-12131667D01*
X16571667Y-12255476D02*
X16552619Y-12245952D01*
X16543095Y-12226905D01*
X16543095Y-12055476D01*
X16676428Y-12255476D02*
X16657381Y-12245952D01*
X16647857Y-12236428D01*
X16638333Y-12217381D01*
X16638333Y-12160238D01*
X16647857Y-12141190D01*
X16657381Y-12131667D01*
X16676428Y-12122143D01*
X16705000Y-12122143D01*
X16724048Y-12131667D01*
X16733571Y-12141190D01*
X16743095Y-12160238D01*
X16743095Y-12217381D01*
X16733571Y-12236428D01*
X16724048Y-12245952D01*
X16705000Y-12255476D01*
X16676428Y-12255476D01*
X16800238Y-12122143D02*
X16876429Y-12122143D01*
X16828810Y-12055476D02*
X16828810Y-12226905D01*
X16838333Y-12245952D01*
X16857381Y-12255476D01*
X16876429Y-12255476D01*
X16933571Y-12245952D02*
X16952619Y-12255476D01*
X16990714Y-12255476D01*
X17009762Y-12245952D01*
X17019286Y-12226905D01*
X17019286Y-12217381D01*
X17009762Y-12198333D01*
X16990714Y-12188809D01*
X16962143Y-12188809D01*
X16943095Y-12179286D01*
X16933571Y-12160238D01*
X16933571Y-12150714D01*
X16943095Y-12131667D01*
X16962143Y-12122143D01*
X16990714Y-12122143D01*
X17009762Y-12131667D01*
X17085952Y-12331667D02*
X17095476Y-12322143D01*
X17114524Y-12293571D01*
X17124048Y-12274524D01*
X17133571Y-12245952D01*
X17143095Y-12198333D01*
X17143095Y-12160238D01*
X17133571Y-12112619D01*
X17124048Y-12084048D01*
X17114524Y-12065000D01*
X17095476Y-12036428D01*
X17085952Y-12026905D01*
X17447857Y-12331667D02*
X17438333Y-12322143D01*
X17419286Y-12293571D01*
X17409762Y-12274524D01*
X17400238Y-12245952D01*
X17390714Y-12198333D01*
X17390714Y-12160238D01*
X17400238Y-12112619D01*
X17409762Y-12084048D01*
X17419286Y-12065000D01*
X17438333Y-12036428D01*
X17447857Y-12026905D01*
X17524048Y-12122143D02*
X17524048Y-12255476D01*
X17524048Y-12141190D02*
X17533571Y-12131667D01*
X17552619Y-12122143D01*
X17581190Y-12122143D01*
X17600238Y-12131667D01*
X17609762Y-12150714D01*
X17609762Y-12255476D01*
X17733571Y-12255476D02*
X17714524Y-12245952D01*
X17705000Y-12236428D01*
X17695476Y-12217381D01*
X17695476Y-12160238D01*
X17705000Y-12141190D01*
X17714524Y-12131667D01*
X17733571Y-12122143D01*
X17762143Y-12122143D01*
X17781190Y-12131667D01*
X17790714Y-12141190D01*
X17800238Y-12160238D01*
X17800238Y-12217381D01*
X17790714Y-12236428D01*
X17781190Y-12245952D01*
X17762143Y-12255476D01*
X17733571Y-12255476D01*
X17857381Y-12122143D02*
X17933571Y-12122143D01*
X17885952Y-12055476D02*
X17885952Y-12226905D01*
X17895476Y-12245952D01*
X17914524Y-12255476D01*
X17933571Y-12255476D01*
X18152619Y-12122143D02*
X18152619Y-12322143D01*
X18152619Y-12131667D02*
X18171667Y-12122143D01*
X18209762Y-12122143D01*
X18228810Y-12131667D01*
X18238333Y-12141190D01*
X18247857Y-12160238D01*
X18247857Y-12217381D01*
X18238333Y-12236428D01*
X18228810Y-12245952D01*
X18209762Y-12255476D01*
X18171667Y-12255476D01*
X18152619Y-12245952D01*
X18362143Y-12255476D02*
X18343095Y-12245952D01*
X18333571Y-12226905D01*
X18333571Y-12055476D01*
X18524048Y-12255476D02*
X18524048Y-12150714D01*
X18514524Y-12131667D01*
X18495476Y-12122143D01*
X18457381Y-12122143D01*
X18438333Y-12131667D01*
X18524048Y-12245952D02*
X18505000Y-12255476D01*
X18457381Y-12255476D01*
X18438333Y-12245952D01*
X18428810Y-12226905D01*
X18428810Y-12207857D01*
X18438333Y-12188809D01*
X18457381Y-12179286D01*
X18505000Y-12179286D01*
X18524048Y-12169762D01*
X18590714Y-12122143D02*
X18666905Y-12122143D01*
X18619286Y-12055476D02*
X18619286Y-12226905D01*
X18628810Y-12245952D01*
X18647857Y-12255476D01*
X18666905Y-12255476D01*
X18809762Y-12245952D02*
X18790714Y-12255476D01*
X18752619Y-12255476D01*
X18733571Y-12245952D01*
X18724048Y-12226905D01*
X18724048Y-12150714D01*
X18733571Y-12131667D01*
X18752619Y-12122143D01*
X18790714Y-12122143D01*
X18809762Y-12131667D01*
X18819286Y-12150714D01*
X18819286Y-12169762D01*
X18724048Y-12188809D01*
X18990714Y-12255476D02*
X18990714Y-12055476D01*
X18990714Y-12245952D02*
X18971667Y-12255476D01*
X18933571Y-12255476D01*
X18914524Y-12245952D01*
X18905000Y-12236428D01*
X18895476Y-12217381D01*
X18895476Y-12160238D01*
X18905000Y-12141190D01*
X18914524Y-12131667D01*
X18933571Y-12122143D01*
X18971667Y-12122143D01*
X18990714Y-12131667D01*
X19066905Y-12331667D02*
X19076429Y-12322143D01*
X19095476Y-12293571D01*
X19105000Y-12274524D01*
X19114524Y-12245952D01*
X19124048Y-12198333D01*
X19124048Y-12160238D01*
X19114524Y-12112619D01*
X19105000Y-12084048D01*
X19095476Y-12065000D01*
X19076429Y-12036428D01*
X19066905Y-12026905D01*
M02*
