%FSLAX45Y45*%
G04 Gerber Fmt 4.5, Leading zero omitted, Abs format (unit mm)*
G04 Created by KiCad (PCBNEW (6.0.2)) date 2022-03-15 19:16:56*
%MOMM*%
%LPD*%
G01*
G04 APERTURE LIST*
%TA.AperFunction,Profile*%
%ADD10C,0.100000*%
%TD*%
%ADD11C,0.200000*%
%ADD12C,0.030000*%
%ADD13C,0.100000*%
%ADD14C,0.135000*%
G04 APERTURE END LIST*
D10*
X11000000Y-5600000D02*
G75*
G03*
X10700000Y-5900000I0J-300000D01*
G01*
X10700000Y-10900000D02*
G75*
G03*
X11000000Y-11200000I300000J0D01*
G01*
X16900000Y-11200000D02*
G75*
G03*
X17200000Y-10900000I0J300000D01*
G01*
X11000000Y-11200000D02*
X16900000Y-11200000D01*
X16900000Y-5600000D02*
X11000000Y-5600000D01*
X17200000Y-10900000D02*
X17200000Y-5900000D01*
X17200000Y-5900000D02*
G75*
G03*
X16900000Y-5600000I-300000J0D01*
G01*
X10700000Y-5900000D02*
X10700000Y-10900000D01*
D11*
D12*
X13566000Y-6692250D02*
X13596000Y-6722250D01*
X13596000Y-6692250D02*
X13566000Y-6722250D01*
X13911250Y-7610000D02*
X13941250Y-7640000D01*
X13941250Y-7610000D02*
X13911250Y-7640000D01*
X13911250Y-8224272D02*
X13941250Y-8254272D01*
X13941250Y-8224272D02*
X13911250Y-8254272D01*
X13911250Y-8910727D02*
X13941250Y-8940727D01*
X13941250Y-8910727D02*
X13911250Y-8940727D01*
X13911250Y-9525000D02*
X13941250Y-9555000D01*
X13941250Y-9525000D02*
X13911250Y-9555000D01*
X14358750Y-7610000D02*
X14388750Y-7640000D01*
X14388750Y-7610000D02*
X14358750Y-7640000D01*
X14358750Y-8224272D02*
X14388750Y-8254272D01*
X14388750Y-8224272D02*
X14358750Y-8254272D01*
X14358750Y-8910727D02*
X14388750Y-8940727D01*
X14388750Y-8910727D02*
X14358750Y-8940727D01*
X14358750Y-9525000D02*
X14388750Y-9555000D01*
X14388750Y-9525000D02*
X14358750Y-9555000D01*
X15243750Y-8380000D02*
X15273750Y-8410000D01*
X15273750Y-8380000D02*
X15243750Y-8410000D01*
X15243750Y-8895000D02*
X15273750Y-8925000D01*
X15273750Y-8895000D02*
X15243750Y-8925000D01*
D13*
X11587000Y-5823000D02*
G75*
G03*
X11587000Y-5823000I-50000J0D01*
G01*
X11587000Y-6077000D02*
G75*
G03*
X11587000Y-6077000I-50000J0D01*
G01*
X11841000Y-5823000D02*
G75*
G03*
X11841000Y-5823000I-50000J0D01*
G01*
X11841000Y-6077000D02*
G75*
G03*
X11841000Y-6077000I-50000J0D01*
G01*
X12095000Y-5823000D02*
G75*
G03*
X12095000Y-5823000I-50000J0D01*
G01*
X12095000Y-6077000D02*
G75*
G03*
X12095000Y-6077000I-50000J0D01*
G01*
X12349000Y-5823000D02*
G75*
G03*
X12349000Y-5823000I-50000J0D01*
G01*
X12349000Y-6077000D02*
G75*
G03*
X12349000Y-6077000I-50000J0D01*
G01*
X12603000Y-5823000D02*
G75*
G03*
X12603000Y-5823000I-50000J0D01*
G01*
X12603000Y-6077000D02*
G75*
G03*
X12603000Y-6077000I-50000J0D01*
G01*
X12857000Y-5823000D02*
G75*
G03*
X12857000Y-5823000I-50000J0D01*
G01*
X12857000Y-6077000D02*
G75*
G03*
X12857000Y-6077000I-50000J0D01*
G01*
X13111000Y-5823000D02*
G75*
G03*
X13111000Y-5823000I-50000J0D01*
G01*
X13111000Y-6077000D02*
G75*
G03*
X13111000Y-6077000I-50000J0D01*
G01*
X13350000Y-8019000D02*
G75*
G03*
X13350000Y-8019000I-50000J0D01*
G01*
X13350000Y-8273000D02*
G75*
G03*
X13350000Y-8273000I-50000J0D01*
G01*
X13350000Y-8527000D02*
G75*
G03*
X13350000Y-8527000I-50000J0D01*
G01*
X13350000Y-8781000D02*
G75*
G03*
X13350000Y-8781000I-50000J0D01*
G01*
X13365000Y-5823000D02*
G75*
G03*
X13365000Y-5823000I-50000J0D01*
G01*
X13365000Y-6077000D02*
G75*
G03*
X13365000Y-6077000I-50000J0D01*
G01*
X13619000Y-5823000D02*
G75*
G03*
X13619000Y-5823000I-50000J0D01*
G01*
X13619000Y-6077000D02*
G75*
G03*
X13619000Y-6077000I-50000J0D01*
G01*
X13873000Y-5823000D02*
G75*
G03*
X13873000Y-5823000I-50000J0D01*
G01*
X13873000Y-6077000D02*
G75*
G03*
X13873000Y-6077000I-50000J0D01*
G01*
X14127000Y-5823000D02*
G75*
G03*
X14127000Y-5823000I-50000J0D01*
G01*
X14127000Y-6077000D02*
G75*
G03*
X14127000Y-6077000I-50000J0D01*
G01*
X14381000Y-5823000D02*
G75*
G03*
X14381000Y-5823000I-50000J0D01*
G01*
X14381000Y-6077000D02*
G75*
G03*
X14381000Y-6077000I-50000J0D01*
G01*
X14635000Y-5823000D02*
G75*
G03*
X14635000Y-5823000I-50000J0D01*
G01*
X14635000Y-6077000D02*
G75*
G03*
X14635000Y-6077000I-50000J0D01*
G01*
X14889000Y-5823000D02*
G75*
G03*
X14889000Y-5823000I-50000J0D01*
G01*
X14889000Y-6077000D02*
G75*
G03*
X14889000Y-6077000I-50000J0D01*
G01*
X15143000Y-5823000D02*
G75*
G03*
X15143000Y-5823000I-50000J0D01*
G01*
X15143000Y-6077000D02*
G75*
G03*
X15143000Y-6077000I-50000J0D01*
G01*
X15397000Y-5823000D02*
G75*
G03*
X15397000Y-5823000I-50000J0D01*
G01*
X15397000Y-6077000D02*
G75*
G03*
X15397000Y-6077000I-50000J0D01*
G01*
X15651000Y-5823000D02*
G75*
G03*
X15651000Y-5823000I-50000J0D01*
G01*
X15651000Y-6077000D02*
G75*
G03*
X15651000Y-6077000I-50000J0D01*
G01*
X15796000Y-8019000D02*
G75*
G03*
X15796000Y-8019000I-50000J0D01*
G01*
X15796000Y-8273000D02*
G75*
G03*
X15796000Y-8273000I-50000J0D01*
G01*
X15796000Y-8527000D02*
G75*
G03*
X15796000Y-8527000I-50000J0D01*
G01*
X15796000Y-8781000D02*
G75*
G03*
X15796000Y-8781000I-50000J0D01*
G01*
X15905000Y-5823000D02*
G75*
G03*
X15905000Y-5823000I-50000J0D01*
G01*
X15905000Y-6077000D02*
G75*
G03*
X15905000Y-6077000I-50000J0D01*
G01*
X16050000Y-8019000D02*
G75*
G03*
X16050000Y-8019000I-50000J0D01*
G01*
X16050000Y-8273000D02*
G75*
G03*
X16050000Y-8273000I-50000J0D01*
G01*
X16050000Y-8527000D02*
G75*
G03*
X16050000Y-8527000I-50000J0D01*
G01*
X16050000Y-8781000D02*
G75*
G03*
X16050000Y-8781000I-50000J0D01*
G01*
X16159000Y-5823000D02*
G75*
G03*
X16159000Y-5823000I-50000J0D01*
G01*
X16159000Y-6077000D02*
G75*
G03*
X16159000Y-6077000I-50000J0D01*
G01*
X16413000Y-5823000D02*
G75*
G03*
X16413000Y-5823000I-50000J0D01*
G01*
X16413000Y-6077000D02*
G75*
G03*
X16413000Y-6077000I-50000J0D01*
G01*
D14*
X10972500Y-6843333D02*
X10972500Y-6978333D01*
X10905000Y-6910833D02*
X11040000Y-6910833D01*
D11*
X10915000Y-6783333D02*
X10915000Y-7038333D01*
X11030000Y-6783333D02*
X11030000Y-7038333D01*
X10915000Y-7038333D02*
G75*
G03*
X11030000Y-7038333I57500J0D01*
G01*
X11030000Y-6783333D02*
G75*
G03*
X10915000Y-6783333I-57500J0D01*
G01*
D14*
X10972500Y-7593333D02*
X10972500Y-7728333D01*
X10905000Y-7660833D02*
X11040000Y-7660833D01*
D11*
X10915000Y-7533333D02*
X10915000Y-7788333D01*
X11030000Y-7533333D02*
X11030000Y-7788333D01*
X10915000Y-7788333D02*
G75*
G03*
X11030000Y-7788333I57500J0D01*
G01*
X11030000Y-7533333D02*
G75*
G03*
X10915000Y-7533333I-57500J0D01*
G01*
D14*
X10972500Y-9071667D02*
X10972500Y-9206667D01*
X10905000Y-9139167D02*
X11040000Y-9139167D01*
D11*
X10915000Y-9011667D02*
X10915000Y-9266667D01*
X11030000Y-9011667D02*
X11030000Y-9266667D01*
X10915000Y-9266667D02*
G75*
G03*
X11030000Y-9266667I57500J0D01*
G01*
X11030000Y-9011667D02*
G75*
G03*
X10915000Y-9011667I-57500J0D01*
G01*
D14*
X10972500Y-9821667D02*
X10972500Y-9956667D01*
X10905000Y-9889167D02*
X11040000Y-9889167D01*
D11*
X10915000Y-9761667D02*
X10915000Y-10016667D01*
X11030000Y-9761667D02*
X11030000Y-10016667D01*
X10915000Y-10016667D02*
G75*
G03*
X11030000Y-10016667I57500J0D01*
G01*
X11030000Y-9761667D02*
G75*
G03*
X10915000Y-9761667I-57500J0D01*
G01*
D14*
X11972500Y-7218333D02*
X11972500Y-7353333D01*
X11905000Y-7285833D02*
X12040000Y-7285833D01*
X11972500Y-9446667D02*
X11972500Y-9581667D01*
X11905000Y-9514167D02*
X12040000Y-9514167D01*
X12097500Y-6468333D02*
X12097500Y-6603333D01*
X12030000Y-6535833D02*
X12165000Y-6535833D01*
D11*
X12225000Y-6478333D02*
X11970000Y-6478333D01*
X12225000Y-6593333D02*
X11970000Y-6593333D01*
X11970000Y-6478333D02*
G75*
G03*
X11970000Y-6593333I0J-57500D01*
G01*
X12225000Y-6593333D02*
G75*
G03*
X12225000Y-6478333I0J57500D01*
G01*
D14*
X12097500Y-7968333D02*
X12097500Y-8103333D01*
X12030000Y-8035833D02*
X12165000Y-8035833D01*
D11*
X12225000Y-7978333D02*
X11970000Y-7978333D01*
X12225000Y-8093333D02*
X11970000Y-8093333D01*
X11970000Y-7978333D02*
G75*
G03*
X11970000Y-8093333I0J-57500D01*
G01*
X12225000Y-8093333D02*
G75*
G03*
X12225000Y-7978333I0J57500D01*
G01*
D14*
X12097500Y-8696667D02*
X12097500Y-8831667D01*
X12030000Y-8764167D02*
X12165000Y-8764167D01*
D11*
X12225000Y-8706667D02*
X11970000Y-8706667D01*
X12225000Y-8821667D02*
X11970000Y-8821667D01*
X11970000Y-8706667D02*
G75*
G03*
X11970000Y-8821667I0J-57500D01*
G01*
X12225000Y-8821667D02*
G75*
G03*
X12225000Y-8706667I0J57500D01*
G01*
D14*
X12097500Y-10196667D02*
X12097500Y-10331667D01*
X12030000Y-10264167D02*
X12165000Y-10264167D01*
D11*
X12225000Y-10206667D02*
X11970000Y-10206667D01*
X12225000Y-10321667D02*
X11970000Y-10321667D01*
X11970000Y-10206667D02*
G75*
G03*
X11970000Y-10321667I0J-57500D01*
G01*
X12225000Y-10321667D02*
G75*
G03*
X12225000Y-10206667I0J57500D01*
G01*
D14*
X12222500Y-6718333D02*
X12222500Y-6853333D01*
X12155000Y-6785833D02*
X12290000Y-6785833D01*
X12222500Y-7718333D02*
X12222500Y-7853333D01*
X12155000Y-7785833D02*
X12290000Y-7785833D01*
X12222500Y-8946667D02*
X12222500Y-9081667D01*
X12155000Y-9014167D02*
X12290000Y-9014167D01*
X12222500Y-9946667D02*
X12222500Y-10081667D01*
X12155000Y-10014167D02*
X12290000Y-10014167D01*
X12472500Y-7218333D02*
X12472500Y-7353333D01*
X12405000Y-7285833D02*
X12540000Y-7285833D01*
X12472500Y-9446667D02*
X12472500Y-9581667D01*
X12405000Y-9514167D02*
X12540000Y-9514167D01*
D11*
X10952619Y-11515476D02*
X10952619Y-11315476D01*
X11000238Y-11315476D01*
X11028810Y-11325000D01*
X11047857Y-11344048D01*
X11057381Y-11363095D01*
X11066905Y-11401190D01*
X11066905Y-11429762D01*
X11057381Y-11467857D01*
X11047857Y-11486905D01*
X11028810Y-11505952D01*
X11000238Y-11515476D01*
X10952619Y-11515476D01*
X11152619Y-11515476D02*
X11152619Y-11382143D01*
X11152619Y-11420238D02*
X11162143Y-11401190D01*
X11171667Y-11391667D01*
X11190714Y-11382143D01*
X11209762Y-11382143D01*
X11276428Y-11515476D02*
X11276428Y-11382143D01*
X11276428Y-11315476D02*
X11266905Y-11325000D01*
X11276428Y-11334524D01*
X11285952Y-11325000D01*
X11276428Y-11315476D01*
X11276428Y-11334524D01*
X11400238Y-11515476D02*
X11381190Y-11505952D01*
X11371667Y-11486905D01*
X11371667Y-11315476D01*
X11505000Y-11515476D02*
X11485952Y-11505952D01*
X11476428Y-11486905D01*
X11476428Y-11315476D01*
X11733571Y-11515476D02*
X11733571Y-11315476D01*
X11800238Y-11458333D01*
X11866905Y-11315476D01*
X11866905Y-11515476D01*
X12047857Y-11515476D02*
X12047857Y-11410714D01*
X12038333Y-11391667D01*
X12019286Y-11382143D01*
X11981190Y-11382143D01*
X11962143Y-11391667D01*
X12047857Y-11505952D02*
X12028809Y-11515476D01*
X11981190Y-11515476D01*
X11962143Y-11505952D01*
X11952619Y-11486905D01*
X11952619Y-11467857D01*
X11962143Y-11448809D01*
X11981190Y-11439286D01*
X12028809Y-11439286D01*
X12047857Y-11429762D01*
X12143095Y-11382143D02*
X12143095Y-11582143D01*
X12143095Y-11391667D02*
X12162143Y-11382143D01*
X12200238Y-11382143D01*
X12219286Y-11391667D01*
X12228809Y-11401190D01*
X12238333Y-11420238D01*
X12238333Y-11477381D01*
X12228809Y-11496428D01*
X12219286Y-11505952D01*
X12200238Y-11515476D01*
X12162143Y-11515476D01*
X12143095Y-11505952D01*
X12324048Y-11496428D02*
X12333571Y-11505952D01*
X12324048Y-11515476D01*
X12314524Y-11505952D01*
X12324048Y-11496428D01*
X12324048Y-11515476D01*
X12324048Y-11391667D02*
X12333571Y-11401190D01*
X12324048Y-11410714D01*
X12314524Y-11401190D01*
X12324048Y-11391667D01*
X12324048Y-11410714D01*
D12*
X10665000Y-11830000D02*
X10695000Y-11860000D01*
X10695000Y-11830000D02*
X10665000Y-11860000D01*
D11*
X10990714Y-11735476D02*
X11009762Y-11735476D01*
X11028810Y-11745000D01*
X11038333Y-11754524D01*
X11047857Y-11773571D01*
X11057381Y-11811667D01*
X11057381Y-11859286D01*
X11047857Y-11897381D01*
X11038333Y-11916428D01*
X11028810Y-11925952D01*
X11009762Y-11935476D01*
X10990714Y-11935476D01*
X10971667Y-11925952D01*
X10962143Y-11916428D01*
X10952619Y-11897381D01*
X10943095Y-11859286D01*
X10943095Y-11811667D01*
X10952619Y-11773571D01*
X10962143Y-11754524D01*
X10971667Y-11745000D01*
X10990714Y-11735476D01*
X11143095Y-11916428D02*
X11152619Y-11925952D01*
X11143095Y-11935476D01*
X11133571Y-11925952D01*
X11143095Y-11916428D01*
X11143095Y-11935476D01*
X11219286Y-11735476D02*
X11343095Y-11735476D01*
X11276428Y-11811667D01*
X11305000Y-11811667D01*
X11324048Y-11821190D01*
X11333571Y-11830714D01*
X11343095Y-11849762D01*
X11343095Y-11897381D01*
X11333571Y-11916428D01*
X11324048Y-11925952D01*
X11305000Y-11935476D01*
X11247857Y-11935476D01*
X11228809Y-11925952D01*
X11219286Y-11916428D01*
X11466905Y-11735476D02*
X11485952Y-11735476D01*
X11505000Y-11745000D01*
X11514524Y-11754524D01*
X11524048Y-11773571D01*
X11533571Y-11811667D01*
X11533571Y-11859286D01*
X11524048Y-11897381D01*
X11514524Y-11916428D01*
X11505000Y-11925952D01*
X11485952Y-11935476D01*
X11466905Y-11935476D01*
X11447857Y-11925952D01*
X11438333Y-11916428D01*
X11428809Y-11897381D01*
X11419286Y-11859286D01*
X11419286Y-11811667D01*
X11428809Y-11773571D01*
X11438333Y-11754524D01*
X11447857Y-11745000D01*
X11466905Y-11735476D01*
X11657381Y-11735476D02*
X11676428Y-11735476D01*
X11695476Y-11745000D01*
X11705000Y-11754524D01*
X11714524Y-11773571D01*
X11724048Y-11811667D01*
X11724048Y-11859286D01*
X11714524Y-11897381D01*
X11705000Y-11916428D01*
X11695476Y-11925952D01*
X11676428Y-11935476D01*
X11657381Y-11935476D01*
X11638333Y-11925952D01*
X11628809Y-11916428D01*
X11619286Y-11897381D01*
X11609762Y-11859286D01*
X11609762Y-11811667D01*
X11619286Y-11773571D01*
X11628809Y-11754524D01*
X11638333Y-11745000D01*
X11657381Y-11735476D01*
X11809762Y-11935476D02*
X11809762Y-11802143D01*
X11809762Y-11821190D02*
X11819286Y-11811667D01*
X11838333Y-11802143D01*
X11866905Y-11802143D01*
X11885952Y-11811667D01*
X11895476Y-11830714D01*
X11895476Y-11935476D01*
X11895476Y-11830714D02*
X11905000Y-11811667D01*
X11924048Y-11802143D01*
X11952619Y-11802143D01*
X11971667Y-11811667D01*
X11981190Y-11830714D01*
X11981190Y-11935476D01*
X12076428Y-11935476D02*
X12076428Y-11802143D01*
X12076428Y-11821190D02*
X12085952Y-11811667D01*
X12105000Y-11802143D01*
X12133571Y-11802143D01*
X12152619Y-11811667D01*
X12162143Y-11830714D01*
X12162143Y-11935476D01*
X12162143Y-11830714D02*
X12171667Y-11811667D01*
X12190714Y-11802143D01*
X12219286Y-11802143D01*
X12238333Y-11811667D01*
X12247857Y-11830714D01*
X12247857Y-11935476D01*
X12638333Y-11725952D02*
X12466905Y-11983095D01*
X12895476Y-11735476D02*
X12914524Y-11735476D01*
X12933571Y-11745000D01*
X12943095Y-11754524D01*
X12952619Y-11773571D01*
X12962143Y-11811667D01*
X12962143Y-11859286D01*
X12952619Y-11897381D01*
X12943095Y-11916428D01*
X12933571Y-11925952D01*
X12914524Y-11935476D01*
X12895476Y-11935476D01*
X12876428Y-11925952D01*
X12866905Y-11916428D01*
X12857381Y-11897381D01*
X12847857Y-11859286D01*
X12847857Y-11811667D01*
X12857381Y-11773571D01*
X12866905Y-11754524D01*
X12876428Y-11745000D01*
X12895476Y-11735476D01*
X13047857Y-11916428D02*
X13057381Y-11925952D01*
X13047857Y-11935476D01*
X13038333Y-11925952D01*
X13047857Y-11916428D01*
X13047857Y-11935476D01*
X13181190Y-11735476D02*
X13200238Y-11735476D01*
X13219286Y-11745000D01*
X13228809Y-11754524D01*
X13238333Y-11773571D01*
X13247857Y-11811667D01*
X13247857Y-11859286D01*
X13238333Y-11897381D01*
X13228809Y-11916428D01*
X13219286Y-11925952D01*
X13200238Y-11935476D01*
X13181190Y-11935476D01*
X13162143Y-11925952D01*
X13152619Y-11916428D01*
X13143095Y-11897381D01*
X13133571Y-11859286D01*
X13133571Y-11811667D01*
X13143095Y-11773571D01*
X13152619Y-11754524D01*
X13162143Y-11745000D01*
X13181190Y-11735476D01*
X13438333Y-11935476D02*
X13324048Y-11935476D01*
X13381190Y-11935476D02*
X13381190Y-11735476D01*
X13362143Y-11764048D01*
X13343095Y-11783095D01*
X13324048Y-11792619D01*
X13628809Y-11935476D02*
X13514524Y-11935476D01*
X13571667Y-11935476D02*
X13571667Y-11735476D01*
X13552619Y-11764048D01*
X13533571Y-11783095D01*
X13514524Y-11792619D01*
X13743095Y-11821190D02*
X13724048Y-11811667D01*
X13714524Y-11802143D01*
X13705000Y-11783095D01*
X13705000Y-11773571D01*
X13714524Y-11754524D01*
X13724048Y-11745000D01*
X13743095Y-11735476D01*
X13781190Y-11735476D01*
X13800238Y-11745000D01*
X13809762Y-11754524D01*
X13819286Y-11773571D01*
X13819286Y-11783095D01*
X13809762Y-11802143D01*
X13800238Y-11811667D01*
X13781190Y-11821190D01*
X13743095Y-11821190D01*
X13724048Y-11830714D01*
X13714524Y-11840238D01*
X13705000Y-11859286D01*
X13705000Y-11897381D01*
X13714524Y-11916428D01*
X13724048Y-11925952D01*
X13743095Y-11935476D01*
X13781190Y-11935476D01*
X13800238Y-11925952D01*
X13809762Y-11916428D01*
X13819286Y-11897381D01*
X13819286Y-11859286D01*
X13809762Y-11840238D01*
X13800238Y-11830714D01*
X13781190Y-11821190D01*
X13895476Y-11735476D02*
X13895476Y-11773571D01*
X13971667Y-11735476D02*
X13971667Y-11773571D01*
X14266905Y-12011667D02*
X14257381Y-12002143D01*
X14238333Y-11973571D01*
X14228809Y-11954524D01*
X14219286Y-11925952D01*
X14209762Y-11878333D01*
X14209762Y-11840238D01*
X14219286Y-11792619D01*
X14228809Y-11764048D01*
X14238333Y-11745000D01*
X14257381Y-11716428D01*
X14266905Y-11706905D01*
X14447857Y-11935476D02*
X14333571Y-11935476D01*
X14390714Y-11935476D02*
X14390714Y-11735476D01*
X14371667Y-11764048D01*
X14352619Y-11783095D01*
X14333571Y-11792619D01*
X14638333Y-11935476D02*
X14524048Y-11935476D01*
X14581190Y-11935476D02*
X14581190Y-11735476D01*
X14562143Y-11764048D01*
X14543095Y-11783095D01*
X14524048Y-11792619D01*
X14876428Y-11935476D02*
X14876428Y-11735476D01*
X14962143Y-11935476D02*
X14962143Y-11830714D01*
X14952619Y-11811667D01*
X14933571Y-11802143D01*
X14905000Y-11802143D01*
X14885952Y-11811667D01*
X14876428Y-11821190D01*
X15085952Y-11935476D02*
X15066905Y-11925952D01*
X15057381Y-11916428D01*
X15047857Y-11897381D01*
X15047857Y-11840238D01*
X15057381Y-11821190D01*
X15066905Y-11811667D01*
X15085952Y-11802143D01*
X15114524Y-11802143D01*
X15133571Y-11811667D01*
X15143095Y-11821190D01*
X15152619Y-11840238D01*
X15152619Y-11897381D01*
X15143095Y-11916428D01*
X15133571Y-11925952D01*
X15114524Y-11935476D01*
X15085952Y-11935476D01*
X15266905Y-11935476D02*
X15247857Y-11925952D01*
X15238333Y-11906905D01*
X15238333Y-11735476D01*
X15419286Y-11925952D02*
X15400238Y-11935476D01*
X15362143Y-11935476D01*
X15343095Y-11925952D01*
X15333571Y-11906905D01*
X15333571Y-11830714D01*
X15343095Y-11811667D01*
X15362143Y-11802143D01*
X15400238Y-11802143D01*
X15419286Y-11811667D01*
X15428809Y-11830714D01*
X15428809Y-11849762D01*
X15333571Y-11868809D01*
X15505000Y-11925952D02*
X15524048Y-11935476D01*
X15562143Y-11935476D01*
X15581190Y-11925952D01*
X15590714Y-11906905D01*
X15590714Y-11897381D01*
X15581190Y-11878333D01*
X15562143Y-11868809D01*
X15533571Y-11868809D01*
X15514524Y-11859286D01*
X15505000Y-11840238D01*
X15505000Y-11830714D01*
X15514524Y-11811667D01*
X15533571Y-11802143D01*
X15562143Y-11802143D01*
X15581190Y-11811667D01*
X15657381Y-12011667D02*
X15666905Y-12002143D01*
X15685952Y-11973571D01*
X15695476Y-11954524D01*
X15705000Y-11925952D01*
X15714524Y-11878333D01*
X15714524Y-11840238D01*
X15705000Y-11792619D01*
X15695476Y-11764048D01*
X15685952Y-11745000D01*
X15666905Y-11716428D01*
X15657381Y-11706905D01*
D13*
X10695000Y-12109000D02*
G75*
G03*
X10695000Y-12109000I-50000J0D01*
G01*
D11*
X11057381Y-12199476D02*
X10943095Y-12199476D01*
X11000238Y-12199476D02*
X11000238Y-11999476D01*
X10981190Y-12028048D01*
X10962143Y-12047095D01*
X10943095Y-12056619D01*
X11143095Y-12180428D02*
X11152619Y-12189952D01*
X11143095Y-12199476D01*
X11133571Y-12189952D01*
X11143095Y-12180428D01*
X11143095Y-12199476D01*
X11276428Y-11999476D02*
X11295476Y-11999476D01*
X11314524Y-12009000D01*
X11324048Y-12018524D01*
X11333571Y-12037571D01*
X11343095Y-12075667D01*
X11343095Y-12123286D01*
X11333571Y-12161381D01*
X11324048Y-12180428D01*
X11314524Y-12189952D01*
X11295476Y-12199476D01*
X11276428Y-12199476D01*
X11257381Y-12189952D01*
X11247857Y-12180428D01*
X11238333Y-12161381D01*
X11228809Y-12123286D01*
X11228809Y-12075667D01*
X11238333Y-12037571D01*
X11247857Y-12018524D01*
X11257381Y-12009000D01*
X11276428Y-11999476D01*
X11466905Y-11999476D02*
X11485952Y-11999476D01*
X11505000Y-12009000D01*
X11514524Y-12018524D01*
X11524048Y-12037571D01*
X11533571Y-12075667D01*
X11533571Y-12123286D01*
X11524048Y-12161381D01*
X11514524Y-12180428D01*
X11505000Y-12189952D01*
X11485952Y-12199476D01*
X11466905Y-12199476D01*
X11447857Y-12189952D01*
X11438333Y-12180428D01*
X11428809Y-12161381D01*
X11419286Y-12123286D01*
X11419286Y-12075667D01*
X11428809Y-12037571D01*
X11438333Y-12018524D01*
X11447857Y-12009000D01*
X11466905Y-11999476D01*
X11657381Y-11999476D02*
X11676428Y-11999476D01*
X11695476Y-12009000D01*
X11705000Y-12018524D01*
X11714524Y-12037571D01*
X11724048Y-12075667D01*
X11724048Y-12123286D01*
X11714524Y-12161381D01*
X11705000Y-12180428D01*
X11695476Y-12189952D01*
X11676428Y-12199476D01*
X11657381Y-12199476D01*
X11638333Y-12189952D01*
X11628809Y-12180428D01*
X11619286Y-12161381D01*
X11609762Y-12123286D01*
X11609762Y-12075667D01*
X11619286Y-12037571D01*
X11628809Y-12018524D01*
X11638333Y-12009000D01*
X11657381Y-11999476D01*
X11809762Y-12199476D02*
X11809762Y-12066143D01*
X11809762Y-12085190D02*
X11819286Y-12075667D01*
X11838333Y-12066143D01*
X11866905Y-12066143D01*
X11885952Y-12075667D01*
X11895476Y-12094714D01*
X11895476Y-12199476D01*
X11895476Y-12094714D02*
X11905000Y-12075667D01*
X11924048Y-12066143D01*
X11952619Y-12066143D01*
X11971667Y-12075667D01*
X11981190Y-12094714D01*
X11981190Y-12199476D01*
X12076428Y-12199476D02*
X12076428Y-12066143D01*
X12076428Y-12085190D02*
X12085952Y-12075667D01*
X12105000Y-12066143D01*
X12133571Y-12066143D01*
X12152619Y-12075667D01*
X12162143Y-12094714D01*
X12162143Y-12199476D01*
X12162143Y-12094714D02*
X12171667Y-12075667D01*
X12190714Y-12066143D01*
X12219286Y-12066143D01*
X12238333Y-12075667D01*
X12247857Y-12094714D01*
X12247857Y-12199476D01*
X12638333Y-11989952D02*
X12466905Y-12247095D01*
X12895476Y-11999476D02*
X12914524Y-11999476D01*
X12933571Y-12009000D01*
X12943095Y-12018524D01*
X12952619Y-12037571D01*
X12962143Y-12075667D01*
X12962143Y-12123286D01*
X12952619Y-12161381D01*
X12943095Y-12180428D01*
X12933571Y-12189952D01*
X12914524Y-12199476D01*
X12895476Y-12199476D01*
X12876428Y-12189952D01*
X12866905Y-12180428D01*
X12857381Y-12161381D01*
X12847857Y-12123286D01*
X12847857Y-12075667D01*
X12857381Y-12037571D01*
X12866905Y-12018524D01*
X12876428Y-12009000D01*
X12895476Y-11999476D01*
X13047857Y-12180428D02*
X13057381Y-12189952D01*
X13047857Y-12199476D01*
X13038333Y-12189952D01*
X13047857Y-12180428D01*
X13047857Y-12199476D01*
X13181190Y-11999476D02*
X13200238Y-11999476D01*
X13219286Y-12009000D01*
X13228809Y-12018524D01*
X13238333Y-12037571D01*
X13247857Y-12075667D01*
X13247857Y-12123286D01*
X13238333Y-12161381D01*
X13228809Y-12180428D01*
X13219286Y-12189952D01*
X13200238Y-12199476D01*
X13181190Y-12199476D01*
X13162143Y-12189952D01*
X13152619Y-12180428D01*
X13143095Y-12161381D01*
X13133571Y-12123286D01*
X13133571Y-12075667D01*
X13143095Y-12037571D01*
X13152619Y-12018524D01*
X13162143Y-12009000D01*
X13181190Y-11999476D01*
X13314524Y-11999476D02*
X13438333Y-11999476D01*
X13371667Y-12075667D01*
X13400238Y-12075667D01*
X13419286Y-12085190D01*
X13428809Y-12094714D01*
X13438333Y-12113762D01*
X13438333Y-12161381D01*
X13428809Y-12180428D01*
X13419286Y-12189952D01*
X13400238Y-12199476D01*
X13343095Y-12199476D01*
X13324048Y-12189952D01*
X13314524Y-12180428D01*
X13533571Y-12199476D02*
X13571667Y-12199476D01*
X13590714Y-12189952D01*
X13600238Y-12180428D01*
X13619286Y-12151857D01*
X13628809Y-12113762D01*
X13628809Y-12037571D01*
X13619286Y-12018524D01*
X13609762Y-12009000D01*
X13590714Y-11999476D01*
X13552619Y-11999476D01*
X13533571Y-12009000D01*
X13524048Y-12018524D01*
X13514524Y-12037571D01*
X13514524Y-12085190D01*
X13524048Y-12104238D01*
X13533571Y-12113762D01*
X13552619Y-12123286D01*
X13590714Y-12123286D01*
X13609762Y-12113762D01*
X13619286Y-12104238D01*
X13628809Y-12085190D01*
X13800238Y-12066143D02*
X13800238Y-12199476D01*
X13752619Y-11989952D02*
X13705000Y-12132809D01*
X13828809Y-12132809D01*
X13895476Y-11999476D02*
X13895476Y-12037571D01*
X13971667Y-11999476D02*
X13971667Y-12037571D01*
X14266905Y-12275667D02*
X14257381Y-12266143D01*
X14238333Y-12237571D01*
X14228809Y-12218524D01*
X14219286Y-12189952D01*
X14209762Y-12142333D01*
X14209762Y-12104238D01*
X14219286Y-12056619D01*
X14228809Y-12028048D01*
X14238333Y-12009000D01*
X14257381Y-11980428D01*
X14266905Y-11970905D01*
X14438333Y-11999476D02*
X14343095Y-11999476D01*
X14333571Y-12094714D01*
X14343095Y-12085190D01*
X14362143Y-12075667D01*
X14409762Y-12075667D01*
X14428809Y-12085190D01*
X14438333Y-12094714D01*
X14447857Y-12113762D01*
X14447857Y-12161381D01*
X14438333Y-12180428D01*
X14428809Y-12189952D01*
X14409762Y-12199476D01*
X14362143Y-12199476D01*
X14343095Y-12189952D01*
X14333571Y-12180428D01*
X14524048Y-12018524D02*
X14533571Y-12009000D01*
X14552619Y-11999476D01*
X14600238Y-11999476D01*
X14619286Y-12009000D01*
X14628809Y-12018524D01*
X14638333Y-12037571D01*
X14638333Y-12056619D01*
X14628809Y-12085190D01*
X14514524Y-12199476D01*
X14638333Y-12199476D01*
X14876428Y-12199476D02*
X14876428Y-11999476D01*
X14962143Y-12199476D02*
X14962143Y-12094714D01*
X14952619Y-12075667D01*
X14933571Y-12066143D01*
X14905000Y-12066143D01*
X14885952Y-12075667D01*
X14876428Y-12085190D01*
X15085952Y-12199476D02*
X15066905Y-12189952D01*
X15057381Y-12180428D01*
X15047857Y-12161381D01*
X15047857Y-12104238D01*
X15057381Y-12085190D01*
X15066905Y-12075667D01*
X15085952Y-12066143D01*
X15114524Y-12066143D01*
X15133571Y-12075667D01*
X15143095Y-12085190D01*
X15152619Y-12104238D01*
X15152619Y-12161381D01*
X15143095Y-12180428D01*
X15133571Y-12189952D01*
X15114524Y-12199476D01*
X15085952Y-12199476D01*
X15266905Y-12199476D02*
X15247857Y-12189952D01*
X15238333Y-12170905D01*
X15238333Y-11999476D01*
X15419286Y-12189952D02*
X15400238Y-12199476D01*
X15362143Y-12199476D01*
X15343095Y-12189952D01*
X15333571Y-12170905D01*
X15333571Y-12094714D01*
X15343095Y-12075667D01*
X15362143Y-12066143D01*
X15400238Y-12066143D01*
X15419286Y-12075667D01*
X15428809Y-12094714D01*
X15428809Y-12113762D01*
X15333571Y-12132809D01*
X15505000Y-12189952D02*
X15524048Y-12199476D01*
X15562143Y-12199476D01*
X15581190Y-12189952D01*
X15590714Y-12170905D01*
X15590714Y-12161381D01*
X15581190Y-12142333D01*
X15562143Y-12132809D01*
X15533571Y-12132809D01*
X15514524Y-12123286D01*
X15505000Y-12104238D01*
X15505000Y-12094714D01*
X15514524Y-12075667D01*
X15533571Y-12066143D01*
X15562143Y-12066143D01*
X15581190Y-12075667D01*
X15657381Y-12275667D02*
X15666905Y-12266143D01*
X15685952Y-12237571D01*
X15695476Y-12218524D01*
X15705000Y-12189952D01*
X15714524Y-12142333D01*
X15714524Y-12104238D01*
X15705000Y-12056619D01*
X15695476Y-12028048D01*
X15685952Y-12009000D01*
X15666905Y-11980428D01*
X15657381Y-11970905D01*
D14*
X10627500Y-12305500D02*
X10627500Y-12440500D01*
X10560000Y-12373000D02*
X10695000Y-12373000D01*
D11*
X11057381Y-12463476D02*
X10943095Y-12463476D01*
X11000238Y-12463476D02*
X11000238Y-12263476D01*
X10981190Y-12292048D01*
X10962143Y-12311095D01*
X10943095Y-12320619D01*
X11143095Y-12444428D02*
X11152619Y-12453952D01*
X11143095Y-12463476D01*
X11133571Y-12453952D01*
X11143095Y-12444428D01*
X11143095Y-12463476D01*
X11219286Y-12263476D02*
X11343095Y-12263476D01*
X11276428Y-12339667D01*
X11305000Y-12339667D01*
X11324048Y-12349190D01*
X11333571Y-12358714D01*
X11343095Y-12377762D01*
X11343095Y-12425381D01*
X11333571Y-12444428D01*
X11324048Y-12453952D01*
X11305000Y-12463476D01*
X11247857Y-12463476D01*
X11228809Y-12453952D01*
X11219286Y-12444428D01*
X11524048Y-12263476D02*
X11428809Y-12263476D01*
X11419286Y-12358714D01*
X11428809Y-12349190D01*
X11447857Y-12339667D01*
X11495476Y-12339667D01*
X11514524Y-12349190D01*
X11524048Y-12358714D01*
X11533571Y-12377762D01*
X11533571Y-12425381D01*
X11524048Y-12444428D01*
X11514524Y-12453952D01*
X11495476Y-12463476D01*
X11447857Y-12463476D01*
X11428809Y-12453952D01*
X11419286Y-12444428D01*
X11657381Y-12263476D02*
X11676428Y-12263476D01*
X11695476Y-12273000D01*
X11705000Y-12282524D01*
X11714524Y-12301571D01*
X11724048Y-12339667D01*
X11724048Y-12387286D01*
X11714524Y-12425381D01*
X11705000Y-12444428D01*
X11695476Y-12453952D01*
X11676428Y-12463476D01*
X11657381Y-12463476D01*
X11638333Y-12453952D01*
X11628809Y-12444428D01*
X11619286Y-12425381D01*
X11609762Y-12387286D01*
X11609762Y-12339667D01*
X11619286Y-12301571D01*
X11628809Y-12282524D01*
X11638333Y-12273000D01*
X11657381Y-12263476D01*
X11809762Y-12463476D02*
X11809762Y-12330143D01*
X11809762Y-12349190D02*
X11819286Y-12339667D01*
X11838333Y-12330143D01*
X11866905Y-12330143D01*
X11885952Y-12339667D01*
X11895476Y-12358714D01*
X11895476Y-12463476D01*
X11895476Y-12358714D02*
X11905000Y-12339667D01*
X11924048Y-12330143D01*
X11952619Y-12330143D01*
X11971667Y-12339667D01*
X11981190Y-12358714D01*
X11981190Y-12463476D01*
X12076428Y-12463476D02*
X12076428Y-12330143D01*
X12076428Y-12349190D02*
X12085952Y-12339667D01*
X12105000Y-12330143D01*
X12133571Y-12330143D01*
X12152619Y-12339667D01*
X12162143Y-12358714D01*
X12162143Y-12463476D01*
X12162143Y-12358714D02*
X12171667Y-12339667D01*
X12190714Y-12330143D01*
X12219286Y-12330143D01*
X12238333Y-12339667D01*
X12247857Y-12358714D01*
X12247857Y-12463476D01*
X12638333Y-12253952D02*
X12466905Y-12511095D01*
X12895476Y-12263476D02*
X12914524Y-12263476D01*
X12933571Y-12273000D01*
X12943095Y-12282524D01*
X12952619Y-12301571D01*
X12962143Y-12339667D01*
X12962143Y-12387286D01*
X12952619Y-12425381D01*
X12943095Y-12444428D01*
X12933571Y-12453952D01*
X12914524Y-12463476D01*
X12895476Y-12463476D01*
X12876428Y-12453952D01*
X12866905Y-12444428D01*
X12857381Y-12425381D01*
X12847857Y-12387286D01*
X12847857Y-12339667D01*
X12857381Y-12301571D01*
X12866905Y-12282524D01*
X12876428Y-12273000D01*
X12895476Y-12263476D01*
X13047857Y-12444428D02*
X13057381Y-12453952D01*
X13047857Y-12463476D01*
X13038333Y-12453952D01*
X13047857Y-12444428D01*
X13047857Y-12463476D01*
X13181190Y-12263476D02*
X13200238Y-12263476D01*
X13219286Y-12273000D01*
X13228809Y-12282524D01*
X13238333Y-12301571D01*
X13247857Y-12339667D01*
X13247857Y-12387286D01*
X13238333Y-12425381D01*
X13228809Y-12444428D01*
X13219286Y-12453952D01*
X13200238Y-12463476D01*
X13181190Y-12463476D01*
X13162143Y-12453952D01*
X13152619Y-12444428D01*
X13143095Y-12425381D01*
X13133571Y-12387286D01*
X13133571Y-12339667D01*
X13143095Y-12301571D01*
X13152619Y-12282524D01*
X13162143Y-12273000D01*
X13181190Y-12263476D01*
X13428809Y-12263476D02*
X13333571Y-12263476D01*
X13324048Y-12358714D01*
X13333571Y-12349190D01*
X13352619Y-12339667D01*
X13400238Y-12339667D01*
X13419286Y-12349190D01*
X13428809Y-12358714D01*
X13438333Y-12377762D01*
X13438333Y-12425381D01*
X13428809Y-12444428D01*
X13419286Y-12453952D01*
X13400238Y-12463476D01*
X13352619Y-12463476D01*
X13333571Y-12453952D01*
X13324048Y-12444428D01*
X13505000Y-12263476D02*
X13628809Y-12263476D01*
X13562143Y-12339667D01*
X13590714Y-12339667D01*
X13609762Y-12349190D01*
X13619286Y-12358714D01*
X13628809Y-12377762D01*
X13628809Y-12425381D01*
X13619286Y-12444428D01*
X13609762Y-12453952D01*
X13590714Y-12463476D01*
X13533571Y-12463476D01*
X13514524Y-12453952D01*
X13505000Y-12444428D01*
X13819286Y-12463476D02*
X13705000Y-12463476D01*
X13762143Y-12463476D02*
X13762143Y-12263476D01*
X13743095Y-12292048D01*
X13724048Y-12311095D01*
X13705000Y-12320619D01*
X13895476Y-12263476D02*
X13895476Y-12301571D01*
X13971667Y-12263476D02*
X13971667Y-12301571D01*
X14266905Y-12539667D02*
X14257381Y-12530143D01*
X14238333Y-12501571D01*
X14228809Y-12482524D01*
X14219286Y-12453952D01*
X14209762Y-12406333D01*
X14209762Y-12368238D01*
X14219286Y-12320619D01*
X14228809Y-12292048D01*
X14238333Y-12273000D01*
X14257381Y-12244428D01*
X14266905Y-12234905D01*
X14371667Y-12349190D02*
X14352619Y-12339667D01*
X14343095Y-12330143D01*
X14333571Y-12311095D01*
X14333571Y-12301571D01*
X14343095Y-12282524D01*
X14352619Y-12273000D01*
X14371667Y-12263476D01*
X14409762Y-12263476D01*
X14428809Y-12273000D01*
X14438333Y-12282524D01*
X14447857Y-12301571D01*
X14447857Y-12311095D01*
X14438333Y-12330143D01*
X14428809Y-12339667D01*
X14409762Y-12349190D01*
X14371667Y-12349190D01*
X14352619Y-12358714D01*
X14343095Y-12368238D01*
X14333571Y-12387286D01*
X14333571Y-12425381D01*
X14343095Y-12444428D01*
X14352619Y-12453952D01*
X14371667Y-12463476D01*
X14409762Y-12463476D01*
X14428809Y-12453952D01*
X14438333Y-12444428D01*
X14447857Y-12425381D01*
X14447857Y-12387286D01*
X14438333Y-12368238D01*
X14428809Y-12358714D01*
X14409762Y-12349190D01*
X14685952Y-12463476D02*
X14685952Y-12263476D01*
X14771667Y-12463476D02*
X14771667Y-12358714D01*
X14762143Y-12339667D01*
X14743095Y-12330143D01*
X14714524Y-12330143D01*
X14695476Y-12339667D01*
X14685952Y-12349190D01*
X14895476Y-12463476D02*
X14876428Y-12453952D01*
X14866905Y-12444428D01*
X14857381Y-12425381D01*
X14857381Y-12368238D01*
X14866905Y-12349190D01*
X14876428Y-12339667D01*
X14895476Y-12330143D01*
X14924048Y-12330143D01*
X14943095Y-12339667D01*
X14952619Y-12349190D01*
X14962143Y-12368238D01*
X14962143Y-12425381D01*
X14952619Y-12444428D01*
X14943095Y-12453952D01*
X14924048Y-12463476D01*
X14895476Y-12463476D01*
X15076428Y-12463476D02*
X15057381Y-12453952D01*
X15047857Y-12434905D01*
X15047857Y-12263476D01*
X15228809Y-12453952D02*
X15209762Y-12463476D01*
X15171667Y-12463476D01*
X15152619Y-12453952D01*
X15143095Y-12434905D01*
X15143095Y-12358714D01*
X15152619Y-12339667D01*
X15171667Y-12330143D01*
X15209762Y-12330143D01*
X15228809Y-12339667D01*
X15238333Y-12358714D01*
X15238333Y-12377762D01*
X15143095Y-12396809D01*
X15314524Y-12453952D02*
X15333571Y-12463476D01*
X15371667Y-12463476D01*
X15390714Y-12453952D01*
X15400238Y-12434905D01*
X15400238Y-12425381D01*
X15390714Y-12406333D01*
X15371667Y-12396809D01*
X15343095Y-12396809D01*
X15324048Y-12387286D01*
X15314524Y-12368238D01*
X15314524Y-12358714D01*
X15324048Y-12339667D01*
X15343095Y-12330143D01*
X15371667Y-12330143D01*
X15390714Y-12339667D01*
X15638333Y-12387286D02*
X15790714Y-12387286D01*
X15714524Y-12463476D02*
X15714524Y-12311095D01*
X16066905Y-12349190D02*
X16047857Y-12339667D01*
X16038333Y-12330143D01*
X16028809Y-12311095D01*
X16028809Y-12301571D01*
X16038333Y-12282524D01*
X16047857Y-12273000D01*
X16066905Y-12263476D01*
X16105000Y-12263476D01*
X16124048Y-12273000D01*
X16133571Y-12282524D01*
X16143095Y-12301571D01*
X16143095Y-12311095D01*
X16133571Y-12330143D01*
X16124048Y-12339667D01*
X16105000Y-12349190D01*
X16066905Y-12349190D01*
X16047857Y-12358714D01*
X16038333Y-12368238D01*
X16028809Y-12387286D01*
X16028809Y-12425381D01*
X16038333Y-12444428D01*
X16047857Y-12453952D01*
X16066905Y-12463476D01*
X16105000Y-12463476D01*
X16124048Y-12453952D01*
X16133571Y-12444428D01*
X16143095Y-12425381D01*
X16143095Y-12387286D01*
X16133571Y-12368238D01*
X16124048Y-12358714D01*
X16105000Y-12349190D01*
X16371667Y-12453952D02*
X16390714Y-12463476D01*
X16428809Y-12463476D01*
X16447857Y-12453952D01*
X16457381Y-12434905D01*
X16457381Y-12425381D01*
X16447857Y-12406333D01*
X16428809Y-12396809D01*
X16400238Y-12396809D01*
X16381190Y-12387286D01*
X16371667Y-12368238D01*
X16371667Y-12358714D01*
X16381190Y-12339667D01*
X16400238Y-12330143D01*
X16428809Y-12330143D01*
X16447857Y-12339667D01*
X16571667Y-12463476D02*
X16552619Y-12453952D01*
X16543095Y-12434905D01*
X16543095Y-12263476D01*
X16676428Y-12463476D02*
X16657381Y-12453952D01*
X16647857Y-12444428D01*
X16638333Y-12425381D01*
X16638333Y-12368238D01*
X16647857Y-12349190D01*
X16657381Y-12339667D01*
X16676428Y-12330143D01*
X16705000Y-12330143D01*
X16724048Y-12339667D01*
X16733571Y-12349190D01*
X16743095Y-12368238D01*
X16743095Y-12425381D01*
X16733571Y-12444428D01*
X16724048Y-12453952D01*
X16705000Y-12463476D01*
X16676428Y-12463476D01*
X16800238Y-12330143D02*
X16876429Y-12330143D01*
X16828810Y-12263476D02*
X16828810Y-12434905D01*
X16838333Y-12453952D01*
X16857381Y-12463476D01*
X16876429Y-12463476D01*
X16933571Y-12453952D02*
X16952619Y-12463476D01*
X16990714Y-12463476D01*
X17009762Y-12453952D01*
X17019286Y-12434905D01*
X17019286Y-12425381D01*
X17009762Y-12406333D01*
X16990714Y-12396809D01*
X16962143Y-12396809D01*
X16943095Y-12387286D01*
X16933571Y-12368238D01*
X16933571Y-12358714D01*
X16943095Y-12339667D01*
X16962143Y-12330143D01*
X16990714Y-12330143D01*
X17009762Y-12339667D01*
X17085952Y-12539667D02*
X17095476Y-12530143D01*
X17114524Y-12501571D01*
X17124048Y-12482524D01*
X17133571Y-12453952D01*
X17143095Y-12406333D01*
X17143095Y-12368238D01*
X17133571Y-12320619D01*
X17124048Y-12292048D01*
X17114524Y-12273000D01*
X17095476Y-12244428D01*
X17085952Y-12234905D01*
M02*
