%TF.GenerationSoftware,KiCad,Pcbnew,(6.0.2)*%
%TF.CreationDate,2022-03-15T19:15:36-04:00*%
%TF.ProjectId,Pi1541_Main_Board,50693135-3431-45f4-9d61-696e5f426f61,1.0*%
%TF.SameCoordinates,Original*%
%TF.FileFunction,Paste,Top*%
%TF.FilePolarity,Positive*%
%FSLAX46Y46*%
G04 Gerber Fmt 4.6, Leading zero omitted, Abs format (unit mm)*
G04 Created by KiCad (PCBNEW (6.0.2)) date 2022-03-15 19:15:36*
%MOMM*%
%LPD*%
G01*
G04 APERTURE LIST*
G04 Aperture macros list*
%AMRoundRect*
0 Rectangle with rounded corners*
0 $1 Rounding radius*
0 $2 $3 $4 $5 $6 $7 $8 $9 X,Y pos of 4 corners*
0 Add a 4 corners polygon primitive as box body*
4,1,4,$2,$3,$4,$5,$6,$7,$8,$9,$2,$3,0*
0 Add four circle primitives for the rounded corners*
1,1,$1+$1,$2,$3*
1,1,$1+$1,$4,$5*
1,1,$1+$1,$6,$7*
1,1,$1+$1,$8,$9*
0 Add four rect primitives between the rounded corners*
20,1,$1+$1,$2,$3,$4,$5,0*
20,1,$1+$1,$4,$5,$6,$7,0*
20,1,$1+$1,$6,$7,$8,$9,0*
20,1,$1+$1,$8,$9,$2,$3,0*%
G04 Aperture macros list end*
%ADD10RoundRect,0.250000X-0.262500X-0.450000X0.262500X-0.450000X0.262500X0.450000X-0.262500X0.450000X0*%
%ADD11RoundRect,0.250000X0.450000X-0.262500X0.450000X0.262500X-0.450000X0.262500X-0.450000X-0.262500X0*%
%ADD12RoundRect,0.150000X0.587500X0.150000X-0.587500X0.150000X-0.587500X-0.150000X0.587500X-0.150000X0*%
%ADD13RoundRect,0.250000X0.475000X-0.250000X0.475000X0.250000X-0.475000X0.250000X-0.475000X-0.250000X0*%
%ADD14RoundRect,0.150000X-0.150000X0.825000X-0.150000X-0.825000X0.150000X-0.825000X0.150000X0.825000X0*%
G04 APERTURE END LIST*
D10*
X152587500Y-85270000D03*
X154412500Y-85270000D03*
D11*
X145000000Y-81442724D03*
X145000000Y-79617724D03*
X145000000Y-94450000D03*
X145000000Y-92625000D03*
X138000000Y-95400000D03*
X138000000Y-93575000D03*
D10*
X152587500Y-87810000D03*
X154412500Y-87810000D03*
D12*
X142437500Y-81517724D03*
X142437500Y-79617724D03*
X140562500Y-80567724D03*
D11*
X138000000Y-82392724D03*
X138000000Y-80567724D03*
X138000000Y-89257267D03*
X138000000Y-87432267D03*
D13*
X137800000Y-68972500D03*
X137800000Y-67072500D03*
D12*
X142437500Y-94525000D03*
X142437500Y-92625000D03*
X140562500Y-93575000D03*
X142437500Y-75375000D03*
X142437500Y-73475000D03*
X140562500Y-74425000D03*
D11*
X145000000Y-75300000D03*
X145000000Y-73475000D03*
X145000000Y-88307267D03*
X145000000Y-86482267D03*
D14*
X135810000Y-64022500D03*
X134540000Y-64022500D03*
X133270000Y-64022500D03*
X132000000Y-64022500D03*
X130730000Y-64022500D03*
X129460000Y-64022500D03*
X128190000Y-64022500D03*
X128190000Y-68972500D03*
X129460000Y-68972500D03*
X130730000Y-68972500D03*
X132000000Y-68972500D03*
X133270000Y-68972500D03*
X134540000Y-68972500D03*
X135810000Y-68972500D03*
D11*
X138000000Y-76250000D03*
X138000000Y-74425000D03*
D12*
X142437500Y-88382267D03*
X142437500Y-86482267D03*
X140562500Y-87432267D03*
M02*
