M48
; DRILL file {KiCad (6.0.2)} date Tue Mar 15 19:16:55 2022
; FORMAT={-:-/ absolute / metric / decimal}
; #@! TF.CreationDate,2022-03-15T19:16:55-04:00
; #@! TF.GenerationSoftware,Kicad,Pcbnew,(6.0.2)
; #@! TF.FileFunction,Plated,1,2,PTH
FMAT,2
METRIC
; #@! TA.AperFunction,Plated,PTH,ViaDrill
T1C0.300
; #@! TA.AperFunction,Plated,PTH,ComponentDrill
T2C1.000
; #@! TA.AperFunction,Plated,PTH,ComponentDrill
T3C1.350
%
G90
G05
T1
X135.81Y-67.072
X139.262Y-76.25
X139.262Y-82.393
X139.262Y-89.257
X139.262Y-95.4
X143.737Y-76.25
X143.737Y-82.393
X143.737Y-89.257
X143.737Y-95.4
X152.588Y-83.95
X152.588Y-89.1
T2
X115.37Y-58.23
X115.37Y-60.77
X117.91Y-58.23
X117.91Y-60.77
X120.45Y-58.23
X120.45Y-60.77
X122.99Y-58.23
X122.99Y-60.77
X125.53Y-58.23
X125.53Y-60.77
X128.07Y-58.23
X128.07Y-60.77
X130.61Y-58.23
X130.61Y-60.77
X133.0Y-80.19
X133.0Y-82.73
X133.0Y-85.27
X133.0Y-87.81
X133.15Y-58.23
X133.15Y-60.77
X135.69Y-58.23
X135.69Y-60.77
X138.23Y-58.23
X138.23Y-60.77
X140.77Y-58.23
X140.77Y-60.77
X143.31Y-58.23
X143.31Y-60.77
X145.85Y-58.23
X145.85Y-60.77
X148.39Y-58.23
X148.39Y-60.77
X150.93Y-58.23
X150.93Y-60.77
X153.47Y-58.23
X153.47Y-60.77
X156.01Y-58.23
X156.01Y-60.77
X157.46Y-80.19
X157.46Y-82.73
X157.46Y-85.27
X157.46Y-87.81
X158.55Y-58.23
X158.55Y-60.77
X160.0Y-80.19
X160.0Y-82.73
X160.0Y-85.27
X160.0Y-87.81
X161.09Y-58.23
X161.09Y-60.77
X163.63Y-58.23
X163.63Y-60.77
T3
X119.725Y-72.858
X119.725Y-95.142
X122.225Y-67.858
X122.225Y-77.858
X122.225Y-90.142
X122.225Y-100.142
X124.725Y-72.858
X124.725Y-95.142
T3
X109.725Y-67.833G85X109.725Y-70.383
G05
X109.725Y-75.333G85X109.725Y-77.883
G05
X109.725Y-90.117G85X109.725Y-92.667
G05
X109.725Y-97.617G85X109.725Y-100.167
G05
X122.25Y-65.358G85X119.7Y-65.358
G05
X122.25Y-80.358G85X119.7Y-80.358
G05
X122.25Y-87.642G85X119.7Y-87.642
G05
X122.25Y-102.642G85X119.7Y-102.642
G05
T0
M30
