%TF.GenerationSoftware,KiCad,Pcbnew,(6.0.2)*%
%TF.CreationDate,2022-03-15T19:15:36-04:00*%
%TF.ProjectId,Pi1541_Main_Board,50693135-3431-45f4-9d61-696e5f426f61,1.0*%
%TF.SameCoordinates,Original*%
%TF.FileFunction,Legend,Top*%
%TF.FilePolarity,Positive*%
%FSLAX46Y46*%
G04 Gerber Fmt 4.6, Leading zero omitted, Abs format (unit mm)*
G04 Created by KiCad (PCBNEW (6.0.2)) date 2022-03-15 19:15:36*
%MOMM*%
%LPD*%
G01*
G04 APERTURE LIST*
G04 Aperture macros list*
%AMRoundRect*
0 Rectangle with rounded corners*
0 $1 Rounding radius*
0 $2 $3 $4 $5 $6 $7 $8 $9 X,Y pos of 4 corners*
0 Add a 4 corners polygon primitive as box body*
4,1,4,$2,$3,$4,$5,$6,$7,$8,$9,$2,$3,0*
0 Add four circle primitives for the rounded corners*
1,1,$1+$1,$2,$3*
1,1,$1+$1,$4,$5*
1,1,$1+$1,$6,$7*
1,1,$1+$1,$8,$9*
0 Add four rect primitives between the rounded corners*
20,1,$1+$1,$2,$3,$4,$5,0*
20,1,$1+$1,$4,$5,$6,$7,0*
20,1,$1+$1,$6,$7,$8,$9,0*
20,1,$1+$1,$8,$9,$2,$3,0*%
G04 Aperture macros list end*
%ADD10C,0.152400*%
%ADD11C,0.150000*%
%ADD12C,0.127000*%
%ADD13C,0.120000*%
%ADD14C,2.400000*%
%ADD15RoundRect,0.500000X-1.800000X0.500000X-1.800000X-0.500000X1.800000X-0.500000X1.800000X0.500000X0*%
%ADD16C,2.000000*%
%ADD17RoundRect,0.500000X-0.500000X-1.800000X0.500000X-1.800000X0.500000X1.800000X-0.500000X1.800000X0*%
%ADD18RoundRect,0.250000X-0.262500X-0.450000X0.262500X-0.450000X0.262500X0.450000X-0.262500X0.450000X0*%
%ADD19RoundRect,0.250000X0.450000X-0.262500X0.450000X0.262500X-0.450000X0.262500X-0.450000X-0.262500X0*%
%ADD20R,1.700000X1.700000*%
%ADD21O,1.700000X1.700000*%
%ADD22C,2.700000*%
%ADD23RoundRect,0.150000X0.587500X0.150000X-0.587500X0.150000X-0.587500X-0.150000X0.587500X-0.150000X0*%
%ADD24O,2.700000X5.400000*%
%ADD25RoundRect,0.250000X0.475000X-0.250000X0.475000X0.250000X-0.475000X0.250000X-0.475000X-0.250000X0*%
%ADD26RoundRect,0.150000X-0.150000X0.825000X-0.150000X-0.825000X0.150000X-0.825000X0.150000X0.825000X0*%
G04 APERTURE END LIST*
D10*
X168459087Y-90531105D02*
X167646287Y-90531105D01*
X167646287Y-90221467D01*
X167684992Y-90144058D01*
X167723696Y-90105353D01*
X167801106Y-90066648D01*
X167917220Y-90066648D01*
X167994630Y-90105353D01*
X168033334Y-90144058D01*
X168072039Y-90221467D01*
X168072039Y-90531105D01*
X168459087Y-89718305D02*
X167917220Y-89718305D01*
X167646287Y-89718305D02*
X167684992Y-89757010D01*
X167723696Y-89718305D01*
X167684992Y-89679601D01*
X167646287Y-89718305D01*
X167723696Y-89718305D01*
X168459087Y-88905505D02*
X168459087Y-89369962D01*
X168459087Y-89137734D02*
X167646287Y-89137734D01*
X167762401Y-89215143D01*
X167839811Y-89292553D01*
X167878515Y-89369962D01*
X167646287Y-88170115D02*
X167646287Y-88557162D01*
X168033334Y-88595867D01*
X167994630Y-88557162D01*
X167955925Y-88479753D01*
X167955925Y-88286229D01*
X167994630Y-88208820D01*
X168033334Y-88170115D01*
X168110744Y-88131410D01*
X168304268Y-88131410D01*
X168381677Y-88170115D01*
X168420382Y-88208820D01*
X168459087Y-88286229D01*
X168459087Y-88479753D01*
X168420382Y-88557162D01*
X168381677Y-88595867D01*
X167917220Y-87434724D02*
X168459087Y-87434724D01*
X167607582Y-87628248D02*
X168188153Y-87821772D01*
X168188153Y-87318610D01*
X168459087Y-86583220D02*
X168459087Y-87047677D01*
X168459087Y-86815448D02*
X167646287Y-86815448D01*
X167762401Y-86892858D01*
X167839811Y-86970267D01*
X167878515Y-87047677D01*
X168149449Y-85615601D02*
X168149449Y-84996324D01*
X168459087Y-83990001D02*
X167646287Y-83990001D01*
X168226858Y-83719067D01*
X167646287Y-83448134D01*
X168459087Y-83448134D01*
X168459087Y-82712743D02*
X168033334Y-82712743D01*
X167955925Y-82751448D01*
X167917220Y-82828858D01*
X167917220Y-82983677D01*
X167955925Y-83061086D01*
X168420382Y-82712743D02*
X168459087Y-82790153D01*
X168459087Y-82983677D01*
X168420382Y-83061086D01*
X168342972Y-83099791D01*
X168265563Y-83099791D01*
X168188153Y-83061086D01*
X168149449Y-82983677D01*
X168149449Y-82790153D01*
X168110744Y-82712743D01*
X168459087Y-82325696D02*
X167917220Y-82325696D01*
X167646287Y-82325696D02*
X167684992Y-82364401D01*
X167723696Y-82325696D01*
X167684992Y-82286991D01*
X167646287Y-82325696D01*
X167723696Y-82325696D01*
X167917220Y-81938648D02*
X168459087Y-81938648D01*
X167994630Y-81938648D02*
X167955925Y-81899943D01*
X167917220Y-81822534D01*
X167917220Y-81706420D01*
X167955925Y-81629010D01*
X168033334Y-81590305D01*
X168459087Y-81590305D01*
X168033334Y-80313048D02*
X168072039Y-80196934D01*
X168110744Y-80158229D01*
X168188153Y-80119524D01*
X168304268Y-80119524D01*
X168381677Y-80158229D01*
X168420382Y-80196934D01*
X168459087Y-80274343D01*
X168459087Y-80583981D01*
X167646287Y-80583981D01*
X167646287Y-80313048D01*
X167684992Y-80235639D01*
X167723696Y-80196934D01*
X167801106Y-80158229D01*
X167878515Y-80158229D01*
X167955925Y-80196934D01*
X167994630Y-80235639D01*
X168033334Y-80313048D01*
X168033334Y-80583981D01*
X168459087Y-79655067D02*
X168420382Y-79732477D01*
X168381677Y-79771181D01*
X168304268Y-79809886D01*
X168072039Y-79809886D01*
X167994630Y-79771181D01*
X167955925Y-79732477D01*
X167917220Y-79655067D01*
X167917220Y-79538953D01*
X167955925Y-79461543D01*
X167994630Y-79422839D01*
X168072039Y-79384134D01*
X168304268Y-79384134D01*
X168381677Y-79422839D01*
X168420382Y-79461543D01*
X168459087Y-79538953D01*
X168459087Y-79655067D01*
X168459087Y-78687448D02*
X168033334Y-78687448D01*
X167955925Y-78726153D01*
X167917220Y-78803562D01*
X167917220Y-78958381D01*
X167955925Y-79035791D01*
X168420382Y-78687448D02*
X168459087Y-78764858D01*
X168459087Y-78958381D01*
X168420382Y-79035791D01*
X168342972Y-79074496D01*
X168265563Y-79074496D01*
X168188153Y-79035791D01*
X168149449Y-78958381D01*
X168149449Y-78764858D01*
X168110744Y-78687448D01*
X168459087Y-78300401D02*
X167917220Y-78300401D01*
X168072039Y-78300401D02*
X167994630Y-78261696D01*
X167955925Y-78222991D01*
X167917220Y-78145581D01*
X167917220Y-78068172D01*
X168459087Y-77448896D02*
X167646287Y-77448896D01*
X168420382Y-77448896D02*
X168459087Y-77526305D01*
X168459087Y-77681124D01*
X168420382Y-77758534D01*
X168381677Y-77797239D01*
X168304268Y-77835943D01*
X168072039Y-77835943D01*
X167994630Y-77797239D01*
X167955925Y-77758534D01*
X167917220Y-77681124D01*
X167917220Y-77526305D01*
X167955925Y-77448896D01*
X169767695Y-92350229D02*
X169380647Y-92621162D01*
X169767695Y-92814686D02*
X168954895Y-92814686D01*
X168954895Y-92505048D01*
X168993600Y-92427639D01*
X169032304Y-92388934D01*
X169109714Y-92350229D01*
X169225828Y-92350229D01*
X169303238Y-92388934D01*
X169341942Y-92427639D01*
X169380647Y-92505048D01*
X169380647Y-92814686D01*
X169728990Y-91692248D02*
X169767695Y-91769658D01*
X169767695Y-91924477D01*
X169728990Y-92001886D01*
X169651580Y-92040591D01*
X169341942Y-92040591D01*
X169264533Y-92001886D01*
X169225828Y-91924477D01*
X169225828Y-91769658D01*
X169264533Y-91692248D01*
X169341942Y-91653543D01*
X169419352Y-91653543D01*
X169496761Y-92040591D01*
X169225828Y-91382610D02*
X169767695Y-91189086D01*
X169225828Y-90995562D01*
X169767695Y-90685924D02*
X169225828Y-90685924D01*
X168954895Y-90685924D02*
X168993600Y-90724629D01*
X169032304Y-90685924D01*
X168993600Y-90647220D01*
X168954895Y-90685924D01*
X169032304Y-90685924D01*
X169728990Y-90337581D02*
X169767695Y-90260172D01*
X169767695Y-90105353D01*
X169728990Y-90027943D01*
X169651580Y-89989239D01*
X169612876Y-89989239D01*
X169535466Y-90027943D01*
X169496761Y-90105353D01*
X169496761Y-90221467D01*
X169458057Y-90298877D01*
X169380647Y-90337581D01*
X169341942Y-90337581D01*
X169264533Y-90298877D01*
X169225828Y-90221467D01*
X169225828Y-90105353D01*
X169264533Y-90027943D01*
X169767695Y-89640896D02*
X169225828Y-89640896D01*
X168954895Y-89640896D02*
X168993600Y-89679601D01*
X169032304Y-89640896D01*
X168993600Y-89602191D01*
X168954895Y-89640896D01*
X169032304Y-89640896D01*
X169767695Y-89137734D02*
X169728990Y-89215143D01*
X169690285Y-89253848D01*
X169612876Y-89292553D01*
X169380647Y-89292553D01*
X169303238Y-89253848D01*
X169264533Y-89215143D01*
X169225828Y-89137734D01*
X169225828Y-89021620D01*
X169264533Y-88944210D01*
X169303238Y-88905505D01*
X169380647Y-88866801D01*
X169612876Y-88866801D01*
X169690285Y-88905505D01*
X169728990Y-88944210D01*
X169767695Y-89021620D01*
X169767695Y-89137734D01*
X169225828Y-88518458D02*
X169767695Y-88518458D01*
X169303238Y-88518458D02*
X169264533Y-88479753D01*
X169225828Y-88402343D01*
X169225828Y-88286229D01*
X169264533Y-88208820D01*
X169341942Y-88170115D01*
X169767695Y-88170115D01*
X169767695Y-86738039D02*
X169767695Y-87202496D01*
X169767695Y-86970267D02*
X168954895Y-86970267D01*
X169071009Y-87047677D01*
X169148419Y-87125086D01*
X169187123Y-87202496D01*
X169690285Y-86389696D02*
X169728990Y-86350991D01*
X169767695Y-86389696D01*
X169728990Y-86428401D01*
X169690285Y-86389696D01*
X169767695Y-86389696D01*
X168954895Y-85847829D02*
X168954895Y-85770420D01*
X168993600Y-85693010D01*
X169032304Y-85654305D01*
X169109714Y-85615601D01*
X169264533Y-85576896D01*
X169458057Y-85576896D01*
X169612876Y-85615601D01*
X169690285Y-85654305D01*
X169728990Y-85693010D01*
X169767695Y-85770420D01*
X169767695Y-85847829D01*
X169728990Y-85925239D01*
X169690285Y-85963943D01*
X169612876Y-86002648D01*
X169458057Y-86041353D01*
X169264533Y-86041353D01*
X169109714Y-86002648D01*
X169032304Y-85963943D01*
X168993600Y-85925239D01*
X168954895Y-85847829D01*
X169458057Y-84609277D02*
X169458057Y-83990001D01*
X169032304Y-83022381D02*
X168993600Y-82983677D01*
X168954895Y-82906267D01*
X168954895Y-82712743D01*
X168993600Y-82635334D01*
X169032304Y-82596629D01*
X169109714Y-82557924D01*
X169187123Y-82557924D01*
X169303238Y-82596629D01*
X169767695Y-83061086D01*
X169767695Y-82557924D01*
X168954895Y-82054762D02*
X168954895Y-81977353D01*
X168993600Y-81899943D01*
X169032304Y-81861239D01*
X169109714Y-81822534D01*
X169264533Y-81783829D01*
X169458057Y-81783829D01*
X169612876Y-81822534D01*
X169690285Y-81861239D01*
X169728990Y-81899943D01*
X169767695Y-81977353D01*
X169767695Y-82054762D01*
X169728990Y-82132172D01*
X169690285Y-82170877D01*
X169612876Y-82209581D01*
X169458057Y-82248286D01*
X169264533Y-82248286D01*
X169109714Y-82209581D01*
X169032304Y-82170877D01*
X168993600Y-82132172D01*
X168954895Y-82054762D01*
X169032304Y-81474191D02*
X168993600Y-81435486D01*
X168954895Y-81358077D01*
X168954895Y-81164553D01*
X168993600Y-81087143D01*
X169032304Y-81048439D01*
X169109714Y-81009734D01*
X169187123Y-81009734D01*
X169303238Y-81048439D01*
X169767695Y-81512896D01*
X169767695Y-81009734D01*
X169032304Y-80700096D02*
X168993600Y-80661391D01*
X168954895Y-80583981D01*
X168954895Y-80390458D01*
X168993600Y-80313048D01*
X169032304Y-80274343D01*
X169109714Y-80235639D01*
X169187123Y-80235639D01*
X169303238Y-80274343D01*
X169767695Y-80738801D01*
X169767695Y-80235639D01*
X169458057Y-79887296D02*
X169458057Y-79268020D01*
X168954895Y-78726153D02*
X168954895Y-78648743D01*
X168993600Y-78571334D01*
X169032304Y-78532629D01*
X169109714Y-78493924D01*
X169264533Y-78455220D01*
X169458057Y-78455220D01*
X169612876Y-78493924D01*
X169690285Y-78532629D01*
X169728990Y-78571334D01*
X169767695Y-78648743D01*
X169767695Y-78726153D01*
X169728990Y-78803562D01*
X169690285Y-78842267D01*
X169612876Y-78880972D01*
X169458057Y-78919677D01*
X169264533Y-78919677D01*
X169109714Y-78880972D01*
X169032304Y-78842267D01*
X168993600Y-78803562D01*
X168954895Y-78726153D01*
X169032304Y-78145581D02*
X168993600Y-78106877D01*
X168954895Y-78029467D01*
X168954895Y-77835943D01*
X168993600Y-77758534D01*
X169032304Y-77719829D01*
X169109714Y-77681124D01*
X169187123Y-77681124D01*
X169303238Y-77719829D01*
X169767695Y-78184286D01*
X169767695Y-77681124D01*
X169458057Y-77332781D02*
X169458057Y-76713505D01*
X168954895Y-76171639D02*
X168954895Y-76094229D01*
X168993600Y-76016820D01*
X169032304Y-75978115D01*
X169109714Y-75939410D01*
X169264533Y-75900705D01*
X169458057Y-75900705D01*
X169612876Y-75939410D01*
X169690285Y-75978115D01*
X169728990Y-76016820D01*
X169767695Y-76094229D01*
X169767695Y-76171639D01*
X169728990Y-76249048D01*
X169690285Y-76287753D01*
X169612876Y-76326458D01*
X169458057Y-76365162D01*
X169264533Y-76365162D01*
X169109714Y-76326458D01*
X169032304Y-76287753D01*
X168993600Y-76249048D01*
X168954895Y-76171639D01*
X168954895Y-75204020D02*
X168954895Y-75358839D01*
X168993600Y-75436248D01*
X169032304Y-75474953D01*
X169148419Y-75552362D01*
X169303238Y-75591067D01*
X169612876Y-75591067D01*
X169690285Y-75552362D01*
X169728990Y-75513658D01*
X169767695Y-75436248D01*
X169767695Y-75281429D01*
X169728990Y-75204020D01*
X169690285Y-75165315D01*
X169612876Y-75126610D01*
X169419352Y-75126610D01*
X169341942Y-75165315D01*
X169303238Y-75204020D01*
X169264533Y-75281429D01*
X169264533Y-75436248D01*
X169303238Y-75513658D01*
X169341942Y-75552362D01*
X169419352Y-75591067D01*
X171076303Y-97904362D02*
X170263503Y-97904362D01*
X171076303Y-97556020D02*
X170650550Y-97556020D01*
X170573141Y-97594724D01*
X170534436Y-97672134D01*
X170534436Y-97788248D01*
X170573141Y-97865658D01*
X170611846Y-97904362D01*
X170534436Y-97285086D02*
X170534436Y-96975448D01*
X170263503Y-97168972D02*
X170960188Y-97168972D01*
X171037598Y-97130267D01*
X171076303Y-97052858D01*
X171076303Y-96975448D01*
X170534436Y-96820629D02*
X170534436Y-96510991D01*
X170263503Y-96704515D02*
X170960188Y-96704515D01*
X171037598Y-96665810D01*
X171076303Y-96588401D01*
X171076303Y-96510991D01*
X170534436Y-96240058D02*
X171347236Y-96240058D01*
X170573141Y-96240058D02*
X170534436Y-96162648D01*
X170534436Y-96007829D01*
X170573141Y-95930420D01*
X170611846Y-95891715D01*
X170689255Y-95853010D01*
X170921484Y-95853010D01*
X170998893Y-95891715D01*
X171037598Y-95930420D01*
X171076303Y-96007829D01*
X171076303Y-96162648D01*
X171037598Y-96240058D01*
X171037598Y-95543372D02*
X171076303Y-95465962D01*
X171076303Y-95311143D01*
X171037598Y-95233734D01*
X170960188Y-95195029D01*
X170921484Y-95195029D01*
X170844074Y-95233734D01*
X170805369Y-95311143D01*
X170805369Y-95427258D01*
X170766665Y-95504667D01*
X170689255Y-95543372D01*
X170650550Y-95543372D01*
X170573141Y-95504667D01*
X170534436Y-95427258D01*
X170534436Y-95311143D01*
X170573141Y-95233734D01*
X170998893Y-94846686D02*
X171037598Y-94807981D01*
X171076303Y-94846686D01*
X171037598Y-94885391D01*
X170998893Y-94846686D01*
X171076303Y-94846686D01*
X170573141Y-94846686D02*
X170611846Y-94807981D01*
X170650550Y-94846686D01*
X170611846Y-94885391D01*
X170573141Y-94846686D01*
X170650550Y-94846686D01*
X170224798Y-93879067D02*
X171269827Y-94575753D01*
X170224798Y-93027562D02*
X171269827Y-93724248D01*
X170534436Y-92408286D02*
X171192417Y-92408286D01*
X171269827Y-92446991D01*
X171308531Y-92485696D01*
X171347236Y-92563105D01*
X171347236Y-92679220D01*
X171308531Y-92756629D01*
X171037598Y-92408286D02*
X171076303Y-92485696D01*
X171076303Y-92640515D01*
X171037598Y-92717924D01*
X170998893Y-92756629D01*
X170921484Y-92795334D01*
X170689255Y-92795334D01*
X170611846Y-92756629D01*
X170573141Y-92717924D01*
X170534436Y-92640515D01*
X170534436Y-92485696D01*
X170573141Y-92408286D01*
X171076303Y-92021239D02*
X170534436Y-92021239D01*
X170263503Y-92021239D02*
X170302208Y-92059943D01*
X170340912Y-92021239D01*
X170302208Y-91982534D01*
X170263503Y-92021239D01*
X170340912Y-92021239D01*
X170534436Y-91750305D02*
X170534436Y-91440667D01*
X170263503Y-91634191D02*
X170960188Y-91634191D01*
X171037598Y-91595486D01*
X171076303Y-91518077D01*
X171076303Y-91440667D01*
X171076303Y-91169734D02*
X170263503Y-91169734D01*
X171076303Y-90821391D02*
X170650550Y-90821391D01*
X170573141Y-90860096D01*
X170534436Y-90937505D01*
X170534436Y-91053620D01*
X170573141Y-91131029D01*
X170611846Y-91169734D01*
X170534436Y-90086001D02*
X171076303Y-90086001D01*
X170534436Y-90434343D02*
X170960188Y-90434343D01*
X171037598Y-90395639D01*
X171076303Y-90318229D01*
X171076303Y-90202115D01*
X171037598Y-90124705D01*
X170998893Y-90086001D01*
X171076303Y-89698953D02*
X170263503Y-89698953D01*
X170573141Y-89698953D02*
X170534436Y-89621543D01*
X170534436Y-89466724D01*
X170573141Y-89389315D01*
X170611846Y-89350610D01*
X170689255Y-89311905D01*
X170921484Y-89311905D01*
X170998893Y-89350610D01*
X171037598Y-89389315D01*
X171076303Y-89466724D01*
X171076303Y-89621543D01*
X171037598Y-89698953D01*
X170998893Y-88963562D02*
X171037598Y-88924858D01*
X171076303Y-88963562D01*
X171037598Y-89002267D01*
X170998893Y-88963562D01*
X171076303Y-88963562D01*
X171037598Y-88228172D02*
X171076303Y-88305581D01*
X171076303Y-88460401D01*
X171037598Y-88537810D01*
X170998893Y-88576515D01*
X170921484Y-88615220D01*
X170689255Y-88615220D01*
X170611846Y-88576515D01*
X170573141Y-88537810D01*
X170534436Y-88460401D01*
X170534436Y-88305581D01*
X170573141Y-88228172D01*
X171076303Y-87763715D02*
X171037598Y-87841124D01*
X170998893Y-87879829D01*
X170921484Y-87918534D01*
X170689255Y-87918534D01*
X170611846Y-87879829D01*
X170573141Y-87841124D01*
X170534436Y-87763715D01*
X170534436Y-87647601D01*
X170573141Y-87570191D01*
X170611846Y-87531486D01*
X170689255Y-87492781D01*
X170921484Y-87492781D01*
X170998893Y-87531486D01*
X171037598Y-87570191D01*
X171076303Y-87647601D01*
X171076303Y-87763715D01*
X171076303Y-87144439D02*
X170534436Y-87144439D01*
X170611846Y-87144439D02*
X170573141Y-87105734D01*
X170534436Y-87028324D01*
X170534436Y-86912210D01*
X170573141Y-86834801D01*
X170650550Y-86796096D01*
X171076303Y-86796096D01*
X170650550Y-86796096D02*
X170573141Y-86757391D01*
X170534436Y-86679981D01*
X170534436Y-86563867D01*
X170573141Y-86486458D01*
X170650550Y-86447753D01*
X171076303Y-86447753D01*
X170224798Y-85480134D02*
X171269827Y-86176820D01*
X171076303Y-85209201D02*
X170263503Y-85209201D01*
X170573141Y-85209201D02*
X170534436Y-85131791D01*
X170534436Y-84976972D01*
X170573141Y-84899562D01*
X170611846Y-84860858D01*
X170689255Y-84822153D01*
X170921484Y-84822153D01*
X170998893Y-84860858D01*
X171037598Y-84899562D01*
X171076303Y-84976972D01*
X171076303Y-85131791D01*
X171037598Y-85209201D01*
X171037598Y-84164172D02*
X171076303Y-84241581D01*
X171076303Y-84396401D01*
X171037598Y-84473810D01*
X170960188Y-84512515D01*
X170650550Y-84512515D01*
X170573141Y-84473810D01*
X170534436Y-84396401D01*
X170534436Y-84241581D01*
X170573141Y-84164172D01*
X170650550Y-84125467D01*
X170727960Y-84125467D01*
X170805369Y-84512515D01*
X171076303Y-83428781D02*
X170650550Y-83428781D01*
X170573141Y-83467486D01*
X170534436Y-83544896D01*
X170534436Y-83699715D01*
X170573141Y-83777124D01*
X171037598Y-83428781D02*
X171076303Y-83506191D01*
X171076303Y-83699715D01*
X171037598Y-83777124D01*
X170960188Y-83815829D01*
X170882779Y-83815829D01*
X170805369Y-83777124D01*
X170766665Y-83699715D01*
X170766665Y-83506191D01*
X170727960Y-83428781D01*
X170534436Y-82693391D02*
X171076303Y-82693391D01*
X170534436Y-83041734D02*
X170960188Y-83041734D01*
X171037598Y-83003029D01*
X171076303Y-82925620D01*
X171076303Y-82809505D01*
X171037598Y-82732096D01*
X170998893Y-82693391D01*
X170534436Y-82306343D02*
X171347236Y-82306343D01*
X170573141Y-82306343D02*
X170534436Y-82228934D01*
X170534436Y-82074115D01*
X170573141Y-81996705D01*
X170611846Y-81958001D01*
X170689255Y-81919296D01*
X170921484Y-81919296D01*
X170998893Y-81958001D01*
X171037598Y-81996705D01*
X171076303Y-82074115D01*
X171076303Y-82228934D01*
X171037598Y-82306343D01*
X171076303Y-81570953D02*
X170534436Y-81570953D01*
X170689255Y-81570953D02*
X170611846Y-81532248D01*
X170573141Y-81493543D01*
X170534436Y-81416134D01*
X170534436Y-81338724D01*
X171037598Y-80758153D02*
X171076303Y-80835562D01*
X171076303Y-80990381D01*
X171037598Y-81067791D01*
X170960188Y-81106496D01*
X170650550Y-81106496D01*
X170573141Y-81067791D01*
X170534436Y-80990381D01*
X170534436Y-80835562D01*
X170573141Y-80758153D01*
X170650550Y-80719448D01*
X170727960Y-80719448D01*
X170805369Y-81106496D01*
X170766665Y-80371105D02*
X170766665Y-79751829D01*
X171037598Y-79016439D02*
X171076303Y-79093848D01*
X171076303Y-79248667D01*
X171037598Y-79326077D01*
X170998893Y-79364781D01*
X170921484Y-79403486D01*
X170689255Y-79403486D01*
X170611846Y-79364781D01*
X170573141Y-79326077D01*
X170534436Y-79248667D01*
X170534436Y-79093848D01*
X170573141Y-79016439D01*
X171076303Y-78668096D02*
X170534436Y-78668096D01*
X170263503Y-78668096D02*
X170302208Y-78706801D01*
X170340912Y-78668096D01*
X170302208Y-78629391D01*
X170263503Y-78668096D01*
X170340912Y-78668096D01*
X171076303Y-78281048D02*
X170534436Y-78281048D01*
X170689255Y-78281048D02*
X170611846Y-78242343D01*
X170573141Y-78203639D01*
X170534436Y-78126229D01*
X170534436Y-78048820D01*
X171037598Y-77429543D02*
X171076303Y-77506953D01*
X171076303Y-77661772D01*
X171037598Y-77739181D01*
X170998893Y-77777886D01*
X170921484Y-77816591D01*
X170689255Y-77816591D01*
X170611846Y-77777886D01*
X170573141Y-77739181D01*
X170534436Y-77661772D01*
X170534436Y-77506953D01*
X170573141Y-77429543D01*
X170534436Y-76732858D02*
X171076303Y-76732858D01*
X170534436Y-77081201D02*
X170960188Y-77081201D01*
X171037598Y-77042496D01*
X171076303Y-76965086D01*
X171076303Y-76848972D01*
X171037598Y-76771562D01*
X170998893Y-76732858D01*
X171076303Y-76345810D02*
X170534436Y-76345810D01*
X170263503Y-76345810D02*
X170302208Y-76384515D01*
X170340912Y-76345810D01*
X170302208Y-76307105D01*
X170263503Y-76345810D01*
X170340912Y-76345810D01*
X170534436Y-76074877D02*
X170534436Y-75765239D01*
X170263503Y-75958762D02*
X170960188Y-75958762D01*
X171037598Y-75920058D01*
X171076303Y-75842648D01*
X171076303Y-75765239D01*
X170766665Y-75494305D02*
X170766665Y-74875029D01*
X171076303Y-74139639D02*
X170263503Y-74139639D01*
X171037598Y-74139639D02*
X171076303Y-74217048D01*
X171076303Y-74371867D01*
X171037598Y-74449277D01*
X170998893Y-74487981D01*
X170921484Y-74526686D01*
X170689255Y-74526686D01*
X170611846Y-74487981D01*
X170573141Y-74449277D01*
X170534436Y-74371867D01*
X170534436Y-74217048D01*
X170573141Y-74139639D01*
X171037598Y-73442953D02*
X171076303Y-73520362D01*
X171076303Y-73675181D01*
X171037598Y-73752591D01*
X170960188Y-73791296D01*
X170650550Y-73791296D01*
X170573141Y-73752591D01*
X170534436Y-73675181D01*
X170534436Y-73520362D01*
X170573141Y-73442953D01*
X170650550Y-73404248D01*
X170727960Y-73404248D01*
X170805369Y-73791296D01*
X171037598Y-73094610D02*
X171076303Y-73017201D01*
X171076303Y-72862381D01*
X171037598Y-72784972D01*
X170960188Y-72746267D01*
X170921484Y-72746267D01*
X170844074Y-72784972D01*
X170805369Y-72862381D01*
X170805369Y-72978496D01*
X170766665Y-73055905D01*
X170689255Y-73094610D01*
X170650550Y-73094610D01*
X170573141Y-73055905D01*
X170534436Y-72978496D01*
X170534436Y-72862381D01*
X170573141Y-72784972D01*
X171076303Y-72397924D02*
X170534436Y-72397924D01*
X170263503Y-72397924D02*
X170302208Y-72436629D01*
X170340912Y-72397924D01*
X170302208Y-72359220D01*
X170263503Y-72397924D01*
X170340912Y-72397924D01*
X170534436Y-71662534D02*
X171192417Y-71662534D01*
X171269827Y-71701239D01*
X171308531Y-71739943D01*
X171347236Y-71817353D01*
X171347236Y-71933467D01*
X171308531Y-72010877D01*
X171037598Y-71662534D02*
X171076303Y-71739943D01*
X171076303Y-71894762D01*
X171037598Y-71972172D01*
X170998893Y-72010877D01*
X170921484Y-72049581D01*
X170689255Y-72049581D01*
X170611846Y-72010877D01*
X170573141Y-71972172D01*
X170534436Y-71894762D01*
X170534436Y-71739943D01*
X170573141Y-71662534D01*
X170534436Y-71275486D02*
X171076303Y-71275486D01*
X170611846Y-71275486D02*
X170573141Y-71236781D01*
X170534436Y-71159372D01*
X170534436Y-71043258D01*
X170573141Y-70965848D01*
X170650550Y-70927143D01*
X171076303Y-70927143D01*
X170224798Y-69959524D02*
X171269827Y-70656210D01*
X111809572Y-98896027D02*
X112390143Y-98896027D01*
X112506257Y-98934732D01*
X112583667Y-99012142D01*
X112622372Y-99128256D01*
X112622372Y-99205666D01*
X112622372Y-98121932D02*
X112622372Y-98508980D01*
X111809572Y-98508980D01*
X112544962Y-97386542D02*
X112583667Y-97425246D01*
X112622372Y-97541361D01*
X112622372Y-97618770D01*
X112583667Y-97734885D01*
X112506257Y-97812294D01*
X112428848Y-97850999D01*
X112274029Y-97889704D01*
X112157915Y-97889704D01*
X112003096Y-97850999D01*
X111925686Y-97812294D01*
X111848277Y-97734885D01*
X111809572Y-97618770D01*
X111809572Y-97541361D01*
X111848277Y-97425246D01*
X111886981Y-97386542D01*
X111809572Y-96805970D02*
X112390143Y-96805970D01*
X112506257Y-96844675D01*
X112583667Y-96922085D01*
X112622372Y-97038199D01*
X112622372Y-97115608D01*
X112622372Y-96031875D02*
X112622372Y-96418923D01*
X111809572Y-96418923D01*
X112544962Y-95296485D02*
X112583667Y-95335189D01*
X112622372Y-95451304D01*
X112622372Y-95528713D01*
X112583667Y-95644827D01*
X112506257Y-95722237D01*
X112428848Y-95760942D01*
X112274029Y-95799646D01*
X112157915Y-95799646D01*
X112003096Y-95760942D01*
X111925686Y-95722237D01*
X111848277Y-95644827D01*
X111809572Y-95528713D01*
X111809572Y-95451304D01*
X111848277Y-95335189D01*
X111886981Y-95296485D01*
X111809572Y-94715913D02*
X112390143Y-94715913D01*
X112506257Y-94754618D01*
X112583667Y-94832027D01*
X112622372Y-94948142D01*
X112622372Y-95025551D01*
X112622372Y-93941818D02*
X112622372Y-94328866D01*
X111809572Y-94328866D01*
X112544962Y-93206427D02*
X112583667Y-93245132D01*
X112622372Y-93361246D01*
X112622372Y-93438656D01*
X112583667Y-93554770D01*
X112506257Y-93632180D01*
X112428848Y-93670885D01*
X112274029Y-93709589D01*
X112157915Y-93709589D01*
X112003096Y-93670885D01*
X111925686Y-93632180D01*
X111848277Y-93554770D01*
X111809572Y-93438656D01*
X111809572Y-93361246D01*
X111848277Y-93245132D01*
X111886981Y-93206427D01*
X111809572Y-92625856D02*
X112390143Y-92625856D01*
X112506257Y-92664561D01*
X112583667Y-92741970D01*
X112622372Y-92858085D01*
X112622372Y-92935494D01*
X112622372Y-91851761D02*
X112622372Y-92238808D01*
X111809572Y-92238808D01*
X112544962Y-91116370D02*
X112583667Y-91155075D01*
X112622372Y-91271189D01*
X112622372Y-91348599D01*
X112583667Y-91464713D01*
X112506257Y-91542123D01*
X112428848Y-91580827D01*
X112274029Y-91619532D01*
X112157915Y-91619532D01*
X112003096Y-91580827D01*
X111925686Y-91542123D01*
X111848277Y-91464713D01*
X111809572Y-91348599D01*
X111809572Y-91271189D01*
X111848277Y-91155075D01*
X111886981Y-91116370D01*
D11*
X153351833Y-89842166D02*
X153055500Y-89418833D01*
X152843833Y-89842166D02*
X152843833Y-88953166D01*
X153182500Y-88953166D01*
X153267166Y-88995500D01*
X153309500Y-89037833D01*
X153351833Y-89122500D01*
X153351833Y-89249500D01*
X153309500Y-89334166D01*
X153267166Y-89376500D01*
X153182500Y-89418833D01*
X152843833Y-89418833D01*
X154198500Y-89842166D02*
X153690500Y-89842166D01*
X153944500Y-89842166D02*
X153944500Y-88953166D01*
X153859833Y-89080166D01*
X153775166Y-89164833D01*
X153690500Y-89207166D01*
X144851833Y-83284890D02*
X144555500Y-82861557D01*
X144343833Y-83284890D02*
X144343833Y-82395890D01*
X144682500Y-82395890D01*
X144767166Y-82438224D01*
X144809500Y-82480557D01*
X144851833Y-82565224D01*
X144851833Y-82692224D01*
X144809500Y-82776890D01*
X144767166Y-82819224D01*
X144682500Y-82861557D01*
X144343833Y-82861557D01*
X145613833Y-82692224D02*
X145613833Y-83284890D01*
X145402166Y-82353557D02*
X145190500Y-82988557D01*
X145740833Y-82988557D01*
X144851833Y-96292166D02*
X144555500Y-95868833D01*
X144343833Y-96292166D02*
X144343833Y-95403166D01*
X144682500Y-95403166D01*
X144767166Y-95445500D01*
X144809500Y-95487833D01*
X144851833Y-95572500D01*
X144851833Y-95699500D01*
X144809500Y-95784166D01*
X144767166Y-95826500D01*
X144682500Y-95868833D01*
X144343833Y-95868833D01*
X145190500Y-95487833D02*
X145232833Y-95445500D01*
X145317500Y-95403166D01*
X145529166Y-95403166D01*
X145613833Y-95445500D01*
X145656166Y-95487833D01*
X145698500Y-95572500D01*
X145698500Y-95657166D01*
X145656166Y-95784166D01*
X145148166Y-96292166D01*
X145698500Y-96292166D01*
X132259166Y-77836500D02*
X131962833Y-77836500D01*
X131962833Y-78302166D02*
X131962833Y-77413166D01*
X132386166Y-77413166D01*
X132724833Y-78302166D02*
X132724833Y-77413166D01*
X133063500Y-77413166D01*
X133148166Y-77455500D01*
X133190500Y-77497833D01*
X133232833Y-77582500D01*
X133232833Y-77709500D01*
X133190500Y-77794166D01*
X133148166Y-77836500D01*
X133063500Y-77878833D01*
X132724833Y-77878833D01*
X134079500Y-78302166D02*
X133571500Y-78302166D01*
X133825500Y-78302166D02*
X133825500Y-77413166D01*
X133740833Y-77540166D01*
X133656166Y-77624833D01*
X133571500Y-77667166D01*
X137851833Y-97142166D02*
X137555500Y-96718833D01*
X137343833Y-97142166D02*
X137343833Y-96253166D01*
X137682500Y-96253166D01*
X137767166Y-96295500D01*
X137809500Y-96337833D01*
X137851833Y-96422500D01*
X137851833Y-96549500D01*
X137809500Y-96634166D01*
X137767166Y-96676500D01*
X137682500Y-96718833D01*
X137343833Y-96718833D01*
X138613833Y-96253166D02*
X138444500Y-96253166D01*
X138359833Y-96295500D01*
X138317500Y-96337833D01*
X138232833Y-96464833D01*
X138190500Y-96634166D01*
X138190500Y-96972833D01*
X138232833Y-97057500D01*
X138275166Y-97099833D01*
X138359833Y-97142166D01*
X138529166Y-97142166D01*
X138613833Y-97099833D01*
X138656166Y-97057500D01*
X138698500Y-96972833D01*
X138698500Y-96761166D01*
X138656166Y-96676500D01*
X138613833Y-96634166D01*
X138529166Y-96591833D01*
X138359833Y-96591833D01*
X138275166Y-96634166D01*
X138232833Y-96676500D01*
X138190500Y-96761166D01*
X152928500Y-84142166D02*
X152632166Y-83718833D01*
X152420500Y-84142166D02*
X152420500Y-83253166D01*
X152759166Y-83253166D01*
X152843833Y-83295500D01*
X152886166Y-83337833D01*
X152928500Y-83422500D01*
X152928500Y-83549500D01*
X152886166Y-83634166D01*
X152843833Y-83676500D01*
X152759166Y-83718833D01*
X152420500Y-83718833D01*
X153775166Y-84142166D02*
X153267166Y-84142166D01*
X153521166Y-84142166D02*
X153521166Y-83253166D01*
X153436500Y-83380166D01*
X153351833Y-83464833D01*
X153267166Y-83507166D01*
X154325500Y-83253166D02*
X154410166Y-83253166D01*
X154494833Y-83295500D01*
X154537166Y-83337833D01*
X154579500Y-83422500D01*
X154621833Y-83591833D01*
X154621833Y-83803500D01*
X154579500Y-83972833D01*
X154537166Y-84057500D01*
X154494833Y-84099833D01*
X154410166Y-84142166D01*
X154325500Y-84142166D01*
X154240833Y-84099833D01*
X154198500Y-84057500D01*
X154156166Y-83972833D01*
X154113833Y-83803500D01*
X154113833Y-83591833D01*
X154156166Y-83422500D01*
X154198500Y-83337833D01*
X154240833Y-83295500D01*
X154325500Y-83253166D01*
D10*
X158052666Y-77361942D02*
X157781733Y-77361942D01*
X157781733Y-77787695D02*
X157781733Y-76974895D01*
X158168780Y-76974895D01*
X158478419Y-77787695D02*
X158478419Y-76974895D01*
X158788057Y-76974895D01*
X158865466Y-77013600D01*
X158904171Y-77052304D01*
X158942876Y-77129714D01*
X158942876Y-77245828D01*
X158904171Y-77323238D01*
X158865466Y-77361942D01*
X158788057Y-77400647D01*
X158478419Y-77400647D01*
X159252514Y-77052304D02*
X159291219Y-77013600D01*
X159368628Y-76974895D01*
X159562152Y-76974895D01*
X159639561Y-77013600D01*
X159678266Y-77052304D01*
X159716971Y-77129714D01*
X159716971Y-77207123D01*
X159678266Y-77323238D01*
X159213809Y-77787695D01*
X159716971Y-77787695D01*
D11*
X142352833Y-83386833D02*
X142268166Y-83344500D01*
X142183500Y-83259833D01*
X142056500Y-83132833D01*
X141971833Y-83090500D01*
X141887166Y-83090500D01*
X141929500Y-83302166D02*
X141844833Y-83259833D01*
X141760166Y-83175166D01*
X141717833Y-83005833D01*
X141717833Y-82709500D01*
X141760166Y-82540166D01*
X141844833Y-82455500D01*
X141929500Y-82413166D01*
X142098833Y-82413166D01*
X142183500Y-82455500D01*
X142268166Y-82540166D01*
X142310500Y-82709500D01*
X142310500Y-83005833D01*
X142268166Y-83175166D01*
X142183500Y-83259833D01*
X142098833Y-83302166D01*
X141929500Y-83302166D01*
X142606833Y-82413166D02*
X143157166Y-82413166D01*
X142860833Y-82751833D01*
X142987833Y-82751833D01*
X143072500Y-82794166D01*
X143114833Y-82836500D01*
X143157166Y-82921166D01*
X143157166Y-83132833D01*
X143114833Y-83217500D01*
X143072500Y-83259833D01*
X142987833Y-83302166D01*
X142733833Y-83302166D01*
X142649166Y-83259833D01*
X142606833Y-83217500D01*
X137851833Y-84134890D02*
X137555500Y-83711557D01*
X137343833Y-84134890D02*
X137343833Y-83245890D01*
X137682500Y-83245890D01*
X137767166Y-83288224D01*
X137809500Y-83330557D01*
X137851833Y-83415224D01*
X137851833Y-83542224D01*
X137809500Y-83626890D01*
X137767166Y-83669224D01*
X137682500Y-83711557D01*
X137343833Y-83711557D01*
X138359833Y-83626890D02*
X138275166Y-83584557D01*
X138232833Y-83542224D01*
X138190500Y-83457557D01*
X138190500Y-83415224D01*
X138232833Y-83330557D01*
X138275166Y-83288224D01*
X138359833Y-83245890D01*
X138529166Y-83245890D01*
X138613833Y-83288224D01*
X138656166Y-83330557D01*
X138698500Y-83415224D01*
X138698500Y-83457557D01*
X138656166Y-83542224D01*
X138613833Y-83584557D01*
X138529166Y-83626890D01*
X138359833Y-83626890D01*
X138275166Y-83669224D01*
X138232833Y-83711557D01*
X138190500Y-83796224D01*
X138190500Y-83965557D01*
X138232833Y-84050224D01*
X138275166Y-84092557D01*
X138359833Y-84134890D01*
X138529166Y-84134890D01*
X138613833Y-84092557D01*
X138656166Y-84050224D01*
X138698500Y-83965557D01*
X138698500Y-83796224D01*
X138656166Y-83711557D01*
X138613833Y-83669224D01*
X138529166Y-83626890D01*
X137851833Y-90999433D02*
X137555500Y-90576100D01*
X137343833Y-90999433D02*
X137343833Y-90110433D01*
X137682500Y-90110433D01*
X137767166Y-90152767D01*
X137809500Y-90195100D01*
X137851833Y-90279767D01*
X137851833Y-90406767D01*
X137809500Y-90491433D01*
X137767166Y-90533767D01*
X137682500Y-90576100D01*
X137343833Y-90576100D01*
X138148166Y-90110433D02*
X138740833Y-90110433D01*
X138359833Y-90999433D01*
X137651833Y-70615000D02*
X137609500Y-70657333D01*
X137482500Y-70699666D01*
X137397833Y-70699666D01*
X137270833Y-70657333D01*
X137186166Y-70572666D01*
X137143833Y-70488000D01*
X137101500Y-70318666D01*
X137101500Y-70191666D01*
X137143833Y-70022333D01*
X137186166Y-69937666D01*
X137270833Y-69853000D01*
X137397833Y-69810666D01*
X137482500Y-69810666D01*
X137609500Y-69853000D01*
X137651833Y-69895333D01*
X138498500Y-70699666D02*
X137990500Y-70699666D01*
X138244500Y-70699666D02*
X138244500Y-69810666D01*
X138159833Y-69937666D01*
X138075166Y-70022333D01*
X137990500Y-70064666D01*
X142352833Y-96386833D02*
X142268166Y-96344500D01*
X142183500Y-96259833D01*
X142056500Y-96132833D01*
X141971833Y-96090500D01*
X141887166Y-96090500D01*
X141929500Y-96302166D02*
X141844833Y-96259833D01*
X141760166Y-96175166D01*
X141717833Y-96005833D01*
X141717833Y-95709500D01*
X141760166Y-95540166D01*
X141844833Y-95455500D01*
X141929500Y-95413166D01*
X142098833Y-95413166D01*
X142183500Y-95455500D01*
X142268166Y-95540166D01*
X142310500Y-95709500D01*
X142310500Y-96005833D01*
X142268166Y-96175166D01*
X142183500Y-96259833D01*
X142098833Y-96302166D01*
X141929500Y-96302166D01*
X143157166Y-96302166D02*
X142649166Y-96302166D01*
X142903166Y-96302166D02*
X142903166Y-95413166D01*
X142818500Y-95540166D01*
X142733833Y-95624833D01*
X142649166Y-95667166D01*
X142352833Y-77286833D02*
X142268166Y-77244500D01*
X142183500Y-77159833D01*
X142056500Y-77032833D01*
X141971833Y-76990500D01*
X141887166Y-76990500D01*
X141929500Y-77202166D02*
X141844833Y-77159833D01*
X141760166Y-77075166D01*
X141717833Y-76905833D01*
X141717833Y-76609500D01*
X141760166Y-76440166D01*
X141844833Y-76355500D01*
X141929500Y-76313166D01*
X142098833Y-76313166D01*
X142183500Y-76355500D01*
X142268166Y-76440166D01*
X142310500Y-76609500D01*
X142310500Y-76905833D01*
X142268166Y-77075166D01*
X142183500Y-77159833D01*
X142098833Y-77202166D01*
X141929500Y-77202166D01*
X143072500Y-76609500D02*
X143072500Y-77202166D01*
X142860833Y-76270833D02*
X142649166Y-76905833D01*
X143199500Y-76905833D01*
X144851833Y-77142166D02*
X144555500Y-76718833D01*
X144343833Y-77142166D02*
X144343833Y-76253166D01*
X144682500Y-76253166D01*
X144767166Y-76295500D01*
X144809500Y-76337833D01*
X144851833Y-76422500D01*
X144851833Y-76549500D01*
X144809500Y-76634166D01*
X144767166Y-76676500D01*
X144682500Y-76718833D01*
X144343833Y-76718833D01*
X145656166Y-76253166D02*
X145232833Y-76253166D01*
X145190500Y-76676500D01*
X145232833Y-76634166D01*
X145317500Y-76591833D01*
X145529166Y-76591833D01*
X145613833Y-76634166D01*
X145656166Y-76676500D01*
X145698500Y-76761166D01*
X145698500Y-76972833D01*
X145656166Y-77057500D01*
X145613833Y-77099833D01*
X145529166Y-77142166D01*
X145317500Y-77142166D01*
X145232833Y-77099833D01*
X145190500Y-77057500D01*
X144851833Y-90149433D02*
X144555500Y-89726100D01*
X144343833Y-90149433D02*
X144343833Y-89260433D01*
X144682500Y-89260433D01*
X144767166Y-89302767D01*
X144809500Y-89345100D01*
X144851833Y-89429767D01*
X144851833Y-89556767D01*
X144809500Y-89641433D01*
X144767166Y-89683767D01*
X144682500Y-89726100D01*
X144343833Y-89726100D01*
X145148166Y-89260433D02*
X145698500Y-89260433D01*
X145402166Y-89599100D01*
X145529166Y-89599100D01*
X145613833Y-89641433D01*
X145656166Y-89683767D01*
X145698500Y-89768433D01*
X145698500Y-89980100D01*
X145656166Y-90064767D01*
X145613833Y-90107100D01*
X145529166Y-90149433D01*
X145275166Y-90149433D01*
X145190500Y-90107100D01*
X145148166Y-90064767D01*
X136822666Y-63535666D02*
X136822666Y-64255333D01*
X136865000Y-64340000D01*
X136907333Y-64382333D01*
X136992000Y-64424666D01*
X137161333Y-64424666D01*
X137246000Y-64382333D01*
X137288333Y-64340000D01*
X137330666Y-64255333D01*
X137330666Y-63535666D01*
X138219666Y-64424666D02*
X137711666Y-64424666D01*
X137965666Y-64424666D02*
X137965666Y-63535666D01*
X137881000Y-63662666D01*
X137796333Y-63747333D01*
X137711666Y-63789666D01*
X137851833Y-77992166D02*
X137555500Y-77568833D01*
X137343833Y-77992166D02*
X137343833Y-77103166D01*
X137682500Y-77103166D01*
X137767166Y-77145500D01*
X137809500Y-77187833D01*
X137851833Y-77272500D01*
X137851833Y-77399500D01*
X137809500Y-77484166D01*
X137767166Y-77526500D01*
X137682500Y-77568833D01*
X137343833Y-77568833D01*
X138275166Y-77992166D02*
X138444500Y-77992166D01*
X138529166Y-77949833D01*
X138571500Y-77907500D01*
X138656166Y-77780500D01*
X138698500Y-77611166D01*
X138698500Y-77272500D01*
X138656166Y-77187833D01*
X138613833Y-77145500D01*
X138529166Y-77103166D01*
X138359833Y-77103166D01*
X138275166Y-77145500D01*
X138232833Y-77187833D01*
X138190500Y-77272500D01*
X138190500Y-77484166D01*
X138232833Y-77568833D01*
X138275166Y-77611166D01*
X138359833Y-77653500D01*
X138529166Y-77653500D01*
X138613833Y-77611166D01*
X138656166Y-77568833D01*
X138698500Y-77484166D01*
X142352833Y-90236833D02*
X142268166Y-90194500D01*
X142183500Y-90109833D01*
X142056500Y-89982833D01*
X141971833Y-89940500D01*
X141887166Y-89940500D01*
X141929500Y-90152166D02*
X141844833Y-90109833D01*
X141760166Y-90025166D01*
X141717833Y-89855833D01*
X141717833Y-89559500D01*
X141760166Y-89390166D01*
X141844833Y-89305500D01*
X141929500Y-89263166D01*
X142098833Y-89263166D01*
X142183500Y-89305500D01*
X142268166Y-89390166D01*
X142310500Y-89559500D01*
X142310500Y-89855833D01*
X142268166Y-90025166D01*
X142183500Y-90109833D01*
X142098833Y-90152166D01*
X141929500Y-90152166D01*
X142649166Y-89347833D02*
X142691500Y-89305500D01*
X142776166Y-89263166D01*
X142987833Y-89263166D01*
X143072500Y-89305500D01*
X143114833Y-89347833D01*
X143157166Y-89432500D01*
X143157166Y-89517166D01*
X143114833Y-89644166D01*
X142606833Y-90152166D01*
X143157166Y-90152166D01*
D12*
X125825000Y-105141666D02*
X107225000Y-105141666D01*
X125825000Y-85141666D02*
X125825000Y-94141666D01*
X107225000Y-85141666D02*
X107225000Y-105141666D01*
X107225000Y-85141666D02*
X125825000Y-85141666D01*
X125825000Y-96141666D02*
X125825000Y-105141666D01*
D13*
X153272936Y-84535000D02*
X153727064Y-84535000D01*
X153272936Y-86005000D02*
X153727064Y-86005000D01*
X145735000Y-80757288D02*
X145735000Y-80303160D01*
X144265000Y-80757288D02*
X144265000Y-80303160D01*
X144265000Y-93764564D02*
X144265000Y-93310436D01*
X145735000Y-93764564D02*
X145735000Y-93310436D01*
X131670000Y-81460000D02*
X134330000Y-81460000D01*
X134330000Y-78860000D02*
X134330000Y-80190000D01*
X133000000Y-78860000D02*
X134330000Y-78860000D01*
X131670000Y-81460000D02*
X131670000Y-89140000D01*
X131670000Y-89140000D02*
X134330000Y-89140000D01*
X134330000Y-81460000D02*
X134330000Y-89140000D01*
D12*
X125825000Y-73858333D02*
X125825000Y-82858333D01*
X107225000Y-62858333D02*
X107225000Y-82858333D01*
X125825000Y-62858333D02*
X125825000Y-71858333D01*
X107225000Y-62858333D02*
X125825000Y-62858333D01*
X125825000Y-82858333D02*
X107225000Y-82858333D01*
D13*
X138735000Y-94714564D02*
X138735000Y-94260436D01*
X137265000Y-94714564D02*
X137265000Y-94260436D01*
X153272936Y-88545000D02*
X153727064Y-88545000D01*
X153272936Y-87075000D02*
X153727064Y-87075000D01*
G36*
X148849872Y-81120070D02*
G01*
X148772410Y-81117133D01*
X148704021Y-81113153D01*
X148648106Y-81108149D01*
X148624020Y-81104986D01*
X148414680Y-81063816D01*
X148212116Y-81005798D01*
X148016544Y-80931046D01*
X147884933Y-80867201D01*
X147828181Y-80839670D01*
X147647243Y-80731781D01*
X147473946Y-80607492D01*
X147415645Y-80557951D01*
X148346747Y-80557951D01*
X148355075Y-80563370D01*
X148377905Y-80571891D01*
X148412006Y-80582604D01*
X148454147Y-80594595D01*
X148501097Y-80606951D01*
X148549626Y-80618761D01*
X148596503Y-80629111D01*
X148604409Y-80630727D01*
X148725620Y-80650716D01*
X148854360Y-80664004D01*
X148982502Y-80669961D01*
X149090877Y-80668518D01*
X149280306Y-80652080D01*
X149460152Y-80620720D01*
X149631989Y-80573871D01*
X149797393Y-80510964D01*
X149957939Y-80431431D01*
X150115202Y-80334706D01*
X150214929Y-80263461D01*
X150266229Y-80222102D01*
X150325112Y-80170125D01*
X150388227Y-80110880D01*
X150452222Y-80047717D01*
X150513743Y-79983987D01*
X150569440Y-79923041D01*
X150615959Y-79868228D01*
X150635573Y-79843042D01*
X150743923Y-79685048D01*
X150834989Y-79523634D01*
X150909347Y-79357290D01*
X150967573Y-79184505D01*
X151010244Y-79003769D01*
X151037938Y-78813573D01*
X151041129Y-78780939D01*
X151043208Y-78740809D01*
X151043746Y-78686915D01*
X151042905Y-78623599D01*
X151040850Y-78555197D01*
X151037742Y-78486049D01*
X151033746Y-78420495D01*
X151029024Y-78362872D01*
X151023739Y-78317521D01*
X151023707Y-78317303D01*
X150988629Y-78135123D01*
X150937580Y-77960162D01*
X150870094Y-77791318D01*
X150785707Y-77627492D01*
X150683952Y-77467587D01*
X150635887Y-77401280D01*
X150593670Y-77348554D01*
X150540870Y-77287963D01*
X150480998Y-77223124D01*
X150417566Y-77157658D01*
X150354087Y-77095182D01*
X150294073Y-77039315D01*
X150241035Y-76993676D01*
X150237599Y-76990897D01*
X150190967Y-76954620D01*
X150144647Y-76920816D01*
X150101026Y-76891005D01*
X150062492Y-76866703D01*
X150031433Y-76849429D01*
X150010237Y-76840702D01*
X150001855Y-76841025D01*
X149997334Y-76850082D01*
X149986264Y-76873906D01*
X149969473Y-76910647D01*
X149947791Y-76958453D01*
X149922044Y-77015474D01*
X149893060Y-77079859D01*
X149861667Y-77149756D01*
X149828694Y-77223316D01*
X149794968Y-77298685D01*
X149761318Y-77374015D01*
X149728570Y-77447454D01*
X149697553Y-77517151D01*
X149669095Y-77581254D01*
X149644024Y-77637914D01*
X149623168Y-77685279D01*
X149607354Y-77721498D01*
X149597411Y-77744720D01*
X149595024Y-77750559D01*
X149600746Y-77758959D01*
X149621599Y-77769059D01*
X149643822Y-77776385D01*
X149727751Y-77808763D01*
X149810701Y-77855811D01*
X149888308Y-77914331D01*
X149956207Y-77981130D01*
X149999508Y-78036759D01*
X150047846Y-78118611D01*
X150088146Y-78207824D01*
X150118111Y-78298512D01*
X150135446Y-78384786D01*
X150135533Y-78385484D01*
X150142267Y-78440030D01*
X150335416Y-78442483D01*
X150528565Y-78444937D01*
X150528565Y-78744575D01*
X150148194Y-78744575D01*
X150142328Y-78805939D01*
X150130197Y-78900009D01*
X150112473Y-78992263D01*
X150090637Y-79075200D01*
X150086848Y-79087141D01*
X150060935Y-79154802D01*
X150025699Y-79229934D01*
X149984234Y-79306727D01*
X149939636Y-79379373D01*
X149903957Y-79430368D01*
X149844321Y-79509827D01*
X149784171Y-79452273D01*
X149726173Y-79396497D01*
X149671443Y-79343326D01*
X149621419Y-79294202D01*
X149577542Y-79250567D01*
X149541252Y-79213861D01*
X149513986Y-79185526D01*
X149497186Y-79167002D01*
X149492202Y-79159952D01*
X149497468Y-79149836D01*
X149511556Y-79129219D01*
X149531897Y-79101775D01*
X149542382Y-79088207D01*
X149608606Y-78989912D01*
X149659162Y-78885059D01*
X149693316Y-78775685D01*
X149710332Y-78663831D01*
X149712187Y-78617303D01*
X149707240Y-78528646D01*
X149691219Y-78453959D01*
X149664248Y-78393413D01*
X149626453Y-78347179D01*
X149577958Y-78315430D01*
X149518887Y-78298336D01*
X149477866Y-78295181D01*
X149440804Y-78295888D01*
X149414262Y-78300104D01*
X149390652Y-78309702D01*
X149369838Y-78321848D01*
X149354982Y-78331487D01*
X149342779Y-78341237D01*
X149331770Y-78353564D01*
X149320496Y-78370935D01*
X149307497Y-78395813D01*
X149291315Y-78430666D01*
X149270489Y-78477959D01*
X149251476Y-78521848D01*
X149238239Y-78552432D01*
X149225061Y-78582791D01*
X149211504Y-78613906D01*
X149197135Y-78646759D01*
X149181516Y-78682328D01*
X149164212Y-78721595D01*
X149144787Y-78765539D01*
X149122806Y-78815141D01*
X149097832Y-78871382D01*
X149069431Y-78935242D01*
X149037166Y-79007701D01*
X149000601Y-79089740D01*
X148959302Y-79182339D01*
X148912831Y-79286478D01*
X148860753Y-79403138D01*
X148802634Y-79533298D01*
X148738036Y-79677941D01*
X148666524Y-79838045D01*
X148654410Y-79865165D01*
X148607337Y-79970596D01*
X148562459Y-80071201D01*
X148520323Y-80165753D01*
X148481473Y-80253021D01*
X148446457Y-80331776D01*
X148415819Y-80400790D01*
X148390106Y-80458834D01*
X148369863Y-80504679D01*
X148355636Y-80537095D01*
X148347971Y-80554853D01*
X148346747Y-80557951D01*
X147415645Y-80557951D01*
X147308509Y-80466912D01*
X147223927Y-80385678D01*
X147078803Y-80228262D01*
X146949624Y-80062606D01*
X146836599Y-79889095D01*
X146739939Y-79708113D01*
X146659850Y-79520045D01*
X146596543Y-79325276D01*
X146556774Y-79158212D01*
X146545272Y-79098888D01*
X146536066Y-79046102D01*
X146528913Y-78996666D01*
X146523567Y-78947393D01*
X146519784Y-78895095D01*
X146517322Y-78836583D01*
X146515934Y-78768671D01*
X146515379Y-78688170D01*
X146515361Y-78617303D01*
X146515478Y-78597878D01*
X146964149Y-78597878D01*
X146967420Y-78732961D01*
X146977453Y-78867040D01*
X146993993Y-78994304D01*
X147011194Y-79084857D01*
X147055517Y-79246227D01*
X147116126Y-79407155D01*
X147191355Y-79564305D01*
X147279541Y-79714346D01*
X147379018Y-79853943D01*
X147420931Y-79905326D01*
X147458900Y-79948124D01*
X147502962Y-79994537D01*
X147551366Y-80043025D01*
X147602362Y-80092048D01*
X147654201Y-80140067D01*
X147705133Y-80185542D01*
X147753407Y-80226934D01*
X147797274Y-80262704D01*
X147834984Y-80291311D01*
X147864787Y-80311217D01*
X147884933Y-80320883D01*
X147892749Y-80320391D01*
X147897844Y-80310852D01*
X147909474Y-80286564D01*
X147926813Y-80249364D01*
X147949035Y-80201090D01*
X147975314Y-80143578D01*
X148004825Y-80078667D01*
X148036741Y-80008194D01*
X148070237Y-79933995D01*
X148104487Y-79857909D01*
X148138665Y-79781773D01*
X148171944Y-79707423D01*
X148203500Y-79636699D01*
X148232505Y-79571436D01*
X148258135Y-79513472D01*
X148279563Y-79464645D01*
X148295964Y-79426792D01*
X148306511Y-79401750D01*
X148310379Y-79391357D01*
X148310383Y-79391284D01*
X148302545Y-79384295D01*
X148282920Y-79375801D01*
X148274411Y-79373039D01*
X148241586Y-79359125D01*
X148200643Y-79335865D01*
X148156485Y-79306600D01*
X148114019Y-79274672D01*
X148078151Y-79243421D01*
X148066143Y-79231203D01*
X148008528Y-79158273D01*
X147958947Y-79074831D01*
X147929658Y-79009525D01*
X147913077Y-78961312D01*
X147897927Y-78907950D01*
X147885504Y-78854964D01*
X147877104Y-78807875D01*
X147874020Y-78772231D01*
X147874020Y-78744575D01*
X147492202Y-78744575D01*
X147492202Y-78444575D01*
X147870341Y-78444575D01*
X147881004Y-78360151D01*
X147905156Y-78233133D01*
X147945598Y-78108444D01*
X147988109Y-78012757D01*
X148013446Y-77963904D01*
X148039050Y-77918635D01*
X148063198Y-77879626D01*
X148084167Y-77849549D01*
X148100232Y-77831080D01*
X148108199Y-77826450D01*
X148116306Y-77832525D01*
X148135630Y-77849597D01*
X148164358Y-77875985D01*
X148200676Y-77910005D01*
X148242770Y-77949976D01*
X148282448Y-77988060D01*
X148449967Y-78149613D01*
X148412220Y-78213150D01*
X148359599Y-78316116D01*
X148323829Y-78419015D01*
X148305128Y-78520754D01*
X148303714Y-78620240D01*
X148315434Y-78698615D01*
X148333947Y-78757700D01*
X148359500Y-78806391D01*
X148390326Y-78841820D01*
X148412804Y-78856594D01*
X148444680Y-78866840D01*
X148480625Y-78871259D01*
X148513877Y-78869643D01*
X148537671Y-78861784D01*
X148539478Y-78860484D01*
X148541888Y-78858030D01*
X148545093Y-78853532D01*
X148549426Y-78846258D01*
X148555218Y-78835479D01*
X148562799Y-78820462D01*
X148572501Y-78800477D01*
X148584655Y-78774792D01*
X148599593Y-78742677D01*
X148617646Y-78703401D01*
X148639145Y-78656232D01*
X148664421Y-78600439D01*
X148693806Y-78535292D01*
X148727631Y-78460059D01*
X148766227Y-78374009D01*
X148809926Y-78276411D01*
X148859058Y-78166535D01*
X148913955Y-78043648D01*
X148974948Y-77907021D01*
X149042369Y-77755921D01*
X149116549Y-77589618D01*
X149191367Y-77421848D01*
X149253104Y-77283222D01*
X149307616Y-77160416D01*
X149355214Y-77052699D01*
X149396209Y-76959346D01*
X149430911Y-76879627D01*
X149459631Y-76812814D01*
X149482680Y-76758180D01*
X149500368Y-76714995D01*
X149513006Y-76682533D01*
X149520904Y-76660065D01*
X149524373Y-76646862D01*
X149523930Y-76642279D01*
X149510632Y-76638130D01*
X149483390Y-76631931D01*
X149446212Y-76624530D01*
X149404330Y-76616983D01*
X149211580Y-76592057D01*
X149020149Y-76583310D01*
X148831367Y-76590495D01*
X148646561Y-76613363D01*
X148467061Y-76651665D01*
X148294194Y-76705153D01*
X148129289Y-76773578D01*
X147973674Y-76856691D01*
X147910383Y-76896595D01*
X147828378Y-76952879D01*
X147755281Y-77007882D01*
X147685944Y-77065862D01*
X147615215Y-77131074D01*
X147555838Y-77189627D01*
X147423636Y-77334110D01*
X147308726Y-77483669D01*
X147210747Y-77639029D01*
X147129339Y-77800914D01*
X147064139Y-77970051D01*
X147014787Y-78147164D01*
X146980922Y-78332979D01*
X146978910Y-78347941D01*
X146967894Y-78467601D01*
X146964149Y-78597878D01*
X146515478Y-78597878D01*
X146515975Y-78515444D01*
X146517714Y-78428349D01*
X146520926Y-78352616D01*
X146525959Y-78284844D01*
X146533162Y-78221632D01*
X146542883Y-78159577D01*
X146555469Y-78095279D01*
X146571268Y-78025336D01*
X146579364Y-77991747D01*
X146637260Y-77792944D01*
X146711954Y-77600665D01*
X146803023Y-77415603D01*
X146910042Y-77238453D01*
X147032587Y-77069909D01*
X147170235Y-76910665D01*
X147322561Y-76761415D01*
X147340366Y-76745486D01*
X147500320Y-76613537D01*
X147663905Y-76498528D01*
X147832691Y-76399724D01*
X148008250Y-76316391D01*
X148192151Y-76247795D01*
X148385968Y-76193200D01*
X148591269Y-76151873D01*
X148619474Y-76147344D01*
X148670318Y-76141354D01*
X148735853Y-76136599D01*
X148812632Y-76133083D01*
X148897207Y-76130810D01*
X148986128Y-76129783D01*
X149075948Y-76130004D01*
X149163219Y-76131478D01*
X149244493Y-76134209D01*
X149316320Y-76138198D01*
X149375254Y-76143450D01*
X149399008Y-76146581D01*
X149610316Y-76186945D01*
X149810981Y-76241924D01*
X150001611Y-76311849D01*
X150182815Y-76397053D01*
X150355201Y-76497866D01*
X150519377Y-76614622D01*
X150675951Y-76747651D01*
X150825531Y-76897287D01*
X150874747Y-76951827D01*
X151013849Y-77122293D01*
X151135585Y-77297949D01*
X151240120Y-77479155D01*
X151327619Y-77666274D01*
X151398244Y-77859667D01*
X151452161Y-78059695D01*
X151489532Y-78266720D01*
X151496609Y-78322166D01*
X151500099Y-78361230D01*
X151503128Y-78412827D01*
X151505646Y-78473570D01*
X151507603Y-78540074D01*
X151508950Y-78608953D01*
X151509639Y-78676822D01*
X151509619Y-78740295D01*
X151508841Y-78795987D01*
X151507256Y-78840511D01*
X151504814Y-78870482D01*
X151504625Y-78871848D01*
X151502063Y-78891001D01*
X151498051Y-78922563D01*
X151493303Y-78960892D01*
X151491412Y-78976393D01*
X151458377Y-79173600D01*
X151407748Y-79366893D01*
X151339798Y-79555738D01*
X151254799Y-79739596D01*
X151153022Y-79917932D01*
X151034741Y-80090210D01*
X150900227Y-80255892D01*
X150774200Y-80390267D01*
X150615762Y-80538006D01*
X150452797Y-80668410D01*
X150284326Y-80781977D01*
X150109373Y-80879204D01*
X149926960Y-80960589D01*
X149736111Y-81026627D01*
X149535847Y-81077817D01*
X149360383Y-81109594D01*
X149314663Y-81114564D01*
X149254204Y-81118341D01*
X149182406Y-81120946D01*
X149102673Y-81122400D01*
X149018405Y-81122724D01*
X148982502Y-81122394D01*
X148933004Y-81121940D01*
X148849872Y-81120070D01*
G37*
X156130000Y-89140000D02*
X161330000Y-89140000D01*
X161330000Y-81460000D02*
X161330000Y-89140000D01*
X158730000Y-78860000D02*
X158730000Y-81460000D01*
X156130000Y-78860000D02*
X158730000Y-78860000D01*
X158730000Y-81460000D02*
X161330000Y-81460000D01*
X161330000Y-78860000D02*
X161330000Y-80190000D01*
X160000000Y-78860000D02*
X161330000Y-78860000D01*
X156130000Y-78860000D02*
X156130000Y-89140000D01*
G36*
X166440835Y-75546611D02*
G01*
X166549305Y-75546949D01*
X166639568Y-75547551D01*
X166713002Y-75548450D01*
X166770987Y-75549677D01*
X166814900Y-75551264D01*
X166846121Y-75553244D01*
X166866029Y-75555648D01*
X166876001Y-75558508D01*
X166877389Y-75559609D01*
X166891142Y-75585604D01*
X166906335Y-75629068D01*
X166922175Y-75686627D01*
X166937871Y-75754903D01*
X166952630Y-75830520D01*
X166965660Y-75910101D01*
X166973908Y-75971062D01*
X166980497Y-76041100D01*
X166985351Y-76125543D01*
X166988333Y-76217892D01*
X166989307Y-76311647D01*
X166988134Y-76400309D01*
X166984678Y-76477379D01*
X166984612Y-76478360D01*
X166980183Y-76533708D01*
X166974795Y-76586258D01*
X166969156Y-76629798D01*
X166964349Y-76656568D01*
X166956066Y-76695341D01*
X166947394Y-76741660D01*
X166943030Y-76767760D01*
X166919870Y-76880607D01*
X166884730Y-77004726D01*
X166839319Y-77135504D01*
X166785342Y-77268330D01*
X166724506Y-77398592D01*
X166674699Y-77493096D01*
X166641082Y-77553063D01*
X166613125Y-77601272D01*
X166587706Y-77642337D01*
X166561702Y-77680872D01*
X166531993Y-77721490D01*
X166495454Y-77768804D01*
X166448965Y-77827428D01*
X166445499Y-77831772D01*
X166304293Y-77995129D01*
X166154194Y-78141744D01*
X165992733Y-78273600D01*
X165817446Y-78392682D01*
X165625865Y-78500972D01*
X165591660Y-78518369D01*
X165546771Y-78540539D01*
X165508628Y-78558774D01*
X165481152Y-78571241D01*
X165468260Y-78576109D01*
X165468083Y-78576121D01*
X165453825Y-78580692D01*
X165430472Y-78591732D01*
X165428190Y-78592936D01*
X165400710Y-78605211D01*
X165362723Y-78619350D01*
X165333844Y-78628758D01*
X165292859Y-78641229D01*
X165241747Y-78656841D01*
X165190419Y-78672566D01*
X165181843Y-78675200D01*
X165109634Y-78695013D01*
X165020803Y-78715468D01*
X164919637Y-78735652D01*
X164810421Y-78754650D01*
X164804459Y-78755612D01*
X164768362Y-78759418D01*
X164715479Y-78762385D01*
X164649973Y-78764512D01*
X164576008Y-78765799D01*
X164497746Y-78766245D01*
X164419351Y-78765852D01*
X164344985Y-78764619D01*
X164278813Y-78762546D01*
X164224996Y-78759634D01*
X164187699Y-78755881D01*
X164185970Y-78755612D01*
X164076446Y-78736702D01*
X163974742Y-78716558D01*
X163885147Y-78696095D01*
X163811944Y-78676224D01*
X163808586Y-78675200D01*
X163758282Y-78659778D01*
X163706394Y-78643921D01*
X163662832Y-78630654D01*
X163656585Y-78628758D01*
X163617064Y-78615594D01*
X163580936Y-78601592D01*
X163562239Y-78592936D01*
X163538509Y-78581495D01*
X163523034Y-78576168D01*
X163522346Y-78576121D01*
X163507663Y-78571238D01*
X163478200Y-78557897D01*
X163437450Y-78537916D01*
X163388905Y-78513114D01*
X163336060Y-78485312D01*
X163282408Y-78456327D01*
X163231440Y-78427978D01*
X163186652Y-78402086D01*
X163176591Y-78396066D01*
X163106392Y-78350515D01*
X163027151Y-78293806D01*
X162944137Y-78230104D01*
X162862620Y-78163572D01*
X162787870Y-78098373D01*
X162728490Y-78042029D01*
X162691667Y-78003082D01*
X162646586Y-77952324D01*
X162596787Y-77894044D01*
X162545807Y-77832535D01*
X162497186Y-77772088D01*
X162454462Y-77716992D01*
X162421172Y-77671539D01*
X162412472Y-77658805D01*
X162387956Y-77619606D01*
X162357397Y-77567308D01*
X162323679Y-77507209D01*
X162289684Y-77444606D01*
X162258298Y-77384798D01*
X162232402Y-77333083D01*
X162216740Y-77299163D01*
X162162196Y-77165332D01*
X162117556Y-77039431D01*
X162080995Y-76914947D01*
X162050684Y-76785369D01*
X162024797Y-76644184D01*
X162014687Y-76579069D01*
X162010698Y-76539248D01*
X162007653Y-76482867D01*
X162005552Y-76414308D01*
X162004395Y-76337954D01*
X162004181Y-76258189D01*
X162004912Y-76179396D01*
X162006586Y-76105959D01*
X162009206Y-76042261D01*
X162012770Y-75992685D01*
X162014661Y-75976304D01*
X162028688Y-75883436D01*
X162044153Y-75796884D01*
X162060420Y-75719347D01*
X162076850Y-75653522D01*
X162092807Y-75602110D01*
X162107654Y-75567810D01*
X162113040Y-75559609D01*
X162119917Y-75556570D01*
X162136269Y-75554003D01*
X162163481Y-75551875D01*
X162202938Y-75550153D01*
X162256023Y-75548807D01*
X162324122Y-75547802D01*
X162408620Y-75547106D01*
X162510900Y-75546688D01*
X162632348Y-75546515D01*
X162672478Y-75546506D01*
X162777564Y-75546604D01*
X162876051Y-75546888D01*
X162966001Y-75547337D01*
X163045474Y-75547934D01*
X163112531Y-75548659D01*
X163165233Y-75549493D01*
X163201641Y-75550418D01*
X163219815Y-75551414D01*
X163221546Y-75551838D01*
X163215908Y-75562658D01*
X163201488Y-75584496D01*
X163190097Y-75600584D01*
X163172064Y-75627287D01*
X163160688Y-75647613D01*
X163158648Y-75653944D01*
X163154556Y-75669513D01*
X163144577Y-75694186D01*
X163143322Y-75696923D01*
X163096017Y-75818774D01*
X163059910Y-75954859D01*
X163035878Y-76101164D01*
X163025355Y-76236764D01*
X163023430Y-76304342D01*
X163023783Y-76358432D01*
X163026897Y-76406436D01*
X163033254Y-76455754D01*
X163043339Y-76513790D01*
X163043483Y-76514560D01*
X163056100Y-76574920D01*
X163071983Y-76640253D01*
X163089653Y-76705371D01*
X163107636Y-76765088D01*
X163124457Y-76814216D01*
X163137713Y-76845758D01*
X163146033Y-76862418D01*
X163160889Y-76892218D01*
X163179473Y-76929530D01*
X163185049Y-76940728D01*
X163266995Y-77082576D01*
X163366507Y-77215875D01*
X163481070Y-77338111D01*
X163608173Y-77446773D01*
X163745301Y-77539346D01*
X163829552Y-77585231D01*
X163868520Y-77604684D01*
X163902100Y-77621543D01*
X163924389Y-77632841D01*
X163927686Y-77634544D01*
X163962546Y-77649310D01*
X164013461Y-77666357D01*
X164075827Y-77684378D01*
X164145044Y-77702064D01*
X164216508Y-77718106D01*
X164234550Y-77721779D01*
X164390215Y-77744121D01*
X164542052Y-77747705D01*
X164695601Y-77732530D01*
X164755879Y-77721779D01*
X164827180Y-77706366D01*
X164897407Y-77688975D01*
X164961959Y-77670916D01*
X165016233Y-77653495D01*
X165055627Y-77638023D01*
X165062743Y-77634544D01*
X165081000Y-77625241D01*
X165112132Y-77609582D01*
X165150234Y-77590534D01*
X165160877Y-77585231D01*
X165302725Y-77503285D01*
X165436024Y-77403773D01*
X165558260Y-77289210D01*
X165666922Y-77162107D01*
X165759495Y-77024979D01*
X165805380Y-76940728D01*
X165824513Y-76902308D01*
X165840715Y-76869800D01*
X165851179Y-76848831D01*
X165852717Y-76845758D01*
X165867143Y-76811062D01*
X165884100Y-76760974D01*
X165902111Y-76700680D01*
X165919700Y-76635368D01*
X165935391Y-76570226D01*
X165946947Y-76514560D01*
X165963543Y-76380243D01*
X165965759Y-76237631D01*
X165954237Y-76091993D01*
X165929622Y-75948601D01*
X165892556Y-75812722D01*
X165847107Y-75696923D01*
X165836690Y-75671597D01*
X165831828Y-75654116D01*
X165831781Y-75653174D01*
X165825837Y-75639552D01*
X165810484Y-75615547D01*
X165795160Y-75594482D01*
X165758539Y-75546506D01*
X166312779Y-75546506D01*
X166440835Y-75546611D01*
G37*
G36*
X164083859Y-75900206D02*
G01*
X164154487Y-75970834D01*
X163856031Y-76269824D01*
X164154487Y-76568814D01*
X164083859Y-76639442D01*
X164013231Y-76710071D01*
X163863736Y-76560842D01*
X163714241Y-76411614D01*
X163564746Y-76560842D01*
X163415251Y-76710071D01*
X163273994Y-76568814D01*
X163423222Y-76419319D01*
X163572451Y-76269824D01*
X163423222Y-76120329D01*
X163273994Y-75970834D01*
X163415251Y-75829577D01*
X163564746Y-75978806D01*
X163714241Y-76128034D01*
X163863736Y-75978806D01*
X164013231Y-75829577D01*
X164083859Y-75900206D01*
G37*
G36*
X165664055Y-75494091D02*
G01*
X164699631Y-75494091D01*
X164699631Y-74073577D01*
X165664055Y-73109323D01*
X165664055Y-75494091D01*
G37*
G36*
X164332730Y-74146963D02*
G01*
X164332730Y-75494091D01*
X163294926Y-75494091D01*
X163294926Y-73109317D01*
X164332730Y-74146963D01*
G37*
G36*
X149260317Y-70750140D02*
G01*
X149335686Y-70750353D01*
X149405444Y-70750898D01*
X149467467Y-70751732D01*
X149519629Y-70752810D01*
X149559806Y-70754091D01*
X149585875Y-70755530D01*
X149595571Y-70756958D01*
X149600905Y-70767877D01*
X149608478Y-70793302D01*
X149617412Y-70829825D01*
X149626828Y-70874039D01*
X149630115Y-70890910D01*
X149639607Y-70940771D01*
X149648597Y-70987863D01*
X149656188Y-71027507D01*
X149661487Y-71055026D01*
X149662276Y-71059091D01*
X149668537Y-71091962D01*
X149675892Y-71131566D01*
X149680078Y-71154546D01*
X149695313Y-71236646D01*
X149708311Y-71301422D01*
X149719234Y-71349574D01*
X149728243Y-71381800D01*
X149735501Y-71398801D01*
X149737139Y-71400830D01*
X149748530Y-71407147D01*
X149774247Y-71418917D01*
X149811641Y-71435077D01*
X149858062Y-71454564D01*
X149910862Y-71476313D01*
X149967392Y-71499263D01*
X150025003Y-71522350D01*
X150081044Y-71544510D01*
X150132869Y-71564679D01*
X150177826Y-71581796D01*
X150213268Y-71594795D01*
X150236545Y-71602614D01*
X150244380Y-71604440D01*
X150255505Y-71599433D01*
X150279264Y-71585436D01*
X150313396Y-71563895D01*
X150355640Y-71536256D01*
X150403735Y-71503963D01*
X150435528Y-71482221D01*
X150491421Y-71443740D01*
X150547635Y-71405051D01*
X150600663Y-71368565D01*
X150646998Y-71336696D01*
X150683135Y-71311856D01*
X150693037Y-71305054D01*
X150726944Y-71282432D01*
X150755926Y-71264317D01*
X150776392Y-71252884D01*
X150784044Y-71250001D01*
X150792737Y-71256225D01*
X150812724Y-71273942D01*
X150842506Y-71301721D01*
X150880585Y-71338129D01*
X150925465Y-71381733D01*
X150975647Y-71431102D01*
X151029633Y-71484802D01*
X151030682Y-71485850D01*
X151092119Y-71547396D01*
X151141795Y-71597477D01*
X151180879Y-71637420D01*
X151210537Y-71668549D01*
X151231936Y-71692191D01*
X151246243Y-71709672D01*
X151254626Y-71722316D01*
X151258251Y-71731449D01*
X151258286Y-71738397D01*
X151256800Y-71742668D01*
X151249318Y-71755244D01*
X151232820Y-71780705D01*
X151208676Y-71817012D01*
X151178258Y-71862126D01*
X151142934Y-71914005D01*
X151104076Y-71970611D01*
X151090069Y-71990910D01*
X151050237Y-72048912D01*
X151013462Y-72103148D01*
X150981124Y-72151530D01*
X150954600Y-72191970D01*
X150935271Y-72222381D01*
X150924516Y-72240674D01*
X150923068Y-72243733D01*
X150919696Y-72253079D01*
X150918253Y-72262068D01*
X150919709Y-72273046D01*
X150925033Y-72288359D01*
X150935194Y-72310351D01*
X150951160Y-72341369D01*
X150973902Y-72383757D01*
X151003166Y-72437619D01*
X151019059Y-72469461D01*
X151029861Y-72496297D01*
X151033751Y-72513420D01*
X151033389Y-72515746D01*
X151024003Y-72522410D01*
X150999857Y-72534951D01*
X150963045Y-72552410D01*
X150915660Y-72573830D01*
X150859798Y-72598252D01*
X150797551Y-72624719D01*
X150770568Y-72635982D01*
X150627589Y-72695285D01*
X150496502Y-72749547D01*
X150377827Y-72798554D01*
X150272083Y-72842096D01*
X150179787Y-72879960D01*
X150101457Y-72911934D01*
X150037614Y-72937805D01*
X149988774Y-72957363D01*
X149955457Y-72970395D01*
X149938181Y-72976689D01*
X149935859Y-72977273D01*
X149927452Y-72970296D01*
X149911539Y-72951558D01*
X149890814Y-72924355D01*
X149878228Y-72906819D01*
X149819206Y-72827561D01*
X149763185Y-72762850D01*
X149707319Y-72710017D01*
X149648762Y-72666392D01*
X149584670Y-72629304D01*
X149579819Y-72626842D01*
X149509714Y-72595261D01*
X149442698Y-72573785D01*
X149372790Y-72561087D01*
X149294004Y-72555844D01*
X149257834Y-72555540D01*
X149206909Y-72556143D01*
X149168540Y-72557944D01*
X149137098Y-72561775D01*
X149106953Y-72568471D01*
X149072477Y-72578863D01*
X149050188Y-72586268D01*
X148946396Y-72630312D01*
X148853092Y-72688095D01*
X148771251Y-72758109D01*
X148701850Y-72838843D01*
X148645866Y-72928788D01*
X148604275Y-73026434D01*
X148578053Y-73130271D01*
X148568176Y-73238791D01*
X148572369Y-73325000D01*
X148593267Y-73435636D01*
X148630327Y-73539065D01*
X148682516Y-73634017D01*
X148748804Y-73719222D01*
X148828161Y-73793409D01*
X148919556Y-73855309D01*
X149021957Y-73903652D01*
X149050188Y-73913820D01*
X149088250Y-73926281D01*
X149119075Y-73934771D01*
X149147992Y-73940058D01*
X149180330Y-73942906D01*
X149221419Y-73944083D01*
X149262381Y-73944333D01*
X149340074Y-73942246D01*
X149406068Y-73934715D01*
X149466386Y-73920382D01*
X149527052Y-73897890D01*
X149581052Y-73872522D01*
X149629280Y-73846150D01*
X149673337Y-73816971D01*
X149715381Y-73782859D01*
X149757568Y-73741690D01*
X149802054Y-73691340D01*
X149850996Y-73629684D01*
X149906550Y-73554599D01*
X149913319Y-73545204D01*
X149932214Y-73518920D01*
X150004261Y-73547617D01*
X150020183Y-73553990D01*
X150038857Y-73561532D01*
X150061417Y-73570712D01*
X150088997Y-73581998D01*
X150122731Y-73595858D01*
X150163753Y-73612761D01*
X150213197Y-73633175D01*
X150272198Y-73657568D01*
X150341888Y-73686409D01*
X150423403Y-73720166D01*
X150517877Y-73759308D01*
X150626443Y-73804303D01*
X150750235Y-73855618D01*
X150802371Y-73877232D01*
X150862441Y-73902538D01*
X150916879Y-73926239D01*
X150963439Y-73947296D01*
X150999871Y-73964668D01*
X151023929Y-73977313D01*
X151033362Y-73984185D01*
X151031635Y-73997957D01*
X151022507Y-74022690D01*
X151007796Y-74053671D01*
X151003166Y-74062382D01*
X150972971Y-74117962D01*
X150950486Y-74159909D01*
X150934742Y-74190568D01*
X150924768Y-74212284D01*
X150919597Y-74227404D01*
X150918260Y-74238272D01*
X150919786Y-74247235D01*
X150923065Y-74256268D01*
X150930958Y-74270865D01*
X150947680Y-74297900D01*
X150971631Y-74334920D01*
X151001208Y-74379468D01*
X151034809Y-74429091D01*
X151055415Y-74459091D01*
X151107313Y-74534287D01*
X151149796Y-74595941D01*
X151183800Y-74645462D01*
X151210262Y-74684261D01*
X151230117Y-74713745D01*
X151244303Y-74735323D01*
X151253754Y-74750404D01*
X151259409Y-74760397D01*
X151262202Y-74766710D01*
X151263071Y-74770754D01*
X151263097Y-74771578D01*
X151256872Y-74780169D01*
X151239157Y-74800050D01*
X151211389Y-74829719D01*
X151175006Y-74867678D01*
X151131446Y-74912426D01*
X151082145Y-74962464D01*
X151028858Y-75015975D01*
X150974986Y-75069513D01*
X150924902Y-75118743D01*
X150880107Y-75162229D01*
X150842105Y-75198535D01*
X150812401Y-75226223D01*
X150792497Y-75243857D01*
X150783914Y-75250001D01*
X150772394Y-75245110D01*
X150749615Y-75231886D01*
X150719162Y-75212501D01*
X150693037Y-75194947D01*
X150661465Y-75173251D01*
X150618422Y-75143652D01*
X150567416Y-75108562D01*
X150511952Y-75070393D01*
X150455537Y-75031557D01*
X150435528Y-75017780D01*
X150384938Y-74983327D01*
X150338797Y-74952630D01*
X150299366Y-74927135D01*
X150268904Y-74908287D01*
X150249674Y-74897531D01*
X150244380Y-74895561D01*
X150231808Y-74898863D01*
X150205111Y-74908132D01*
X150166938Y-74922305D01*
X150119939Y-74940318D01*
X150066762Y-74961108D01*
X150010058Y-74983611D01*
X149952473Y-75006765D01*
X149896659Y-75029505D01*
X149845263Y-75050768D01*
X149800936Y-75069492D01*
X149766325Y-75084612D01*
X149744080Y-75095065D01*
X149737139Y-75099171D01*
X149733861Y-75103105D01*
X149730543Y-75109355D01*
X149726890Y-75119334D01*
X149722604Y-75134456D01*
X149717391Y-75156135D01*
X149710953Y-75185784D01*
X149702995Y-75224817D01*
X149693220Y-75274646D01*
X149681332Y-75336685D01*
X149667035Y-75412349D01*
X149650034Y-75503049D01*
X149630031Y-75610201D01*
X149629791Y-75611485D01*
X149619970Y-75662751D01*
X149612208Y-75698829D01*
X149605613Y-75722473D01*
X149599295Y-75736437D01*
X149592362Y-75743475D01*
X149586324Y-75745839D01*
X149572939Y-75746866D01*
X149543595Y-75747672D01*
X149500520Y-75748242D01*
X149445941Y-75748562D01*
X149382086Y-75748618D01*
X149311184Y-75748395D01*
X149248859Y-75747991D01*
X148930683Y-75745455D01*
X148919989Y-75722728D01*
X148915756Y-75708366D01*
X148908841Y-75678472D01*
X148899727Y-75635417D01*
X148888898Y-75581573D01*
X148876835Y-75519313D01*
X148864021Y-75451007D01*
X148858003Y-75418182D01*
X148845036Y-75347582D01*
X148832705Y-75281647D01*
X148821481Y-75222805D01*
X148811834Y-75173485D01*
X148804237Y-75136118D01*
X148799161Y-75113133D01*
X148797831Y-75108148D01*
X148794357Y-75099525D01*
X148788477Y-75091408D01*
X148778313Y-75082806D01*
X148761987Y-75072725D01*
X148737619Y-75060173D01*
X148703331Y-75044159D01*
X148657244Y-75023688D01*
X148597479Y-74997770D01*
X148551317Y-74977922D01*
X148489434Y-74951705D01*
X148432515Y-74928253D01*
X148382825Y-74908448D01*
X148342626Y-74893169D01*
X148314183Y-74883295D01*
X148299759Y-74879707D01*
X148298888Y-74879780D01*
X148288129Y-74885688D01*
X148264243Y-74900729D01*
X148229057Y-74923689D01*
X148184400Y-74953357D01*
X148132102Y-74988517D01*
X148073989Y-75027958D01*
X148023940Y-75062191D01*
X147962404Y-75104292D01*
X147905170Y-75143198D01*
X147854076Y-75177679D01*
X147810959Y-75206505D01*
X147777655Y-75228448D01*
X147756002Y-75242278D01*
X147748282Y-75246682D01*
X147740760Y-75245102D01*
X147726965Y-75236154D01*
X147705921Y-75218949D01*
X147676654Y-75192597D01*
X147638191Y-75156207D01*
X147589558Y-75108890D01*
X147529779Y-75049756D01*
X147497220Y-75017290D01*
X147443476Y-74963309D01*
X147394041Y-74913101D01*
X147350346Y-74868166D01*
X147313828Y-74830002D01*
X147285918Y-74800108D01*
X147268053Y-74779983D01*
X147261666Y-74771126D01*
X147261665Y-74771091D01*
X147266581Y-74760112D01*
X147280116Y-74737158D01*
X147300447Y-74705142D01*
X147325752Y-74666978D01*
X147338466Y-74648298D01*
X147373479Y-74597224D01*
X147412350Y-74540449D01*
X147450393Y-74484824D01*
X147482919Y-74437197D01*
X147483487Y-74436364D01*
X147513611Y-74392300D01*
X147544502Y-74347278D01*
X147572432Y-74306719D01*
X147592822Y-74277273D01*
X147612577Y-74246016D01*
X147627229Y-74217384D01*
X147634048Y-74196829D01*
X147634232Y-74194524D01*
X147630867Y-74179112D01*
X147621361Y-74149946D01*
X147606875Y-74109882D01*
X147588572Y-74061772D01*
X147567615Y-74008471D01*
X147545166Y-73952834D01*
X147522387Y-73897715D01*
X147500442Y-73845968D01*
X147480493Y-73800448D01*
X147463702Y-73764009D01*
X147451232Y-73739506D01*
X147445242Y-73730504D01*
X147428796Y-73722211D01*
X147395561Y-73712405D01*
X147346841Y-73701425D01*
X147293494Y-73691290D01*
X147236706Y-73681089D01*
X147177649Y-73670310D01*
X147122624Y-73660114D01*
X147077933Y-73651660D01*
X147070687Y-73650261D01*
X147023510Y-73641136D01*
X146967119Y-73630277D01*
X146910167Y-73619346D01*
X146879710Y-73613519D01*
X146837994Y-73604810D01*
X146802977Y-73596106D01*
X146778476Y-73588449D01*
X146768445Y-73583136D01*
X146766747Y-73571625D01*
X146765304Y-73544463D01*
X146764115Y-73504183D01*
X146763181Y-73453315D01*
X146762501Y-73394389D01*
X146762076Y-73329936D01*
X146761904Y-73262486D01*
X146761987Y-73194570D01*
X146762323Y-73128718D01*
X146762914Y-73067462D01*
X146763759Y-73013331D01*
X146764857Y-72968856D01*
X146766209Y-72936569D01*
X146767814Y-72918998D01*
X146768467Y-72916742D01*
X146772216Y-72913083D01*
X146779816Y-72909239D01*
X146792822Y-72904881D01*
X146812786Y-72899679D01*
X146841263Y-72893304D01*
X146879807Y-72885426D01*
X146929971Y-72875715D01*
X146993308Y-72863842D01*
X147071373Y-72849477D01*
X147165720Y-72832289D01*
X147170723Y-72831381D01*
X147258460Y-72815068D01*
X147328730Y-72801149D01*
X147382078Y-72789499D01*
X147419050Y-72779997D01*
X147440191Y-72772518D01*
X147445066Y-72769432D01*
X147453368Y-72756199D01*
X147466908Y-72728805D01*
X147484520Y-72690106D01*
X147505039Y-72642958D01*
X147527300Y-72590218D01*
X147550137Y-72534742D01*
X147572386Y-72479388D01*
X147592882Y-72427011D01*
X147610459Y-72380468D01*
X147623951Y-72342615D01*
X147632195Y-72316309D01*
X147634232Y-72305679D01*
X147629008Y-72286897D01*
X147615457Y-72259123D01*
X147596300Y-72227809D01*
X147592822Y-72222728D01*
X147571153Y-72191427D01*
X147542984Y-72150514D01*
X147512042Y-72105410D01*
X147483487Y-72063637D01*
X147451120Y-72016242D01*
X147413143Y-71960711D01*
X147374243Y-71903891D01*
X147339105Y-71852634D01*
X147338466Y-71851703D01*
X147311496Y-71811700D01*
X147288667Y-71776515D01*
X147271802Y-71749061D01*
X147262724Y-71732252D01*
X147261665Y-71728910D01*
X147267893Y-71720068D01*
X147285407Y-71700315D01*
X147312448Y-71671408D01*
X147347259Y-71635107D01*
X147388082Y-71593172D01*
X147433160Y-71547362D01*
X147480735Y-71499435D01*
X147529049Y-71451152D01*
X147576344Y-71404270D01*
X147620863Y-71360550D01*
X147660849Y-71321751D01*
X147694543Y-71289631D01*
X147720188Y-71265950D01*
X147736027Y-71252467D01*
X147740161Y-71250000D01*
X147749738Y-71254977D01*
X147772515Y-71269130D01*
X147806733Y-71291299D01*
X147850631Y-71320319D01*
X147902450Y-71355028D01*
X147960428Y-71394263D01*
X148017469Y-71433201D01*
X148079789Y-71475751D01*
X148137765Y-71515016D01*
X148189595Y-71549804D01*
X148233482Y-71578919D01*
X148267625Y-71601167D01*
X148290227Y-71615354D01*
X148299221Y-71620246D01*
X148311040Y-71617766D01*
X148337256Y-71608859D01*
X148375610Y-71594403D01*
X148423843Y-71575277D01*
X148479697Y-71552361D01*
X148540914Y-71526535D01*
X148551551Y-71521979D01*
X148620743Y-71492236D01*
X148675097Y-71468633D01*
X148716493Y-71450146D01*
X148746808Y-71435749D01*
X148767920Y-71424417D01*
X148781709Y-71415125D01*
X148790053Y-71406847D01*
X148794831Y-71398559D01*
X148797920Y-71389236D01*
X148798486Y-71387208D01*
X148802336Y-71370299D01*
X148808922Y-71337971D01*
X148817767Y-71292701D01*
X148828396Y-71236966D01*
X148840335Y-71173243D01*
X148853107Y-71104011D01*
X148858817Y-71072728D01*
X148871858Y-71002557D01*
X148884485Y-70937460D01*
X148896201Y-70879785D01*
X148906508Y-70831881D01*
X148914911Y-70796097D01*
X148920911Y-70774782D01*
X148922745Y-70770455D01*
X148935410Y-70750000D01*
X149260317Y-70750140D01*
G37*
G36*
X162157678Y-86765954D02*
G01*
X162104038Y-86731848D01*
X162058551Y-86687128D01*
X162023493Y-86634068D01*
X162021161Y-86629437D01*
X161998532Y-86583471D01*
X161998532Y-86536043D01*
X162207484Y-86536043D01*
X162251072Y-86579631D01*
X164812975Y-86579631D01*
X164856563Y-86536043D01*
X164856563Y-81466722D01*
X164812975Y-81423134D01*
X162251072Y-81423134D01*
X162207484Y-81466722D01*
X162207484Y-86536043D01*
X161998532Y-86536043D01*
X161998532Y-81419295D01*
X162021161Y-81373328D01*
X162055267Y-81319688D01*
X162099987Y-81274202D01*
X162153047Y-81239144D01*
X162157678Y-81236812D01*
X162203644Y-81214183D01*
X164860403Y-81214183D01*
X164906369Y-81236812D01*
X164960009Y-81270918D01*
X165005495Y-81315638D01*
X165040554Y-81368697D01*
X165042886Y-81373328D01*
X165065515Y-81419294D01*
X165066832Y-83987067D01*
X165066944Y-84223309D01*
X165067030Y-84445749D01*
X165067088Y-84654748D01*
X165067117Y-84850671D01*
X165067117Y-85033880D01*
X165067087Y-85204738D01*
X165067025Y-85363610D01*
X165066930Y-85510857D01*
X165066802Y-85646844D01*
X165066638Y-85771932D01*
X165066440Y-85886486D01*
X165066204Y-85990869D01*
X165065930Y-86085443D01*
X165065618Y-86170572D01*
X165065266Y-86246619D01*
X165064872Y-86313948D01*
X165064437Y-86372920D01*
X165063959Y-86423901D01*
X165063437Y-86467251D01*
X165062869Y-86503336D01*
X165062256Y-86532517D01*
X165061595Y-86555159D01*
X165060886Y-86571624D01*
X165060128Y-86582275D01*
X165059396Y-86587215D01*
X165037912Y-86640515D01*
X165004375Y-86689369D01*
X164960727Y-86731508D01*
X164908912Y-86764662D01*
X164906294Y-86765968D01*
X164860403Y-86788583D01*
X162203644Y-86788583D01*
X162157678Y-86765954D01*
G37*
G36*
X162724086Y-83923462D02*
G01*
X162699227Y-83923469D01*
X162629962Y-83923410D01*
X162573356Y-83923133D01*
X162527906Y-83922481D01*
X162492104Y-83921301D01*
X162464446Y-83919437D01*
X162443425Y-83916736D01*
X162427536Y-83913043D01*
X162415274Y-83908202D01*
X162405132Y-83902061D01*
X162395605Y-83894463D01*
X162392796Y-83892014D01*
X162383584Y-83883342D01*
X162376063Y-83874177D01*
X162370060Y-83863060D01*
X162365406Y-83848533D01*
X162361930Y-83829138D01*
X162359461Y-83803417D01*
X162357828Y-83769911D01*
X162356860Y-83727163D01*
X162356685Y-83707434D01*
X162572263Y-83707434D01*
X162692416Y-83709383D01*
X162732730Y-83709826D01*
X162768410Y-83709823D01*
X162796911Y-83709403D01*
X162815690Y-83708600D01*
X162821847Y-83707771D01*
X162825279Y-83703437D01*
X162827667Y-83692383D01*
X162829106Y-83672948D01*
X162829689Y-83643470D01*
X162829511Y-83602285D01*
X162829190Y-83578327D01*
X162827255Y-83452442D01*
X162572263Y-83452442D01*
X162572263Y-83707434D01*
X162356685Y-83707434D01*
X162356387Y-83673715D01*
X162356236Y-83608108D01*
X162356229Y-83579938D01*
X162356301Y-83509373D01*
X162356633Y-83451515D01*
X162357395Y-83404907D01*
X162358757Y-83368090D01*
X162360891Y-83339608D01*
X162363968Y-83318000D01*
X162368158Y-83301811D01*
X162373632Y-83289580D01*
X162380561Y-83279851D01*
X162389117Y-83271164D01*
X162392796Y-83267863D01*
X162402414Y-83259830D01*
X162412216Y-83253294D01*
X162423708Y-83248102D01*
X162438393Y-83244098D01*
X162457775Y-83241129D01*
X162483357Y-83239040D01*
X162516644Y-83237678D01*
X162559140Y-83236889D01*
X162612347Y-83236518D01*
X162677770Y-83236411D01*
X162699759Y-83236408D01*
X162769097Y-83236466D01*
X162825773Y-83236742D01*
X162871291Y-83237391D01*
X162907153Y-83238567D01*
X162934866Y-83240424D01*
X162955931Y-83243115D01*
X162971853Y-83246796D01*
X162984135Y-83251620D01*
X162994282Y-83257741D01*
X163003798Y-83265313D01*
X163006722Y-83267863D01*
X163015909Y-83276494D01*
X163023414Y-83285586D01*
X163029402Y-83296590D01*
X163034039Y-83310956D01*
X163037491Y-83330132D01*
X163039924Y-83355571D01*
X163041504Y-83388721D01*
X163042395Y-83431033D01*
X163042766Y-83483956D01*
X163042780Y-83548941D01*
X163042714Y-83582574D01*
X163042358Y-83658594D01*
X163041653Y-83721137D01*
X163040575Y-83770891D01*
X163039104Y-83808542D01*
X163037215Y-83834776D01*
X163034887Y-83850280D01*
X163033768Y-83853767D01*
X163022185Y-83873975D01*
X163011467Y-83887996D01*
X163002787Y-83896933D01*
X162993535Y-83904230D01*
X162982253Y-83910054D01*
X162967486Y-83914570D01*
X162947775Y-83917943D01*
X162921664Y-83920339D01*
X162887697Y-83921923D01*
X162844416Y-83922862D01*
X162790364Y-83923320D01*
X162732730Y-83923443D01*
X162724086Y-83923462D01*
G37*
G36*
X164367369Y-86431634D02*
G01*
X164312138Y-86431549D01*
X164259161Y-86431039D01*
X164210487Y-86430099D01*
X164168163Y-86428721D01*
X164134237Y-86426901D01*
X164110756Y-86424633D01*
X164100776Y-86422451D01*
X164066742Y-86401015D01*
X164042555Y-86370757D01*
X164037847Y-86360961D01*
X164034874Y-86346572D01*
X164032370Y-86320092D01*
X164030334Y-86283590D01*
X164028767Y-86239134D01*
X164028237Y-86214852D01*
X164243875Y-86214852D01*
X164364028Y-86216801D01*
X164404341Y-86217244D01*
X164440021Y-86217240D01*
X164468523Y-86216821D01*
X164487302Y-86216018D01*
X164493458Y-86215189D01*
X164496891Y-86210854D01*
X164499279Y-86199801D01*
X164500718Y-86180366D01*
X164501301Y-86150888D01*
X164501123Y-86109703D01*
X164500802Y-86085745D01*
X164498867Y-85959860D01*
X164243875Y-85959860D01*
X164243875Y-86214852D01*
X164028237Y-86214852D01*
X164027668Y-86188792D01*
X164027037Y-86134632D01*
X164026875Y-86078722D01*
X164027181Y-86023130D01*
X164027956Y-85969924D01*
X164029199Y-85921173D01*
X164030911Y-85878945D01*
X164033091Y-85845307D01*
X164035739Y-85822328D01*
X164037847Y-85813751D01*
X164058828Y-85781430D01*
X164090330Y-85757272D01*
X164100776Y-85752260D01*
X164113543Y-85749879D01*
X164138437Y-85747867D01*
X164173424Y-85746223D01*
X164216467Y-85744947D01*
X164265533Y-85744040D01*
X164318586Y-85743502D01*
X164373593Y-85743333D01*
X164428518Y-85743532D01*
X164481326Y-85744100D01*
X164529983Y-85745036D01*
X164572454Y-85746341D01*
X164606705Y-85748015D01*
X164630700Y-85750057D01*
X164641966Y-85752260D01*
X164676000Y-85773697D01*
X164700187Y-85803955D01*
X164704895Y-85813751D01*
X164707555Y-85827287D01*
X164709816Y-85852892D01*
X164711675Y-85888532D01*
X164713130Y-85932175D01*
X164714181Y-85981789D01*
X164714825Y-86035343D01*
X164715060Y-86090804D01*
X164714884Y-86146139D01*
X164714297Y-86199317D01*
X164713295Y-86248306D01*
X164711877Y-86291073D01*
X164710042Y-86325586D01*
X164707787Y-86349813D01*
X164705380Y-86361185D01*
X164683272Y-86394640D01*
X164651698Y-86417856D01*
X164645120Y-86420846D01*
X164631439Y-86423565D01*
X164605679Y-86425901D01*
X164569889Y-86427849D01*
X164526115Y-86429402D01*
X164476405Y-86430555D01*
X164422807Y-86431301D01*
X164404341Y-86431412D01*
X164367369Y-86431634D01*
G37*
G36*
X163559892Y-83087657D02*
G01*
X163535033Y-83087663D01*
X163465768Y-83087604D01*
X163409162Y-83087327D01*
X163363712Y-83086675D01*
X163327910Y-83085495D01*
X163300252Y-83083631D01*
X163279231Y-83080930D01*
X163263342Y-83077237D01*
X163251080Y-83072397D01*
X163240938Y-83066255D01*
X163231411Y-83058657D01*
X163228602Y-83056208D01*
X163220781Y-83049084D01*
X163214163Y-83041824D01*
X163208647Y-83033247D01*
X163204134Y-83022173D01*
X163200522Y-83007421D01*
X163197712Y-82987808D01*
X163195603Y-82962155D01*
X163194093Y-82929280D01*
X163193084Y-82888002D01*
X163192474Y-82837139D01*
X163192163Y-82775512D01*
X163192050Y-82701939D01*
X163192035Y-82626396D01*
X163192035Y-82258940D01*
X162821037Y-82258940D01*
X162735573Y-82258919D01*
X162663101Y-82258791D01*
X162602445Y-82258456D01*
X162552430Y-82257815D01*
X162511882Y-82256770D01*
X162479625Y-82255220D01*
X162454485Y-82253067D01*
X162435286Y-82250212D01*
X162420854Y-82246555D01*
X162410014Y-82241997D01*
X162401590Y-82236440D01*
X162394408Y-82229783D01*
X162387684Y-82222372D01*
X162379643Y-82212745D01*
X162373103Y-82202931D01*
X162367908Y-82191425D01*
X162363904Y-82176722D01*
X162360937Y-82157315D01*
X162358851Y-82131699D01*
X162357492Y-82098367D01*
X162356705Y-82055816D01*
X162356616Y-82042905D01*
X162572263Y-82042905D01*
X162988338Y-82044733D01*
X163404413Y-82046560D01*
X163408069Y-82871628D01*
X163528222Y-82873577D01*
X163568524Y-82874023D01*
X163604183Y-82874027D01*
X163632655Y-82873619D01*
X163651400Y-82872829D01*
X163657533Y-82872012D01*
X163659278Y-82868990D01*
X163660780Y-82860809D01*
X163662048Y-82846639D01*
X163663095Y-82825652D01*
X163663931Y-82797017D01*
X163664567Y-82759906D01*
X163665015Y-82713490D01*
X163665286Y-82656940D01*
X163665391Y-82589426D01*
X163665342Y-82510119D01*
X163665149Y-82418190D01*
X163664876Y-82328205D01*
X163663061Y-81787914D01*
X162572263Y-81787914D01*
X162572263Y-82042905D01*
X162356616Y-82042905D01*
X162356337Y-82002538D01*
X162356232Y-81937028D01*
X162356229Y-81915941D01*
X162356301Y-81845305D01*
X162356631Y-81787378D01*
X162357389Y-81740704D01*
X162358746Y-81703828D01*
X162360872Y-81675291D01*
X162363938Y-81653639D01*
X162368113Y-81637414D01*
X162373569Y-81625160D01*
X162380474Y-81615422D01*
X162389001Y-81606742D01*
X162392796Y-81603334D01*
X162398717Y-81598127D01*
X162404519Y-81593529D01*
X162411074Y-81589502D01*
X162419252Y-81586007D01*
X162429924Y-81583008D01*
X162443961Y-81580466D01*
X162462234Y-81578344D01*
X162485613Y-81576604D01*
X162514970Y-81575207D01*
X162551176Y-81574117D01*
X162595101Y-81573295D01*
X162647615Y-81572703D01*
X162709591Y-81572304D01*
X162781898Y-81572060D01*
X162865409Y-81571933D01*
X162960992Y-81571885D01*
X163069520Y-81571879D01*
X163117130Y-81571879D01*
X163231976Y-81571875D01*
X163333514Y-81571893D01*
X163422604Y-81571975D01*
X163500104Y-81572164D01*
X163566874Y-81572503D01*
X163623771Y-81573036D01*
X163671656Y-81573805D01*
X163711386Y-81574853D01*
X163743821Y-81576224D01*
X163769820Y-81577959D01*
X163790241Y-81580103D01*
X163805943Y-81582698D01*
X163817786Y-81585787D01*
X163826627Y-81589414D01*
X163833326Y-81593621D01*
X163838742Y-81598450D01*
X163843733Y-81603946D01*
X163847640Y-81608447D01*
X163861564Y-81627791D01*
X163870660Y-81644814D01*
X163872138Y-81655327D01*
X163873472Y-81678782D01*
X163874664Y-81713968D01*
X163875714Y-81759674D01*
X163876625Y-81814688D01*
X163877397Y-81877799D01*
X163878030Y-81947794D01*
X163878527Y-82023464D01*
X163878886Y-82103597D01*
X163879111Y-82186980D01*
X163879201Y-82272404D01*
X163879158Y-82358656D01*
X163878982Y-82444525D01*
X163878675Y-82528799D01*
X163878238Y-82610268D01*
X163877670Y-82687719D01*
X163876974Y-82759942D01*
X163876151Y-82825725D01*
X163875201Y-82883857D01*
X163874125Y-82933125D01*
X163872924Y-82972320D01*
X163871599Y-83000229D01*
X163870152Y-83015642D01*
X163869574Y-83017961D01*
X163857991Y-83038169D01*
X163847273Y-83052190D01*
X163838593Y-83061127D01*
X163829341Y-83068424D01*
X163818059Y-83074248D01*
X163803292Y-83078764D01*
X163783581Y-83082137D01*
X163757470Y-83084533D01*
X163723503Y-83086118D01*
X163680222Y-83087056D01*
X163626170Y-83087514D01*
X163604183Y-83087561D01*
X163559892Y-83087657D01*
G37*
G36*
X162695757Y-86431634D02*
G01*
X162640526Y-86431549D01*
X162587549Y-86431039D01*
X162538875Y-86430099D01*
X162496551Y-86428721D01*
X162462625Y-86426901D01*
X162439144Y-86424633D01*
X162429164Y-86422451D01*
X162395130Y-86401015D01*
X162370943Y-86370757D01*
X162366235Y-86360961D01*
X162363262Y-86346572D01*
X162360758Y-86320092D01*
X162358722Y-86283590D01*
X162357155Y-86239134D01*
X162356625Y-86214852D01*
X162572263Y-86214852D01*
X162692416Y-86216801D01*
X162732730Y-86217244D01*
X162768410Y-86217240D01*
X162796911Y-86216821D01*
X162815690Y-86216018D01*
X162821847Y-86215189D01*
X162825279Y-86210854D01*
X162827667Y-86199801D01*
X162829106Y-86180366D01*
X162829689Y-86150888D01*
X162829511Y-86109703D01*
X162829190Y-86085745D01*
X162827255Y-85959860D01*
X162572263Y-85959860D01*
X162572263Y-86214852D01*
X162356625Y-86214852D01*
X162356056Y-86188792D01*
X162355425Y-86134632D01*
X162355263Y-86078722D01*
X162355570Y-86023130D01*
X162356344Y-85969924D01*
X162357587Y-85921173D01*
X162359299Y-85878945D01*
X162361479Y-85845307D01*
X162364127Y-85822328D01*
X162366235Y-85813751D01*
X162387216Y-85781430D01*
X162418718Y-85757272D01*
X162429164Y-85752260D01*
X162441931Y-85749879D01*
X162466826Y-85747867D01*
X162501812Y-85746223D01*
X162544855Y-85744947D01*
X162593921Y-85744040D01*
X162646975Y-85743502D01*
X162701981Y-85743333D01*
X162756906Y-85743532D01*
X162809714Y-85744100D01*
X162858371Y-85745036D01*
X162900842Y-85746341D01*
X162935093Y-85748015D01*
X162959088Y-85750057D01*
X162970354Y-85752260D01*
X163004388Y-85773697D01*
X163028575Y-85803955D01*
X163033283Y-85813751D01*
X163035943Y-85827287D01*
X163038204Y-85852892D01*
X163040063Y-85888532D01*
X163041518Y-85932175D01*
X163042569Y-85981789D01*
X163043213Y-86035343D01*
X163043448Y-86090804D01*
X163043272Y-86146139D01*
X163042685Y-86199317D01*
X163041683Y-86248306D01*
X163040265Y-86291073D01*
X163038430Y-86325586D01*
X163036175Y-86349813D01*
X163033768Y-86361185D01*
X163011660Y-86394640D01*
X162980087Y-86417856D01*
X162973508Y-86420846D01*
X162959827Y-86423565D01*
X162934067Y-86425901D01*
X162898277Y-86427849D01*
X162854503Y-86429402D01*
X162804793Y-86430555D01*
X162751195Y-86431301D01*
X162732730Y-86431412D01*
X162695757Y-86431634D01*
G37*
G36*
X163559892Y-84759268D02*
G01*
X163535033Y-84759275D01*
X163465768Y-84759216D01*
X163409162Y-84758939D01*
X163363712Y-84758287D01*
X163327910Y-84757107D01*
X163300252Y-84755243D01*
X163279231Y-84752542D01*
X163263342Y-84748849D01*
X163251080Y-84744008D01*
X163240938Y-84737867D01*
X163231411Y-84730269D01*
X163228602Y-84727820D01*
X163219390Y-84719148D01*
X163211868Y-84709983D01*
X163205866Y-84698866D01*
X163201212Y-84684339D01*
X163197736Y-84664944D01*
X163195267Y-84639222D01*
X163193634Y-84605717D01*
X163192666Y-84562969D01*
X163192491Y-84543240D01*
X163408069Y-84543240D01*
X163528222Y-84545189D01*
X163568536Y-84545632D01*
X163604215Y-84545629D01*
X163632717Y-84545209D01*
X163651496Y-84544406D01*
X163657652Y-84543577D01*
X163661085Y-84539243D01*
X163663473Y-84528189D01*
X163664912Y-84508754D01*
X163665495Y-84479276D01*
X163665317Y-84438091D01*
X163664996Y-84414133D01*
X163663061Y-84288248D01*
X163408069Y-84288248D01*
X163408069Y-84543240D01*
X163192491Y-84543240D01*
X163192193Y-84509521D01*
X163192042Y-84443914D01*
X163192035Y-84415744D01*
X163192107Y-84345179D01*
X163192439Y-84287321D01*
X163193201Y-84240713D01*
X163194563Y-84203896D01*
X163196697Y-84175414D01*
X163199774Y-84153806D01*
X163203964Y-84137616D01*
X163209438Y-84125386D01*
X163216367Y-84115656D01*
X163224922Y-84106970D01*
X163228602Y-84103669D01*
X163238220Y-84095636D01*
X163248022Y-84089100D01*
X163259514Y-84083907D01*
X163274199Y-84079904D01*
X163293581Y-84076935D01*
X163319163Y-84074846D01*
X163352450Y-84073484D01*
X163394946Y-84072695D01*
X163448153Y-84072324D01*
X163513576Y-84072217D01*
X163535565Y-84072214D01*
X163604903Y-84072272D01*
X163661579Y-84072548D01*
X163707096Y-84073197D01*
X163742959Y-84074373D01*
X163770671Y-84076230D01*
X163791737Y-84078921D01*
X163807659Y-84082602D01*
X163819941Y-84087426D01*
X163830088Y-84093547D01*
X163839604Y-84101119D01*
X163842528Y-84103669D01*
X163851715Y-84112300D01*
X163859220Y-84121392D01*
X163865208Y-84132396D01*
X163869845Y-84146762D01*
X163873297Y-84165938D01*
X163875730Y-84191377D01*
X163877309Y-84224527D01*
X163878201Y-84266838D01*
X163878571Y-84319762D01*
X163878586Y-84384747D01*
X163878520Y-84418380D01*
X163878164Y-84494400D01*
X163877458Y-84556943D01*
X163876381Y-84606697D01*
X163874910Y-84644348D01*
X163873021Y-84670582D01*
X163870693Y-84686086D01*
X163869574Y-84689573D01*
X163857991Y-84709781D01*
X163847273Y-84723802D01*
X163838593Y-84732739D01*
X163829341Y-84740036D01*
X163818059Y-84745860D01*
X163803292Y-84750376D01*
X163783581Y-84753749D01*
X163757470Y-84756145D01*
X163723503Y-84757729D01*
X163680222Y-84758668D01*
X163626170Y-84759126D01*
X163568536Y-84759249D01*
X163559892Y-84759268D01*
G37*
G36*
X162724086Y-83087657D02*
G01*
X162699227Y-83087663D01*
X162629962Y-83087604D01*
X162573356Y-83087327D01*
X162527906Y-83086675D01*
X162492104Y-83085495D01*
X162464446Y-83083631D01*
X162443425Y-83080930D01*
X162427536Y-83077237D01*
X162415274Y-83072397D01*
X162405132Y-83066255D01*
X162395605Y-83058657D01*
X162392796Y-83056208D01*
X162383584Y-83047536D01*
X162376063Y-83038371D01*
X162370060Y-83027254D01*
X162365406Y-83012727D01*
X162361930Y-82993332D01*
X162359461Y-82967611D01*
X162357828Y-82934105D01*
X162356860Y-82891357D01*
X162356685Y-82871628D01*
X162572263Y-82871628D01*
X162692416Y-82873577D01*
X162732730Y-82874021D01*
X162768410Y-82874017D01*
X162796911Y-82873598D01*
X162815690Y-82872794D01*
X162821847Y-82871966D01*
X162825279Y-82867631D01*
X162827667Y-82856577D01*
X162829106Y-82837142D01*
X162829689Y-82807664D01*
X162829511Y-82766479D01*
X162829190Y-82742521D01*
X162827255Y-82616636D01*
X162572263Y-82616636D01*
X162572263Y-82871628D01*
X162356685Y-82871628D01*
X162356387Y-82837909D01*
X162356236Y-82772302D01*
X162356229Y-82744132D01*
X162356301Y-82673567D01*
X162356633Y-82615709D01*
X162357395Y-82569101D01*
X162358757Y-82532285D01*
X162360891Y-82503802D01*
X162363968Y-82482194D01*
X162368158Y-82466005D01*
X162373632Y-82453774D01*
X162380561Y-82444045D01*
X162389117Y-82435358D01*
X162392796Y-82432057D01*
X162402414Y-82424024D01*
X162412216Y-82417488D01*
X162423708Y-82412296D01*
X162438393Y-82408292D01*
X162457775Y-82405323D01*
X162483357Y-82403234D01*
X162516644Y-82401872D01*
X162559140Y-82401083D01*
X162612347Y-82400712D01*
X162677770Y-82400605D01*
X162699759Y-82400602D01*
X162769097Y-82400660D01*
X162825773Y-82400936D01*
X162871291Y-82401585D01*
X162907153Y-82402761D01*
X162934866Y-82404618D01*
X162955931Y-82407310D01*
X162971853Y-82410990D01*
X162984135Y-82415814D01*
X162994282Y-82421935D01*
X163003798Y-82429508D01*
X163006722Y-82432057D01*
X163015909Y-82440688D01*
X163023414Y-82449781D01*
X163029402Y-82460784D01*
X163034039Y-82475150D01*
X163037491Y-82494327D01*
X163039924Y-82519765D01*
X163041504Y-82552915D01*
X163042395Y-82595227D01*
X163042766Y-82648150D01*
X163042780Y-82713136D01*
X163042714Y-82746768D01*
X163042358Y-82822788D01*
X163041653Y-82885331D01*
X163040575Y-82935085D01*
X163039104Y-82972736D01*
X163037215Y-82998970D01*
X163034887Y-83014474D01*
X163033768Y-83017961D01*
X163022185Y-83038169D01*
X163011467Y-83052190D01*
X163002787Y-83061127D01*
X162993535Y-83068424D01*
X162982253Y-83074248D01*
X162967486Y-83078764D01*
X162947775Y-83082137D01*
X162921664Y-83084533D01*
X162887697Y-83086118D01*
X162844416Y-83087056D01*
X162790364Y-83087514D01*
X162732730Y-83087638D01*
X162724086Y-83087657D01*
G37*
G36*
X166745874Y-83307594D02*
G01*
X166764885Y-83329523D01*
X166785616Y-83354689D01*
X166806080Y-83380512D01*
X166824290Y-83404413D01*
X166838257Y-83423814D01*
X166845994Y-83436136D01*
X166846915Y-83438706D01*
X166850572Y-83446697D01*
X166859965Y-83462283D01*
X166868164Y-83474790D01*
X166880085Y-83493520D01*
X166887795Y-83507678D01*
X166889413Y-83512422D01*
X166892380Y-83521690D01*
X166900035Y-83539163D01*
X166907514Y-83554606D01*
X166925398Y-83595571D01*
X166943405Y-83646402D01*
X166960234Y-83702874D01*
X166974585Y-83760759D01*
X166981754Y-83795973D01*
X166987738Y-83839013D01*
X166991947Y-83891105D01*
X166994360Y-83948568D01*
X166994956Y-84007720D01*
X166993712Y-84064879D01*
X166990608Y-84116365D01*
X166985621Y-84158494D01*
X166983939Y-84167836D01*
X166970993Y-84225087D01*
X166955008Y-84283186D01*
X166937316Y-84337847D01*
X166919246Y-84384787D01*
X166910767Y-84403446D01*
X166900216Y-84425362D01*
X166891208Y-84444459D01*
X166888897Y-84449486D01*
X166867201Y-84489698D01*
X166836729Y-84535339D01*
X166799914Y-84583173D01*
X166759188Y-84629967D01*
X166732180Y-84657889D01*
X166687303Y-84700629D01*
X166648053Y-84734224D01*
X166611561Y-84760867D01*
X166574960Y-84782752D01*
X166556508Y-84792211D01*
X166535562Y-84803174D01*
X166520510Y-84812402D01*
X166515189Y-84817144D01*
X166507082Y-84822103D01*
X166499670Y-84823022D01*
X166486321Y-84826468D01*
X166482069Y-84830213D01*
X166469774Y-84840316D01*
X166445743Y-84851852D01*
X166412251Y-84864176D01*
X166371576Y-84876639D01*
X166325994Y-84888595D01*
X166277780Y-84899398D01*
X166229211Y-84908400D01*
X166184645Y-84914716D01*
X166098769Y-84920679D01*
X166008581Y-84919597D01*
X165917342Y-84911911D01*
X165828311Y-84898060D01*
X165744748Y-84878482D01*
X165669913Y-84853618D01*
X165641471Y-84841522D01*
X165619919Y-84831870D01*
X165603946Y-84825177D01*
X165597556Y-84823022D01*
X165590130Y-84819381D01*
X165574946Y-84810026D01*
X165562430Y-84801773D01*
X165543939Y-84789880D01*
X165530283Y-84782168D01*
X165525908Y-84780524D01*
X165517778Y-84776508D01*
X165503007Y-84766347D01*
X165495062Y-84760304D01*
X165477732Y-84747513D01*
X165464178Y-84738875D01*
X165460775Y-84737284D01*
X165449533Y-84730215D01*
X165430939Y-84714966D01*
X165407288Y-84693734D01*
X165380872Y-84668716D01*
X165353985Y-84642106D01*
X165328920Y-84616103D01*
X165307971Y-84592901D01*
X165299890Y-84583205D01*
X165240248Y-84497717D01*
X165189849Y-84401777D01*
X165148907Y-84295846D01*
X165121204Y-84196168D01*
X165115246Y-84160659D01*
X165110889Y-84114414D01*
X165108134Y-84060773D01*
X165106981Y-84003077D01*
X165107432Y-83944666D01*
X165109489Y-83888880D01*
X165113151Y-83839058D01*
X165118421Y-83798542D01*
X165121058Y-83785348D01*
X165154936Y-83663472D01*
X165198012Y-83552147D01*
X165250235Y-83451480D01*
X165311552Y-83361577D01*
X165347658Y-83318399D01*
X165371243Y-83294190D01*
X165387642Y-83282156D01*
X165395405Y-83281180D01*
X165404738Y-83286968D01*
X165422980Y-83299371D01*
X165447609Y-83316641D01*
X165476101Y-83337027D01*
X165479876Y-83339757D01*
X165511634Y-83362525D01*
X165542739Y-83384442D01*
X165569570Y-83402979D01*
X165588145Y-83415377D01*
X165622041Y-83437164D01*
X165598108Y-83462511D01*
X165559958Y-83506899D01*
X165522589Y-83557549D01*
X165489024Y-83609954D01*
X165462286Y-83659603D01*
X165454657Y-83676541D01*
X165425349Y-83752183D01*
X165404549Y-83820929D01*
X165391417Y-83886526D01*
X165385114Y-83952721D01*
X165384254Y-83990758D01*
X165384927Y-84034402D01*
X165387510Y-84070252D01*
X165392847Y-84103418D01*
X165401782Y-84139010D01*
X165415161Y-84182139D01*
X165416626Y-84186607D01*
X165444829Y-84253106D01*
X165484571Y-84319058D01*
X165533437Y-84381471D01*
X165589012Y-84437355D01*
X165648881Y-84483720D01*
X165664542Y-84493658D01*
X165736812Y-84533124D01*
X165807581Y-84562280D01*
X165880319Y-84582055D01*
X165958497Y-84593380D01*
X166045582Y-84597187D01*
X166050643Y-84597197D01*
X166106445Y-84596405D01*
X166152662Y-84593577D01*
X166193812Y-84588029D01*
X166234413Y-84579080D01*
X166278981Y-84566048D01*
X166297974Y-84559858D01*
X166333633Y-84546407D01*
X166372478Y-84529157D01*
X166410868Y-84509980D01*
X166445161Y-84490753D01*
X166471716Y-84473349D01*
X166481603Y-84465326D01*
X166496108Y-84452161D01*
X166515400Y-84434881D01*
X166524979Y-84426369D01*
X166541139Y-84410908D01*
X166560393Y-84390825D01*
X166580309Y-84368887D01*
X166598456Y-84347863D01*
X166612401Y-84330521D01*
X166619713Y-84319630D01*
X166620255Y-84317902D01*
X166623925Y-84310019D01*
X166633205Y-84294962D01*
X166638672Y-84286792D01*
X166648626Y-84271756D01*
X166656639Y-84257782D01*
X166664461Y-84241194D01*
X166673839Y-84218315D01*
X166685140Y-84189085D01*
X166703290Y-84127622D01*
X166714713Y-84058334D01*
X166719320Y-83985335D01*
X166717019Y-83912740D01*
X166707722Y-83844662D01*
X166693831Y-83792194D01*
X166687673Y-83772293D01*
X166684251Y-83757355D01*
X166684003Y-83754626D01*
X166681019Y-83745550D01*
X166673007Y-83726819D01*
X166661381Y-83701398D01*
X166647554Y-83672249D01*
X166632939Y-83642335D01*
X166618949Y-83614622D01*
X166606995Y-83592071D01*
X166603694Y-83586189D01*
X166591437Y-83567536D01*
X166572900Y-83542375D01*
X166551260Y-83514742D01*
X166529695Y-83488678D01*
X166511383Y-83468218D01*
X166508697Y-83465462D01*
X166494938Y-83450437D01*
X166486710Y-83439182D01*
X166485677Y-83436400D01*
X166491168Y-83430266D01*
X166506301Y-83417578D01*
X166529061Y-83399837D01*
X166557435Y-83378543D01*
X166589409Y-83355196D01*
X166622969Y-83331297D01*
X166656104Y-83308344D01*
X166671709Y-83297807D01*
X166712538Y-83270516D01*
X166745874Y-83307594D01*
G37*
G36*
X162724086Y-85595074D02*
G01*
X162699227Y-85595080D01*
X162629962Y-85595022D01*
X162573356Y-85594745D01*
X162527906Y-85594093D01*
X162492104Y-85592913D01*
X162464446Y-85591049D01*
X162443425Y-85588348D01*
X162427536Y-85584654D01*
X162415274Y-85579814D01*
X162405132Y-85573673D01*
X162395605Y-85566075D01*
X162392796Y-85563625D01*
X162383584Y-85554954D01*
X162376063Y-85545789D01*
X162370060Y-85534672D01*
X162365406Y-85520145D01*
X162361930Y-85500750D01*
X162359461Y-85475028D01*
X162357828Y-85441523D01*
X162356860Y-85398775D01*
X162356685Y-85379046D01*
X162572263Y-85379046D01*
X162692416Y-85380995D01*
X162732730Y-85381438D01*
X162768410Y-85381435D01*
X162796911Y-85381015D01*
X162815690Y-85380212D01*
X162821847Y-85379383D01*
X162825279Y-85375049D01*
X162827667Y-85363995D01*
X162829106Y-85344560D01*
X162829689Y-85315082D01*
X162829511Y-85273897D01*
X162829190Y-85249939D01*
X162827255Y-85124054D01*
X162572263Y-85124054D01*
X162572263Y-85379046D01*
X162356685Y-85379046D01*
X162356387Y-85345327D01*
X162356236Y-85279720D01*
X162356229Y-85251550D01*
X162356301Y-85180984D01*
X162356633Y-85123127D01*
X162357395Y-85076519D01*
X162358757Y-85039702D01*
X162360891Y-85011220D01*
X162363968Y-84989612D01*
X162368158Y-84973422D01*
X162373632Y-84961192D01*
X162380561Y-84951462D01*
X162389117Y-84942776D01*
X162392796Y-84939475D01*
X162402414Y-84931442D01*
X162412216Y-84924906D01*
X162423708Y-84919713D01*
X162438393Y-84915710D01*
X162457775Y-84912740D01*
X162483357Y-84910652D01*
X162516644Y-84909290D01*
X162559140Y-84908501D01*
X162612347Y-84908130D01*
X162677770Y-84908023D01*
X162699759Y-84908020D01*
X162769097Y-84908078D01*
X162825773Y-84908354D01*
X162871291Y-84909003D01*
X162907153Y-84910179D01*
X162934866Y-84912036D01*
X162955931Y-84914727D01*
X162971853Y-84918408D01*
X162984135Y-84923232D01*
X162994282Y-84929353D01*
X163003798Y-84936925D01*
X163006722Y-84939475D01*
X163015909Y-84948106D01*
X163023414Y-84957198D01*
X163029402Y-84968202D01*
X163034039Y-84982567D01*
X163037491Y-85001744D01*
X163039924Y-85027183D01*
X163041504Y-85060333D01*
X163042395Y-85102644D01*
X163042766Y-85155568D01*
X163042780Y-85220553D01*
X163042714Y-85254186D01*
X163042358Y-85330205D01*
X163041653Y-85392749D01*
X163040575Y-85442503D01*
X163039104Y-85480154D01*
X163037215Y-85506388D01*
X163034887Y-85521892D01*
X163033768Y-85525379D01*
X163022185Y-85545587D01*
X163011467Y-85559608D01*
X163002787Y-85568545D01*
X162993535Y-85575842D01*
X162982253Y-85581666D01*
X162967486Y-85586182D01*
X162947775Y-85589555D01*
X162921664Y-85591951D01*
X162887697Y-85593535D01*
X162844416Y-85594474D01*
X162790364Y-85594931D01*
X162732730Y-85595055D01*
X162724086Y-85595074D01*
G37*
G36*
X162724086Y-84759268D02*
G01*
X162699227Y-84759275D01*
X162629962Y-84759216D01*
X162573356Y-84758939D01*
X162527906Y-84758287D01*
X162492104Y-84757107D01*
X162464446Y-84755243D01*
X162443425Y-84752542D01*
X162427536Y-84748849D01*
X162415274Y-84744008D01*
X162405132Y-84737867D01*
X162395605Y-84730269D01*
X162392796Y-84727820D01*
X162383584Y-84719148D01*
X162376063Y-84709983D01*
X162370060Y-84698866D01*
X162365406Y-84684339D01*
X162361930Y-84664944D01*
X162359461Y-84639222D01*
X162357828Y-84605717D01*
X162356860Y-84562969D01*
X162356685Y-84543240D01*
X162572263Y-84543240D01*
X162692416Y-84545189D01*
X162732730Y-84545632D01*
X162768410Y-84545629D01*
X162796911Y-84545209D01*
X162815690Y-84544406D01*
X162821847Y-84543577D01*
X162825279Y-84539243D01*
X162827667Y-84528189D01*
X162829106Y-84508754D01*
X162829689Y-84479276D01*
X162829511Y-84438091D01*
X162829190Y-84414133D01*
X162827255Y-84288248D01*
X162572263Y-84288248D01*
X162572263Y-84543240D01*
X162356685Y-84543240D01*
X162356387Y-84509521D01*
X162356236Y-84443914D01*
X162356229Y-84415744D01*
X162356301Y-84345179D01*
X162356633Y-84287321D01*
X162357395Y-84240713D01*
X162358757Y-84203896D01*
X162360891Y-84175414D01*
X162363968Y-84153806D01*
X162368158Y-84137616D01*
X162373632Y-84125386D01*
X162380561Y-84115656D01*
X162389117Y-84106970D01*
X162392796Y-84103669D01*
X162402414Y-84095636D01*
X162412216Y-84089100D01*
X162423708Y-84083907D01*
X162438393Y-84079904D01*
X162457775Y-84076935D01*
X162483357Y-84074846D01*
X162516644Y-84073484D01*
X162559140Y-84072695D01*
X162612347Y-84072324D01*
X162677770Y-84072217D01*
X162699759Y-84072214D01*
X162769097Y-84072272D01*
X162825773Y-84072548D01*
X162871291Y-84073197D01*
X162907153Y-84074373D01*
X162934866Y-84076230D01*
X162955931Y-84078921D01*
X162971853Y-84082602D01*
X162984135Y-84087426D01*
X162994282Y-84093547D01*
X163003798Y-84101119D01*
X163006722Y-84103669D01*
X163015909Y-84112300D01*
X163023414Y-84121392D01*
X163029402Y-84132396D01*
X163034039Y-84146762D01*
X163037491Y-84165938D01*
X163039924Y-84191377D01*
X163041504Y-84224527D01*
X163042395Y-84266838D01*
X163042766Y-84319762D01*
X163042780Y-84384747D01*
X163042714Y-84418380D01*
X163042358Y-84494400D01*
X163041653Y-84556943D01*
X163040575Y-84606697D01*
X163039104Y-84644348D01*
X163037215Y-84670582D01*
X163034887Y-84686086D01*
X163033768Y-84689573D01*
X163022185Y-84709781D01*
X163011467Y-84723802D01*
X163002787Y-84732739D01*
X162993535Y-84740036D01*
X162982253Y-84745860D01*
X162967486Y-84750376D01*
X162947775Y-84753749D01*
X162921664Y-84756145D01*
X162887697Y-84757729D01*
X162844416Y-84758668D01*
X162790364Y-84759126D01*
X162732730Y-84759249D01*
X162724086Y-84759268D01*
G37*
G36*
X164395697Y-85595074D02*
G01*
X164370839Y-85595080D01*
X164301573Y-85595022D01*
X164244968Y-85594745D01*
X164199517Y-85594093D01*
X164163716Y-85592913D01*
X164136057Y-85591049D01*
X164115037Y-85588348D01*
X164099148Y-85584654D01*
X164086885Y-85579814D01*
X164076744Y-85573673D01*
X164067217Y-85566075D01*
X164064408Y-85563625D01*
X164060262Y-85560257D01*
X164056441Y-85557375D01*
X164052931Y-85554414D01*
X164049720Y-85550810D01*
X164046793Y-85545998D01*
X164044139Y-85539414D01*
X164041744Y-85530493D01*
X164039594Y-85518670D01*
X164037677Y-85503381D01*
X164035979Y-85484060D01*
X164034487Y-85460145D01*
X164033187Y-85431068D01*
X164032068Y-85396267D01*
X164031668Y-85379046D01*
X164243875Y-85379046D01*
X164364028Y-85380995D01*
X164404328Y-85381441D01*
X164439981Y-85381447D01*
X164468447Y-85381041D01*
X164487185Y-85380255D01*
X164493312Y-85379439D01*
X164494430Y-85376795D01*
X164495450Y-85369409D01*
X164496377Y-85356760D01*
X164497212Y-85338328D01*
X164497958Y-85313590D01*
X164498619Y-85282024D01*
X164499197Y-85243111D01*
X164499695Y-85196328D01*
X164500116Y-85141154D01*
X164500461Y-85077068D01*
X164500735Y-85003547D01*
X164500940Y-84920072D01*
X164501079Y-84826120D01*
X164501154Y-84721170D01*
X164501168Y-84604700D01*
X164501124Y-84476190D01*
X164501025Y-84335118D01*
X164500874Y-84180962D01*
X164500673Y-84013201D01*
X164500655Y-83999827D01*
X164498867Y-82623720D01*
X164243875Y-82623720D01*
X164243875Y-85379046D01*
X164031668Y-85379046D01*
X164031114Y-85355176D01*
X164030313Y-85307231D01*
X164029653Y-85251867D01*
X164029119Y-85188520D01*
X164028698Y-85116624D01*
X164028378Y-85035616D01*
X164028145Y-84944930D01*
X164027986Y-84844002D01*
X164027887Y-84732267D01*
X164027836Y-84609160D01*
X164027819Y-84474118D01*
X164027823Y-84326575D01*
X164027834Y-84165966D01*
X164027840Y-84000851D01*
X164027859Y-83819447D01*
X164027916Y-83651774D01*
X164028014Y-83497397D01*
X164028155Y-83355881D01*
X164028342Y-83226790D01*
X164028577Y-83109690D01*
X164028863Y-83004145D01*
X164029202Y-82909720D01*
X164029596Y-82825980D01*
X164030048Y-82752490D01*
X164030561Y-82688815D01*
X164031135Y-82634519D01*
X164031776Y-82589168D01*
X164032483Y-82552326D01*
X164033261Y-82523558D01*
X164034110Y-82502429D01*
X164035035Y-82488504D01*
X164036037Y-82481348D01*
X164036275Y-82480620D01*
X164057712Y-82446587D01*
X164087970Y-82422399D01*
X164097766Y-82417691D01*
X164112155Y-82414719D01*
X164138635Y-82412214D01*
X164175137Y-82410179D01*
X164219593Y-82408611D01*
X164269935Y-82407512D01*
X164324095Y-82406882D01*
X164380005Y-82406720D01*
X164435597Y-82407026D01*
X164488802Y-82407801D01*
X164537553Y-82409044D01*
X164579782Y-82410755D01*
X164613420Y-82412935D01*
X164636399Y-82415584D01*
X164644976Y-82417691D01*
X164677297Y-82438673D01*
X164701455Y-82470174D01*
X164706466Y-82480620D01*
X164707465Y-82489987D01*
X164708400Y-82512714D01*
X164709273Y-82548002D01*
X164710084Y-82595051D01*
X164710832Y-82653062D01*
X164711518Y-82721234D01*
X164712143Y-82798768D01*
X164712707Y-82884863D01*
X164713210Y-82978720D01*
X164713651Y-83079540D01*
X164714033Y-83186521D01*
X164714354Y-83298865D01*
X164714616Y-83415772D01*
X164714818Y-83536441D01*
X164714960Y-83660074D01*
X164715044Y-83785869D01*
X164715069Y-83913028D01*
X164715035Y-84040750D01*
X164714944Y-84168236D01*
X164714794Y-84294686D01*
X164714587Y-84419299D01*
X164714323Y-84541277D01*
X164714002Y-84659819D01*
X164713624Y-84774126D01*
X164713189Y-84883397D01*
X164712699Y-84986832D01*
X164712152Y-85083633D01*
X164711550Y-85172999D01*
X164710893Y-85254130D01*
X164710181Y-85326227D01*
X164709414Y-85388489D01*
X164708592Y-85440117D01*
X164707717Y-85480311D01*
X164706787Y-85508272D01*
X164705804Y-85523198D01*
X164705380Y-85525379D01*
X164693797Y-85545587D01*
X164683079Y-85559608D01*
X164674399Y-85568545D01*
X164665147Y-85575842D01*
X164653865Y-85581666D01*
X164639097Y-85586182D01*
X164619387Y-85589555D01*
X164593276Y-85591951D01*
X164559309Y-85593535D01*
X164516028Y-85594474D01*
X164461976Y-85594931D01*
X164439981Y-85594978D01*
X164395697Y-85595074D01*
G37*
G36*
X163587001Y-86431301D02*
G01*
X163531563Y-86431634D01*
X163476332Y-86431549D01*
X163423355Y-86431039D01*
X163374681Y-86430099D01*
X163332357Y-86428721D01*
X163298431Y-86426901D01*
X163274950Y-86424633D01*
X163264970Y-86422451D01*
X163230936Y-86401015D01*
X163206749Y-86370757D01*
X163202041Y-86360961D01*
X163200193Y-86349472D01*
X163198511Y-86325039D01*
X163196996Y-86288885D01*
X163195648Y-86242232D01*
X163195069Y-86214852D01*
X163408069Y-86214852D01*
X163528222Y-86216801D01*
X163568524Y-86217247D01*
X163604183Y-86217250D01*
X163632655Y-86216842D01*
X163651400Y-86216053D01*
X163657533Y-86215235D01*
X163659278Y-86212214D01*
X163660780Y-86204033D01*
X163662048Y-86189863D01*
X163663095Y-86168875D01*
X163663931Y-86140241D01*
X163664567Y-86103130D01*
X163665015Y-86056714D01*
X163665286Y-86000164D01*
X163665391Y-85932650D01*
X163665342Y-85853343D01*
X163665149Y-85761414D01*
X163664876Y-85671429D01*
X163663061Y-85131137D01*
X163408069Y-85131137D01*
X163408069Y-86214852D01*
X163195069Y-86214852D01*
X163194466Y-86186301D01*
X163193451Y-86122315D01*
X163192603Y-86051495D01*
X163191921Y-85975064D01*
X163191406Y-85894243D01*
X163191057Y-85810254D01*
X163190875Y-85724319D01*
X163190860Y-85637661D01*
X163191011Y-85551501D01*
X163191329Y-85467060D01*
X163191813Y-85385562D01*
X163192464Y-85308228D01*
X163193282Y-85236279D01*
X163194266Y-85170938D01*
X163195417Y-85113427D01*
X163196735Y-85064968D01*
X163198219Y-85026783D01*
X163199869Y-85000093D01*
X163201687Y-84986120D01*
X163202041Y-84985028D01*
X163223022Y-84952707D01*
X163254524Y-84928549D01*
X163264970Y-84923538D01*
X163278428Y-84920904D01*
X163303998Y-84918723D01*
X163339631Y-84916988D01*
X163383281Y-84915693D01*
X163432899Y-84914832D01*
X163486438Y-84914400D01*
X163541851Y-84914390D01*
X163597090Y-84914796D01*
X163650107Y-84915613D01*
X163698855Y-84916835D01*
X163741286Y-84918455D01*
X163775353Y-84920469D01*
X163799008Y-84922869D01*
X163809170Y-84925109D01*
X163841491Y-84946090D01*
X163865649Y-84977592D01*
X163870660Y-84988038D01*
X163872138Y-84998551D01*
X163873472Y-85022006D01*
X163874664Y-85057192D01*
X163875714Y-85102898D01*
X163876625Y-85157912D01*
X163877397Y-85221022D01*
X163878030Y-85291018D01*
X163878527Y-85366688D01*
X163878886Y-85446820D01*
X163879111Y-85530204D01*
X163879201Y-85615628D01*
X163879158Y-85701879D01*
X163878982Y-85787748D01*
X163878675Y-85872023D01*
X163878238Y-85953491D01*
X163877670Y-86030943D01*
X163876974Y-86103166D01*
X163876151Y-86168949D01*
X163875201Y-86227080D01*
X163874125Y-86276349D01*
X163872924Y-86315544D01*
X163871599Y-86343453D01*
X163870152Y-86358865D01*
X163869574Y-86361185D01*
X163847466Y-86394640D01*
X163815893Y-86417856D01*
X163809314Y-86420846D01*
X163795633Y-86423565D01*
X163769873Y-86425901D01*
X163734083Y-86427849D01*
X163690309Y-86429402D01*
X163640599Y-86430555D01*
X163604183Y-86431062D01*
X163587001Y-86431301D01*
G37*
G36*
X163559892Y-83923462D02*
G01*
X163535033Y-83923469D01*
X163465768Y-83923410D01*
X163409162Y-83923133D01*
X163363712Y-83922481D01*
X163327910Y-83921301D01*
X163300252Y-83919437D01*
X163279231Y-83916736D01*
X163263342Y-83913043D01*
X163251080Y-83908202D01*
X163240938Y-83902061D01*
X163231411Y-83894463D01*
X163228602Y-83892014D01*
X163219390Y-83883342D01*
X163211868Y-83874177D01*
X163205866Y-83863060D01*
X163201212Y-83848533D01*
X163197736Y-83829138D01*
X163195267Y-83803417D01*
X163193634Y-83769911D01*
X163192666Y-83727163D01*
X163192491Y-83707434D01*
X163408069Y-83707434D01*
X163528222Y-83709383D01*
X163568536Y-83709826D01*
X163604215Y-83709823D01*
X163632717Y-83709403D01*
X163651496Y-83708600D01*
X163657652Y-83707771D01*
X163661085Y-83703437D01*
X163663473Y-83692383D01*
X163664912Y-83672948D01*
X163665495Y-83643470D01*
X163665317Y-83602285D01*
X163664996Y-83578327D01*
X163663061Y-83452442D01*
X163408069Y-83452442D01*
X163408069Y-83707434D01*
X163192491Y-83707434D01*
X163192193Y-83673715D01*
X163192042Y-83608108D01*
X163192035Y-83579938D01*
X163192107Y-83509373D01*
X163192439Y-83451515D01*
X163193201Y-83404907D01*
X163194563Y-83368090D01*
X163196697Y-83339608D01*
X163199774Y-83318000D01*
X163203964Y-83301811D01*
X163209438Y-83289580D01*
X163216367Y-83279851D01*
X163224922Y-83271164D01*
X163228602Y-83267863D01*
X163238220Y-83259830D01*
X163248022Y-83253294D01*
X163259514Y-83248102D01*
X163274199Y-83244098D01*
X163293581Y-83241129D01*
X163319163Y-83239040D01*
X163352450Y-83237678D01*
X163394946Y-83236889D01*
X163448153Y-83236518D01*
X163513576Y-83236411D01*
X163535565Y-83236408D01*
X163604903Y-83236466D01*
X163661579Y-83236742D01*
X163707096Y-83237391D01*
X163742959Y-83238567D01*
X163770671Y-83240424D01*
X163791737Y-83243115D01*
X163807659Y-83246796D01*
X163819941Y-83251620D01*
X163830088Y-83257741D01*
X163839604Y-83265313D01*
X163842528Y-83267863D01*
X163851715Y-83276494D01*
X163859220Y-83285586D01*
X163865208Y-83296590D01*
X163869845Y-83310956D01*
X163873297Y-83330132D01*
X163875730Y-83355571D01*
X163877309Y-83388721D01*
X163878201Y-83431033D01*
X163878571Y-83483956D01*
X163878586Y-83548941D01*
X163878520Y-83582574D01*
X163878164Y-83658594D01*
X163877458Y-83721137D01*
X163876381Y-83770891D01*
X163874910Y-83808542D01*
X163873021Y-83834776D01*
X163870693Y-83850280D01*
X163869574Y-83853767D01*
X163857991Y-83873975D01*
X163847273Y-83887996D01*
X163838593Y-83896933D01*
X163829341Y-83904230D01*
X163818059Y-83910054D01*
X163803292Y-83914570D01*
X163783581Y-83917943D01*
X163757470Y-83920339D01*
X163723503Y-83921923D01*
X163680222Y-83922862D01*
X163626170Y-83923320D01*
X163568536Y-83923443D01*
X163559892Y-83923462D01*
G37*
G36*
X165132804Y-86346527D02*
G01*
X165132821Y-86310156D01*
X165366600Y-86310156D01*
X165367003Y-86350657D01*
X165367830Y-86383944D01*
X165369100Y-86407709D01*
X165370831Y-86419642D01*
X165370846Y-86419682D01*
X165373207Y-86422584D01*
X165378723Y-86424944D01*
X165388711Y-86426817D01*
X165404491Y-86428258D01*
X165427382Y-86429320D01*
X165458702Y-86430060D01*
X165499771Y-86430530D01*
X165551907Y-86430785D01*
X165616430Y-86430881D01*
X165642129Y-86430886D01*
X165715053Y-86430774D01*
X165774885Y-86430413D01*
X165822699Y-86429770D01*
X165859566Y-86428810D01*
X165886559Y-86427498D01*
X165904752Y-86425801D01*
X165915216Y-86423684D01*
X165918418Y-86422032D01*
X165921300Y-86416567D01*
X165923388Y-86405455D01*
X165924722Y-86387219D01*
X165925341Y-86360386D01*
X165925287Y-86323482D01*
X165924598Y-86275030D01*
X165924583Y-86274285D01*
X166161018Y-86274285D01*
X166161446Y-86319985D01*
X166162547Y-86359853D01*
X166164302Y-86391711D01*
X166166695Y-86413383D01*
X166169126Y-86422032D01*
X166173853Y-86424412D01*
X166185376Y-86426359D01*
X166204769Y-86427908D01*
X166233107Y-86429093D01*
X166271465Y-86429949D01*
X166320915Y-86430510D01*
X166382534Y-86430810D01*
X166445957Y-86430886D01*
X166506589Y-86430767D01*
X166562740Y-86430427D01*
X166612841Y-86429893D01*
X166655324Y-86429191D01*
X166688620Y-86428349D01*
X166711160Y-86427394D01*
X166721377Y-86426353D01*
X166721780Y-86426164D01*
X166722892Y-86418208D01*
X166723904Y-86397753D01*
X166724785Y-86366465D01*
X166725504Y-86326012D01*
X166726030Y-86278061D01*
X166726331Y-86224278D01*
X166726391Y-86180027D01*
X166726278Y-86112855D01*
X166725953Y-86058013D01*
X166725331Y-86013662D01*
X166724330Y-85977966D01*
X166722865Y-85949087D01*
X166720854Y-85925189D01*
X166718213Y-85904434D01*
X166714858Y-85884986D01*
X166712455Y-85873116D01*
X166695255Y-85809182D01*
X166672783Y-85757362D01*
X166644119Y-85716288D01*
X166608343Y-85684593D01*
X166571875Y-85664105D01*
X166555101Y-85657511D01*
X166537086Y-85653095D01*
X166514450Y-85650429D01*
X166483815Y-85649084D01*
X166450261Y-85648664D01*
X166411541Y-85648770D01*
X166383924Y-85649801D01*
X166364358Y-85652125D01*
X166349794Y-85656107D01*
X166337177Y-85662112D01*
X166336931Y-85662251D01*
X166295346Y-85691341D01*
X166260175Y-85728323D01*
X166231038Y-85774122D01*
X166207554Y-85829664D01*
X166189341Y-85895874D01*
X166176020Y-85973679D01*
X166167209Y-86064005D01*
X166166375Y-86076713D01*
X166163941Y-86123967D01*
X166162248Y-86174099D01*
X166161280Y-86224931D01*
X166161018Y-86274285D01*
X165924583Y-86274285D01*
X165923663Y-86229018D01*
X165922192Y-86169367D01*
X165920589Y-86121657D01*
X165918681Y-86083663D01*
X165916295Y-86053159D01*
X165913257Y-86027922D01*
X165909393Y-86005725D01*
X165904607Y-85984651D01*
X165883623Y-85917493D01*
X165856539Y-85858443D01*
X165824308Y-85808943D01*
X165787882Y-85770432D01*
X165748211Y-85744352D01*
X165744745Y-85742765D01*
X165696433Y-85727981D01*
X165643062Y-85724595D01*
X165584025Y-85732227D01*
X165545923Y-85741131D01*
X165517509Y-85750936D01*
X165494366Y-85763842D01*
X165472076Y-85782051D01*
X165459402Y-85794299D01*
X165431496Y-85827029D01*
X165409865Y-85864143D01*
X165393578Y-85908092D01*
X165381703Y-85961324D01*
X165374081Y-86018574D01*
X165372038Y-86044933D01*
X165370290Y-86080238D01*
X165368853Y-86122181D01*
X165367747Y-86168453D01*
X165366990Y-86216745D01*
X165366601Y-86264749D01*
X165366600Y-86310156D01*
X165132821Y-86310156D01*
X165132843Y-86260585D01*
X165132985Y-86187417D01*
X165133272Y-86125629D01*
X165133744Y-86073829D01*
X165134441Y-86030624D01*
X165135403Y-85994621D01*
X165136670Y-85964428D01*
X165138284Y-85938651D01*
X165140283Y-85915897D01*
X165142709Y-85894775D01*
X165145602Y-85873891D01*
X165146692Y-85866647D01*
X165160486Y-85788201D01*
X165176474Y-85721697D01*
X165195567Y-85664967D01*
X165218673Y-85615846D01*
X165246704Y-85572167D01*
X165280569Y-85531763D01*
X165292546Y-85519412D01*
X165338595Y-85482489D01*
X165394483Y-85452411D01*
X165457409Y-85429625D01*
X165524572Y-85414579D01*
X165593173Y-85407720D01*
X165660410Y-85409495D01*
X165723483Y-85420352D01*
X165779592Y-85440739D01*
X165780908Y-85441388D01*
X165827087Y-85468468D01*
X165867757Y-85501783D01*
X165904364Y-85543091D01*
X165938354Y-85594148D01*
X165971171Y-85656712D01*
X165987385Y-85692384D01*
X165996505Y-85709693D01*
X166004702Y-85719376D01*
X166007567Y-85720190D01*
X166013634Y-85712524D01*
X166020070Y-85696121D01*
X166021733Y-85690176D01*
X166027285Y-85670738D01*
X166032244Y-85657125D01*
X166033199Y-85655287D01*
X166037259Y-85644074D01*
X166041638Y-85625539D01*
X166042373Y-85621642D01*
X166046845Y-85604612D01*
X166051952Y-85595539D01*
X166053140Y-85595080D01*
X166058323Y-85588915D01*
X166063070Y-85573848D01*
X166063514Y-85571625D01*
X166071148Y-85550266D01*
X166086267Y-85521938D01*
X166106632Y-85489974D01*
X166130002Y-85457705D01*
X166154137Y-85428465D01*
X166172484Y-85409500D01*
X166213545Y-85376932D01*
X166261970Y-85350017D01*
X166315682Y-85328673D01*
X166333874Y-85323313D01*
X166353977Y-85319559D01*
X166378863Y-85317162D01*
X166411404Y-85315871D01*
X166454470Y-85315438D01*
X166467969Y-85315435D01*
X166527576Y-85316587D01*
X166576411Y-85320349D01*
X166617742Y-85327420D01*
X166654833Y-85338500D01*
X166690950Y-85354289D01*
X166718322Y-85369042D01*
X166741552Y-85384524D01*
X166768801Y-85405935D01*
X166796734Y-85430274D01*
X166822017Y-85454542D01*
X166841313Y-85475737D01*
X166849352Y-85486930D01*
X166880127Y-85543091D01*
X166904467Y-85595842D01*
X166923650Y-85649024D01*
X166938950Y-85706480D01*
X166951646Y-85772051D01*
X166958224Y-85814657D01*
X166960676Y-85834988D01*
X166962824Y-85860339D01*
X166964699Y-85891793D01*
X166966331Y-85930438D01*
X166967751Y-85977358D01*
X166968990Y-86033640D01*
X166970078Y-86100369D01*
X166971047Y-86178631D01*
X166971926Y-86269512D01*
X166972280Y-86312244D01*
X166975644Y-86735460D01*
X165132804Y-86735460D01*
X165132804Y-86346527D01*
G37*
G36*
X164395697Y-82251851D02*
G01*
X164370839Y-82251857D01*
X164301573Y-82251799D01*
X164244968Y-82251521D01*
X164199517Y-82250869D01*
X164163716Y-82249689D01*
X164136057Y-82247825D01*
X164115037Y-82245124D01*
X164099148Y-82241431D01*
X164086885Y-82236591D01*
X164076744Y-82230449D01*
X164067217Y-82222851D01*
X164064408Y-82220402D01*
X164055196Y-82211730D01*
X164047674Y-82202565D01*
X164041672Y-82191448D01*
X164037018Y-82176921D01*
X164033542Y-82157526D01*
X164031073Y-82131805D01*
X164029440Y-82098299D01*
X164028472Y-82055551D01*
X164028297Y-82035822D01*
X164243875Y-82035822D01*
X164364028Y-82037771D01*
X164404341Y-82038215D01*
X164440021Y-82038211D01*
X164468523Y-82037792D01*
X164487302Y-82036989D01*
X164493458Y-82036160D01*
X164496891Y-82031825D01*
X164499279Y-82020771D01*
X164500718Y-82001337D01*
X164501301Y-81971858D01*
X164501123Y-81930673D01*
X164500802Y-81906715D01*
X164498867Y-81780831D01*
X164243875Y-81780831D01*
X164243875Y-82035822D01*
X164028297Y-82035822D01*
X164027998Y-82002103D01*
X164027848Y-81936496D01*
X164027840Y-81908326D01*
X164027913Y-81837761D01*
X164028245Y-81779903D01*
X164029006Y-81733295D01*
X164030369Y-81696479D01*
X164032503Y-81667996D01*
X164035580Y-81646389D01*
X164039770Y-81630199D01*
X164045244Y-81617968D01*
X164052173Y-81608239D01*
X164060728Y-81599552D01*
X164064408Y-81596251D01*
X164074026Y-81588218D01*
X164083828Y-81581682D01*
X164095320Y-81576490D01*
X164110005Y-81572486D01*
X164129387Y-81569517D01*
X164154969Y-81567428D01*
X164188256Y-81566067D01*
X164230752Y-81565277D01*
X164283959Y-81564906D01*
X164349382Y-81564800D01*
X164371371Y-81564796D01*
X164440709Y-81564854D01*
X164497385Y-81565130D01*
X164542902Y-81565779D01*
X164578765Y-81566955D01*
X164606477Y-81568812D01*
X164627542Y-81571504D01*
X164643464Y-81575184D01*
X164655747Y-81580008D01*
X164665894Y-81586129D01*
X164675409Y-81593702D01*
X164678333Y-81596251D01*
X164687521Y-81604882D01*
X164695026Y-81613975D01*
X164701014Y-81624979D01*
X164705651Y-81639344D01*
X164709103Y-81658521D01*
X164711536Y-81683959D01*
X164713115Y-81717109D01*
X164714007Y-81759421D01*
X164714377Y-81812344D01*
X164714392Y-81877330D01*
X164714326Y-81910962D01*
X164713970Y-81986982D01*
X164713264Y-82049525D01*
X164712187Y-82099279D01*
X164710716Y-82136930D01*
X164708827Y-82163165D01*
X164706498Y-82178668D01*
X164705380Y-82182155D01*
X164693797Y-82202363D01*
X164683079Y-82216385D01*
X164674399Y-82225321D01*
X164665147Y-82232618D01*
X164653865Y-82238442D01*
X164639097Y-82242958D01*
X164619387Y-82246331D01*
X164593276Y-82248727D01*
X164559309Y-82250312D01*
X164516028Y-82251250D01*
X164461976Y-82251708D01*
X164404341Y-82251832D01*
X164395697Y-82251851D01*
G37*
G36*
X165132804Y-82483931D02*
G01*
X165132899Y-82395061D01*
X165133203Y-82319073D01*
X165133532Y-82280238D01*
X165375568Y-82280238D01*
X165377189Y-82392327D01*
X165377799Y-82408865D01*
X165382785Y-82535181D01*
X166728138Y-82535181D01*
X166724621Y-82320917D01*
X166723409Y-82262823D01*
X166721777Y-82208150D01*
X166719822Y-82158996D01*
X166717643Y-82117462D01*
X166715336Y-82085645D01*
X166712999Y-82065646D01*
X166712724Y-82064155D01*
X166706144Y-82034133D01*
X166698462Y-82003742D01*
X166694174Y-81988831D01*
X166688170Y-81967923D01*
X166684518Y-81952255D01*
X166684003Y-81948122D01*
X166680416Y-81934289D01*
X166670780Y-81911789D01*
X166656782Y-81883822D01*
X166640111Y-81853589D01*
X166622453Y-81824289D01*
X166605498Y-81799123D01*
X166605221Y-81798743D01*
X166560763Y-81746846D01*
X166508368Y-81702709D01*
X166446699Y-81665541D01*
X166374418Y-81634550D01*
X166290191Y-81608947D01*
X166280267Y-81606457D01*
X166243999Y-81599730D01*
X166197117Y-81594317D01*
X166143127Y-81590360D01*
X166085532Y-81588002D01*
X166027836Y-81587387D01*
X165973544Y-81588657D01*
X165926160Y-81591955D01*
X165925679Y-81592004D01*
X165826241Y-81607643D01*
X165736913Y-81633148D01*
X165657513Y-81668650D01*
X165587861Y-81714279D01*
X165527776Y-81770164D01*
X165477078Y-81836437D01*
X165435587Y-81913226D01*
X165417386Y-81957908D01*
X165399729Y-82019095D01*
X165386860Y-82093376D01*
X165378799Y-82180505D01*
X165375568Y-82280238D01*
X165133532Y-82280238D01*
X165133749Y-82254684D01*
X165134566Y-82200613D01*
X165135685Y-82155577D01*
X165137137Y-82118293D01*
X165138954Y-82087478D01*
X165141165Y-82061851D01*
X165143403Y-82043008D01*
X165164612Y-81923590D01*
X165194381Y-81813784D01*
X165232490Y-81714033D01*
X165278720Y-81624782D01*
X165332853Y-81546473D01*
X165394668Y-81479551D01*
X165440905Y-81440830D01*
X165502701Y-81397954D01*
X165564727Y-81362482D01*
X165629361Y-81333591D01*
X165698978Y-81310463D01*
X165775956Y-81292276D01*
X165862671Y-81278209D01*
X165936170Y-81269806D01*
X165982643Y-81265404D01*
X166019205Y-81262553D01*
X166050027Y-81261257D01*
X166079282Y-81261521D01*
X166111139Y-81263346D01*
X166149770Y-81266737D01*
X166182736Y-81270009D01*
X166238843Y-81276054D01*
X166284814Y-81282014D01*
X166324658Y-81288603D01*
X166362382Y-81296539D01*
X166401995Y-81306537D01*
X166429012Y-81314015D01*
X166484985Y-81333108D01*
X166545273Y-81359164D01*
X166603908Y-81389399D01*
X166647136Y-81415735D01*
X166668398Y-81431690D01*
X166694680Y-81454029D01*
X166723286Y-81480149D01*
X166751519Y-81507449D01*
X166776682Y-81533328D01*
X166796079Y-81555185D01*
X166806489Y-81569462D01*
X166814527Y-81583159D01*
X166827135Y-81604207D01*
X166840549Y-81626345D01*
X166878781Y-81700144D01*
X166910635Y-81785695D01*
X166936214Y-81883337D01*
X166955622Y-81993407D01*
X166957544Y-82007490D01*
X166960313Y-82031826D01*
X166962716Y-82060899D01*
X166964791Y-82095933D01*
X166966578Y-82138152D01*
X166968115Y-82188780D01*
X166969443Y-82249041D01*
X166970598Y-82320161D01*
X166971622Y-82403362D01*
X166972283Y-82469662D01*
X166975757Y-82846837D01*
X165132804Y-82846837D01*
X165132804Y-82483931D01*
G37*
X141500000Y-79007724D02*
X142150000Y-79007724D01*
X141500000Y-79007724D02*
X140850000Y-79007724D01*
X141500000Y-82127724D02*
X140850000Y-82127724D01*
X141500000Y-82127724D02*
X143175000Y-82127724D01*
X137265000Y-81707288D02*
X137265000Y-81253160D01*
X138735000Y-81707288D02*
X138735000Y-81253160D01*
X138735000Y-88571831D02*
X138735000Y-88117703D01*
X137265000Y-88571831D02*
X137265000Y-88117703D01*
G36*
X148914040Y-91873072D02*
G01*
X148831175Y-91870358D01*
X148753987Y-91866549D01*
X148686283Y-91861723D01*
X148631866Y-91855957D01*
X148619474Y-91854175D01*
X148410658Y-91812752D01*
X148208426Y-91754417D01*
X148013049Y-91679310D01*
X147824799Y-91587572D01*
X147643946Y-91479342D01*
X147470761Y-91354760D01*
X147305517Y-91213965D01*
X147223927Y-91135500D01*
X147078803Y-90978084D01*
X146949624Y-90812428D01*
X146836599Y-90638917D01*
X146739939Y-90457935D01*
X146659850Y-90269867D01*
X146596543Y-90075098D01*
X146556774Y-89908034D01*
X146545272Y-89848710D01*
X146536066Y-89795924D01*
X146528913Y-89746488D01*
X146523567Y-89697215D01*
X146519784Y-89644917D01*
X146517322Y-89586405D01*
X146515934Y-89518493D01*
X146515379Y-89437992D01*
X146515361Y-89367125D01*
X146515373Y-89365106D01*
X146966990Y-89365106D01*
X146974002Y-89549189D01*
X146996245Y-89731076D01*
X147033813Y-89908205D01*
X147042687Y-89941094D01*
X147100157Y-90114051D01*
X147173901Y-90279542D01*
X147264143Y-90437954D01*
X147371109Y-90589673D01*
X147495022Y-90735086D01*
X147520975Y-90762528D01*
X147668066Y-90903535D01*
X147822083Y-91027761D01*
X147982987Y-91135186D01*
X148150739Y-91225789D01*
X148325300Y-91299550D01*
X148506631Y-91356447D01*
X148694695Y-91396461D01*
X148719474Y-91400397D01*
X148788675Y-91408408D01*
X148870780Y-91413781D01*
X148960702Y-91416516D01*
X149053357Y-91416614D01*
X149143657Y-91414074D01*
X149226517Y-91408895D01*
X149296851Y-91401078D01*
X149301293Y-91400414D01*
X149485792Y-91364256D01*
X149661099Y-91313262D01*
X149828274Y-91246900D01*
X149988379Y-91164637D01*
X150142473Y-91065942D01*
X150291619Y-90950281D01*
X150408875Y-90844420D01*
X150547166Y-90700308D01*
X150668425Y-90549977D01*
X150772820Y-90393105D01*
X150860520Y-90229366D01*
X150931692Y-90058437D01*
X150986505Y-89879993D01*
X151025127Y-89693711D01*
X151032819Y-89641896D01*
X151038943Y-89581498D01*
X151043083Y-89507963D01*
X151045239Y-89426229D01*
X151045411Y-89341231D01*
X151043600Y-89257907D01*
X151039805Y-89181192D01*
X151034027Y-89116024D01*
X151032818Y-89106227D01*
X150999991Y-88920349D01*
X150950558Y-88741068D01*
X150884364Y-88568082D01*
X150801255Y-88401088D01*
X150701079Y-88239783D01*
X150583680Y-88083864D01*
X150448905Y-87933027D01*
X150424020Y-87907633D01*
X150310965Y-87800644D01*
X150198089Y-87708367D01*
X150081305Y-87627844D01*
X149956523Y-87556114D01*
X149896747Y-87525952D01*
X149732698Y-87456236D01*
X149560974Y-87401973D01*
X149383458Y-87363148D01*
X149202031Y-87339748D01*
X149018576Y-87331757D01*
X148834976Y-87339163D01*
X148653113Y-87361951D01*
X148474869Y-87400106D01*
X148302128Y-87453614D01*
X148136770Y-87522461D01*
X148101842Y-87539527D01*
X147941114Y-87629969D01*
X147788349Y-87735283D01*
X147644871Y-87854007D01*
X147512004Y-87984676D01*
X147391074Y-88125827D01*
X147283404Y-88275998D01*
X147190320Y-88433724D01*
X147113145Y-88597543D01*
X147089398Y-88658034D01*
X147036415Y-88825291D01*
X146998290Y-89000596D01*
X146975118Y-89181388D01*
X146966990Y-89365106D01*
X146515373Y-89365106D01*
X146515975Y-89265266D01*
X146517714Y-89178171D01*
X146520926Y-89102438D01*
X146525959Y-89034666D01*
X146533162Y-88971454D01*
X146542883Y-88909399D01*
X146555469Y-88845101D01*
X146571268Y-88775158D01*
X146579364Y-88741569D01*
X146637422Y-88541997D01*
X146712156Y-88349423D01*
X146803248Y-88164373D01*
X146910383Y-87987371D01*
X147033246Y-87818944D01*
X147171521Y-87659617D01*
X147313260Y-87520445D01*
X147475178Y-87383641D01*
X147642118Y-87263839D01*
X147815162Y-87160531D01*
X147995394Y-87073209D01*
X148183897Y-87001365D01*
X148381755Y-86944490D01*
X148590049Y-86902077D01*
X148651293Y-86892593D01*
X148694929Y-86888040D01*
X148753406Y-86884526D01*
X148823413Y-86882033D01*
X148901641Y-86880544D01*
X148984777Y-86880042D01*
X149069513Y-86880511D01*
X149152537Y-86881932D01*
X149230539Y-86884290D01*
X149300209Y-86887566D01*
X149358237Y-86891745D01*
X149399008Y-86896449D01*
X149610812Y-86937050D01*
X149812804Y-86992840D01*
X150005299Y-87064001D01*
X150188613Y-87150719D01*
X150363061Y-87253177D01*
X150528959Y-87371559D01*
X150686622Y-87506049D01*
X150836366Y-87656830D01*
X150969287Y-87812457D01*
X151096502Y-87986279D01*
X151207068Y-88167268D01*
X151300873Y-88355154D01*
X151377804Y-88549667D01*
X151437747Y-88750538D01*
X151480589Y-88957496D01*
X151496609Y-89071988D01*
X151500099Y-89111052D01*
X151503128Y-89162649D01*
X151505646Y-89223392D01*
X151507603Y-89289896D01*
X151508950Y-89358775D01*
X151509639Y-89426644D01*
X151509619Y-89490117D01*
X151508841Y-89545809D01*
X151507256Y-89590333D01*
X151504814Y-89620304D01*
X151504625Y-89621670D01*
X151502063Y-89640823D01*
X151498051Y-89672385D01*
X151493303Y-89710714D01*
X151491412Y-89726215D01*
X151458403Y-89923157D01*
X151407774Y-90116571D01*
X151339863Y-90305781D01*
X151255006Y-90490110D01*
X151153541Y-90668880D01*
X151035805Y-90841413D01*
X150902136Y-91007031D01*
X150797347Y-91120458D01*
X150637831Y-91271980D01*
X150471318Y-91406754D01*
X150297860Y-91524754D01*
X150117509Y-91625953D01*
X149930316Y-91710328D01*
X149736332Y-91777853D01*
X149535610Y-91828502D01*
X149328200Y-91862250D01*
X149280383Y-91867535D01*
X149226194Y-91871447D01*
X149158661Y-91873879D01*
X149081588Y-91874910D01*
X149053357Y-91874809D01*
X148998780Y-91874615D01*
X148914040Y-91873072D01*
G37*
G36*
X147839683Y-89033186D02*
G01*
X147913945Y-89050244D01*
X147974691Y-89079087D01*
X148022538Y-89120287D01*
X148058100Y-89174418D01*
X148081992Y-89242050D01*
X148094828Y-89323759D01*
X148096511Y-89348943D01*
X148097274Y-89392596D01*
X148095731Y-89436608D01*
X148092215Y-89472349D01*
X148091582Y-89476215D01*
X148071027Y-89548551D01*
X148037210Y-89610055D01*
X147991145Y-89659335D01*
X147933847Y-89694995D01*
X147931582Y-89696010D01*
X147875469Y-89714240D01*
X147808952Y-89725363D01*
X147738645Y-89728667D01*
X147673738Y-89723822D01*
X147593705Y-89705872D01*
X147527745Y-89677064D01*
X147475389Y-89636819D01*
X147436167Y-89584557D01*
X147409611Y-89519700D01*
X147395252Y-89441669D01*
X147392202Y-89376215D01*
X147397649Y-89291063D01*
X147414388Y-89219135D01*
X147443018Y-89158953D01*
X147484138Y-89109040D01*
X147508791Y-89088062D01*
X147552083Y-89060985D01*
X147601344Y-89042434D01*
X147660059Y-89031535D01*
X147731715Y-89027416D01*
X147751293Y-89027339D01*
X147839683Y-89033186D01*
G37*
G36*
X149419474Y-88985306D02*
G01*
X150628565Y-88985306D01*
X150628565Y-89767125D01*
X149419474Y-89767125D01*
X149419474Y-90058034D01*
X148899020Y-90057983D01*
X148774111Y-90057796D01*
X148663973Y-90057268D01*
X148569121Y-90056408D01*
X148490072Y-90055224D01*
X148427341Y-90053725D01*
X148381443Y-90051920D01*
X148352896Y-90049819D01*
X148344226Y-90048396D01*
X148307547Y-90031841D01*
X148272740Y-90005466D01*
X148246273Y-89974670D01*
X148238574Y-89960249D01*
X148236267Y-89948725D01*
X148234342Y-89925679D01*
X148232787Y-89890281D01*
X148231591Y-89841705D01*
X148230743Y-89779123D01*
X148230232Y-89701707D01*
X148230047Y-89608630D01*
X148230176Y-89499065D01*
X148230610Y-89372183D01*
X148230635Y-89366312D01*
X148233111Y-88797517D01*
X148258581Y-88764129D01*
X148268436Y-88750955D01*
X148277317Y-88739686D01*
X148286649Y-88730167D01*
X148297855Y-88722243D01*
X148312359Y-88715760D01*
X148331585Y-88710562D01*
X148356958Y-88706494D01*
X148389901Y-88703401D01*
X148431837Y-88701129D01*
X148484192Y-88699522D01*
X148548389Y-88698425D01*
X148625852Y-88697683D01*
X148718004Y-88697141D01*
X148826271Y-88696645D01*
X148880838Y-88696394D01*
X149419474Y-88693845D01*
X149419474Y-88985306D01*
G37*
X137065000Y-68283752D02*
X137065000Y-67761248D01*
X138535000Y-68283752D02*
X138535000Y-67761248D01*
X141500000Y-95135000D02*
X140850000Y-95135000D01*
X141500000Y-92015000D02*
X140850000Y-92015000D01*
X141500000Y-95135000D02*
X143175000Y-95135000D01*
X141500000Y-92015000D02*
X142150000Y-92015000D01*
X141500000Y-75985000D02*
X140850000Y-75985000D01*
X141500000Y-72865000D02*
X142150000Y-72865000D01*
X141500000Y-75985000D02*
X143175000Y-75985000D01*
X141500000Y-72865000D02*
X140850000Y-72865000D01*
G36*
X148842058Y-86494591D02*
G01*
X148766169Y-86490934D01*
X148699477Y-86486290D01*
X148645686Y-86480734D01*
X148627773Y-86478137D01*
X148426801Y-86438318D01*
X148237667Y-86386102D01*
X148058163Y-86320638D01*
X147886080Y-86241077D01*
X147719211Y-86146567D01*
X147647721Y-86100594D01*
X147573341Y-86049950D01*
X147508013Y-86002761D01*
X147447925Y-85955864D01*
X147389267Y-85906096D01*
X147328225Y-85850293D01*
X147260989Y-85785291D01*
X147226340Y-85750839D01*
X147110283Y-85628583D01*
X147008808Y-85508071D01*
X146919184Y-85385503D01*
X146838676Y-85257078D01*
X146764553Y-85118997D01*
X146748659Y-85086588D01*
X146672792Y-84913591D01*
X146612378Y-84739843D01*
X146566358Y-84561572D01*
X146533671Y-84375009D01*
X146522472Y-84282043D01*
X146517996Y-84223291D01*
X146515054Y-84150900D01*
X146513609Y-84069341D01*
X146513624Y-83986872D01*
X146968457Y-83986872D01*
X146975762Y-84174435D01*
X146999579Y-84361172D01*
X147040056Y-84545400D01*
X147046123Y-84567555D01*
X147102136Y-84734377D01*
X147175251Y-84896780D01*
X147264716Y-85053773D01*
X147369778Y-85204366D01*
X147489685Y-85347570D01*
X147623682Y-85482396D01*
X147771018Y-85607853D01*
X147918841Y-85714912D01*
X148078554Y-85810899D01*
X148246179Y-85890881D01*
X148420410Y-85954525D01*
X148599941Y-86001497D01*
X148783467Y-86031464D01*
X148969683Y-86044092D01*
X149157282Y-86039050D01*
X149181341Y-86037110D01*
X149371465Y-86012377D01*
X149553200Y-85971754D01*
X149727111Y-85914982D01*
X149893759Y-85841804D01*
X150053709Y-85751959D01*
X150207523Y-85645189D01*
X150355764Y-85521235D01*
X150406331Y-85473845D01*
X150545183Y-85329204D01*
X150666721Y-85179473D01*
X150771244Y-85024079D01*
X150859052Y-84862449D01*
X150930443Y-84694009D01*
X150985716Y-84518186D01*
X151025169Y-84334405D01*
X151035595Y-84265905D01*
X151041719Y-84205507D01*
X151045859Y-84131972D01*
X151048015Y-84050238D01*
X151048187Y-83965240D01*
X151046376Y-83881916D01*
X151042581Y-83805201D01*
X151036803Y-83740033D01*
X151035594Y-83730236D01*
X151002554Y-83543614D01*
X150952687Y-83363441D01*
X150885904Y-83189541D01*
X150802118Y-83021741D01*
X150701239Y-82859865D01*
X150583180Y-82703739D01*
X150447852Y-82553189D01*
X150431341Y-82536390D01*
X150295027Y-82409645D01*
X150153981Y-82299919D01*
X150006866Y-82206366D01*
X149852344Y-82128143D01*
X149689076Y-82064404D01*
X149676796Y-82060301D01*
X149501478Y-82011313D01*
X149320472Y-81977794D01*
X149136085Y-81959702D01*
X148950620Y-81956990D01*
X148766382Y-81969615D01*
X148585676Y-81997532D01*
X148410805Y-82040697D01*
X148273596Y-82087356D01*
X148114847Y-82157930D01*
X147960084Y-82244941D01*
X147811057Y-82346782D01*
X147669518Y-82461846D01*
X147537220Y-82588527D01*
X147415914Y-82725216D01*
X147307352Y-82870306D01*
X147213285Y-83022192D01*
X147174474Y-83095679D01*
X147101422Y-83262084D01*
X147044147Y-83436091D01*
X147002796Y-83616015D01*
X146977517Y-83800170D01*
X146968457Y-83986872D01*
X146513624Y-83986872D01*
X146513625Y-83983087D01*
X146515065Y-83896614D01*
X146517891Y-83814392D01*
X146522068Y-83740897D01*
X146527390Y-83682043D01*
X146559520Y-83474396D01*
X146606971Y-83275583D01*
X146670070Y-83084961D01*
X146749141Y-82901887D01*
X146844509Y-82725717D01*
X146956499Y-82555809D01*
X147085436Y-82391518D01*
X147231645Y-82232203D01*
X147288107Y-82176390D01*
X147444693Y-82036793D01*
X147608165Y-81913626D01*
X147779177Y-81806575D01*
X147958382Y-81715324D01*
X148146433Y-81639557D01*
X148343984Y-81578959D01*
X148551686Y-81533215D01*
X148654069Y-81516602D01*
X148698940Y-81511901D01*
X148758612Y-81508299D01*
X148829738Y-81505777D01*
X148908973Y-81504315D01*
X148992970Y-81503891D01*
X149078382Y-81504485D01*
X149161863Y-81506078D01*
X149240067Y-81508650D01*
X149309648Y-81512180D01*
X149367258Y-81516647D01*
X149404069Y-81521128D01*
X149602715Y-81558796D01*
X149788849Y-81607951D01*
X149964632Y-81669342D01*
X150132222Y-81743717D01*
X150284465Y-81826285D01*
X150396283Y-81896615D01*
X150501479Y-81971889D01*
X150604129Y-82055331D01*
X150708308Y-82150162D01*
X150768102Y-82208710D01*
X150917426Y-82369402D01*
X151049517Y-82535389D01*
X151164737Y-82707374D01*
X151263446Y-82886061D01*
X151346004Y-83072152D01*
X151412772Y-83266351D01*
X151464109Y-83469361D01*
X151491538Y-83620192D01*
X151494985Y-83650751D01*
X151498303Y-83695199D01*
X151501415Y-83750559D01*
X151504243Y-83813855D01*
X151506708Y-83882109D01*
X151508734Y-83952346D01*
X151510241Y-84021589D01*
X151511153Y-84086860D01*
X151511391Y-84145184D01*
X151510877Y-84193583D01*
X151509535Y-84229080D01*
X151507898Y-84245679D01*
X151505112Y-84264834D01*
X151500927Y-84296400D01*
X151496086Y-84334733D01*
X151494188Y-84350224D01*
X151461180Y-84547160D01*
X151410552Y-84740571D01*
X151342643Y-84929779D01*
X151257789Y-85114104D01*
X151156331Y-85292868D01*
X151038606Y-85465391D01*
X150904951Y-85630993D01*
X150800123Y-85744458D01*
X150640667Y-85896126D01*
X150474829Y-86030786D01*
X150302471Y-86148506D01*
X150123453Y-86249356D01*
X149937634Y-86333403D01*
X149744876Y-86400718D01*
X149545040Y-86451367D01*
X149337985Y-86485421D01*
X149283159Y-86491544D01*
X149229851Y-86495405D01*
X149163523Y-86497824D01*
X149087876Y-86498876D01*
X149006614Y-86498637D01*
X148969683Y-86497992D01*
X148923441Y-86497184D01*
X148842058Y-86494591D01*
G37*
G36*
X149120217Y-82730316D02*
G01*
X149198801Y-82734276D01*
X149271310Y-82740086D01*
X149333307Y-82747598D01*
X149368757Y-82753935D01*
X149472320Y-82779622D01*
X149566647Y-82810694D01*
X149660533Y-82850208D01*
X149699523Y-82868859D01*
X149829279Y-82942622D01*
X149947692Y-83030022D01*
X150053912Y-83129912D01*
X150147088Y-83241145D01*
X150226371Y-83362572D01*
X150290909Y-83493047D01*
X150339853Y-83631423D01*
X150372352Y-83776550D01*
X150372400Y-83776844D01*
X150380544Y-83840828D01*
X150386399Y-83914717D01*
X150389769Y-83992533D01*
X150390461Y-84068297D01*
X150388282Y-84136031D01*
X150385231Y-84172952D01*
X150362174Y-84306405D01*
X150323789Y-84435358D01*
X150271162Y-84557818D01*
X150205382Y-84671792D01*
X150127538Y-84775289D01*
X150038716Y-84866316D01*
X149980309Y-84914343D01*
X149875344Y-84983712D01*
X149760493Y-85040899D01*
X149634203Y-85086527D01*
X149494923Y-85121218D01*
X149438159Y-85131680D01*
X149404069Y-85137412D01*
X149404069Y-84818533D01*
X149404209Y-84729779D01*
X149404665Y-84657767D01*
X149405487Y-84601057D01*
X149406726Y-84558212D01*
X149408432Y-84527792D01*
X149410656Y-84508360D01*
X149413450Y-84498476D01*
X149415432Y-84496527D01*
X149429525Y-84493678D01*
X149456155Y-84489064D01*
X149489877Y-84483623D01*
X149494129Y-84482961D01*
X149579507Y-84461508D01*
X149654227Y-84425588D01*
X149717922Y-84375720D01*
X149770223Y-84312426D01*
X149810764Y-84236226D01*
X149839177Y-84147642D01*
X149855095Y-84047195D01*
X149858614Y-83966154D01*
X149851463Y-83867418D01*
X149829701Y-83778286D01*
X149792865Y-83698084D01*
X149740493Y-83626133D01*
X149672122Y-83561758D01*
X149587288Y-83504282D01*
X149517705Y-83467716D01*
X149426337Y-83430224D01*
X149329407Y-83402607D01*
X149223959Y-83384301D01*
X149107035Y-83374743D01*
X149020529Y-83372952D01*
X148878112Y-83378586D01*
X148748880Y-83395408D01*
X148633079Y-83423295D01*
X148530954Y-83462126D01*
X148442751Y-83511777D01*
X148368716Y-83572127D01*
X148309094Y-83643054D01*
X148264130Y-83724435D01*
X148251931Y-83755283D01*
X148241814Y-83785292D01*
X148234952Y-83811891D01*
X148230730Y-83839918D01*
X148228532Y-83874210D01*
X148227741Y-83919604D01*
X148227681Y-83945679D01*
X148228884Y-84013641D01*
X148232695Y-84067364D01*
X148239443Y-84110648D01*
X148243462Y-84127497D01*
X148275793Y-84220943D01*
X148319348Y-84300229D01*
X148374555Y-84365828D01*
X148441843Y-84418210D01*
X148521641Y-84457845D01*
X148554470Y-84469389D01*
X148598558Y-84483251D01*
X148628052Y-84490244D01*
X148645880Y-84488364D01*
X148654968Y-84475604D01*
X148658241Y-84449959D01*
X148658626Y-84409423D01*
X148658614Y-84398014D01*
X148658614Y-84304894D01*
X148908614Y-84554770D01*
X148964001Y-84610358D01*
X149015129Y-84662115D01*
X149060609Y-84708601D01*
X149099053Y-84748376D01*
X149129071Y-84780001D01*
X149149275Y-84802036D01*
X149158275Y-84813042D01*
X149158614Y-84813862D01*
X149152417Y-84822045D01*
X149134970Y-84841248D01*
X149107989Y-84869747D01*
X149073191Y-84905817D01*
X149032291Y-84947735D01*
X148987006Y-84993778D01*
X148939052Y-85042220D01*
X148890145Y-85091338D01*
X148842002Y-85139409D01*
X148796338Y-85184709D01*
X148754870Y-85225513D01*
X148719314Y-85260097D01*
X148691385Y-85286739D01*
X148672801Y-85303714D01*
X148665370Y-85309315D01*
X148662589Y-85300854D01*
X148660363Y-85277980D01*
X148658962Y-85244461D01*
X148658614Y-85214473D01*
X148658772Y-85171541D01*
X148657419Y-85143116D01*
X148651816Y-85125563D01*
X148639224Y-85115249D01*
X148616904Y-85108541D01*
X148582116Y-85101805D01*
X148572250Y-85099906D01*
X148432717Y-85064026D01*
X148302698Y-85013225D01*
X148182986Y-84948310D01*
X148074370Y-84870085D01*
X147977643Y-84779355D01*
X147893595Y-84676925D01*
X147823017Y-84563602D01*
X147766701Y-84440189D01*
X147725438Y-84307493D01*
X147707582Y-84219824D01*
X147700926Y-84161953D01*
X147697220Y-84091098D01*
X147696336Y-84012197D01*
X147698145Y-83930185D01*
X147702520Y-83850000D01*
X147709332Y-83776578D01*
X147718455Y-83714855D01*
X147720991Y-83702250D01*
X147757946Y-83563190D01*
X147806815Y-83436583D01*
X147868740Y-83320237D01*
X147944860Y-83211960D01*
X148021343Y-83124873D01*
X148132388Y-83022359D01*
X148253735Y-82934802D01*
X148385268Y-82862256D01*
X148526869Y-82804779D01*
X148678423Y-82762426D01*
X148833870Y-82735962D01*
X148892385Y-82731029D01*
X148962572Y-82728544D01*
X149039995Y-82728356D01*
X149120217Y-82730316D01*
G37*
X145735000Y-74614564D02*
X145735000Y-74160436D01*
X144265000Y-74614564D02*
X144265000Y-74160436D01*
G36*
X149004165Y-97250000D02*
G01*
X148923209Y-97249765D01*
X148857435Y-97249154D01*
X148803847Y-97248007D01*
X148759444Y-97246164D01*
X148721231Y-97243463D01*
X148686207Y-97239745D01*
X148651377Y-97234848D01*
X148617801Y-97229316D01*
X148403817Y-97183784D01*
X148198752Y-97122448D01*
X148002191Y-97045106D01*
X147813717Y-96951555D01*
X147632914Y-96841593D01*
X147459366Y-96715019D01*
X147325310Y-96601517D01*
X147169642Y-96449866D01*
X147030339Y-96290339D01*
X146907429Y-96122985D01*
X146800937Y-95947855D01*
X146710890Y-95765000D01*
X146637315Y-95574468D01*
X146580236Y-95376311D01*
X146539681Y-95170578D01*
X146526926Y-95076371D01*
X146520722Y-95006982D01*
X146516414Y-94924292D01*
X146514002Y-94833079D01*
X146513485Y-94738124D01*
X146513662Y-94726038D01*
X146969742Y-94726038D01*
X146975499Y-94911346D01*
X146996671Y-95094417D01*
X147033108Y-95273162D01*
X147084662Y-95445491D01*
X147149124Y-95604883D01*
X147228186Y-95755582D01*
X147323533Y-95901996D01*
X147433451Y-96042413D01*
X147556224Y-96175115D01*
X147690138Y-96298388D01*
X147833479Y-96410517D01*
X147984531Y-96509787D01*
X148135512Y-96591546D01*
X148291451Y-96660972D01*
X148443242Y-96714952D01*
X148594719Y-96754376D01*
X148749715Y-96780132D01*
X148912067Y-96793110D01*
X149013256Y-96795134D01*
X149119624Y-96793429D01*
X149213972Y-96787844D01*
X149302186Y-96777668D01*
X149390147Y-96762192D01*
X149483740Y-96740706D01*
X149500934Y-96736328D01*
X149679585Y-96680964D01*
X149852498Y-96608829D01*
X150018588Y-96520726D01*
X150176772Y-96417462D01*
X150325965Y-96299840D01*
X150465082Y-96168664D01*
X150593039Y-96024741D01*
X150708751Y-95868874D01*
X150745213Y-95813139D01*
X150833274Y-95657360D01*
X150906940Y-95491959D01*
X150965709Y-95319040D01*
X151009082Y-95140705D01*
X151036560Y-94959059D01*
X151047641Y-94776204D01*
X151041826Y-94594244D01*
X151040011Y-94573030D01*
X151015033Y-94394004D01*
X150973234Y-94214901D01*
X150915611Y-94039266D01*
X150843163Y-93870639D01*
X150840917Y-93866024D01*
X150803697Y-93791708D01*
X150769425Y-93728119D01*
X150734815Y-93669881D01*
X150696582Y-93611616D01*
X150651439Y-93547948D01*
X150623008Y-93509394D01*
X150502897Y-93362351D01*
X150371962Y-93228862D01*
X150231121Y-93109545D01*
X150081296Y-93005014D01*
X149923405Y-92915888D01*
X149758369Y-92842781D01*
X149587108Y-92786312D01*
X149517801Y-92768692D01*
X149323111Y-92732140D01*
X149129615Y-92713231D01*
X148938206Y-92711659D01*
X148749780Y-92727122D01*
X148565232Y-92759316D01*
X148385456Y-92807938D01*
X148211347Y-92872684D01*
X148043800Y-92953250D01*
X147883709Y-93049333D01*
X147731970Y-93160629D01*
X147589478Y-93286835D01*
X147457126Y-93427647D01*
X147410790Y-93483532D01*
X147302965Y-93630558D01*
X147209325Y-93784282D01*
X147131018Y-93942516D01*
X147069192Y-94103074D01*
X147046472Y-94177576D01*
X147005079Y-94357064D01*
X146979552Y-94540581D01*
X146969742Y-94726038D01*
X146513662Y-94726038D01*
X146514863Y-94644208D01*
X146518134Y-94556111D01*
X146523299Y-94478614D01*
X146527005Y-94441737D01*
X146541267Y-94338490D01*
X146559919Y-94232013D01*
X146581633Y-94129104D01*
X146605080Y-94036560D01*
X146608656Y-94024018D01*
X146673037Y-93834222D01*
X146754284Y-93649224D01*
X146851414Y-93470364D01*
X146963444Y-93298983D01*
X147089390Y-93136419D01*
X147228269Y-92984013D01*
X147379098Y-92843106D01*
X147540893Y-92715036D01*
X147599619Y-92673705D01*
X147770197Y-92568165D01*
X147951736Y-92476432D01*
X148142708Y-92399098D01*
X148341586Y-92336756D01*
X148546841Y-92289999D01*
X148622346Y-92277041D01*
X148672343Y-92270962D01*
X148736700Y-92265814D01*
X148811616Y-92261674D01*
X148893289Y-92258619D01*
X148977919Y-92256727D01*
X149061703Y-92256076D01*
X149140840Y-92256742D01*
X149211528Y-92258804D01*
X149269967Y-92262339D01*
X149283255Y-92263566D01*
X149495020Y-92293509D01*
X149699674Y-92339525D01*
X149896530Y-92401377D01*
X150084902Y-92478824D01*
X150264105Y-92571627D01*
X150389951Y-92649741D01*
X150469158Y-92704197D01*
X150538776Y-92755882D01*
X150603667Y-92808815D01*
X150668691Y-92867011D01*
X150738709Y-92934487D01*
X150758771Y-92954487D01*
X150908429Y-93116892D01*
X151042237Y-93287972D01*
X151160003Y-93467330D01*
X151261534Y-93654568D01*
X151346640Y-93849289D01*
X151415127Y-94051095D01*
X151466804Y-94259590D01*
X151501479Y-94474376D01*
X151503956Y-94495758D01*
X151506419Y-94528206D01*
X151508427Y-94575055D01*
X151509960Y-94632527D01*
X151510997Y-94696846D01*
X151511515Y-94764234D01*
X151511494Y-94830915D01*
X151510913Y-94893112D01*
X151509751Y-94947048D01*
X151507986Y-94988948D01*
X151506812Y-95004848D01*
X151494502Y-95102802D01*
X151475334Y-95211459D01*
X151450587Y-95325263D01*
X151421541Y-95438657D01*
X151389477Y-95546087D01*
X151367034Y-95611706D01*
X151313665Y-95742807D01*
X151247635Y-95878973D01*
X151171646Y-96015552D01*
X151088404Y-96147893D01*
X151000614Y-96271344D01*
X150937630Y-96350303D01*
X150904441Y-96388179D01*
X150862180Y-96434033D01*
X150815060Y-96483425D01*
X150767289Y-96531914D01*
X150738820Y-96559938D01*
X150579335Y-96702717D01*
X150411840Y-96829272D01*
X150236093Y-96939721D01*
X150051852Y-97034184D01*
X149858874Y-97112779D01*
X149656917Y-97175625D01*
X149445738Y-97222840D01*
X149354165Y-97238049D01*
X149310058Y-97242781D01*
X149248764Y-97246321D01*
X149170020Y-97248676D01*
X149073560Y-97249856D01*
X149013256Y-97249981D01*
X149004165Y-97250000D01*
G37*
G36*
X149411361Y-93332914D02*
G01*
X149435016Y-93347157D01*
X149465132Y-93367647D01*
X149497923Y-93391727D01*
X149529602Y-93416738D01*
X149550662Y-93434785D01*
X149614495Y-93501820D01*
X149672661Y-93581414D01*
X149721904Y-93668192D01*
X149758970Y-93756779D01*
X149771980Y-93800303D01*
X149780033Y-93843657D01*
X149786071Y-93899404D01*
X149789873Y-93961846D01*
X149791216Y-94025282D01*
X149789878Y-94084015D01*
X149785638Y-94132343D01*
X149785058Y-94136309D01*
X149760045Y-94246258D01*
X149719844Y-94346619D01*
X149663736Y-94438818D01*
X149590999Y-94524280D01*
X149586806Y-94528509D01*
X149547397Y-94566583D01*
X149513888Y-94594935D01*
X149480509Y-94617788D01*
X149441494Y-94639363D01*
X149422346Y-94648910D01*
X149329794Y-94688013D01*
X149235385Y-94715015D01*
X149135308Y-94730615D01*
X149025750Y-94735510D01*
X148958710Y-94733830D01*
X148864576Y-94726093D01*
X148781580Y-94711303D01*
X148703544Y-94687945D01*
X148624290Y-94654505D01*
X148613256Y-94649182D01*
X148574182Y-94629141D01*
X148542196Y-94609856D01*
X148512564Y-94587783D01*
X148480550Y-94559377D01*
X148441423Y-94521096D01*
X148439262Y-94518927D01*
X148400417Y-94478939D01*
X148371601Y-94446312D01*
X148349280Y-94416293D01*
X148329923Y-94384132D01*
X148310025Y-94345138D01*
X148283727Y-94287854D01*
X148264370Y-94236868D01*
X148251000Y-94187478D01*
X148242666Y-94134987D01*
X148238414Y-94074694D01*
X148237291Y-94001899D01*
X148237350Y-93986667D01*
X148238212Y-93924836D01*
X148240220Y-93876730D01*
X148243790Y-93837907D01*
X148249336Y-93803925D01*
X148257276Y-93770340D01*
X148257773Y-93768485D01*
X148287587Y-93676233D01*
X148324956Y-93596742D01*
X148372520Y-93525265D01*
X148428852Y-93461181D01*
X148457853Y-93433759D01*
X148490877Y-93405868D01*
X148524549Y-93379960D01*
X148555493Y-93358487D01*
X148580335Y-93343901D01*
X148595699Y-93338653D01*
X148597187Y-93338886D01*
X148603025Y-93347065D01*
X148615739Y-93368405D01*
X148633737Y-93399977D01*
X148655425Y-93438852D01*
X148679212Y-93482103D01*
X148703504Y-93526800D01*
X148726708Y-93570017D01*
X148747232Y-93608824D01*
X148763483Y-93640293D01*
X148773867Y-93661496D01*
X148776892Y-93669261D01*
X148769790Y-93675159D01*
X148751670Y-93686878D01*
X148738256Y-93694938D01*
X148689156Y-93730845D01*
X148644660Y-93776399D01*
X148610380Y-93825557D01*
X148602416Y-93841212D01*
X148585969Y-93894896D01*
X148579959Y-93956622D01*
X148584310Y-94019598D01*
X148598949Y-94077032D01*
X148605171Y-94091817D01*
X148641864Y-94150910D01*
X148691598Y-94198757D01*
X148755195Y-94235964D01*
X148833478Y-94263133D01*
X148840528Y-94264923D01*
X148881870Y-94271894D01*
X148934963Y-94276136D01*
X148994656Y-94277709D01*
X149055794Y-94276678D01*
X149113222Y-94273104D01*
X149161787Y-94267052D01*
X149190140Y-94260668D01*
X149269632Y-94230506D01*
X149333534Y-94192833D01*
X149383255Y-94146593D01*
X149420201Y-94090727D01*
X149422417Y-94086283D01*
X149433022Y-94061917D01*
X149439622Y-94037955D01*
X149443107Y-94008907D01*
X149444367Y-93969283D01*
X149444447Y-93950303D01*
X149443797Y-93905181D01*
X149441251Y-93872699D01*
X149435915Y-93847342D01*
X149426898Y-93823596D01*
X149422364Y-93813939D01*
X149394730Y-93769891D01*
X149357097Y-93727062D01*
X149314976Y-93690992D01*
X149278403Y-93669166D01*
X149255711Y-93656488D01*
X149242187Y-93644210D01*
X149240528Y-93639902D01*
X149244412Y-93627517D01*
X149255029Y-93602772D01*
X149270830Y-93568739D01*
X149290267Y-93528494D01*
X149311790Y-93485108D01*
X149333851Y-93441657D01*
X149354898Y-93401213D01*
X149373385Y-93366850D01*
X149387760Y-93341642D01*
X149396476Y-93328663D01*
X149397951Y-93327576D01*
X149411361Y-93332914D01*
G37*
G36*
X149407828Y-94779306D02*
G01*
X149431511Y-94790876D01*
X149462562Y-94810537D01*
X149497936Y-94836222D01*
X149534585Y-94865865D01*
X149566602Y-94894654D01*
X149641970Y-94978721D01*
X149702659Y-95072803D01*
X149748281Y-95175678D01*
X149778448Y-95286123D01*
X149792773Y-95402912D01*
X149790867Y-95524824D01*
X149784457Y-95582121D01*
X149761040Y-95686527D01*
X149721934Y-95785591D01*
X149668648Y-95877182D01*
X149602691Y-95959175D01*
X149525571Y-96029439D01*
X149438797Y-96085848D01*
X149420889Y-96095047D01*
X149362364Y-96122331D01*
X149309569Y-96142912D01*
X149258172Y-96157689D01*
X149203838Y-96167558D01*
X149142234Y-96173419D01*
X149069026Y-96176168D01*
X149026892Y-96176654D01*
X148959928Y-96176580D01*
X148907231Y-96175331D01*
X148864908Y-96172646D01*
X148829067Y-96168263D01*
X148795816Y-96161918D01*
X148790528Y-96160715D01*
X148678033Y-96126121D01*
X148576688Y-96077574D01*
X148487139Y-96015964D01*
X148410030Y-95942179D01*
X148346009Y-95857108D01*
X148295720Y-95761638D01*
X148259809Y-95656659D01*
X148238922Y-95543059D01*
X148233705Y-95421726D01*
X148234640Y-95395758D01*
X148247942Y-95271977D01*
X148275207Y-95159706D01*
X148316626Y-95058584D01*
X148372389Y-94968251D01*
X148442688Y-94888344D01*
X148527713Y-94818505D01*
X148547121Y-94805305D01*
X148571383Y-94791548D01*
X148590701Y-94784497D01*
X148597121Y-94784466D01*
X148603654Y-94793054D01*
X148616977Y-94814868D01*
X148635502Y-94846999D01*
X148657642Y-94886536D01*
X148681810Y-94930568D01*
X148706419Y-94976187D01*
X148729881Y-95020480D01*
X148750608Y-95060538D01*
X148767013Y-95093452D01*
X148775167Y-95110886D01*
X148769613Y-95118631D01*
X148752339Y-95132620D01*
X148729219Y-95148422D01*
X148667060Y-95197288D01*
X148621078Y-95253746D01*
X148591608Y-95317177D01*
X148578985Y-95386964D01*
X148579130Y-95424601D01*
X148591466Y-95498915D01*
X148618527Y-95562679D01*
X148660155Y-95615779D01*
X148716186Y-95658102D01*
X148786462Y-95689535D01*
X148870821Y-95709966D01*
X148969102Y-95719281D01*
X148999619Y-95719885D01*
X149097640Y-95715903D01*
X149181835Y-95702525D01*
X149254316Y-95679104D01*
X149317194Y-95644994D01*
X149363046Y-95608617D01*
X149400184Y-95567390D01*
X149425240Y-95521644D01*
X149439659Y-95467544D01*
X149444885Y-95401256D01*
X149444965Y-95391212D01*
X149444069Y-95344736D01*
X149440693Y-95310720D01*
X149433987Y-95283516D01*
X149425637Y-95262827D01*
X149390641Y-95206060D01*
X149342526Y-95155102D01*
X149288513Y-95116558D01*
X149263132Y-95100964D01*
X149245739Y-95087851D01*
X149240528Y-95081147D01*
X149244508Y-95069678D01*
X149255361Y-95045477D01*
X149271460Y-95011749D01*
X149291176Y-94971698D01*
X149312883Y-94928530D01*
X149334952Y-94885449D01*
X149355755Y-94845660D01*
X149373664Y-94812369D01*
X149387052Y-94788779D01*
X149394290Y-94778097D01*
X149394558Y-94777895D01*
X149407828Y-94779306D01*
G37*
X145735000Y-87621831D02*
X145735000Y-87167703D01*
X144265000Y-87621831D02*
X144265000Y-87167703D01*
X136435000Y-66497500D02*
X136435000Y-63047500D01*
X127565000Y-66497500D02*
X127565000Y-64547500D01*
X136435000Y-66497500D02*
X136435000Y-68447500D01*
X127565000Y-66497500D02*
X127565000Y-68447500D01*
G36*
X166129232Y-92925284D02*
G01*
X166015710Y-92811168D01*
X166088977Y-92806124D01*
X166162245Y-92801079D01*
X166077758Y-92798579D01*
X166033997Y-92798142D01*
X166003465Y-92799479D01*
X165993272Y-92801977D01*
X166001674Y-92813746D01*
X166024703Y-92841886D01*
X166059093Y-92882504D01*
X166101578Y-92931702D01*
X166113586Y-92945463D01*
X166176052Y-93020566D01*
X166221065Y-93085486D01*
X166251801Y-93147513D01*
X166271435Y-93213938D01*
X166283145Y-93292053D01*
X166287497Y-93344686D01*
X166293931Y-93440447D01*
X166201052Y-93499214D01*
X166154495Y-93528263D01*
X166092410Y-93566401D01*
X166018388Y-93611476D01*
X165936017Y-93661338D01*
X165848887Y-93713836D01*
X165760589Y-93766819D01*
X165674711Y-93818137D01*
X165594844Y-93865640D01*
X165524577Y-93907175D01*
X165467500Y-93940594D01*
X165427203Y-93963744D01*
X165410011Y-93973147D01*
X165367020Y-93990255D01*
X165335423Y-93987473D01*
X165306276Y-93962718D01*
X165293114Y-93945949D01*
X165253522Y-93905340D01*
X165193201Y-93859695D01*
X165117336Y-93811699D01*
X165031107Y-93764034D01*
X164939699Y-93719383D01*
X164876518Y-93692458D01*
X164848293Y-93680430D01*
X164762072Y-93649858D01*
X164686220Y-93630350D01*
X164682042Y-93629578D01*
X164666705Y-93628921D01*
X164673501Y-93636795D01*
X164703396Y-93653878D01*
X164749632Y-93677095D01*
X164864533Y-93733130D01*
X164783426Y-93744191D01*
X164682984Y-93765701D01*
X164566170Y-93804584D01*
X164436279Y-93859661D01*
X164367753Y-93892756D01*
X164235954Y-93958858D01*
X164235954Y-94066754D01*
X165317380Y-94066754D01*
X165317380Y-94834340D01*
X165353250Y-94843342D01*
X165412456Y-94869226D01*
X165471094Y-94913642D01*
X165520450Y-94969344D01*
X165537555Y-94996609D01*
X165564646Y-95068588D01*
X165575576Y-95149123D01*
X165569980Y-95228310D01*
X165548542Y-95294213D01*
X165494522Y-95373287D01*
X165425038Y-95430427D01*
X165341638Y-95464678D01*
X165255727Y-95475143D01*
X165227387Y-95471772D01*
X165160576Y-95463826D01*
X165078947Y-95429631D01*
X165012717Y-95373943D01*
X164963763Y-95298146D01*
X164943837Y-95244878D01*
X164929890Y-95153040D01*
X164930151Y-95151026D01*
X165063363Y-95151026D01*
X165073369Y-95213912D01*
X165102524Y-95270455D01*
X165148820Y-95315256D01*
X165210247Y-95342915D01*
X165227387Y-95346462D01*
X165288543Y-95343691D01*
X165348308Y-95319092D01*
X165398662Y-95277048D01*
X165424439Y-95238739D01*
X165444951Y-95191377D01*
X165450912Y-95153805D01*
X165442825Y-95113356D01*
X165430744Y-95080691D01*
X165394929Y-95023413D01*
X165344197Y-94984216D01*
X165284401Y-94964061D01*
X165221392Y-94963907D01*
X165161023Y-94984717D01*
X165109145Y-95027452D01*
X165108834Y-95027820D01*
X165074515Y-95087195D01*
X165063363Y-95151026D01*
X164930151Y-95151026D01*
X164941245Y-95065483D01*
X164976182Y-94985612D01*
X165032982Y-94916834D01*
X165109924Y-94862554D01*
X165145283Y-94845942D01*
X165196230Y-94824919D01*
X165192596Y-94516805D01*
X165188961Y-94208691D01*
X164712458Y-94205139D01*
X164235954Y-94201587D01*
X164235954Y-95525928D01*
X164303642Y-95555047D01*
X164383021Y-95602522D01*
X164441722Y-95666932D01*
X164478644Y-95746567D01*
X164492688Y-95839718D01*
X164492793Y-95849023D01*
X164481231Y-95944723D01*
X164446952Y-96026224D01*
X164390564Y-96092540D01*
X164312676Y-96142687D01*
X164310855Y-96143541D01*
X164220385Y-96172555D01*
X164161754Y-96174093D01*
X164132502Y-96174861D01*
X164048870Y-96150773D01*
X163971154Y-96100603D01*
X163943286Y-96074525D01*
X163902625Y-96029358D01*
X163877388Y-95990289D01*
X163861519Y-95946997D01*
X163856564Y-95926756D01*
X163849887Y-95852303D01*
X163985874Y-95852303D01*
X163987032Y-95899026D01*
X163993557Y-95929580D01*
X164010030Y-95954819D01*
X164041028Y-95985600D01*
X164042802Y-95987256D01*
X164079883Y-96018814D01*
X164110609Y-96034762D01*
X164146141Y-96040083D01*
X164161754Y-96040357D01*
X164236401Y-96029405D01*
X164297145Y-95998073D01*
X164340555Y-95948652D01*
X164357233Y-95910011D01*
X164367052Y-95873218D01*
X164368701Y-95845874D01*
X164362223Y-95813203D01*
X164357560Y-95796033D01*
X164327480Y-95736372D01*
X164275487Y-95690917D01*
X164228729Y-95669282D01*
X164161565Y-95659135D01*
X164160271Y-95659471D01*
X164097607Y-95675739D01*
X164037432Y-95718938D01*
X164034332Y-95721994D01*
X164006993Y-95751673D01*
X163992479Y-95777723D01*
X163986780Y-95810922D01*
X163985874Y-95852303D01*
X163849887Y-95852303D01*
X163848374Y-95835433D01*
X163863913Y-95748140D01*
X163902016Y-95670857D01*
X163907952Y-95662669D01*
X163943368Y-95619013D01*
X163976003Y-95589504D01*
X164016958Y-95565090D01*
X164043325Y-95552293D01*
X164100776Y-95525415D01*
X164100776Y-94015845D01*
X164045564Y-94034867D01*
X163999751Y-94047207D01*
X163943056Y-94057931D01*
X163910385Y-94062248D01*
X163830419Y-94070606D01*
X163830419Y-94593522D01*
X163455299Y-94597115D01*
X163080180Y-94600708D01*
X163076351Y-94745194D01*
X163072523Y-94889680D01*
X163137182Y-94918271D01*
X163216289Y-94965444D01*
X163275239Y-95025445D01*
X163314741Y-95094622D01*
X163335506Y-95169323D01*
X163338243Y-95245897D01*
X163323662Y-95320694D01*
X163292473Y-95390060D01*
X163245387Y-95450345D01*
X163183112Y-95497897D01*
X163106360Y-95529065D01*
X163016261Y-95540198D01*
X163011618Y-95539616D01*
X162921302Y-95528286D01*
X162839891Y-95494119D01*
X162774374Y-95440046D01*
X162727099Y-95368416D01*
X162700412Y-95281579D01*
X162696714Y-95236812D01*
X162822345Y-95236812D01*
X162841778Y-95301151D01*
X162885986Y-95358223D01*
X162890175Y-95361989D01*
X162949925Y-95400717D01*
X163011618Y-95412673D01*
X163077276Y-95398121D01*
X163097379Y-95388965D01*
X163154894Y-95347061D01*
X163192364Y-95292349D01*
X163208103Y-95230126D01*
X163200423Y-95165687D01*
X163181636Y-95124401D01*
X163136143Y-95072078D01*
X163079240Y-95039578D01*
X163016684Y-95027263D01*
X162954227Y-95035499D01*
X162897627Y-95064649D01*
X162859882Y-95104044D01*
X162828206Y-95169633D01*
X162822345Y-95236812D01*
X162696714Y-95236812D01*
X162695218Y-95218700D01*
X162706907Y-95123714D01*
X162742095Y-95041724D01*
X162799908Y-94974030D01*
X162879469Y-94921933D01*
X162901796Y-94911855D01*
X162951760Y-94890979D01*
X162951760Y-94458771D01*
X163695241Y-94458771D01*
X163695241Y-94053751D01*
X163658067Y-94045290D01*
X163446853Y-93990527D01*
X163257625Y-93926581D01*
X163086259Y-93851286D01*
X162928632Y-93762477D01*
X162780620Y-93657990D01*
X162638100Y-93535659D01*
X162579367Y-93478917D01*
X162545428Y-93441110D01*
X164876489Y-93441110D01*
X164876518Y-93441148D01*
X164892100Y-93441051D01*
X164929552Y-93434980D01*
X164984628Y-93423965D01*
X165053086Y-93409038D01*
X165130680Y-93391227D01*
X165213167Y-93371564D01*
X165296305Y-93351079D01*
X165375847Y-93330803D01*
X165447552Y-93311766D01*
X165507174Y-93294999D01*
X165550471Y-93281532D01*
X165573198Y-93272396D01*
X165574219Y-93271729D01*
X165603662Y-93241258D01*
X165632974Y-93196636D01*
X165656439Y-93148298D01*
X165668342Y-93106676D01*
X165668844Y-93098999D01*
X165664442Y-93079392D01*
X165651969Y-93037672D01*
X165632524Y-92977161D01*
X165607203Y-92901178D01*
X165577105Y-92813043D01*
X165543329Y-92716078D01*
X165525615Y-92665913D01*
X165490270Y-92566775D01*
X165457502Y-92475833D01*
X165428470Y-92396222D01*
X165404329Y-92331079D01*
X165386237Y-92283541D01*
X165375351Y-92256742D01*
X165372923Y-92252045D01*
X165372857Y-92252141D01*
X165366035Y-92262092D01*
X165349950Y-92294790D01*
X165325704Y-92347767D01*
X165294335Y-92418650D01*
X165256881Y-92505068D01*
X165214380Y-92604648D01*
X165167868Y-92715018D01*
X165118383Y-92833806D01*
X165116583Y-92838152D01*
X165067264Y-92957724D01*
X165021509Y-93069573D01*
X164980294Y-93171244D01*
X164944595Y-93260286D01*
X164915388Y-93334246D01*
X164893651Y-93390671D01*
X164880359Y-93427110D01*
X164876489Y-93441110D01*
X162545428Y-93441110D01*
X162423706Y-93305517D01*
X162291582Y-93119014D01*
X162182798Y-92919038D01*
X162097160Y-92705220D01*
X162034472Y-92477188D01*
X162023599Y-92424338D01*
X162011450Y-92338906D01*
X162003429Y-92234514D01*
X161999536Y-92118923D01*
X161999644Y-92063843D01*
X165807033Y-92063843D01*
X165816906Y-92074128D01*
X165846927Y-92094924D01*
X165893431Y-92123938D01*
X165952752Y-92158877D01*
X166016308Y-92194733D01*
X166088392Y-92234732D01*
X166155239Y-92272039D01*
X166212022Y-92303944D01*
X166253913Y-92327737D01*
X166273767Y-92339293D01*
X166301692Y-92354232D01*
X166316815Y-92358711D01*
X166317700Y-92357631D01*
X166312310Y-92342780D01*
X166297734Y-92308930D01*
X166276362Y-92261516D01*
X166256869Y-92219375D01*
X166231661Y-92163343D01*
X166211549Y-92114665D01*
X166199003Y-92079561D01*
X166196039Y-92066116D01*
X166201542Y-92044832D01*
X166216415Y-92005397D01*
X166238208Y-91953975D01*
X166257657Y-91911170D01*
X166282328Y-91857290D01*
X166301489Y-91813346D01*
X166312956Y-91784487D01*
X166315108Y-91775710D01*
X166302163Y-91780456D01*
X166270087Y-91796558D01*
X166223047Y-91821655D01*
X166165207Y-91853385D01*
X166100733Y-91889384D01*
X166033791Y-91927292D01*
X165968546Y-91964744D01*
X165909164Y-91999380D01*
X165859811Y-92028837D01*
X165824651Y-92050752D01*
X165807851Y-92062764D01*
X165807033Y-92063843D01*
X161999644Y-92063843D01*
X161999770Y-91999892D01*
X162004131Y-91885180D01*
X162012620Y-91782547D01*
X162023599Y-91707893D01*
X162081193Y-91476640D01*
X162161694Y-91259682D01*
X162265297Y-91056650D01*
X162392197Y-90867174D01*
X162542419Y-90691083D01*
X164876518Y-90691083D01*
X164880164Y-90704549D01*
X164893254Y-90740509D01*
X164914812Y-90796511D01*
X164943861Y-90870103D01*
X164979424Y-90958831D01*
X165020526Y-91060245D01*
X165066190Y-91171891D01*
X165115439Y-91291316D01*
X165116583Y-91294080D01*
X165166155Y-91413123D01*
X165212791Y-91523833D01*
X165255453Y-91623837D01*
X165293105Y-91710763D01*
X165324709Y-91782239D01*
X165349228Y-91835893D01*
X165365623Y-91869352D01*
X165372857Y-91880244D01*
X165372932Y-91880186D01*
X165381003Y-91863759D01*
X165396358Y-91825485D01*
X165417673Y-91769143D01*
X165443621Y-91698513D01*
X165472879Y-91617377D01*
X165504122Y-91529515D01*
X165536025Y-91438707D01*
X165567263Y-91348733D01*
X165596511Y-91263374D01*
X165622444Y-91186410D01*
X165643737Y-91121622D01*
X165659067Y-91072790D01*
X165667107Y-91043695D01*
X165667992Y-91038245D01*
X165662400Y-91005748D01*
X165647281Y-90963313D01*
X165638429Y-90944412D01*
X165613072Y-90903365D01*
X165584761Y-90869581D01*
X165574219Y-90860502D01*
X165553902Y-90851881D01*
X165512568Y-90838821D01*
X165454463Y-90822353D01*
X165383829Y-90803506D01*
X165304911Y-90783312D01*
X165221952Y-90762801D01*
X165139197Y-90743003D01*
X165060888Y-90724949D01*
X164991271Y-90709669D01*
X164934588Y-90698194D01*
X164895083Y-90691555D01*
X164877001Y-90690782D01*
X164876518Y-90691083D01*
X162542419Y-90691083D01*
X162542590Y-90690883D01*
X162579367Y-90653314D01*
X162720816Y-90522911D01*
X162866039Y-90411253D01*
X163019159Y-90316176D01*
X163184301Y-90235514D01*
X163365587Y-90167103D01*
X163567140Y-90108778D01*
X163658067Y-90086941D01*
X163695241Y-90078480D01*
X163695241Y-89673460D01*
X162951760Y-89673460D01*
X162951760Y-89241252D01*
X162901796Y-89220376D01*
X162817125Y-89172232D01*
X162753992Y-89108177D01*
X162713271Y-89029513D01*
X162695839Y-88937541D01*
X162695402Y-88920647D01*
X162821107Y-88920647D01*
X162823605Y-88942900D01*
X162847708Y-89009428D01*
X162888678Y-89059168D01*
X162941503Y-89091213D01*
X163001170Y-89104656D01*
X163062666Y-89098589D01*
X163120979Y-89072106D01*
X163171096Y-89024300D01*
X163182439Y-89007830D01*
X163202510Y-88952871D01*
X163203791Y-88889294D01*
X163186885Y-88827321D01*
X163170025Y-88797581D01*
X163123865Y-88754253D01*
X163063730Y-88727598D01*
X162999221Y-88721056D01*
X162970034Y-88725931D01*
X162909231Y-88754482D01*
X162861378Y-88800548D01*
X162830620Y-88857985D01*
X162821107Y-88920647D01*
X162695402Y-88920647D01*
X162695218Y-88913531D01*
X162707405Y-88818145D01*
X162741690Y-88736452D01*
X162795727Y-88670803D01*
X162867170Y-88623546D01*
X162953673Y-88597032D01*
X163016261Y-88592034D01*
X163108200Y-88604494D01*
X163189550Y-88640052D01*
X163256809Y-88695972D01*
X163306473Y-88769521D01*
X163330783Y-88837535D01*
X163340164Y-88929982D01*
X163324306Y-89016937D01*
X163284919Y-89095076D01*
X163223713Y-89161075D01*
X163142398Y-89211609D01*
X163137182Y-89213960D01*
X163072523Y-89242552D01*
X163076351Y-89387037D01*
X163080180Y-89531523D01*
X163455299Y-89535116D01*
X163830419Y-89538709D01*
X163830419Y-90061626D01*
X163910385Y-90069984D01*
X163965862Y-90078160D01*
X164020160Y-90089917D01*
X164045564Y-90097364D01*
X164100776Y-90116386D01*
X164100776Y-88606817D01*
X164043325Y-88579939D01*
X163994273Y-88554724D01*
X163958963Y-88528834D01*
X163926291Y-88493217D01*
X163907952Y-88469563D01*
X163867260Y-88393857D01*
X163848996Y-88307434D01*
X163850603Y-88279928D01*
X163985874Y-88279928D01*
X163987260Y-88327493D01*
X163994089Y-88358839D01*
X164010370Y-88384745D01*
X164034332Y-88410237D01*
X164094517Y-88453612D01*
X164160271Y-88471822D01*
X164227179Y-88464797D01*
X164290832Y-88432463D01*
X164311880Y-88414820D01*
X164347025Y-88364554D01*
X164363440Y-88302546D01*
X164360280Y-88237328D01*
X164336696Y-88177435D01*
X164335603Y-88175715D01*
X164291316Y-88130561D01*
X164230268Y-88101474D01*
X164164462Y-88091925D01*
X164123553Y-88094410D01*
X164092506Y-88105250D01*
X164059942Y-88129409D01*
X164042802Y-88144975D01*
X164011057Y-88176251D01*
X163994041Y-88201506D01*
X163987173Y-88231596D01*
X163985875Y-88277377D01*
X163985874Y-88279928D01*
X163850603Y-88279928D01*
X163854323Y-88216276D01*
X163856564Y-88205476D01*
X163870423Y-88157744D01*
X163891289Y-88118256D01*
X163925218Y-88076693D01*
X163943286Y-88057706D01*
X164018293Y-87997622D01*
X164099854Y-87963500D01*
X164186305Y-87955653D01*
X164275980Y-87974394D01*
X164310855Y-87988691D01*
X164389178Y-88038495D01*
X164446014Y-88104489D01*
X164480753Y-88185688D01*
X164492788Y-88281106D01*
X164492793Y-88283209D01*
X164480936Y-88377532D01*
X164446098Y-88458498D01*
X164389379Y-88524398D01*
X164311880Y-88573524D01*
X164303642Y-88577185D01*
X164235954Y-88606303D01*
X164235954Y-89930645D01*
X164712458Y-89927092D01*
X165188961Y-89923540D01*
X165192596Y-89615426D01*
X165196230Y-89307312D01*
X165145283Y-89286290D01*
X165060899Y-89238636D01*
X164995982Y-89175147D01*
X164952252Y-89099228D01*
X164931428Y-89014284D01*
X164933034Y-88976031D01*
X165062811Y-88976031D01*
X165066089Y-89016143D01*
X165089620Y-89079328D01*
X165130079Y-89126385D01*
X165182251Y-89156693D01*
X165240921Y-89169637D01*
X165300872Y-89164595D01*
X165356890Y-89140951D01*
X165403759Y-89098085D01*
X165427146Y-89058965D01*
X165446363Y-89008649D01*
X165450111Y-88967906D01*
X165438209Y-88924454D01*
X165424710Y-88894506D01*
X165386337Y-88842241D01*
X165332671Y-88804409D01*
X165271627Y-88785368D01*
X165227387Y-88785769D01*
X165162214Y-88808950D01*
X165110550Y-88851973D01*
X165076160Y-88909459D01*
X165062811Y-88976031D01*
X164933034Y-88976031D01*
X164935231Y-88923721D01*
X164943837Y-88887353D01*
X164981784Y-88800404D01*
X165038107Y-88732752D01*
X165110929Y-88685780D01*
X165198375Y-88660874D01*
X165255727Y-88657088D01*
X165350354Y-88669863D01*
X165432462Y-88706391D01*
X165500504Y-88765716D01*
X165548542Y-88838018D01*
X165570448Y-88906499D01*
X165575474Y-88985895D01*
X165563985Y-89066302D01*
X165537555Y-89135622D01*
X165495350Y-89194071D01*
X165439876Y-89244549D01*
X165379849Y-89279810D01*
X165353250Y-89288889D01*
X165317380Y-89297892D01*
X165317380Y-90065477D01*
X164235954Y-90065477D01*
X164235954Y-90173373D01*
X164367753Y-90239475D01*
X164502927Y-90302176D01*
X164626664Y-90349268D01*
X164735669Y-90379575D01*
X164783426Y-90388040D01*
X164864533Y-90399102D01*
X164749632Y-90455136D01*
X164698589Y-90480895D01*
X164671497Y-90496845D01*
X164667390Y-90503666D01*
X164682042Y-90502653D01*
X164757095Y-90483907D01*
X164842831Y-90453934D01*
X164934069Y-90415415D01*
X165025626Y-90371035D01*
X165112318Y-90323477D01*
X165188965Y-90275424D01*
X165250383Y-90229559D01*
X165291388Y-90188566D01*
X165293114Y-90186282D01*
X165323817Y-90152027D01*
X165353343Y-90140589D01*
X165390637Y-90149885D01*
X165410011Y-90159085D01*
X165435161Y-90172996D01*
X165479817Y-90198810D01*
X165540390Y-90234375D01*
X165613291Y-90277540D01*
X165694929Y-90326156D01*
X165781716Y-90378070D01*
X165870061Y-90431133D01*
X165956375Y-90483194D01*
X166037068Y-90532102D01*
X166108551Y-90575707D01*
X166167233Y-90611857D01*
X166201052Y-90633017D01*
X166293931Y-90691784D01*
X166287497Y-90787545D01*
X166278887Y-90875601D01*
X166264165Y-90947807D01*
X166240155Y-91011451D01*
X166203681Y-91073827D01*
X166151567Y-91142223D01*
X166113586Y-91186768D01*
X166069527Y-91237564D01*
X166032711Y-91280795D01*
X166006403Y-91312566D01*
X165993871Y-91328980D01*
X165993272Y-91330254D01*
X166005571Y-91332945D01*
X166037651Y-91334128D01*
X166077758Y-91333652D01*
X166162245Y-91331152D01*
X166088977Y-91326107D01*
X166015710Y-91321063D01*
X166129232Y-91206947D01*
X166242755Y-91092832D01*
X166551018Y-91092832D01*
X166671996Y-91093363D01*
X166768666Y-91095970D01*
X166843749Y-91102175D01*
X166899968Y-91113500D01*
X166940043Y-91131467D01*
X166966697Y-91157599D01*
X166982652Y-91193417D01*
X166990629Y-91240444D01*
X166993349Y-91300200D01*
X166993591Y-91340326D01*
X166993591Y-91467503D01*
X166827998Y-91484078D01*
X166764344Y-91490723D01*
X166711351Y-91496776D01*
X166674323Y-91501592D01*
X166658562Y-91504530D01*
X166658400Y-91504640D01*
X166667725Y-91508978D01*
X166700180Y-91514648D01*
X166751919Y-91521154D01*
X166819100Y-91528003D01*
X166882069Y-91533450D01*
X166993591Y-91542411D01*
X166993591Y-91819786D01*
X166949658Y-91827418D01*
X166915114Y-91832173D01*
X166863665Y-91837813D01*
X166805370Y-91843252D01*
X166794470Y-91844163D01*
X166744477Y-91849439D01*
X166707738Y-91855599D01*
X166690079Y-91861571D01*
X166689506Y-91863455D01*
X166704942Y-91869017D01*
X166740829Y-91875204D01*
X166790631Y-91880989D01*
X166814279Y-91883064D01*
X166886704Y-91888489D01*
X166936577Y-91894054D01*
X166968069Y-91904018D01*
X166985347Y-91922636D01*
X166992582Y-91954164D01*
X166993943Y-92002859D01*
X166993591Y-92066116D01*
X166993952Y-92134258D01*
X166992256Y-92181337D01*
X166984333Y-92211609D01*
X166966015Y-92229331D01*
X166933131Y-92238758D01*
X166881513Y-92244147D01*
X166814279Y-92249167D01*
X166760560Y-92254473D01*
X166717994Y-92260616D01*
X166693116Y-92266567D01*
X166689506Y-92268776D01*
X166698936Y-92274422D01*
X166729527Y-92280637D01*
X166775453Y-92286352D01*
X166794470Y-92288068D01*
X166852928Y-92293348D01*
X166906431Y-92299033D01*
X166944920Y-92304037D01*
X166949658Y-92304813D01*
X166993591Y-92312445D01*
X166993591Y-92589820D01*
X166882069Y-92598781D01*
X166805216Y-92605544D01*
X166740695Y-92612365D01*
X166692352Y-92618749D01*
X166664030Y-92624202D01*
X166658400Y-92627591D01*
X166672599Y-92630384D01*
X166708408Y-92635099D01*
X166760526Y-92641090D01*
X166823649Y-92647717D01*
X166827998Y-92648154D01*
X166993591Y-92664729D01*
X166993541Y-92794613D01*
X166992341Y-92861587D01*
X166988128Y-92908383D01*
X166979885Y-92941784D01*
X166967778Y-92966665D01*
X166952359Y-92988345D01*
X166933461Y-93005279D01*
X166907771Y-93018040D01*
X166871972Y-93027204D01*
X166822749Y-93033347D01*
X166756788Y-93037043D01*
X166670774Y-93038867D01*
X166561391Y-93039396D01*
X166548567Y-93039399D01*
X166242755Y-93039399D01*
X166129232Y-92925284D01*
G37*
X138735000Y-75564564D02*
X138735000Y-75110436D01*
X137265000Y-75564564D02*
X137265000Y-75110436D01*
X141500000Y-85872267D02*
X140850000Y-85872267D01*
X141500000Y-88992267D02*
X143175000Y-88992267D01*
X141500000Y-88992267D02*
X140850000Y-88992267D01*
X141500000Y-85872267D02*
X142150000Y-85872267D01*
%LPC*%
D14*
X114725000Y-102641666D03*
X114725000Y-87641666D03*
D15*
X120975000Y-102641666D03*
D16*
X122225000Y-100141666D03*
X119725000Y-95141666D03*
X122225000Y-90141666D03*
D15*
X120975000Y-87641666D03*
D16*
X124725000Y-95141666D03*
D17*
X109725000Y-98891666D03*
X109725000Y-91391666D03*
D18*
X152587500Y-85270000D03*
X154412500Y-85270000D03*
D19*
X145000000Y-81442724D03*
X145000000Y-79617724D03*
X145000000Y-94450000D03*
X145000000Y-92625000D03*
D20*
X133000000Y-80190000D03*
D21*
X133000000Y-82730000D03*
X133000000Y-85270000D03*
X133000000Y-87810000D03*
D14*
X114725000Y-65358333D03*
X114725000Y-80358333D03*
D15*
X120975000Y-80358333D03*
D16*
X122225000Y-77858333D03*
X119725000Y-72858333D03*
X122225000Y-67858333D03*
D15*
X120975000Y-65358333D03*
D16*
X124725000Y-72858333D03*
D17*
X109725000Y-69108333D03*
X109725000Y-76608333D03*
D22*
X168500000Y-108500000D03*
D19*
X138000000Y-95400000D03*
X138000000Y-93575000D03*
D18*
X152587500Y-87810000D03*
X154412500Y-87810000D03*
D22*
X110500000Y-108500000D03*
D20*
X160000000Y-80190000D03*
D21*
X157460000Y-80190000D03*
X160000000Y-82730000D03*
X157460000Y-82730000D03*
X160000000Y-85270000D03*
X157460000Y-85270000D03*
X160000000Y-87810000D03*
X157460000Y-87810000D03*
D23*
X142437500Y-81517724D03*
X142437500Y-79617724D03*
X140562500Y-80567724D03*
D19*
X138000000Y-82392724D03*
X138000000Y-80567724D03*
X138000000Y-89257267D03*
X138000000Y-87432267D03*
D24*
X153400000Y-94550000D03*
X129600000Y-73450000D03*
X153400000Y-73450000D03*
X129600000Y-94550000D03*
D25*
X137800000Y-68972500D03*
X137800000Y-67072500D03*
D23*
X142437500Y-94525000D03*
X142437500Y-92625000D03*
X140562500Y-93575000D03*
X142437500Y-75375000D03*
X142437500Y-73475000D03*
X140562500Y-74425000D03*
D19*
X145000000Y-75300000D03*
X145000000Y-73475000D03*
X145000000Y-88307267D03*
X145000000Y-86482267D03*
D22*
X110500000Y-59500000D03*
D26*
X135810000Y-64022500D03*
X134540000Y-64022500D03*
X133270000Y-64022500D03*
X132000000Y-64022500D03*
X130730000Y-64022500D03*
X129460000Y-64022500D03*
X128190000Y-64022500D03*
X128190000Y-68972500D03*
X129460000Y-68972500D03*
X130730000Y-68972500D03*
X132000000Y-68972500D03*
X133270000Y-68972500D03*
X134540000Y-68972500D03*
X135810000Y-68972500D03*
D22*
X168500000Y-59500000D03*
D19*
X138000000Y-76250000D03*
X138000000Y-74425000D03*
D23*
X142437500Y-88382267D03*
X142437500Y-86482267D03*
X140562500Y-87432267D03*
D20*
X115370000Y-60770000D03*
D21*
X115370000Y-58230000D03*
X117910000Y-60770000D03*
X117910000Y-58230000D03*
X120450000Y-60770000D03*
X120450000Y-58230000D03*
X122990000Y-60770000D03*
X122990000Y-58230000D03*
X125530000Y-60770000D03*
X125530000Y-58230000D03*
X128070000Y-60770000D03*
X128070000Y-58230000D03*
X130610000Y-60770000D03*
X130610000Y-58230000D03*
X133150000Y-60770000D03*
X133150000Y-58230000D03*
X135690000Y-60770000D03*
X135690000Y-58230000D03*
X138230000Y-60770000D03*
X138230000Y-58230000D03*
X140770000Y-60770000D03*
X140770000Y-58230000D03*
X143310000Y-60770000D03*
X143310000Y-58230000D03*
X145850000Y-60770000D03*
X145850000Y-58230000D03*
X148390000Y-60770000D03*
X148390000Y-58230000D03*
X150930000Y-60770000D03*
X150930000Y-58230000D03*
X153470000Y-60770000D03*
X153470000Y-58230000D03*
X156010000Y-60770000D03*
X156010000Y-58230000D03*
X158550000Y-60770000D03*
X158550000Y-58230000D03*
X161090000Y-60770000D03*
X161090000Y-58230000D03*
X163630000Y-60770000D03*
X163630000Y-58230000D03*
M02*
